<?xml version="1.0" encoding="utf-8"?>
<!-- Generator: Adobe Illustrator 19.1.0, SVG Export Plug-In . SVG Version: 6.00 Build 0)  -->
<svg version="1.1" id="Layer_1" xmlns="http://www.w3.org/2000/svg" xmlns:xlink="http://www.w3.org/1999/xlink" x="0px" y="0px"
	 viewBox="0 0 266 53" style="enable-background:new 0 0 266 53;" xml:space="preserve">
<style type="text/css">
	.st0{fill:#1D1D1D;}
	.st1{fill:#EFEFEF;}
</style>
<g>
	<path class="st0" d="M240.2,52H25.8C11.8,52,0.4,40.6,0.4,26.5v0C0.4,12.4,11.8,1,25.8,1h214.3c14.1,0,25.5,11.4,25.5,25.5v0
		C265.6,40.6,254.2,52,240.2,52z"/>
	<g>
		<path class="st1" d="M179.2,14.3c-1.1,0.9-0.7,2.6,0.7,2.9c1.3,0.3,2.3-1.1,1.7-2.4C181.2,14,179.9,13.8,179.2,14.3z"/>
		<path class="st1" d="M82.9,24.9c0-4.4-0.1-4.9-0.9-5.9c-0.3-0.3-0.8-0.7-1.1-0.8c-0.7-0.3-2.4-0.4-3.2-0.3
			c-0.9,0.2-1.6,0.6-2.2,1.2c-0.5,0.6-0.9,1.4-0.8,1.8c0.1,0.2,1.5,0.5,2.1,0.5c0.1,0,0.3-0.2,0.4-0.5c0.4-0.9,1.4-1.3,2.2-0.9
			c0.4,0.2,0.7,0.9,0.7,1.5v0.5l-1.2,0c-1.6,0-2.6,0.4-3.5,1.3c-0.7,0.7-1,1.4-1,2.6c0,1,0.3,1.8,1,2.4c0.7,0.6,1.3,0.8,2.3,0.7
			c0.9-0.1,1.6-0.4,2.1-1.2c0.4-0.5,0.5-0.5,0.6,0.4l0.1,0.5l0.9,0.1C83,28.9,82.9,29.4,82.9,24.9z M80,24.4c0,1.8-0.5,2.6-1.5,2.6
			c-0.8,0-1.2-0.5-1.3-1.4c-0.1-1.2,0.9-2.2,2.3-2.2H80V24.4z"/>
		<path class="st1" d="M87.2,28.5l0.1-3.4c0.1-4,0.1-4.3,1-4.7c0.4-0.2,0.6-0.1,1,0c0.9,0.3,1,0.3,1,4.5l0,3.6h1.3
			c1,0,1.3,0.1,1.4-0.1c0-0.1,0.1-1.6,0.1-3.5c0-2.6,0-3.4,0.2-3.8c0.4-1,1.9-1.1,2.4-0.1c0.2,0.4,0.2,1,0.3,4.1
			c0,3.2,0.1,3.7,0.3,3.7c0.1,0,0.7,0,1.4,0l1.1-0.1l0-3.2c0-3.7-0.1-5.1-0.6-6.1c-0.6-1.3-1.8-1.9-3.2-1.6
			c-0.7,0.1-0.9,0.3-1.5,0.9c-0.4,0.4-0.7,0.8-0.7,0.8c0,0.3-0.2,0.1-0.5-0.4c-0.6-1.1-2.1-1.6-3.3-1.2c-0.6,0.2-1.2,0.7-1.5,1.2
			c-0.3,0.5-0.3,0.6-0.5-0.3l-0.1-0.5h-1.1h-1.1l0,5l0,5h1.3H87.2z"/>
		<path class="st1" d="M100.5,24.1c-0.8,1.5-0.4,3.6,0.9,4.5c0.7,0.5,2,0.7,2.9,0.3c0.6-0.2,1.5-1,1.5-1.3c0-0.1,0.1-0.1,0.1-0.1
			c0.1,0,0.2,0.2,0.3,0.5l0.1,0.5h1.2h1.6v-3.7c0-4.3-0.2-4.6-1-5.6c-0.8-1-2.8-1.6-4.5-1.3c-0.9,0.2-1.6,0.6-2.2,1.1
			c-0.5,0.5-1,1.6-0.9,1.9c0.1,0.1,1.5,0.4,2,0.4c0.2,0,0.3-0.1,0.5-0.5c0.1-0.3,0.3-0.6,0.6-0.8c1-0.6,2.1-0.1,2.3,1.2l0.1,0.7
			l-1.2,0C102.7,22.1,101.2,22.8,100.5,24.1z M105.9,23.5l-0.1,1.1c-0.1,1.2-0.3,1.8-0.8,2.2c-0.4,0.3-1.2,0.3-1.6,0
			c-0.6-0.4-0.7-1.6-0.2-2.4c0.3-0.5,1.2-0.9,2-0.9H105.9z"/>
		<path class="st1" d="M122.2,17.9c-0.9,0.2-1.5,0.6-2.2,1.3c-2.2,2.3-2.1,6.4,0.1,8.6c2,2,5.3,1.5,6.8-0.9c1.5-2.6,1.1-6.3-1-8.1
			C124.9,18,123.4,17.7,122.2,17.9z M123.2,26.9c-0.5,0-0.7-0.1-1-0.5c-0.6-0.6-0.7-1.3-0.7-2.9c0-2,0.4-3,1.3-3.4
			c0.4-0.2,1.1,0,1.5,0.3c0.6,0.5,0.8,1.5,0.8,2.9C125,25.7,124.4,26.9,123.2,26.9z"/>
		<path class="st1" d="M136,18.1c-0.5-0.3-1.6-0.4-2.1-0.2c-0.6,0.2-1.3,0.7-1.6,1.2c-0.3,0.5-0.5,0.6-0.5,0.2
			c0-0.1-0.1-0.5-0.2-0.8l-0.1-0.5l-1.3,0l-1.3,0v5.3v5.3l1.5,0l1.4,0l0.1-3.6c0-3.3,0.1-3.6,0.3-4.1c0.4-0.7,1.2-1,1.8-0.7
			c0.2,0.1,0.5,0.4,0.7,0.6c0.3,0.4,0.3,0.4,0.3,3.9l0,3.5h1.3h1.4v-3.6c0-3.6-0.1-4-0.3-4.8C137.4,19.2,136.7,18.5,136,18.1z"/>
		<path class="st1" d="M154.3,17.9c-0.8,0.1-1.2,0.4-2,1.2l-0.6,0.7l-0.2-0.4c-0.4-0.9-1.6-1.6-2.6-1.6c-0.2,0-0.6,0.1-0.9,0.2
			c-0.5,0.2-1,0.6-1.5,1.3l-0.2,0.3l-0.1-0.4c-0.2-0.9-0.2-0.8-1.4-0.8H144v5v5h1h1.3l0.1-3.5c0.1-3.4,0.1-3.6,0.4-4
			c0.6-0.9,1.6-0.9,2.2-0.1c0.3,0.4,0.3,0.6,0.4,4.1l0.1,3.7l1.2,0.1c0.7,0,1.3,0,1.4-0.1c0.1-0.1,0.2-1,0.2-3.7
			c0-3.4,0.1-3.6,0.3-4c0.6-0.9,1.6-0.9,2.2-0.1c0.3,0.4,0.3,0.5,0.4,4l0.1,3.6h1.3h1.3l0-3.4c0-3.7-0.1-4.7-0.5-5.7
			C156.7,18.3,155.5,17.7,154.3,17.9z"/>
		<path class="st1" d="M174.2,22.3c-0.6-0.2-1.3-0.4-1.6-0.5c-1-0.5-0.5-1.7,0.7-1.7c0.5,0,0.7,0.1,1,0.4c0.2,0.2,0.4,0.5,0.4,0.6
			c0,0.3,0.2,0.4,1.1,0.2c1.6-0.2,1.6-0.3,1.1-1.5c-0.7-1.6-3-2.4-5-1.8c-1.6,0.5-2.5,1.6-2.5,3.2c0,0.9,0.4,1.8,1,2.2
			c0.6,0.4,1,0.6,2.6,1c0.7,0.2,1.4,0.4,1.5,0.6c0.6,0.6,0.3,1.6-0.5,1.9c-1,0.3-1.9-0.2-2.2-1.3c-0.1-0.3-0.2-0.6-0.3-0.6
			c-0.2-0.1-2,0.2-2.2,0.4c-0.3,0.2,0.3,1.8,0.9,2.5c1,1.1,3.2,1.5,4.8,0.9c1.6-0.6,2.4-1.7,2.4-3.2c0-1.1-0.1-1.5-0.6-2.1
			C176.3,23,175.7,22.6,174.2,22.3z"/>
		<path class="st1" d="M190.7,24.9c-1.4-0.2-1.4-0.2-1.6,0.5c-0.3,1-0.8,1.4-1.6,1.4c-1.1,0-1.7-1.2-1.7-3.4c0-1.6,0.3-2.6,0.9-3.1
			c0.5-0.4,1.2-0.5,1.6-0.1c0.3,0.2,0.9,1.2,0.9,1.5c0,0.4,0.3,0.5,1.4,0.3c1.1-0.2,1.1-0.2,1.1-0.6c0-1.1-1.3-2.7-2.5-3.2
			c-0.9-0.4-2.1-0.4-2.9-0.1c-1.9,0.7-3.2,2.5-3.3,4.9c-0.2,2.7,1.1,5.2,3.1,5.9c1.6,0.6,3.6,0.1,4.7-1.2c0.5-0.6,0.9-1.5,0.9-2.2
			C191.7,25.1,191.6,25.1,190.7,24.9z"/>
		<path class="st1" d="M117.6,26.7c-0.5-0.3-1.8-0.6-2.9-0.7c-0.6,0-1.1,0-1.1-0.1s1.1-1.3,2.2-2.8l2.2-2.8v-1.1v-0.7h-4.1
			c-2.9,0-3.7-0.2-3.7,0c0,0.8,0,1.7,0.1,1.8c0.1,0.1,1,0.1,2.2,0.1l2.1,0l-2.3,3.1l-2.3,3.1v1.1c0,0.8,0.1,1.1,0.2,1.1
			c0.1,0,0.7-0.1,1.3-0.3c1.5-0.4,3.4-0.4,4.9,0c1.5,0.4,1.5,0.4,1.5-0.7C117.9,27,117.9,26.9,117.6,26.7z"/>
		<path class="st1" d="M165,18.5v2.8c0,1.8,0.1,3.5,0,3.9c-0.2,1.1-1.1,1.7-2.1,1.3c-0.7-0.3-0.7-0.5-0.8-4.5l-0.1-3.8l-1.3,0
			c-1,0-1.3,0-1.4,0.2c0,0.1-0.1,2,0,4.2l0,4l0.5,0.9c0.6,1.2,1.2,1.7,2.4,1.7c1.1,0.1,2-0.3,2.5-1.2c0.3-0.4,0.4-0.6,0.5-0.5
			c0,0.1,0.1,0.4,0.2,0.8l0.1,0.6l1.2,0l1.2,0v-5.4v-5h-1.4H165z"/>
		<path class="st1" d="M180.2,18.1c-0.7,0-1.2,0-1.2,0.1c-0.1,0,0,2.5,0,5.4v5.3l1.3,0l1.3,0l0-5c0-2.8,0-5.2-0.1-5.3
			C181.5,18.1,181.4,18.1,180.2,18.1z"/>
		<path class="st1" d="M113.2,29.8c-1,0.2-2.5,0.9-2.8,1.3c-0.2,0.3-0.2,0.4,0,0.6c0.2,0.1,0.4,0.2,0.6,0.1c0.2,0,0.8-0.1,1.5-0.2
			c1.8-0.2,2.9,0,2.9,0.6c0,0.4-0.4,1.6-1.1,2.8c-0.5,1.1-0.6,1.3-0.5,1.5c0.3,0.4,0.5,0.3,1.4-0.6c1-0.9,1.4-1.6,1.8-2.8
			c0.4-1.2,0.3-2.3-0.1-2.7C116.4,29.9,114.6,29.6,113.2,29.8z"/>
		<path class="st1" d="M113.1,32.9c-0.1,0-0.8,0.3-1.7,0.7c-4,1.8-8.2,2.5-13.2,2.3c-6.3-0.2-11.1-1.8-15.4-5
			c-0.7-0.5-1.3-0.7-1.4-0.3c-0.2,0.4,0.4,1.2,1.8,2.7c2.8,2.8,6,4.4,10.2,5.3c1.3,0.3,1.8,0.3,5.2,0.3c4.2,0,5.1-0.1,7.9-1.1
			c3.7-1.2,7.5-3.9,6.8-4.8C113.3,33,113.2,32.9,113.1,32.9z"/>
	</g>
</g>
</svg>
