<?xml version="1.0" encoding="utf-8"?>
<!-- Generator: Adobe Illustrator 19.1.0, SVG Export Plug-In . SVG Version: 6.00 Build 0)  -->
<svg version="1.1" id="Layer_1" xmlns="http://www.w3.org/2000/svg" xmlns:xlink="http://www.w3.org/1999/xlink" x="0px" y="0px"
	 viewBox="0 0 266 53" style="enable-background:new 0 0 266 53;" xml:space="preserve">
<style type="text/css">
	.st0{fill:#1D1D1D;}
	.st1{fill:#EFEFEF;}
</style>
<g>
	<path class="st0" d="M240.2,52H25.8C11.8,52,0.4,40.6,0.4,26.5v0C0.4,12.4,11.8,1,25.8,1h214.3c14.1,0,25.5,11.4,25.5,25.5v0
		C265.6,40.6,254.2,52,240.2,52z"/>
	<g>
		<g id="_Group__3_">
			<g id="_Group_2_3_">
				<path id="_Compound_Path__3_" class="st1" d="M111.6,32.8h-4.2l-1,3h-1.8l4-11.1h1.9l4,11.1h-1.8L111.6,32.8z M107.8,31.4h3.4
					l-1.7-4.9h0L107.8,31.4z"/>
				<path id="_Compound_Path_2_3_" class="st1" d="M123.1,31.8c0,2.5-1.3,4.1-3.4,4.1c-1.1,0.1-2-0.5-2.6-1.4h0v4h-1.7V27.7h1.6V29
					h0c0.5-0.9,1.5-1.5,2.6-1.4C121.8,27.6,123.1,29.2,123.1,31.8z M121.4,31.8c0-1.6-0.8-2.7-2.1-2.7c-1.3,0-2.1,1.1-2.1,2.7
					c0,1.6,0.9,2.7,2.1,2.7C120.6,34.5,121.4,33.4,121.4,31.8L121.4,31.8z"/>
				<path id="_Compound_Path_3_3_" class="st1" d="M132.1,31.8c0,2.5-1.3,4.1-3.4,4.1c-1.1,0.1-2-0.5-2.6-1.4h0v4h-1.7V27.7h1.6V29
					h0c0.5-0.9,1.5-1.5,2.6-1.4C130.7,27.6,132.1,29.2,132.1,31.8z M130.3,31.8c0-1.6-0.8-2.7-2.1-2.7c-1.3,0-2.1,1.1-2.1,2.7
					c0,1.6,0.9,2.7,2.1,2.7C129.5,34.5,130.3,33.4,130.3,31.8z"/>
				<path id="_Compound_Path_4_3_" class="st1" d="M133.4,24.7h1.7v11.1h-1.7V24.7z"/>
				<path id="_Compound_Path_5_3_" class="st1" d="M143.7,33.4c-0.2,1.5-1.7,2.5-3.5,2.5c-2.4,0-3.8-1.6-3.8-4.1
					c0-2.5,1.5-4.2,3.8-4.2c2.2,0,3.7,1.5,3.7,4v0.6h-5.7v0.1c-0.1,1.2,0.8,2.2,1.9,2.3c0.1,0,0.2,0,0.3,0c0.8,0.1,1.6-0.4,1.9-1.1
					H143.7L143.7,33.4z M138.1,31h4.1c0.1-1.1-0.8-2-1.8-2.1c-0.1,0-0.1,0-0.2,0C139,28.9,138.1,29.9,138.1,31
					C138.1,31,138.1,31,138.1,31z"/>
				<path id="_Compound_Path_6_3_" class="st1" d="M158.2,35.8v-8.2h-0.1l-3.4,8.1h-1.3l-3.4-8.1h-0.1v8.2h-1.6V24.7h2l3.6,8.8h0.1
					l3.6-8.8h2v11.1H158.2z"/>
				<path id="_Compound_Path_7_3_" class="st1" d="M168.6,35.8H167v-1.4h0c-0.4,1-1.4,1.6-2.5,1.5c-1.5,0.1-2.8-1.1-2.9-2.5
					c0-0.2,0-0.3,0-0.5v-5.2h1.7v4.9c-0.2,0.9,0.4,1.7,1.3,1.9c0.1,0,0.3,0,0.4,0c1,0,1.9-0.8,1.9-1.8c0-0.1,0-0.2,0-0.3v-4.7h1.7
					L168.6,35.8L168.6,35.8z"/>
				<path id="_Compound_Path_8_3_" class="st1" d="M173.4,27.6c1.8,0,3.1,1,3.1,2.4h-1.6c-0.1-0.8-0.8-1.3-1.6-1.2l0,0
					c-0.9,0-1.5,0.4-1.5,1c0,0.5,0.4,0.8,1.2,1l1.4,0.3c1.6,0.4,2.3,1,2.3,2.2c0,1.5-1.4,2.5-3.4,2.5c-1.9,0-3.2-1-3.3-2.5h1.7
					c0.2,0.8,0.9,1.3,1.8,1.2c1,0,1.6-0.4,1.6-1.1c0-0.5-0.3-0.8-1.2-1l-1.4-0.4c-1.5-0.4-2.2-1.1-2.2-2.2
					C170.2,28.6,171.5,27.6,173.4,27.6z"/>
				<path id="_Compound_Path_9_3_" class="st1" d="M178,25.6c0-0.5,0.4-1,0.9-1c0.5,0,1,0.4,1,0.9c0,0.5-0.4,1-0.9,1c0,0,0,0,0,0
					C178.4,26.5,178,26.1,178,25.6C178,25.6,178,25.6,178,25.6z M178.1,27.7h1.7v8.1h-1.7V27.7z"/>
				<path id="_Compound_Path_10_3_" class="st1" d="M187,30.5c-0.2-0.9-1-1.6-1.9-1.5c-1.3,0-2.1,1.1-2.1,2.8c0,1.7,0.9,2.8,2.1,2.8
					c0.9,0.1,1.7-0.5,1.9-1.5h1.6c-0.2,1.7-1.8,3-3.5,2.8c-2.3,0-3.8-1.6-3.8-4.2c0-2.5,1.5-4.2,3.8-4.2c1.8-0.1,3.3,1.1,3.5,2.9
					H187z"/>
			</g>
			<path id="_Compound_Path_11_3_" class="st1" d="M99.5,17.5c-0.6-1.3-1.7-2.3-3-2.7c-0.9-0.2-1.8-0.3-2.7-0.3H83.6
				c-0.9,0-1.8,0.1-2.7,0.3c-1.4,0.4-2.5,1.4-3,2.7c-0.3,1-0.5,2.1-0.4,3.2v10.1c0,1.1,0.1,2.2,0.4,3.2c0.6,1.3,1.7,2.3,3,2.7
				c0.9,0.2,1.8,0.3,2.7,0.3h10.1c0.9,0,1.8-0.1,2.7-0.3c1.4-0.4,2.5-1.4,3-2.7c0.3-1,0.5-2.1,0.4-3.2V20.7
				C100,19.6,99.9,18.5,99.5,17.5z M93.9,30c-0.1,0.3-0.2,0.5-0.3,0.8c-0.2,0.2-0.4,0.4-0.6,0.6c-0.2,0.1-0.5,0.2-0.8,0.3
				c-0.4,0.1-0.8,0.1-1.2,0.1c-0.3-0.1-0.6-0.2-0.8-0.4c-0.7-0.6-0.8-1.8-0.1-2.5c0,0,0,0,0,0c0.2-0.2,0.5-0.4,0.7-0.5
				c0.4-0.1,0.8-0.2,1.2-0.3c0.1,0,0.3-0.1,0.4-0.1c0.2,0,0.4-0.1,0.5-0.2c0.1-0.2,0.2-0.4,0.1-0.6l0-5c0-0.4-0.2-0.5-0.5-0.4
				c-0.3,0.1-5.8,1.2-5.8,1.2c-0.3,0-0.5,0.2-0.4,0.5c0,0,0,0.1,0,0.1l0,7.3c0,0.3,0,0.6-0.1,0.8c-0.1,0.3-0.2,0.5-0.3,0.8
				c-0.2,0.2-0.4,0.4-0.6,0.6c-0.2,0.1-0.5,0.2-0.8,0.3c-0.4,0.1-0.8,0.1-1.2,0.1c-0.3-0.1-0.6-0.2-0.8-0.4
				c-0.7-0.7-0.8-1.8-0.1-2.5c0.2-0.2,0.5-0.4,0.7-0.5c0.4-0.1,0.8-0.2,1.2-0.3c0.1,0,0.3-0.1,0.4-0.1c0.2,0,0.4-0.1,0.5-0.2
				c0.1-0.2,0.2-0.4,0.1-0.6v-8.4c0-0.1,0-0.2,0-0.2c0-0.2,0.1-0.3,0.2-0.4c0.1-0.1,0.3-0.2,0.4-0.2l0,0l6.7-1.4
				c0.1,0,0.5-0.1,0.6-0.1c0.3,0,0.5,0.2,0.6,0.4c0,0.1,0,0.1,0,0.2l0,10.6C94,29.5,93.9,29.7,93.9,30L93.9,30z"/>
		</g>
		<g>
			<path class="st1" d="M108.5,21.3h-3.4v-5.4h0.8v4.6h2.5L108.5,21.3L108.5,21.3z"/>
			<path class="st1" d="M109.5,16c0-0.3,0.2-0.5,0.5-0.6s0.5,0.2,0.6,0.5s-0.2,0.5-0.5,0.6c0,0,0,0,0,0
				C109.7,16.5,109.5,16.3,109.5,16C109.5,16,109.5,16,109.5,16z M109.6,17.2h0.8v4.1h-0.8V17.2z"/>
			<path class="st1" d="M113.2,17.1c0.8-0.1,1.5,0.4,1.6,1.1H114c-0.1-0.3-0.5-0.5-0.8-0.5c-0.4-0.1-0.7,0.2-0.8,0.5
				c0,0.2,0.2,0.4,0.6,0.5l0.7,0.2c0.6,0,1.1,0.5,1.1,1.1c-0.1,0.8-0.8,1.4-1.6,1.3c0,0,0,0-0.1,0c-0.8,0.1-1.5-0.4-1.7-1.2h0.8
				c0.1,0.4,0.5,0.6,0.9,0.5c0.4,0.1,0.8-0.2,0.9-0.6c0-0.3-0.3-0.5-0.6-0.5l-0.7-0.2c-0.6,0-1.1-0.5-1.1-1.1
				C111.7,17.6,112.3,17,113.2,17.1C113.1,17.1,113.1,17.1,113.2,17.1z"/>
			<path class="st1" d="M117,16.2v1h0.9v0.7H117V20c-0.1,0.3,0.1,0.6,0.4,0.6c0.1,0,0.1,0,0.2,0c0.1,0,0.2,0,0.3,0v0.7
				c-0.1,0-0.3,0-0.4,0c-0.9,0-1.3-0.3-1.3-1.1v-2.3h-0.6v-0.7h0.6v-1H117z"/>
			<path class="st1" d="M122.4,20.2c-0.2,0.8-1,1.3-1.8,1.2c-1,0-1.9-0.8-1.9-1.8c0-0.1,0-0.2,0-0.3c-0.1-1,0.6-2,1.6-2.1
				c0.1,0,0.2,0,0.3,0c1,0,1.8,0.8,1.8,1.8c0,0.1,0,0.2,0,0.3v0.3h-2.9v0c-0.1,0.6,0.4,1.1,1,1.2c0,0,0.1,0,0.1,0
				c0.4,0,0.8-0.1,1-0.5H122.4z M119.5,18.8h2.1c0-0.5-0.4-1-0.9-1.1c0,0-0.1,0-0.1,0C120,17.8,119.5,18.2,119.5,18.8
				C119.5,18.8,119.5,18.8,119.5,18.8z"/>
			<path class="st1" d="M123.5,17.2h0.8v0.7h0.1c0.2-0.5,0.7-0.8,1.2-0.7c0.7-0.1,1.4,0.5,1.4,1.2c0,0.1,0,0.2,0,0.3v2.6h-0.8v-2.4
				c0.1-0.4-0.2-0.9-0.6-1c-0.1,0-0.2,0-0.2,0c-0.5,0-1,0.4-1,0.9c0,0,0,0.1,0,0.1v2.4h-0.8V17.2z"/>
			<path class="st1" d="M130.2,19.2c-0.1-1.1,0.7-2,1.7-2.1c1.1-0.1,2,0.7,2.1,1.7c0,0.1,0,0.2,0,0.4c0.1,1.1-0.7,2-1.7,2.1
				c-1.1,0.1-2-0.7-2.1-1.7C130.2,19.5,130.2,19.3,130.2,19.2z M133.3,19.2c0-0.9-0.4-1.4-1.1-1.4c-0.7,0-1.1,0.5-1.1,1.4
				c0,0.9,0.4,1.4,1.1,1.4C132.9,20.6,133.3,20.1,133.3,19.2z"/>
			<path class="st1" d="M135.2,17.2h0.8v0.7h0.1c0.2-0.5,0.7-0.8,1.2-0.7c0.7-0.1,1.4,0.5,1.4,1.2c0,0.1,0,0.2,0,0.3v2.6h-0.8v-2.4
				c0.1-0.4-0.2-0.9-0.6-1c-0.1,0-0.2,0-0.2,0c-0.5,0-1,0.4-1,0.9c0,0,0,0.1,0,0.1v2.4h-0.8V17.2z"/>
		</g>
	</g>
</g>
</svg>
