<?xml version="1.0" encoding="utf-8"?>
<!-- Generator: Adobe Illustrator 19.1.0, SVG Export Plug-In . SVG Version: 6.00 Build 0)  -->
<svg version="1.1" id="Layer_1" xmlns="http://www.w3.org/2000/svg" xmlns:xlink="http://www.w3.org/1999/xlink" x="0px" y="0px"
	 viewBox="0 0 266 53" style="enable-background:new 0 0 266 53;" xml:space="preserve">
<style type="text/css">
	.st0{fill:#1D1D1D;}
	.st1{fill:#FFFFFF;}
</style>
<g>
	<path class="st0" d="M240.2,52H25.8C11.8,52,0.4,40.6,0.4,26.5v0C0.4,12.4,11.8,1,25.8,1h214.3c14.1,0,25.5,11.4,25.5,25.5v0
		C265.6,40.6,254.2,52,240.2,52z"/>
	<g>
		<g>
			<g id="XMLID_153_">
				<g id="XMLID_154_">
					<path id="XMLID_169_" class="st1" d="M152.3,22c2.5,0,4.5,2,4.5,4.5s-2,4.5-4.5,4.5c-2.5,0-4.5-2-4.5-4.5S149.8,22,152.3,22
						 M152.3,19c-4.1,0-7.5,3.4-7.5,7.5s3.4,7.5,7.5,7.5c4.1,0,7.5-3.4,7.5-7.5S156.4,19,152.3,19L152.3,19z"/>
					<path id="XMLID_166_" class="st1" d="M105.9,19.5v1.2c-1.3-1.1-2.9-1.7-4.7-1.7c-4.1,0-7.5,3.4-7.5,7.5c0,4.1,3.4,7.5,7.5,7.5
						c1.8,0,3.4-0.6,4.7-1.7v1.2h2.8v-14H105.9z M101.4,31.2c-2.6,0-4.7-2.1-4.7-4.7s2.1-4.7,4.7-4.7c2.6,0,4.7,2.1,4.7,4.7
						S103.9,31.2,101.4,31.2z"/>
					<path id="XMLID_163_" class="st1" d="M182.1,19.5v1.2c-1.3-1.1-2.9-1.7-4.7-1.7c-4.1,0-7.5,3.4-7.5,7.5c0,4.1,3.4,7.5,7.5,7.5
						c1.8,0,3.4-0.6,4.7-1.7v1.2h2.8v-14H182.1z M177.5,31.2c-2.6,0-4.7-2.1-4.7-4.7s2.1-4.7,4.7-4.7c2.6,0,4.7,2.1,4.7,4.7
						S180.1,31.2,177.5,31.2z"/>
					<path id="XMLID_162_" class="st1" d="M164.7,20.4c-1.6,1-3,2.8-3,6.1v7.1h3v-7.1h0c0-4.7,4.8-4.4,4.8-4.4v-3v0
						C169.5,19,166.9,19,164.7,20.4z"/>
					<path id="XMLID_161_" class="st1" d="M122.9,20.5c-1.3-0.9-2.8-1.5-4.5-1.5c-1.7,0-3.2,0.6-4.5,1.5c-1.8,1.4-3,3.5-3,6v7h3v-1
						v-6c0-2.5,2-4.5,4.5-4.5c2.5,0,4.5,2,4.5,4.5v6v1h3v-7C125.9,24.1,124.7,21.9,122.9,20.5z"/>
					<path id="XMLID_158_" class="st1" d="M141.5,15c-0.8,0-1.4,0.6-1.4,1.4v4.3c-1.3-1.1-2.9-1.7-4.7-1.7c-4.1,0-7.5,3.4-7.5,7.5
						c0,4.1,3.4,7.5,7.5,7.5c1.8,0,3.4-0.6,4.7-1.7v1.2h2.8V16.4V15H141.5z M135.5,31.2c-2.6,0-4.7-2.1-4.7-4.7
						c0-2.6,2.1-4.7,4.7-4.7c2.6,0,4.7,2.1,4.7,4.7C140.2,29.1,138.1,31.2,135.5,31.2z"/>
					<path id="XMLID_155_" class="st1" d="M84.5,19c-1.8,0-3.4,0.6-4.7,1.7v-1.2H77v17.1V38h1.4c0.8,0,1.4-0.6,1.4-1.4v-4.3
						c1.3,1.1,2.9,1.7,4.7,1.7c4.1,0,7.5-3.4,7.5-7.5C92,22.4,88.6,19,84.5,19z M84.3,31.2c-2.6,0-4.7-2.1-4.7-4.7
						c0-2.6,2.1-4.7,4.7-4.7c2.6,0,4.7,2.1,4.7,4.7C89,29.1,86.9,31.2,84.3,31.2z"/>
				</g>
			</g>
			<g>
				<path class="st1" d="M187.6,19.5c-0.8,0-1.4-0.6-1.4-1.4c0-0.8,0.6-1.4,1.4-1.4c0.8,0,1.4,0.6,1.4,1.4
					C189,18.9,188.4,19.5,187.6,19.5z M187.6,16.9c-0.7,0-1.2,0.5-1.2,1.2c0,0.7,0.5,1.2,1.2,1.2c0.7,0,1.2-0.5,1.2-1.2
					C188.8,17.4,188.3,16.9,187.6,16.9z M188,18.9l-0.4-0.6h-0.3v0.6h-0.2v-1.6h0.6c0.3,0,0.5,0.2,0.5,0.5c0,0.4-0.3,0.5-0.4,0.5
					l0.4,0.6H188z M187.7,17.5h-0.5v0.6h0.5c0.1,0,0.3-0.1,0.3-0.3C188,17.6,187.9,17.5,187.7,17.5z"/>
			</g>
		</g>
	</g>
</g>
</svg>
