<?xml version="1.0" encoding="utf-8"?>
<!-- Generator: Adobe Illustrator 19.1.0, SVG Export Plug-In . SVG Version: 6.00 Build 0)  -->
<svg version="1.1" id="Layer_1" xmlns="http://www.w3.org/2000/svg" xmlns:xlink="http://www.w3.org/1999/xlink" x="0px" y="0px"
	 viewBox="-328.8 353.5 580 85" style="enable-background:new -328.8 353.5 580 85;" xml:space="preserve">
<style type="text/css">
	.st0{fill:#1D1D1D;}
	.st1{fill:#FFFFFF;}
	.st2{fill:#EFEFEF;}
</style>
<g>
	<path class="st0" d="M208.8,435.9h-495.1c-22,0-39.9-17.9-39.9-39.9v0c0-22,17.9-39.9,39.9-39.9h495.1c22,0,39.9,17.9,39.9,39.9v0
		C248.7,418,230.8,435.9,208.8,435.9z"/>
	<g>
		<g>
			<path class="st1" d="M-201.9,383.3c7,0,11,3.5,11,9.6c0,6.4-4,10.1-11,10.1h-5.5v7.9h-6.2v-27.6H-201.9z M-207.4,397.8h5.2
				c3.5,0,5.4-1.6,5.4-4.7c0-3.1-2-4.6-5.4-4.6h-5.2V397.8z"/>
			<path class="st1" d="M-174.3,403h-0.6h-5.8v7.9h-6.2v-27.6h12c7.2,0,11.3,3.5,11.3,9.6c0,4.3-1.8,7.3-5.2,8.9l5.9,9.1h-7.1
				L-174.3,403z M-174.8,397.8c3.4,0,5.4-1.6,5.4-4.7c0-3.1-2-4.6-5.4-4.6h-5.8v9.3H-174.8z"/>
			<path class="st1" d="M-152,388.4v6h13.3v5.2H-152v6.1h15.2v5.2h-21.5v-27.6h21v5.2H-152z"/>
			<path class="st1" d="M-123.2,400.8v-4h10.2v4H-123.2z"/>
			<path class="st1" d="M-77.7,386l-2.4,5.2c-2.9-1.7-6.4-2.8-8.6-2.8c-2.1,0-3.5,0.7-3.5,2.2c0,5.1,14.7,2.2,14.7,12.2
				c0,5.4-4.7,8.3-10.8,8.3c-4.5,0-9.1-1.7-12.2-4.4l2.5-5.1c2.8,2.5,6.9,4.1,9.8,4.1c2.6,0,4.1-0.9,4.1-2.6c0-5.2-14.7-2.2-14.7-12
				c0-5,4.3-8.2,10.7-8.2C-84.3,383-80.4,384.2-77.7,386z"/>
			<path class="st1" d="M-67.8,405.5l-2.2,5.4h-6.4l12-27.6h6.4l11.8,27.6h-6.7l-2.2-5.4H-67.8z M-61.4,389.8l-4.4,10.7h8.7
				L-61.4,389.8z"/>
			<path class="st1" d="M-37.6,410.9l-10.8-27.6h6.7l7.5,20.8l7.6-20.8h6.4l-11,27.6H-37.6z"/>
			<path class="st1" d="M-10.9,388.4v6H2.4v5.2h-13.3v6.1H4.3v5.2h-21.5v-27.6h21v5.2H-10.9z"/>
		</g>
		<path class="st2" d="M74.9,395.7c0.1,11.6-9.5,21.2-21.5,20.9c-11.2-0.3-20.6-9.5-20.3-21.5c0.3-11.2,9.6-20.7,21.5-20.4
			C65.9,375.1,75,384.3,74.9,395.7z M48.2,386.5c-0.5,0-0.9,0.1-1.4,0.1c-1.7,0.1-3.4,0.3-5.1,0.6c-0.3,0.1-0.7,0.1-1,0.3
			c-0.9,0.5-1.3,1.5-1,2.4c0.3,0.9,1.3,1.5,2.3,1.3c2.3-0.5,4.7-0.7,7.1-0.7c1.2,0,2.5,0,3.7,0.2c2.8,0.3,5.6,0.8,8.3,1.7
			c1.9,0.6,3.8,1.4,5.7,2.4c1,0.5,2.1,0.1,2.6-0.9c0.5-1,0.2-2.1-0.8-2.7c-0.6-0.3-1.2-0.6-1.8-0.9c-3.1-1.4-6.4-2.5-9.8-3.1
			c-2.4-0.4-4.8-0.7-7.2-0.7C49.3,386.5,48.7,386.4,48.2,386.5z M49.5,393.7c-0.8,0-1.7,0-2.5,0.1c-1.6,0.1-3.2,0.4-4.7,0.7
			c-0.9,0.2-1.4,1-1.3,1.8c0.1,0.8,0.9,1.4,1.7,1.4c0.4,0,0.7-0.1,1.1-0.2c1.8-0.3,3.6-0.5,5.4-0.5c1.2,0,2.3,0,3.5,0.2
			c2.2,0.2,4.4,0.7,6.5,1.4c1.8,0.6,3.5,1.3,5.2,2.2c0.8,0.4,1.8,0.1,2.2-0.7c0.4-0.8,0.1-1.7-0.7-2.2c-2-1.1-4-1.9-6.1-2.6
			C56.3,394.2,52.9,393.7,49.5,393.7z M49.7,400.2c-1.1,0-2,0-2.8,0.1c-1.3,0.1-2.5,0.3-3.8,0.6c-0.7,0.2-1.2,0.8-1,1.5
			c0.2,0.7,0.8,1.1,1.5,0.9c1.9-0.4,3.7-0.7,5.7-0.7c0.9,0,1.7,0,2.6,0.1c2.1,0.2,4.2,0.7,6.2,1.4c1.4,0.5,2.7,1.1,4,1.8
			c0.2,0.1,0.4,0.2,0.6,0.2c0.6,0,1.1-0.4,1.2-1c0.1-0.5-0.1-1.1-0.6-1.4c-1.7-0.9-3.4-1.7-5.2-2.3
			C55.2,400.6,52.4,400.2,49.7,400.2z"/>
		<path id="_Compound_Path_11_2_" class="st2" d="M138.4,383c-0.9-2.1-2.6-3.6-4.7-4.3c-1.4-0.3-2.8-0.5-4.3-0.4h-15.9
			c-1.4-0.1-2.9,0.1-4.3,0.4c-2.1,0.6-3.9,2.2-4.7,4.3c-0.5,1.6-0.8,3.3-0.7,5v15.9c-0.1,1.7,0.2,3.4,0.7,5c0.9,2.1,2.6,3.6,4.7,4.3
			c1.4,0.3,2.8,0.5,4.3,0.4h15.9c1.4,0.1,2.9-0.1,4.3-0.4c2.1-0.6,3.9-2.2,4.7-4.3c0.5-1.6,0.8-3.3,0.7-5v-15.9
			C139.2,386.4,138.9,384.7,138.4,383z M129.6,402.6c-0.1,0.4-0.3,0.8-0.5,1.2c-0.3,0.4-0.6,0.7-1,0.9c-0.4,0.2-0.8,0.4-1.2,0.4
			c-0.6,0.2-1.3,0.2-1.9,0.1c-0.5-0.1-0.9-0.3-1.3-0.6c-1.1-1-1.2-2.8-0.2-3.9c0,0,0,0,0.1-0.1c0.3-0.3,0.7-0.6,1.1-0.7
			c0.6-0.2,1.3-0.4,1.9-0.5c0.2,0,0.5-0.1,0.7-0.1c0.3,0,0.6-0.2,0.8-0.4c0.2-0.3,0.2-0.6,0.2-0.9l0-7.8c0-0.6-0.3-0.8-0.8-0.6
			c-0.4,0.1-9.1,1.8-9.1,1.8c-0.4,0-0.7,0.4-0.7,0.8c0,0,0,0.1,0,0.1l0,11.4c0,0.4,0,0.9-0.1,1.3c-0.1,0.4-0.3,0.8-0.5,1.2
			c-0.3,0.4-0.6,0.7-1,0.9c-0.4,0.2-0.8,0.4-1.2,0.5c-0.6,0.2-1.3,0.2-1.9,0.1c-0.5-0.1-0.9-0.3-1.3-0.7c-1.1-1.1-1.2-2.8-0.1-3.9
			c0.3-0.3,0.7-0.6,1.1-0.7c0.6-0.2,1.3-0.4,1.9-0.5c0.2,0,0.5-0.1,0.7-0.1c0.3,0,0.6-0.2,0.8-0.4c0.2-0.3,0.3-0.6,0.2-0.9v-13.1
			c0-0.1,0-0.2,0-0.4c0-0.3,0.2-0.5,0.4-0.7c0.2-0.2,0.4-0.3,0.7-0.3l0,0l10.5-2.1c0.1,0,0.8-0.2,0.9-0.2c0.4-0.1,0.8,0.3,0.9,0.7
			c0,0.1,0,0.2,0,0.2l0,16.7C129.7,401.8,129.6,402.2,129.6,402.6L129.6,402.6z"/>
	</g>
</g>
</svg>
