<?xml version="1.0" encoding="utf-8"?>
<!-- Generator: Adobe Illustrator 19.1.0, SVG Export Plug-In . SVG Version: 6.00 Build 0)  -->
<svg version="1.1" id="Layer_1" xmlns="http://www.w3.org/2000/svg" xmlns:xlink="http://www.w3.org/1999/xlink" x="0px" y="0px"
	 viewBox="0 0 266 53" style="enable-background:new 0 0 266 53;" xml:space="preserve">
<style type="text/css">
	.st0{fill:#1D1D1D;}
	.st1{fill:#EFEFEF;}
</style>
<g>
	<path class="st0" d="M240.2,52H25.8C11.8,52,0.4,40.6,0.4,26.5v0C0.4,12.4,11.8,1,25.8,1h214.3c14.1,0,25.5,11.4,25.5,25.5v0
		C265.6,40.6,254.2,52,240.2,52z"/>
	<g>
		<path class="st1" d="M110.9,26.5c0,7.4-6.1,13.6-13.7,13.4c-7.1-0.2-13.1-6.1-13-13.7c0.2-7.2,6.1-13.2,13.7-13
			C105.1,13.4,110.9,19.2,110.9,26.5z M93.9,20.6c-0.3,0-0.6,0-0.9,0.1c-1.1,0.1-2.2,0.2-3.2,0.4c-0.2,0-0.4,0.1-0.6,0.2
			c-0.6,0.3-0.8,0.9-0.6,1.5c0.2,0.6,0.8,0.9,1.4,0.8c1.5-0.3,3-0.5,4.5-0.5c0.8,0,1.6,0,2.4,0.1c1.8,0.2,3.6,0.5,5.3,1.1
			c1.2,0.4,2.4,0.9,3.6,1.5c0.6,0.3,1.4,0.1,1.7-0.5c0.3-0.6,0.1-1.4-0.5-1.7c-0.4-0.2-0.8-0.4-1.1-0.6c-2-0.9-4.1-1.6-6.3-2
			c-1.5-0.3-3.1-0.4-4.6-0.4C94.5,20.6,94.2,20.6,93.9,20.6z M94.7,25.2c-0.5,0-1.1,0-1.6,0.1c-1,0.1-2,0.2-3,0.4
			c-0.5,0.1-0.9,0.6-0.8,1.2c0.1,0.5,0.5,0.9,1.1,0.9c0.2,0,0.5-0.1,0.7-0.1c1.1-0.2,2.3-0.3,3.4-0.3c0.7,0,1.5,0,2.2,0.1
			c1.4,0.1,2.8,0.4,4.2,0.9c1.1,0.4,2.2,0.9,3.3,1.4c0.5,0.3,1.1,0.1,1.4-0.4c0.3-0.5,0.1-1.1-0.4-1.4c-1.3-0.7-2.6-1.2-3.9-1.6
			C99,25.5,96.9,25.2,94.7,25.2z M94.8,29.3c-0.7,0-1.2,0-1.8,0.1c-0.8,0.1-1.6,0.2-2.4,0.4c-0.4,0.1-0.7,0.5-0.6,0.9
			c0.1,0.4,0.5,0.7,1,0.6c1.2-0.3,2.4-0.4,3.6-0.4c0.6,0,1.1,0,1.7,0.1c1.3,0.1,2.7,0.4,3.9,0.9c0.9,0.3,1.7,0.7,2.5,1.2
			c0.1,0.1,0.3,0.1,0.4,0.1c0.4,0,0.7-0.3,0.8-0.6c0.1-0.3-0.1-0.7-0.4-0.9c-1.1-0.6-2.2-1.1-3.3-1.4C98.3,29.6,96.5,29.3,94.8,29.3
			z"/>
		<path class="st1" d="M173,29.6c0.2-0.4,0.4-0.9,0.5-1.3c0.5-1.2,1-2.4,1.5-3.6c0.2-0.4,0.3-0.8,0.5-1.2c0-0.1,0.1-0.2,0.2-0.2
			c0.8,0,1.6,0,2.4,0c0.2,0,0.2,0,0.2,0.2c-0.7,1.6-1.4,3.2-2.1,4.8c-0.6,1.4-1.3,2.8-1.9,4.3c-0.5,1.1-1,2.2-1.5,3.4
			c-0.1,0.1-0.1,0.2-0.3,0.2c-0.9,0-1.7,0-2.6,0c-0.2,0-0.2-0.1-0.2-0.2c0.5-1.2,1.1-2.4,1.6-3.5c0-0.1,0-0.1,0-0.2
			c-0.6-1.4-1.3-2.8-1.9-4.1c-0.4-0.8-0.7-1.6-1.1-2.4c0-0.1-0.1-0.1-0.2-0.1c-0.6,0-1.3,0-1.9,0c-0.1,0-0.1,0-0.1,0.1
			c0,2.4,0,4.8,0,7.2c0,0.2,0,0.2-0.2,0.2c-0.8,0-1.6,0-2.3,0c-0.2,0-0.2,0-0.2-0.2c0-2.4,0-4.8,0-7.2c0-0.1,0-0.2-0.2-0.2
			c-0.5,0-1,0-1.4,0c-0.2,0-0.2,0-0.2-0.2c0-0.6,0-1.2,0-1.8c0-0.2,0-0.2,0.2-0.2c0.5,0,1,0,1.4,0c0.1,0,0.2,0,0.2-0.2
			c0-0.5,0-1,0.1-1.5c0.2-1.2,0.8-2.1,2-2.5c0.8-0.3,1.6-0.3,2.4,0c0.2,0.1,0.4,0.1,0.6,0.2c0.1,0,0.1,0.1,0.2,0.2
			c0.3,0.7,0.6,1.4,0.9,2c0,0.1,0.1,0.1,0,0.2c-0.1,0-0.1,0-0.2,0c-0.4-0.2-0.8-0.4-1.3-0.5c-0.5-0.1-1,0-1.4,0.3
			c-0.3,0.3-0.5,0.6-0.5,1c0,0.2,0,0.4,0,0.7c0,0.1,0,0.2,0.1,0.2c1.3,0,2.6,0,3.8,0c0.1,0,0.2,0,0.3,0.2c0.5,1.2,1,2.4,1.5,3.7
			C172.4,28,172.7,28.8,173,29.6z"/>
		<path class="st1" d="M130.2,25.4c0.3-0.4,0.6-0.8,0.9-1.2c0.7-0.7,1.5-1,2.5-1c1,0,1.9,0.3,2.7,0.9c0.8,0.6,1.3,1.5,1.5,2.5
			c0.4,1.4,0.3,2.8-0.3,4.1c-0.5,1.3-1.5,2.2-2.8,2.6c-1.3,0.3-2.6,0.1-3.6-0.8c-0.3-0.3-0.6-0.7-0.9-1.1c0-0.1-0.1-0.1-0.1-0.2
			c0,0.1,0,0.1,0,0.1c0,1.6,0,3.1,0,4.7c0,0.2,0,0.3-0.3,0.3c-0.7,0-1.5,0-2.2,0c-0.2,0-0.3,0-0.3-0.3c0-4.1,0-8.3,0-12.4
			c0-0.2,0-0.2,0.2-0.2c0.8,0,1.5,0,2.3,0c0.2,0,0.2,0,0.2,0.2C130.2,24.3,130.2,24.8,130.2,25.4z M135.3,28.3c0-0.4,0-0.7-0.1-1
			c-0.2-0.6-0.5-1.1-1.1-1.4c-0.9-0.5-2.1-0.3-2.9,0.6c-0.5,0.5-0.8,1.1-1,1.7c0,0.1,0,0.1,0,0.2c0.3,0.7,0.6,1.4,1.2,1.9
			c0.5,0.5,1.1,0.8,1.8,0.7c0.6,0,1.2-0.3,1.6-0.8C135.2,29.7,135.3,29,135.3,28.3z"/>
		<path class="st1" d="M116.4,30.2c0-0.4,0-0.9,0-1.3c0-0.1,0-0.1,0.1-0.2c0.1,0,0.1,0,0.2,0.1c1.2,1.3,2.7,2,4.4,2.2
			c0.6,0.1,1.2,0,1.8-0.2c0.6-0.3,0.9-0.8,0.9-1.5c0-0.6-0.4-0.9-0.8-1.1c-0.5-0.3-1.1-0.4-1.7-0.6c-0.9-0.2-1.8-0.5-2.6-0.9
			c-0.6-0.3-1.2-0.7-1.6-1.2c-0.4-0.5-0.5-1.1-0.6-1.7c-0.1-0.9,0.2-1.8,0.7-2.5c0.5-0.7,1.2-1.1,2.1-1.4c0.9-0.3,1.9-0.4,2.9-0.4
			c1,0.1,2,0.3,2.9,0.7c0.3,0.1,0.5,0.3,0.8,0.5c0.1,0.1,0.1,0.2,0.1,0.3c0,0.8,0,1.6,0,2.4c0,0.1,0,0.2-0.1,0.2
			c-0.1,0-0.2,0-0.2-0.1c-0.9-0.7-1.9-1.2-3.1-1.4c-0.8-0.1-1.6-0.1-2.3,0.2c-0.4,0.2-0.7,0.4-0.9,0.8c-0.2,0.6-0.1,1,0.6,1.3
			c0.5,0.2,1,0.4,1.5,0.5c0.9,0.3,1.8,0.5,2.7,0.9c0.7,0.3,1.3,0.7,1.8,1.3c0.4,0.5,0.6,1.1,0.7,1.8c0,0.7-0.1,1.4-0.4,2
			c-0.4,0.8-1,1.4-1.7,1.8c-0.8,0.4-1.6,0.6-2.5,0.7c-1.4,0.1-2.7-0.2-4-0.7c-0.5-0.2-1-0.5-1.4-0.9c-0.1-0.1-0.1-0.2-0.1-0.3
			C116.5,31.1,116.4,30.6,116.4,30.2z"/>
		<path class="st1" d="M144.2,23.2c1,0,1.9,0.2,2.7,0.6c1.4,0.7,2.3,1.8,2.6,3.3c0.4,1.7,0.1,3.3-1.1,4.6c-0.8,1-1.9,1.5-3.2,1.7
			c-1,0.2-2,0.1-2.9-0.2c-1.7-0.6-2.9-1.8-3.3-3.6c-0.3-1.4-0.1-2.8,0.7-4.1c0.7-1.1,1.7-1.7,2.9-2.1
			C143.2,23.3,143.7,23.2,144.2,23.2z M144.3,31.1c0.9,0,1.7-0.4,2.2-1.2c0.3-0.5,0.4-1.1,0.4-1.7c0-0.6-0.2-1.2-0.6-1.6
			c-0.6-0.7-1.4-1-2.3-0.9c-0.8,0.1-1.4,0.5-1.8,1.2c-0.3,0.5-0.5,1.1-0.4,1.8C141.8,30,142.9,31.1,144.3,31.1z"/>
		<path class="st1" d="M151.6,28c0-0.7,0-1.4,0-2.2c0-0.1,0-0.1-0.1-0.1c-0.5,0-1,0-1.5,0c-0.2,0-0.2,0-0.2-0.2c0-0.3,0-0.7,0-1
			c0-0.1,0-0.2,0.1-0.3c1.4-1.1,2.8-2.2,4.2-3.3c0.1-0.1,0.1-0.2,0.3-0.1c0.1,0.1,0.1,0.2,0.1,0.3c0,0.8,0,1.5,0,2.3
			c0,0.1,0,0.1,0.1,0.1c0.7,0,1.5,0,2.2,0c0.2,0,0.2,0,0.2,0.2c0,0.6,0,1.2,0,1.8c0,0.2,0,0.2-0.2,0.2c-0.7,0-1.5,0-2.2,0
			c-0.1,0-0.2,0-0.2,0.1c0,1.3,0,2.5,0,3.8c0,0.4,0.1,0.8,0.4,1.1c0.2,0.2,0.5,0.3,0.9,0.4c0.4,0,0.8-0.1,1.2-0.3
			c0.2-0.1,0.2-0.1,0.2,0.1c0,0.6,0,1.2,0,1.8c0,0.1,0,0.2-0.2,0.3c-0.5,0.2-1,0.4-1.5,0.4c-0.7,0.1-1.3,0-2-0.2
			c-0.8-0.3-1.3-0.9-1.6-1.8c-0.1-0.5-0.2-0.9-0.2-1.4C151.6,29.3,151.6,28.6,151.6,28z"/>
		<path class="st1" d="M157.9,28.3c0-1.6,0-3.1,0-4.7c0-0.2,0-0.2,0.2-0.2c0.8,0,1.6,0,2.4,0c0.2,0,0.2,0,0.2,0.2c0,0.6,0,1.2,0,1.8
			c0,2.5,0,5,0,7.5c0,0.3,0,0.3-0.3,0.3c-0.8,0-1.5,0-2.3,0c-0.2,0-0.2,0-0.2-0.2C157.9,31.4,157.9,29.9,157.9,28.3z"/>
		<path class="st1" d="M160.9,20.5c0,0.8-0.6,1.5-1.4,1.5c-0.5,0.1-1,0-1.4-0.4c-0.7-0.6-0.7-1.8,0.1-2.4c0.7-0.5,1.7-0.5,2.3,0.2
			C160.8,19.7,160.9,20.1,160.9,20.5z"/>
		<path class="st1" d="M178.8,24.8c0-0.7,0.5-1.5,1.5-1.5c0.9,0,1.5,0.6,1.5,1.5c0,0.9-0.6,1.5-1.5,1.5
			C179.4,26.2,178.7,25.6,178.8,24.8z M181.5,24.8c0-0.7-0.5-1.2-1.2-1.2c-0.7,0-1.2,0.5-1.2,1.2c0,0.7,0.5,1.2,1.2,1.2
			C181,26,181.5,25.5,181.5,24.8z"/>
		<path class="st1" d="M181,25.4C181,25.4,181,25.4,181,25.4c-0.3,0.1-0.5,0-0.6-0.2c0-0.1-0.1-0.2-0.2-0.2c0-0.1-0.1,0-0.2,0
			c-0.1,0,0,0.1,0,0.1c0,0.1,0,0.2,0,0.3c0,0.1,0,0.1-0.1,0.1c0,0-0.1,0-0.1,0c-0.1,0-0.1,0-0.1-0.1c0-0.4,0-0.8,0-1.2
			c0,0,0-0.1,0.1-0.1c0.3,0,0.5,0,0.8,0c0.2,0,0.3,0.2,0.4,0.3c0,0.2-0.1,0.3-0.3,0.4c-0.1,0-0.1,0,0,0.1
			C180.7,25.1,180.9,25.2,181,25.4z M180.2,24.3c-0.2,0-0.2,0-0.2,0.2c0,0,0,0,0,0.1c0,0,0,0,0,0c0.1,0,0.3,0,0.4,0
			c0.1,0,0.1-0.1,0.1-0.1c0-0.1,0-0.1-0.1-0.1C180.4,24.3,180.3,24.3,180.2,24.3z"/>
	</g>
</g>
</svg>
