<?xml version="1.0" encoding="utf-8"?>
<!-- Generator: Adobe Illustrator 19.1.0, SVG Export Plug-In . SVG Version: 6.00 Build 0)  -->
<svg version="1.1" id="Layer_1" xmlns="http://www.w3.org/2000/svg" xmlns:xlink="http://www.w3.org/1999/xlink" x="0px" y="0px"
	 viewBox="0 0 266 53" style="enable-background:new 0 0 266 53;" xml:space="preserve">
<style type="text/css">
	.st0{fill:#1D1D1D;}
	.st1{fill:#FFFFFF;}
</style>
<g>
	<path class="st0" d="M240.2,52H25.8C11.8,52,0.4,40.6,0.4,26.5v0C0.4,12.4,11.8,1,25.8,1h214.3c14.1,0,25.5,11.4,25.5,25.5v0
		C265.6,40.6,254.2,52,240.2,52z"/>
	<g>
		<g>
			<g>
				<path class="st1" d="M115.7,34.5h-3.3V23h-4.2v-2.8h11.7V23h-4.2V34.5z"/>
				<path class="st1" d="M133,34.5h-3.3V20.2h3.3V34.5z"/>
				<path class="st1" d="M190.7,31.7h5.7v2.8h-8.9V20.2h3.3V31.7z"/>
			</g>
			<path class="st1" d="M143.9,20.2h5.3c3.9,0,7.8,2.1,7.8,7.1c0,4.8-3.8,7.2-7.6,7.2l-5.5,0V20.2z M147,31.7h2
				c2.7,0,4.6-1.7,4.6-4.4c0-2.6-1.8-4.3-4.5-4.3H147V31.7z"/>
			<path class="st1" d="M175.1,34.5h3.6l-5.9-14.3h-3.4l-6,14.3h3.5l1.1-2.8h6L175.1,34.5z M168.9,29.2l2.2-5.6l2.1,5.6H168.9z"/>
		</g>
		<g>
			
				<rect x="79.2" y="19.3" transform="matrix(0.7071 -0.7071 0.7071 0.7071 8.3026 64.6506)" class="st1" width="5.9" height="5.9"/>
			
				<rect x="79.2" y="27.7" transform="matrix(0.7071 -0.7071 0.7071 0.7071 2.3686 67.1086)" class="st1" width="5.9" height="5.9"/>
			
				<rect x="70.8" y="19.3" transform="matrix(0.7071 -0.7071 0.7071 0.7071 5.8437 58.7156)" class="st1" width="5.9" height="5.9"/>
			
				<rect x="87.6" y="19.3" transform="matrix(0.7071 -0.7071 0.7071 0.7071 10.761 70.5855)" class="st1" width="5.9" height="5.9"/>
		</g>
	</g>
</g>
</svg>
