<?xml version="1.0" encoding="utf-8"?>
<!-- Generator: Adobe Illustrator 19.1.0, SVG Export Plug-In . SVG Version: 6.00 Build 0)  -->
<svg version="1.1" id="Layer_1" xmlns="http://www.w3.org/2000/svg" xmlns:xlink="http://www.w3.org/1999/xlink" x="0px" y="0px"
	 viewBox="0 0 266 53" style="enable-background:new 0 0 266 53;" xml:space="preserve">
<style type="text/css">
	.st0{fill:#1D1D1D;}
	.st1{fill:#EFEFEF;}
</style>
<g>
	<path class="st0" d="M240.2,52H25.8C11.8,52,0.4,40.6,0.4,26.5v0C0.4,12.4,11.8,1,25.8,1h214.3c14.1,0,25.5,11.4,25.5,25.5v0
		C265.6,40.6,254.2,52,240.2,52z"/>
	<g>
		<g>
			<g>
				<path class="st1" d="M129.6,34.9c-0.6-0.4-1-1-1.2-1.8c-0.2-0.8-0.4-1.9-0.4-3.3v-1.9c0-1.4,0.1-2.5,0.4-3.3
					c0.3-0.8,0.7-1.5,1.3-1.8c0.6-0.4,1.4-0.6,2.3-0.6c1,0,1.7,0.2,2.3,0.6c0.6,0.4,1,1,1.3,1.8c0.3,0.8,0.4,1.9,0.4,3.3v1.9
					c0,1.4-0.1,2.5-0.4,3.3c-0.3,0.8-0.7,1.4-1.3,1.8c-0.6,0.4-1.4,0.6-2.4,0.6C131,35.5,130.2,35.3,129.6,34.9z M132.8,32.9
					c0.2-0.4,0.2-1.1,0.2-2.1v-4c0-0.9-0.1-1.6-0.2-2c-0.2-0.4-0.4-0.6-0.9-0.6c-0.4,0-0.7,0.2-0.8,0.6c-0.2,0.4-0.2,1.1-0.2,2v4
					c0,1,0.1,1.6,0.2,2.1c0.2,0.4,0.4,0.6,0.8,0.6C132.4,33.5,132.7,33.3,132.8,32.9z"/>
				<path class="st1" d="M174.3,29.8v0.7c0,0.8,0,1.4,0.1,1.9c0,0.4,0.2,0.7,0.3,0.9c0.2,0.2,0.4,0.3,0.7,0.3c0.4,0,0.7-0.2,0.9-0.5
					c0.2-0.3,0.2-0.9,0.3-1.7l2.5,0.1c0,0.1,0,0.3,0,0.5c0,1.2-0.3,2.1-1,2.7c-0.7,0.6-1.6,0.9-2.8,0.9c-1.4,0-2.4-0.4-3-1.3
					c-0.6-0.9-0.9-2.3-0.9-4.2v-2.3c0-1.9,0.3-3.3,0.9-4.2c0.6-0.9,1.6-1.3,3.1-1.3c1,0,1.8,0.2,2.3,0.5c0.5,0.4,0.9,0.9,1.1,1.7
					c0.2,0.8,0.3,1.8,0.3,3.2v2.2H174.3z M174.6,24.4c-0.1,0.2-0.2,0.5-0.3,0.9c0,0.4-0.1,1-0.1,1.9v0.9h2.1v-0.9
					c0-0.8,0-1.5-0.1-1.9c-0.1-0.4-0.2-0.7-0.3-0.9c-0.1-0.2-0.4-0.3-0.7-0.3C175,24.1,174.8,24.2,174.6,24.4z"/>
				<path class="st1" d="M122.5,29.6l-3.3-11.9h2.9l1.2,5.4c0.3,1.3,0.5,2.5,0.7,3.4h0.1c0.1-0.7,0.3-1.8,0.7-3.4l1.2-5.4h2.9
					l-3.3,11.9v5.7h-2.9V29.6z"/>
				<path class="st1" d="M145.4,22.4v12.9h-2.3l-0.3-1.6h-0.1c-0.6,1.2-1.5,1.8-2.8,1.8c-0.9,0-1.5-0.3-1.9-0.8
					c-0.4-0.6-0.6-1.4-0.6-2.6v-9.6h2.9v9.5c0,0.6,0.1,1,0.2,1.2c0.1,0.2,0.3,0.4,0.6,0.4c0.3,0,0.5-0.1,0.7-0.2
					c0.2-0.2,0.4-0.4,0.5-0.6V22.4H145.4z"/>
				<path class="st1" d="M160.3,22.4v12.9H158l-0.3-1.6h-0.1c-0.6,1.2-1.5,1.8-2.8,1.8c-0.9,0-1.5-0.3-1.9-0.8
					c-0.4-0.6-0.6-1.4-0.6-2.6v-9.6h2.9v9.5c0,0.6,0.1,1,0.2,1.2c0.1,0.2,0.3,0.4,0.6,0.4c0.3,0,0.5-0.1,0.7-0.2
					c0.2-0.2,0.4-0.4,0.5-0.6V22.4H160.3z"/>
				<path class="st1" d="M153.3,20h-2.9v15.3h-2.8V20h-2.9v-2.3h8.6V20z"/>
				<path class="st1" d="M169.9,24.5c-0.2-0.8-0.5-1.4-0.9-1.8c-0.4-0.4-0.9-0.5-1.6-0.5c-0.5,0-1,0.2-1.5,0.5
					c-0.5,0.3-0.8,0.7-1.1,1.2h0l0-6.8H162v18.3h2.4l0.3-1.2h0.1c0.2,0.4,0.6,0.8,1,1c0.4,0.3,0.9,0.4,1.5,0.4c1,0,1.7-0.5,2.2-1.4
					c0.5-0.9,0.7-2.3,0.7-4.2v-2C170.1,26.4,170,25.3,169.9,24.5z M167.2,29.7c0,0.9,0,1.7-0.1,2.2c-0.1,0.5-0.2,0.9-0.4,1.1
					c-0.2,0.2-0.4,0.3-0.7,0.3c-0.2,0-0.5-0.1-0.7-0.2c-0.2-0.1-0.4-0.3-0.5-0.5v-7.3c0.1-0.4,0.3-0.6,0.5-0.9
					c0.2-0.2,0.5-0.3,0.8-0.3c0.3,0,0.5,0.1,0.7,0.3c0.2,0.2,0.3,0.6,0.3,1.2c0.1,0.5,0.1,1.3,0.1,2.3V29.7z"/>
			</g>
		</g>
		<path class="st1" d="M115.9,19.4c-0.3-1.3-1.3-2.3-2.6-2.6c-2.3-0.6-11.5-0.6-11.5-0.6s-9.2,0-11.5,0.6c-1.3,0.3-2.3,1.3-2.6,2.6
			c-0.6,2.3-0.6,7.1-0.6,7.1s0,4.8,0.6,7.1c0.3,1.3,1.3,2.3,2.6,2.6c2.3,0.6,11.5,0.6,11.5,0.6s9.2,0,11.5-0.6
			c1.3-0.3,2.3-1.3,2.6-2.6c0.6-2.3,0.6-7.1,0.6-7.1S116.5,21.7,115.9,19.4z M98,30.9v-8.8l7.6,4.4L98,30.9z"/>
	</g>
</g>
</svg>
