<?xml version="1.0" encoding="utf-8"?>
<!-- Generator: Adobe Illustrator 19.1.0, SVG Export Plug-In . SVG Version: 6.00 Build 0)  -->
<svg version="1.1" id="Layer_1" xmlns="http://www.w3.org/2000/svg" xmlns:xlink="http://www.w3.org/1999/xlink" x="0px" y="0px"
	 viewBox="0 0 64 64" style="enable-background:new 0 0 64 64;" xml:space="preserve">
<style type="text/css">
	.st0{fill:none;stroke:#FFFFFF;stroke-miterlimit:10;}
	.st1{fill:#FFFFFF;}
</style>
<g>
	<path class="st0" d="M32,62L32,62C15.4,62,2,48.6,2,32v0C2,15.4,15.4,2,32,2h0c16.6,0,30,13.4,30,30v0C62,48.6,48.6,62,32,62z"/>
	<g>
		<path class="st1" d="M20.8,31.8c0.8,0,1.3,0.4,1.6,1.2h0.1c0.5-0.8,1-1.2,1.7-1.2c1.2,0,1.9,1,1.9,2.6v3.8c0,0.1-0.1,0.2-0.2,0.2
			h-1.2c-0.1,0-0.2-0.1-0.2-0.2v-3.7c0-0.8-0.3-1.2-0.8-1.2c-0.6,0-0.9,0.5-0.9,1.4v3.5c0,0.1-0.1,0.2-0.2,0.2h-1.2
			c-0.1,0-0.2-0.1-0.2-0.2v-3.7c0-0.8-0.3-1.2-0.8-1.2c-0.6,0-0.9,0.5-0.9,1.4v3.5c0,0.1-0.1,0.2-0.2,0.2h-1.2
			c-0.1,0-0.2-0.1-0.2-0.2v-6.1c0-0.1,0.1-0.2,0.2-0.2h1c0.1,0,0.2,0.1,0.2,0.2l0.2,0.8h0.1C19.6,32.2,20.1,31.8,20.8,31.8z"/>
		<path class="st1" d="M32.2,32.1v6.1c0,0.1-0.1,0.2-0.2,0.2h-1c-0.1,0-0.2-0.1-0.2-0.2l-0.2-0.8h-0.1c-0.3,0.7-0.8,1.1-1.6,1.1
			c-1.2,0-1.9-1-1.9-2.5v-3.9c0-0.1,0.1-0.2,0.2-0.2h1.2c0.1,0,0.2,0.1,0.2,0.2v3.8c0,0.7,0.3,1.1,0.9,1.1c0.6,0,0.9-0.5,0.9-1.4
			v-3.5c0-0.1,0.1-0.2,0.2-0.2H32C32.1,31.9,32.2,32,32.2,32.1z"/>
		<path class="st1" d="M36.2,33.7c-0.1-0.4-0.4-0.7-0.8-0.7c-0.4,0-0.7,0.2-0.7,0.6c0,0.3,0.2,0.5,0.7,0.6l0.9,0.2
			c1.1,0.3,1.6,0.9,1.6,1.9c0,1.2-1,2.1-2.4,2.1c-1.3,0-2.3-0.7-2.5-2.1c0-0.1,0-0.2,0.2-0.2l1.1-0.2c0.1,0,0.2,0,0.2,0.2
			c0.1,0.7,0.5,1,1,1c0.5,0,0.8-0.3,0.8-0.7c0-0.4-0.2-0.6-0.7-0.7l-0.7-0.2c-1.4-0.3-1.8-1-1.8-1.9c0-1.3,1-2,2.3-2
			c1.3,0,2.1,0.7,2.4,1.7c0,0.1,0,0.2-0.2,0.2l-1.1,0.2C36.3,33.9,36.2,33.9,36.2,33.7z"/>
		<path class="st1" d="M39.4,29.5c0.5,0,1,0.4,1,1c0,0.6-0.4,1-1,1s-1-0.4-1-1C38.5,29.8,38.9,29.5,39.4,29.5z M38.6,38.2v-6.1
			c0-0.1,0.1-0.2,0.2-0.2h1.2c0.1,0,0.2,0.1,0.2,0.2v6.1c0,0.1-0.1,0.2-0.2,0.2h-1.2C38.7,38.4,38.6,38.3,38.6,38.2z"/>
		<path class="st1" d="M46.3,36.3c-0.3,1.4-1.3,2.2-2.5,2.2c-1.6,0-2.8-1.5-2.8-3.4c0-1.9,1.2-3.4,2.8-3.4c1.2,0,2.2,0.8,2.5,2.2
			c0,0.1,0,0.2-0.2,0.2l-1.1,0.2c-0.1,0-0.2,0-0.2-0.2c-0.2-0.8-0.5-1.1-1-1.1c-0.7,0-1.1,0.7-1.1,2.1c0,1.3,0.4,2.1,1.1,2.1
			c0.5,0,0.8-0.3,1-1.1c0-0.1,0.1-0.2,0.2-0.2l1.1,0.2C46.3,36.1,46.4,36.2,46.3,36.3z"/>
		<path class="st1" d="M38.7,41.6c0.1,0.2,0.3,0.2,0.7,0.1c0.9-0.2,2.1-0.2,2.3,0.1c0.2,0.3-0.2,1.4-0.7,2.2
			c-0.2,0.3-0.3,0.5-0.1,0.7c0,0,0.1,0.1,0.2,0.1c0.2,0,0.4-0.2,0.7-0.4c0.5-0.4,0.9-1,1.1-1.6c0.2-0.6,0.3-1.4,0.1-1.7
			c-0.2-0.3-1-0.5-1.7-0.5c-0.7,0-1.3,0.2-1.9,0.5C38.9,41.1,38.5,41.4,38.7,41.6L38.7,41.6z"/>
		<path class="st1" d="M21.4,41.3c0.1,0.2,0.2,0.4,0.4,0.6c2.4,2.9,6.2,4.2,9.9,4.2c3.2,0,6.4-1,8.4-2.7c0.3-0.3,0.5-0.5,0.5-0.7
			c0-0.1,0-0.1-0.1-0.2c-0.2-0.2-0.4,0-0.7,0.1c-1.8,1-4.7,1.6-7.7,1.6c-3.4,0-7.1-0.8-9.8-3.1c-0.3-0.2-0.6-0.4-0.7-0.3
			C21.4,41,21.4,41.1,21.4,41.3L21.4,41.3z"/>
		<path class="st1" d="M15,28.4c-1.1,0-1.9-0.8-1.9-1.9c0-1.4,1.1-2.3,2.8-2.3c0.2,0,0.5,0,0.6,0.1V24c0-0.8-0.3-1.2-0.9-1.2
			c-0.5,0-0.8,0.3-0.9,0.8c0,0.1-0.1,0.2-0.2,0.2l-1.1-0.2c-0.1,0-0.2-0.1-0.2-0.3c0.3-1.1,1.2-1.7,2.5-1.7c1.6,0,2.4,0.9,2.4,2.5
			V28c0,0.1-0.1,0.2-0.2,0.2h-1c-0.1,0-0.2-0.1-0.2-0.2l-0.2-0.7h-0.1C16.4,28,15.8,28.4,15,28.4z M15.7,27.2c0.6,0,1-0.6,1-1.7
			v-0.4c-0.1,0-0.3,0-0.4,0c-0.8,0-1.4,0.5-1.4,1.2C14.9,26.8,15.2,27.2,15.7,27.2z"/>
		<path class="st1" d="M22.5,21.6c0.8,0,1.3,0.4,1.6,1.2h0.1c0.5-0.8,1-1.2,1.7-1.2c1.2,0,1.9,1,1.9,2.6V28c0,0.1-0.1,0.2-0.2,0.2
			h-1.2c-0.1,0-0.2-0.1-0.2-0.2v-3.7c0-0.8-0.3-1.2-0.8-1.2c-0.6,0-0.9,0.5-0.9,1.4V28c0,0.1-0.1,0.2-0.2,0.2h-1.2
			c-0.1,0-0.2-0.1-0.2-0.2v-3.7c0-0.8-0.3-1.2-0.8-1.2c-0.6,0-0.9,0.5-0.9,1.4V28c0,0.1-0.1,0.2-0.2,0.2h-1.2
			c-0.1,0-0.2-0.1-0.2-0.2V22c0-0.1,0.1-0.2,0.2-0.2h1c0.1,0,0.2,0.1,0.2,0.2l0.2,0.8H21C21.2,22,21.8,21.6,22.5,21.6z"/>
		<path class="st1" d="M30.3,28.4c-1.1,0-1.9-0.8-1.9-1.9c0-1.4,1.1-2.3,2.8-2.3c0.2,0,0.5,0,0.6,0.1V24c0-0.8-0.3-1.2-0.9-1.2
			c-0.5,0-0.8,0.3-0.9,0.8c0,0.1-0.1,0.2-0.2,0.2l-1.1-0.2c-0.1,0-0.2-0.1-0.2-0.3c0.3-1.1,1.2-1.7,2.5-1.7c1.6,0,2.4,0.9,2.4,2.5
			V28c0,0.1-0.1,0.2-0.2,0.2h-1c-0.1,0-0.2-0.1-0.2-0.2L32,27.3h-0.1C31.7,28,31.1,28.4,30.3,28.4z M31,27.2c0.6,0,1-0.6,1-1.7v-0.4
			c-0.1,0-0.3,0-0.4,0c-0.8,0-1.4,0.5-1.4,1.2C30.2,26.8,30.5,27.2,31,27.2z"/>
		<path class="st1" d="M34.3,27.1c0-0.1,0-0.2,0.1-0.3l2.5-3.7h-2.4c-0.1,0-0.2-0.1-0.2-0.2V22c0-0.1,0.1-0.2,0.2-0.2h4.1
			c0.1,0,0.2,0.1,0.2,0.2v0.9c0,0.1,0,0.2-0.1,0.3l-2.6,3.7h2.6c0.1,0,0.2,0.1,0.2,0.2V28c0,0.1-0.1,0.2-0.2,0.2h-4.3
			c-0.1,0-0.2-0.1-0.2-0.2V27.1z"/>
		<path class="st1" d="M39.3,25c0-1.9,1.2-3.4,2.8-3.4c1.6,0,2.8,1.4,2.8,3.4c0,1.9-1.2,3.4-2.8,3.4C40.5,28.4,39.3,26.9,39.3,25z
			 M42.1,27.1c0.7,0,1.1-0.7,1.1-2c0-1.3-0.4-2.1-1.1-2.1C41.4,23,41,23.7,41,25C41,26.3,41.4,27.1,42.1,27.1z"/>
		<path class="st1" d="M48.9,21.6c1.2,0,1.9,1,1.9,2.6V28c0,0.1-0.1,0.2-0.2,0.2h-1.2c-0.1,0-0.2-0.1-0.2-0.2v-3.7
			c0-0.8-0.3-1.2-0.9-1.2c-0.6,0-1,0.5-1,1.4V28c0,0.1-0.1,0.2-0.2,0.2h-1.2c-0.1,0-0.2-0.1-0.2-0.2V22c0-0.1,0.1-0.2,0.2-0.2h1
			c0.1,0,0.2,0.1,0.2,0.2l0.2,0.8h0.1C47.6,22,48.2,21.6,48.9,21.6z"/>
	</g>
</g>
</svg>
