<?xml version="1.0" encoding="UTF-8" standalone="no"?>
<!DOCTYPE svg PUBLIC "-//W3C//DTD SVG 1.1//EN" "http://www.w3.org/Graphics/SVG/1.1/DTD/svg11.dtd">
<svg width="100%" height="100%" viewBox="0 0 2917 665" version="1.1" xmlns="http://www.w3.org/2000/svg" xmlns:xlink="http://www.w3.org/1999/xlink" xml:space="preserve" xmlns:serif="http://www.serif.com/" style="fill-rule:evenodd;clip-rule:evenodd;stroke-miterlimit:10;">
    <g transform="matrix(1,0,0,1,-16799,-6602)">
        <g id="Mesa-de-trabajo5" serif:id="Mesa de trabajo5" transform="matrix(0.987826,0,0,1,204.151587,-0.415502)">
            <rect x="16799.366" y="6602.416" width="2952.612" height="664.874" style="fill:none;"/>
            <g transform="matrix(8.436034,0,0,8.333333,13216.933567,-6856.388967)">
                <g transform="matrix(1,0,0,1,734.2413,1622.974466)">
                    <path d="M0,63.949L-269.166,63.949C-286.825,63.949 -301.14,49.634 -301.14,31.975C-301.14,14.316 -286.825,0 -269.166,0L0,0C17.659,0 31.974,14.316 31.974,31.975C31.974,49.634 17.659,63.949 0,63.949Z" style="fill:none;fill-rule:nonzero;stroke:white;stroke-width:1px;"/>
                </g>
                <g transform="matrix(1,0,0,1,568.0374,1658.182866)">
                    <path d="M0,2.934L4.222,2.934L2.14,-3.196L2.082,-3.196L0,2.934ZM4.774,4.677L-0.552,4.677L-1.83,8.454L-4.087,8.454L0.959,-5.52L3.302,-5.52L8.348,8.454L6.053,8.454L4.774,4.677Z" style="fill:white;fill-rule:nonzero;"/>
                </g>
                <g transform="matrix(1,0,0,1,585.1205,1664.763866)">
                    <path d="M0,-3.221C0,-5.283 -1.065,-6.639 -2.692,-6.639C-4.29,-6.639 -5.365,-5.255 -5.365,-3.221C-5.365,-1.168 -4.29,0.207 -2.692,0.207C-1.065,0.207 0,-1.138 0,-3.221M2.15,-3.221C2.15,-0.054 0.455,1.98 -2.102,1.98C-3.423,2.05 -4.668,1.358 -5.307,0.198L-5.355,0.198L-5.355,5.243L-7.447,5.243L-7.447,-8.315L-5.423,-8.315L-5.423,-6.619L-5.384,-6.619C-4.718,-7.772 -3.471,-8.464 -2.14,-8.421C0.445,-8.421 2.15,-6.378 2.15,-3.221" style="fill:white;fill-rule:nonzero;"/>
                </g>
                <g transform="matrix(1,0,0,1,596.3253,1664.763866)">
                    <path d="M0,-3.221C0,-5.283 -1.065,-6.639 -2.692,-6.639C-4.29,-6.639 -5.365,-5.255 -5.365,-3.221C-5.365,-1.168 -4.29,0.207 -2.692,0.207C-1.065,0.207 0,-1.138 0,-3.221M2.15,-3.221C2.15,-0.054 0.455,1.98 -2.101,1.98C-3.423,2.05 -4.668,1.358 -5.307,0.198L-5.355,0.198L-5.355,5.243L-7.447,5.243L-7.447,-8.315L-5.423,-8.315L-5.423,-6.619L-5.384,-6.619C-4.718,-7.772 -3.471,-8.464 -2.14,-8.421C0.446,-8.421 2.15,-6.378 2.15,-3.221" style="fill:white;fill-rule:nonzero;"/>
                </g>
                <g transform="matrix(1,0,0,1,0,-930.804634)">
                    <rect x="600.16" y="2583.468" width="2.092" height="13.974" style="fill:white;"/>
                </g>
                <g transform="matrix(1,0,0,1,606.0677,1662.483166)">
                    <path d="M0,-1.879L5.094,-1.879C5.169,-3.23 4.135,-4.387 2.784,-4.462C2.721,-4.465 2.658,-4.467 2.595,-4.465C1.171,-4.474 0.009,-3.326 0,-1.901L0,-1.879M7.07,1.162C6.789,3.011 4.987,4.28 2.683,4.28C-0.281,4.28 -2.121,2.294 -2.121,-0.891C-2.121,-4.087 -0.271,-6.159 2.595,-6.159C5.414,-6.159 7.186,-4.223 7.186,-1.134L7.186,-0.417L-0.01,-0.417L-0.01,-0.291C-0.139,1.169 0.939,2.457 2.399,2.587C2.509,2.597 2.62,2.599 2.731,2.595C3.746,2.69 4.703,2.107 5.084,1.162L7.07,1.162Z" style="fill:white;fill-rule:nonzero;"/>
                </g>
                <g transform="matrix(1,0,0,1,631.2948,1652.662866)">
                    <path d="M0,13.974L0,3.689L-0.067,3.689L-4.28,13.868L-5.888,13.868L-10.11,3.689L-10.178,3.689L-10.178,13.974L-12.153,13.974L-12.153,0L-9.646,0L-5.122,11.03L-5.045,11.03L-0.532,0L1.986,0L1.986,13.974L0,13.974Z" style="fill:white;fill-rule:nonzero;"/>
                </g>
                <g transform="matrix(1,0,0,1,644.419,1656.673866)">
                    <path d="M0,9.963L-2.004,9.963L-2.004,8.211L-2.053,8.211C-2.604,9.439 -3.869,10.187 -5.21,10.079C-7.083,10.188 -8.689,8.758 -8.798,6.885C-8.809,6.694 -8.804,6.503 -8.783,6.313L-8.783,-0.225L-6.691,-0.225L-6.691,5.906C-6.883,7.012 -6.142,8.064 -5.036,8.256C-4.863,8.286 -4.688,8.293 -4.513,8.278C-3.21,8.321 -2.12,7.299 -2.077,5.997C-2.073,5.879 -2.078,5.761 -2.092,5.644L-2.092,-0.225L0,-0.225L0,9.963Z" style="fill:white;fill-rule:nonzero;"/>
                </g>
                <g transform="matrix(1,0,0,1,650.3677,1666.763866)">
                    <path d="M0,-10.431C2.256,-10.431 3.874,-9.181 3.922,-7.38L1.956,-7.38C1.801,-8.337 0.9,-8.987 -0.057,-8.833L-0.058,-8.833C-1.192,-8.833 -1.947,-8.31 -1.947,-7.515C-1.947,-6.906 -1.444,-6.499 -0.387,-6.237L1.326,-5.841C3.379,-5.346 4.154,-4.591 4.154,-3.099C4.154,-1.259 2.411,0 -0.077,0C-2.479,0 -4.097,-1.231 -4.252,-3.09L-2.18,-3.09C-1.98,-2.073 -1.001,-1.404 0.019,-1.589C1.268,-1.589 2.053,-2.103 2.053,-2.916C2.053,-3.545 1.666,-3.885 0.6,-4.156L-1.22,-4.601C-3.06,-5.047 -3.99,-5.985 -3.99,-7.399C-3.99,-9.201 -2.373,-10.431 0,-10.431" style="fill:white;fill-rule:nonzero;"/>
                </g>
                <g transform="matrix(1,0,0,1,0,-930.954634)">
                    <path d="M656.315,2587.404L658.407,2587.404L658.407,2597.592L656.315,2597.592L656.315,2587.404ZM656.151,2584.722C656.138,2584.051 656.67,2583.496 657.342,2583.482C658.013,2583.468 658.568,2584.001 658.581,2584.672C658.595,2585.343 658.062,2585.898 657.391,2585.912L657.361,2585.912C656.7,2585.92 656.159,2585.39 656.151,2584.729L656.151,2584.722" style="fill:white;fill-rule:nonzero;"/>
                </g>
                <g transform="matrix(1,0,0,1,667.4174,1663.145766)">
                    <path d="M0,-3.191C-0.19,-4.347 -1.234,-5.163 -2.402,-5.07C-4.009,-5.07 -5.075,-3.723 -5.075,-1.603C-5.075,0.567 -4,1.875 -2.382,1.875C-1.229,1.989 -0.186,1.187 0,0.044L2.014,0.044C1.754,2.235 -0.205,3.819 -2.402,3.618C-5.307,3.618 -7.205,1.632 -7.205,-1.603C-7.205,-4.769 -5.307,-6.822 -2.421,-6.822C-0.208,-7.01 1.751,-5.399 1.995,-3.191L0,-3.191Z" style="fill:white;fill-rule:nonzero;"/>
                </g>
                <g transform="matrix(1,0,0,1,550.5368,1648.732266)">
                    <path d="M0,10.627C-0.07,10.975 -0.211,11.305 -0.412,11.598C-0.616,11.889 -0.88,12.133 -1.186,12.314C-1.491,12.488 -1.823,12.608 -2.169,12.671C-2.664,12.799 -3.181,12.825 -3.686,12.748C-4.068,12.672 -4.421,12.493 -4.707,12.229C-5.61,11.416 -5.682,10.025 -4.868,9.122C-4.852,9.105 -4.835,9.087 -4.819,9.07C-4.561,8.806 -4.247,8.605 -3.901,8.48C-3.394,8.305 -2.873,8.173 -2.344,8.086C-2.161,8.049 -1.979,8.012 -1.795,7.975C-1.559,7.951 -1.34,7.839 -1.182,7.662C-1.043,7.457 -0.983,7.21 -1.012,6.964L-1.011,0.729C-1.011,0.252 -1.225,0.122 -1.681,0.209C-2.006,0.273 -8.997,1.683 -8.997,1.683C-9.317,1.701 -9.562,1.975 -9.544,2.295C-9.542,2.329 -9.537,2.363 -9.529,2.396L-9.529,11.532C-9.523,11.88 -9.555,12.227 -9.623,12.567C-9.694,12.915 -9.834,13.246 -10.036,13.538C-10.239,13.83 -10.503,14.074 -10.81,14.254C-11.114,14.429 -11.447,14.552 -11.792,14.617C-12.288,14.745 -12.804,14.771 -13.31,14.693C-13.692,14.616 -14.045,14.435 -14.331,14.17C-15.232,13.327 -15.282,11.914 -14.442,11.01C-14.184,10.747 -13.871,10.545 -13.524,10.42C-13.017,10.246 -12.497,10.114 -11.968,10.026C-11.785,9.989 -11.602,9.952 -11.419,9.915C-11.182,9.891 -10.964,9.779 -10.805,9.602C-10.663,9.401 -10.597,9.155 -10.62,8.909L-10.62,-1.613C-10.621,-1.707 -10.614,-1.802 -10.6,-1.896C-10.577,-2.107 -10.476,-2.302 -10.317,-2.442C-10.165,-2.563 -9.985,-2.644 -9.793,-2.678L-9.79,-2.679L-1.38,-4.375C-1.307,-4.39 -0.7,-4.498 -0.631,-4.504C-0.281,-4.548 0.039,-4.3 0.083,-3.95C0.091,-3.887 0.089,-3.823 0.079,-3.76L0.079,9.587C0.09,9.936 0.064,10.284 0,10.627ZM7.094,-5.063C6.399,-6.71 5.005,-7.961 3.292,-8.474C2.175,-8.753 1.024,-8.874 -0.127,-8.833L-12.86,-8.833C-14.011,-8.874 -15.162,-8.753 -16.279,-8.473C-17.992,-7.961 -19.386,-6.71 -20.081,-5.063C-20.512,-3.772 -20.702,-2.413 -20.641,-1.053L-20.641,11.68C-20.702,13.04 -20.512,14.399 -20.081,15.69C-19.386,17.337 -17.992,18.588 -16.279,19.101C-15.162,19.38 -14.011,19.501 -12.86,19.461L-0.127,19.461C1.024,19.501 2.175,19.38 3.292,19.101C5.005,18.588 6.399,17.337 7.094,15.69C7.525,14.399 7.715,13.04 7.654,11.68L7.654,-1.053C7.715,-2.413 7.525,-3.772 7.094,-5.063" style="fill:white;fill-rule:nonzero;"/>
                </g>
                <g transform="matrix(1,0,0,1,568.8604,1641.562966)">
                    <path d="M0,6.809L-4.246,6.809L-4.246,0L-3.19,0L-3.19,5.837L0,5.837L0,6.809Z" style="fill:white;fill-rule:nonzero;"/>
                </g>
                <g transform="matrix(1,0,0,1,0,-960.736634)">
                    <path d="M570.236,2603.969L571.245,2603.969L571.245,2609.108L570.236,2609.108L570.236,2603.969ZM570.085,2602.451C570.063,2602.089 570.339,2601.777 570.702,2601.756C571.064,2601.734 571.375,2602.01 571.397,2602.373C571.419,2602.735 571.142,2603.046 570.78,2603.068C570.767,2603.069 570.754,2603.069 570.74,2603.069C570.396,2603.086 570.103,2602.821 570.086,2602.476C570.085,2602.467 570.085,2602.459 570.085,2602.451" style="fill:white;fill-rule:nonzero;"/>
                </g>
                <g transform="matrix(1,0,0,1,574.7561,1648.490966)">
                    <path d="M0,-5.357C0.954,-5.512 1.853,-4.866 2.011,-3.913L1.039,-3.913C0.886,-4.342 0.45,-4.601 0,-4.531C-0.46,-4.62 -0.905,-4.321 -0.995,-3.861C-0.995,-3.554 -0.736,-3.361 -0.179,-3.233L0.675,-3.035C1.451,-3.028 2.083,-2.41 2.109,-1.634C1.996,-0.623 1.084,0.106 0.073,-0.008C0.042,-0.011 0.012,-0.015 -0.019,-0.02C-1.004,0.155 -1.946,-0.498 -2.127,-1.483L-1.113,-1.483C-0.933,-1.036 -0.471,-0.772 0.005,-0.842C0.495,-0.735 0.978,-1.045 1.086,-1.534C1.026,-1.903 0.704,-2.171 0.331,-2.162L-0.565,-2.37C-1.349,-2.39 -1.978,-3.021 -1.995,-3.804C-1.899,-4.763 -1.044,-5.463 -0.085,-5.367C-0.057,-5.365 -0.028,-5.361 0,-5.357" style="fill:white;fill-rule:nonzero;"/>
                </g>
                <g transform="matrix(1,0,0,1,579.5624,1648.400766)">
                    <path d="M0,-6.446L0,-5.144L1.113,-5.144L1.113,-4.289L0,-4.289L0,-1.647C-0.073,-1.297 0.151,-0.954 0.501,-0.88C0.575,-0.865 0.651,-0.863 0.726,-0.873C0.855,-0.874 0.985,-0.882 1.114,-0.897L1.114,-0.053C0.931,-0.02 0.746,-0.002 0.561,0C-0.567,0 -1.015,-0.397 -1.015,-1.388L-1.015,-4.289L-1.831,-4.289L-1.831,-5.144L-1.015,-5.144L-1.015,-6.446L0,-6.446Z" style="fill:white;fill-rule:nonzero;"/>
                </g>
                <g transform="matrix(1,0,0,1,582.7305,1646.354066)">
                    <path d="M0,-1.026L2.596,-1.026C2.646,-1.709 2.132,-2.303 1.449,-2.353C1.41,-2.356 1.37,-2.357 1.331,-2.356C0.605,-2.365 0.009,-1.785 0,-1.059L0,-1.026M3.568,0.63C3.283,1.599 2.345,2.225 1.341,2.117C0.052,2.151 -1.02,1.134 -1.054,-0.155C-1.058,-0.282 -1.051,-0.409 -1.033,-0.535C-1.207,-1.833 -0.296,-3.025 1.001,-3.199C1.112,-3.214 1.224,-3.221 1.335,-3.22C2.584,-3.251 3.622,-2.263 3.653,-1.014C3.656,-0.885 3.648,-0.757 3.629,-0.63L3.629,-0.276L0,-0.276L0,-0.219C-0.063,0.528 0.491,1.185 1.238,1.249C1.281,1.253 1.325,1.254 1.368,1.254C1.865,1.313 2.347,1.067 2.59,0.63L3.568,0.63Z" style="fill:white;fill-rule:nonzero;"/>
                </g>
                <g transform="matrix(1,0,0,1,587.7147,1648.203766)">
                    <path d="M0,-4.971L0.977,-4.971L0.977,-4.154L1.053,-4.154C1.316,-4.755 1.932,-5.123 2.586,-5.07C3.507,-5.139 4.309,-4.448 4.378,-3.527C4.387,-3.405 4.383,-3.281 4.365,-3.159L4.365,0.168L3.35,0.168L3.35,-2.904C3.464,-3.464 3.101,-4.01 2.541,-4.124C2.443,-4.144 2.341,-4.149 2.241,-4.14C1.591,-4.17 1.04,-3.668 1.009,-3.018C1.006,-2.958 1.008,-2.897 1.015,-2.837L1.015,0.168L0,0.168L0,-4.971Z" style="fill:white;fill-rule:nonzero;"/>
                </g>
                <g transform="matrix(1,0,0,1,599.9761,1645.807166)">
                    <path d="M0,-0.007C0,-1.121 -0.501,-1.772 -1.378,-1.772C-2.261,-1.772 -2.756,-1.121 -2.756,-0.007C-2.756,1.116 -2.261,1.762 -1.378,1.762C-0.501,1.762 0,1.111 0,-0.007M-3.804,-0.007C-3.932,-1.345 -2.951,-2.534 -1.613,-2.662C-0.275,-2.79 0.914,-1.809 1.042,-0.471C1.057,-0.317 1.057,-0.161 1.042,-0.007C1.173,1.331 0.193,2.522 -1.145,2.652C-2.483,2.783 -3.673,1.804 -3.804,0.465C-3.819,0.308 -3.819,0.15 -3.804,-0.007" style="fill:white;fill-rule:nonzero;"/>
                </g>
                <g transform="matrix(1,0,0,1,602.3743,1648.203766)">
                    <path d="M0,-4.971L0.977,-4.971L0.977,-4.154L1.053,-4.154C1.316,-4.755 1.932,-5.123 2.586,-5.07C3.507,-5.139 4.309,-4.448 4.378,-3.527C4.387,-3.405 4.383,-3.281 4.365,-3.159L4.365,0.168L3.35,0.168L3.35,-2.904C3.464,-3.464 3.101,-4.01 2.541,-4.124C2.443,-4.144 2.341,-4.149 2.241,-4.14C1.591,-4.17 1.04,-3.668 1.009,-3.018C1.006,-2.958 1.008,-2.897 1.015,-2.837L1.015,0.168L0,0.168L0,-4.971Z" style="fill:white;fill-rule:nonzero;"/>
                </g>
            </g>
        </g>
    </g>
</svg>
