<?xml version="1.0" encoding="utf-8"?>
<!-- Generator: Adobe Illustrator 19.1.0, SVG Export Plug-In . SVG Version: 6.00 Build 0)  -->
<svg version="1.1" id="Layer_1" xmlns="http://www.w3.org/2000/svg" xmlns:xlink="http://www.w3.org/1999/xlink" x="0px" y="0px"
	 viewBox="0 0 64 64" style="enable-background:new 0 0 64 64;" xml:space="preserve">
<style type="text/css">
	.st0{fill:none;stroke:#FFFFFF;stroke-miterlimit:10;}
	.st1{fill:#FFFFFF;}
</style>
<g>
	<path class="st0" d="M32,62L32,62C15.4,62,2,48.6,2,32v0C2,15.4,15.4,2,32,2h0c16.6,0,30,13.4,30,30v0C62,48.6,48.6,62,32,62z"/>
	<path id="_Compound_Path_11_2_" class="st1" d="M44.7,22.3c-0.7-1.5-2-2.7-3.6-3.2c-1-0.3-2.1-0.4-3.2-0.3H26
		c-1.1,0-2.2,0.1-3.2,0.3c-1.6,0.5-2.9,1.7-3.6,3.2c-0.4,1.2-0.6,2.5-0.5,3.8V38c-0.1,1.3,0.1,2.6,0.5,3.8c0.7,1.5,2,2.7,3.6,3.2
		c1,0.3,2.1,0.4,3.2,0.3H38c1.1,0,2.2-0.1,3.2-0.3c1.6-0.5,2.9-1.7,3.6-3.2c0.4-1.2,0.6-2.5,0.5-3.8V26
		C45.3,24.8,45.2,23.5,44.7,22.3z M38.1,37c-0.1,0.3-0.2,0.6-0.4,0.9c-0.2,0.3-0.4,0.5-0.7,0.7c-0.3,0.2-0.6,0.3-0.9,0.3
		C35.6,39,35.1,39,34.6,39c-0.4-0.1-0.7-0.2-1-0.5c-0.8-0.8-0.9-2.1-0.2-2.9c0,0,0,0,0,0c0.2-0.2,0.5-0.4,0.9-0.6
		c0.5-0.2,1-0.3,1.5-0.4c0.2,0,0.3-0.1,0.5-0.1c0.2,0,0.4-0.1,0.6-0.3c0.1-0.2,0.2-0.4,0.2-0.7l0-5.9c0-0.4-0.2-0.6-0.6-0.5
		c-0.3,0.1-6.9,1.4-6.9,1.4c-0.3,0-0.5,0.3-0.5,0.6c0,0,0,0.1,0,0.1l0,8.6c0,0.3,0,0.7-0.1,1c-0.1,0.3-0.2,0.6-0.4,0.9
		c-0.2,0.3-0.4,0.5-0.7,0.7c-0.3,0.2-0.6,0.3-0.9,0.3c-0.5,0.1-0.9,0.1-1.4,0.1c-0.4-0.1-0.7-0.2-1-0.5c-0.8-0.8-0.9-2.1-0.1-3
		c0.2-0.2,0.5-0.4,0.9-0.6c0.5-0.2,1-0.3,1.5-0.4c0.2,0,0.3-0.1,0.5-0.1c0.2,0,0.4-0.1,0.6-0.3c0.1-0.2,0.2-0.4,0.2-0.6v-9.9
		c0-0.1,0-0.2,0-0.3c0-0.2,0.1-0.4,0.3-0.5c0.1-0.1,0.3-0.2,0.5-0.2l0,0l7.9-1.6c0.1,0,0.6-0.1,0.7-0.1c0.3,0,0.6,0.2,0.7,0.5
		c0,0.1,0,0.1,0,0.2l0,12.5C38.2,36.3,38.2,36.7,38.1,37L38.1,37z"/>
</g>
</svg>
