<?xml version="1.0" encoding="utf-8"?>
<!-- Generator: Adobe Illustrator 19.1.0, SVG Export Plug-In . SVG Version: 6.00 Build 0)  -->
<svg version="1.1" id="Layer_1" xmlns:serif="http://www.serif.com/"
	 xmlns="http://www.w3.org/2000/svg" xmlns:xlink="http://www.w3.org/1999/xlink" x="0px" y="0px" viewBox="200 0 560 560"
	 style="enable-background:new 200 0 560 560;" xml:space="preserve">
<style type="text/css">
	.st0{fill:none;}
	.st1{fill:#FFFFFF;}
</style>
<g transform="matrix(1,0,0,1,-1798.363834,-3687)">
	<g id="Mesa-de-trabajo7" transform="matrix(0.780463,0,0,0.658036,511.895769,1260.721916)" serif:id="Mesa de trabajo7">
		<rect x="1904.6" y="3687.2" class="st0" width="717.5" height="851"/>
		<g transform="matrix(1.807058,0,0,2.143261,1665.008698,3704.768662)">
			<path class="st1" d="M294,245.3c32.4-19,62.6-36.6,94.5-55.3c-32.8-19-63-36.5-94.5-54.7V245.3z M350.1,59.2
				c26.1,0.5,71-0.5,115.6,5.7c28.5,4,43.5,19,46.6,47.2c5.7,52.6,7.7,105.5-0.4,158.2c-4.1,26.8-18.1,41.3-45.5,44.7
				c-57.3,7.2-114.9,7.1-172.5,5.9c-32.1-0.7-64.3-0.7-96.1-5.5c-31.1-4.7-44.1-18.8-48.3-50.1c-6.6-48.5-4.9-97.1-0.5-145.5
				c3.4-37.6,20.2-53.8,57.9-56.6C248.3,60.1,289.8,58.8,350.1,59.2"/>
		</g>
	</g>
</g>
</svg>
