<?xml version="1.0" encoding="UTF-8" standalone="no"?>
<!DOCTYPE svg PUBLIC "-//W3C//DTD SVG 1.1//EN" "http://www.w3.org/Graphics/SVG/1.1/DTD/svg11.dtd">
<svg width="100%" height="100%" viewBox="0 0 32 32" version="1.1" xmlns="http://www.w3.org/2000/svg" xmlns:xlink="http://www.w3.org/1999/xlink" xml:space="preserve" xmlns:serif="http://www.serif.com/" style="fill-rule:evenodd;clip-rule:evenodd;stroke-linejoin:round;stroke-miterlimit:2;">
    <g transform="matrix(1,0,0,1,-1648,-3687)">
        <g id="Mesa-de-trabajo7" serif:id="Mesa de trabajo7" transform="matrix(0.780463,0,0,0.658036,361.531935,1260.721916)">
            <rect x="1648.34" y="3687.152" width="41.001" height="48.63" style="fill:none;"/>
            <g transform="matrix(2.128154,0,0,2.524096,1649.620888,3709.564156)">
                <path d="M0,1.517L0,0.087C0.049,0.091 0.032,0.05 0.034,0.03C0.04,-0.041 0.046,-0.113 0.054,-0.184C0.115,-0.758 0.23,-1.322 0.405,-1.871C0.797,-3.108 1.419,-4.217 2.286,-5.186C3.061,-6.052 3.963,-6.752 5.004,-7.273C5.524,-7.533 6.062,-7.741 6.62,-7.9C7.154,-8.052 7.699,-8.15 8.252,-8.196C8.274,-8.197 8.316,-8.178 8.316,-8.229L9.746,-8.229C9.774,-8.197 9.774,-8.198 9.828,-8.193C10.446,-8.137 11.054,-8.031 11.645,-7.834C11.996,-7.717 12.347,-7.599 12.685,-7.443C13.12,-7.242 13.545,-7.022 13.947,-6.762C14.908,-6.142 15.713,-5.355 16.381,-4.429C16.952,-3.638 17.371,-2.772 17.663,-1.844C17.856,-1.23 17.977,-0.6 18.028,0.042C18.03,0.064 18.012,0.105 18.062,0.106L18.062,1.498C18.025,1.486 18.033,1.517 18.03,1.533C17.998,1.733 17.978,1.934 17.953,2.134C17.915,2.435 17.854,2.73 17.781,3.022C17.404,4.527 16.67,5.84 15.616,6.976C15.32,7.294 15,7.588 14.661,7.859C13.456,8.821 12.095,9.442 10.581,9.731C10.55,9.736 10.519,9.746 10.494,9.716C10.569,9.705 10.567,9.653 10.567,9.594C10.566,7.546 10.567,5.499 10.567,3.452C10.567,3.316 10.552,3.328 10.685,3.328C11.278,3.328 11.87,3.327 12.463,3.33C12.535,3.33 12.559,3.308 12.569,3.238C12.599,3.021 12.637,2.805 12.672,2.589C12.767,1.996 12.861,1.404 12.958,0.802L12.852,0.802C12.121,0.802 11.391,0.801 10.66,0.804C10.589,0.804 10.565,0.788 10.566,0.712C10.569,0.16 10.568,-0.391 10.568,-0.943C10.568,-1.066 10.573,-1.187 10.592,-1.309C10.659,-1.723 10.877,-2.009 11.286,-2.137C11.491,-2.202 11.702,-2.223 11.916,-2.224C12.28,-2.226 12.643,-2.226 13.007,-2.223C13.075,-2.222 13.097,-2.236 13.097,-2.309C13.094,-3.021 13.094,-3.733 13.097,-4.444C13.097,-4.517 13.069,-4.534 13.008,-4.541C12.731,-4.573 12.455,-4.611 12.177,-4.641C11.635,-4.699 11.092,-4.739 10.546,-4.675C10.069,-4.619 9.616,-4.484 9.194,-4.258C8.789,-4.042 8.456,-3.744 8.197,-3.36C7.794,-2.763 7.609,-2.099 7.591,-1.389C7.574,-0.69 7.584,0.009 7.587,0.708C7.587,0.789 7.563,0.804 7.487,0.804C6.797,0.801 6.108,0.803 5.418,0.8C5.343,0.8 5.325,0.82 5.325,0.894C5.328,1.671 5.328,2.449 5.325,3.226C5.325,3.309 5.345,3.331 5.428,3.33C6.109,3.327 6.789,3.33 7.469,3.326C7.565,3.325 7.587,3.349 7.587,3.444C7.584,5.488 7.585,7.532 7.586,9.576C7.586,9.617 7.587,9.658 7.588,9.698C7.56,9.737 7.524,9.738 7.48,9.73C6.682,9.58 5.915,9.336 5.186,8.98C3.207,8.015 1.741,6.539 0.812,4.54C0.375,3.601 0.12,2.611 0.034,1.578C0.032,1.557 0.054,1.513 0,1.517" style="fill:rgb(223,44,82);fill-rule:nonzero;"/>
            </g>
        </g>
    </g>
</svg>
