<?xml version="1.0" encoding="utf-8"?>
<!-- Generator: Adobe Illustrator 19.1.0, SVG Export Plug-In . SVG Version: 6.00 Build 0)  -->
<svg version="1.1" id="Layer_1" xmlns:serif="http://www.serif.com/"
	 xmlns="http://www.w3.org/2000/svg" xmlns:xlink="http://www.w3.org/1999/xlink" x="0px" y="0px" viewBox="200 0 560 560"
	 style="enable-background:new 200 0 560 560;" xml:space="preserve">
<style type="text/css">
	.st0{fill:none;}
	.st1{fill:#FFFFFF;}
</style>
<g transform="matrix(1,0,0,1,-1686.359969,-3687)">
	<g id="Mesa-de-trabajo7" transform="matrix(0.780463,0,0,0.658036,399.891904,1260.721916)" serif:id="Mesa de trabajo7">
		<rect x="1904.6" y="3687.2" class="st0" width="717.5" height="851"/>
		<g transform="matrix(2.133158,0,0,2.530031,-2004.435586,-4613.353613)">
			<g transform="matrix(1,0,0,1,1721.9838,3283.081028)">
				<path class="st1" d="M278.6,291.9c25.9-0.5,51.8,0.5,77.8-2c29.9-2.9,43.9-16.4,45.9-46.6c3.4-51.4,3.4-102.9,0-154.4
					c-2-30-16.1-44.2-46.1-46.1c-51.4-3.4-102.9-3.4-154.4,0c-30.7,2-44.3,15.8-46.4,47c-3.4,51.5-3.4,102.9,0,154.4
					c1.9,29.3,16.3,42.9,45.5,45.8C226.8,292.4,252.7,291.5,278.6,291.9 M278.6,323.1c-28.2-0.7-56.3-0.8-84.4-4.2
					c-40.5-4.9-60.2-20.6-66.3-60.7c-9.3-60.7-9-122.1-0.3-182.8c5.7-39.5,21.6-55,61.2-60.5c59.7-8.3,119.9-8.3,179.6,0.2
					c39.8,5.7,55.9,21.9,61.6,61.7c8.4,59.7,8.5,119.9,0.1,179.6c-5.9,41.7-26,57.8-68.2,62.7C334.2,322.3,306.4,322.4,278.6,323.1"
					/>
			</g>
			<g transform="matrix(1,0,0,1,1721.976,3287.728128)">
				<path class="st1" d="M278.5,208.9c25.5,0.2,47.6-21.7,47.6-47.3c0-25.1-21.2-46.7-46.5-47.3c-25.4-0.6-47.7,21.1-48.1,46.7
					C231.1,186.5,252.9,208.7,278.5,208.9 M278.4,83.5c43.2-0.2,78.4,34.8,78.5,78c0.1,43.1-35.4,78.5-78.3,78.3
					c-43-0.3-77.3-34.4-78-77.5C200,119.4,235.2,83.7,278.4,83.5"/>
			</g>
			<g transform="matrix(0.017072,-0.999854,-0.999854,-0.017072,1726.515086,3285.066583)">
				<path class="st1" d="M-80-369.5c-8.4,0-15.2,6.9-15.2,15.6c0,9,6.1,15.2,15.2,15.2c8.7,0,15.5-6.7,15.5-15.2
					C-64.5-362.2-71.8-369.5-80-369.5"/>
			</g>
		</g>
	</g>
</g>
</svg>
