<?xml version="1.0" encoding="utf-8"?>
<!-- Generator: Adobe Illustrator 19.1.0, SVG Export Plug-In . SVG Version: 6.00 Build 0)  -->
<svg version="1.1" id="Layer_1" xmlns:serif="http://www.serif.com/"
	 xmlns="http://www.w3.org/2000/svg" xmlns:xlink="http://www.w3.org/1999/xlink" x="0px" y="0px" viewBox="0 471.8 2180 891.1"
	 style="enable-background:new 0 471.8 2180 891.1;" xml:space="preserve">
<style type="text/css">
	.st0{fill:#FFFFFF;}
</style>
<g>
	<g transform="matrix(1,0,0,1,835.4697,102.8287)">
		<path class="st0" d="M-773.8,1136.9c0,31.3,11.5,41.1,29.8,37.8c18.3-3.3,29.8-17.3,29.8-48.6V889.2c0-31.3-11.5-41-29.8-37.6
			c-18.3,3.5-29.8,17.5-29.8,48.8V1136.9z M-831.3,915.7c0-69.9,30.9-115.8,87.3-126.7c56.5-10.8,87.3,23.4,87.3,93.7v228.4
			c0,70.3-30.9,116-87.3,126.1c-56.5,10.1-87.3-24.3-87.3-94.3V915.7z"/>
	</g>
	<g transform="matrix(1,0,0,1,868.8425,101.026)">
		<path class="st0" d="M-531.6,1062l1-0.2l38.7-320.7l80-15.3v442.8l-54.4,9.7v-317l-1,0.2l-38.7,324l-54.4,9.7l-41.8-303.9l-1,0.2
			v311.4l-50.2,9V772.1l80-15.3L-531.6,1062z"/>
	</g>
	<g transform="matrix(1,0,0,1,895.0594,97.5231)">
		<path class="st0" d="M-341.3,1013.9l55.4-10.1L-313.1,784l-1,0.2L-341.3,1013.9z M-210.1,1131.2l-58,10.4l-9.9-78.9l-70.6,12.8
			l-9.9,82.3l-52.8,9.5l58.6-454.3l84.2-16.1L-210.1,1131.2z"/>
	</g>
	<g transform="matrix(1,0,0,1,921.1496,121.1838)">
		<path class="st0" d="M-152,709.6v137.2l22.5-4.2c21.4-4,34.5-17.9,34.5-53.7v-44.1c0-31.9-8.9-44.3-29.3-40.4L-152,709.6z
			 M-89.2,1081.2c-3.1-10.9-5.2-17.6-5.2-54v-70.3c0-41.5-11.5-54.8-37.7-49.9l-19.9,3.7v181.8l-57.5,10.3V656.8l86.8-16.6
			c59.6-11.4,85.2,17.6,85.2,86.7v35.2c0,46.1-12,77.8-37.6,97.2v1.3c28.8,9.4,38.2,40.9,38.2,87.7v69.1c0,21.8,0.5,37.7,6.3,53.3
			L-89.2,1081.2z"/>
	</g>
	<g transform="matrix(1,0,0,1,969.6566,90.4974)">
		<path class="st0" d="M200.1,882.9v60c0,72.3-29.3,118.8-85.8,128.9c-56.5,10.1-85.7-25.7-85.7-97.7V740.4
			c0-71.9,29.3-118.6,85.7-129.5c56.5-10.8,85.8,24.8,85.8,97.1V752l-54.4,10.2v-48.3c0-32.2-11.5-42.3-29.8-38.8
			c-18.3,3.5-29.8,17.9-29.8,50v243.1c0,32.2,11.5,41.7,29.8,38.3c18.3-3.3,29.8-17,29.8-49.2v-64.4L200.1,882.9z"/>
	</g>
	<g transform="matrix(1,0,0,1,980.2961,75.4857)">
		<path class="st0" d="M277.3,946.4c0,32.3,11.5,42.5,29.8,39.2c18.3-3.3,29.8-17.7,29.8-50.1V690.7c0-32.4-11.5-42.5-29.8-39
			c-18.3,3.5-29.8,18-29.8,50.3V946.4z M219.8,717.4c0-72.3,30.9-119.6,87.3-130.4c56.5-10.8,87.3,24.8,87.3,97.4v236.2
			c0,72.7-30.9,119.7-87.3,129.8c-56.5,10.1-87.3-25.7-87.3-98V717.4z"/>
	</g>
	<g transform="matrix(1,0,0,1,1005.6268,113.2578)">
		<path class="st0" d="M461.1,520v351.2c0,32.5,11.5,42.1,29.8,38.8c18.3-3.3,29.8-17.1,29.8-49.7V508.6l54.4-10.4v347.7
			c0,73.1-29.3,120.1-85.8,130.2c-56.5,10.1-85.8-26.2-85.8-98.9V531L461.1,520z"/>
	</g>
	<g transform="matrix(1,0,0,1,1031.1467,101.2715)">
		<path class="st0" d="M646.4,557v140.6l22.5-4.2c21.4-4,34.5-18.2,34.5-54.9v-45.2c0-32.7-8.9-45.5-29.3-41.6L646.4,557z
			 M709.1,938.3c-3.1-11.2-5.2-18.1-5.2-55.4v-72.1c0-42.6-11.5-56.2-37.7-51.4l-19.9,3.7v186.4l-57.5,10.3V502.6l86.8-16.6
			c59.6-11.4,85.2,18.4,85.2,89.3v36.1c0,47.2-12,79.7-37.7,99.5v1.3c28.8,9.8,38.2,42.1,38.2,90v70.9c0,22.3,0.5,38.6,6.3,54.6
			L709.1,938.3z"/>
	</g>
	<g transform="matrix(1,0,0,1,1047.6128,101.6252)">
		<path class="st0" d="M765.9,465.2l177.8-34.1v66l-60.1,11.4v395.2L826,914V519.4l-60.1,11.4V465.2z"/>
	</g>
	<g transform="matrix(1,0,0,1,1091.4954,102.8458)">
		<path class="st0" d="M1084.3,394.5v65L975.1,812.1l109.3-19.8v66.3L916,888.8v-64.7L1025.3,472l-104.1,19.8v-66L1084.3,394.5z"/>
	</g>
</g>
</svg>
