<?xml version="1.0" encoding="UTF-8" standalone="no"?>
<!DOCTYPE svg PUBLIC "-//W3C//DTD SVG 1.1//EN" "http://www.w3.org/Graphics/SVG/1.1/DTD/svg11.dtd">
<svg width="100%" height="100%" viewBox="0 0 2917 665" version="1.1" xmlns="http://www.w3.org/2000/svg" xmlns:xlink="http://www.w3.org/1999/xlink" xml:space="preserve" xmlns:serif="http://www.serif.com/" style="fill-rule:evenodd;clip-rule:evenodd;stroke-miterlimit:10;">
    <g transform="matrix(1,0,0,1,-16799,-6602)">
        <g id="Mesa-de-trabajo5" serif:id="Mesa de trabajo5" transform="matrix(0.987826,0,0,1,204.151587,-0.415502)">
            <rect x="16799.366" y="6602.416" width="2952.612" height="664.874" style="fill:none;"/>
            <g transform="matrix(8.436034,0,0,8.333333,10177.755127,-6856.388967)">
                <g transform="matrix(1,0,0,1,1094.5028,1622.974466)">
                    <path d="M0,63.949L-269.166,63.949C-286.825,63.949 -301.14,49.634 -301.14,31.975C-301.14,14.316 -286.825,0 -269.166,0L0,0C17.659,0 31.974,14.316 31.974,31.975C31.974,49.634 17.659,63.949 0,63.949Z" style="fill:none;fill-rule:nonzero;stroke:white;stroke-width:1px;"/>
                </g>
                <g transform="matrix(1,0,0,1,959.7188,1652.784966)">
                    <path d="M0,10.222C0.202,9.694 0.304,8.831 0.304,7.634L0.304,2.589C0.304,1.427 0.202,0.577 0,0.04C-0.203,-0.497 -0.559,-0.766 -1.07,-0.766C-1.563,-0.766 -1.911,-0.497 -2.113,0.04C-2.316,0.577 -2.417,1.427 -2.417,2.589L-2.417,7.634C-2.417,8.831 -2.32,9.694 -2.126,10.222C-1.933,10.75 -1.581,11.014 -1.07,11.014C-0.559,11.014 -0.203,10.75 0,10.222M-4.094,12.758C-4.825,12.265 -5.344,11.499 -5.652,10.46C-5.961,9.421 -6.115,8.039 -6.115,6.313L-6.115,3.962C-6.115,2.219 -5.939,0.819 -5.586,-0.237C-5.234,-1.294 -4.684,-2.064 -3.936,-2.549C-3.187,-3.033 -2.206,-3.275 -0.991,-3.275C0.207,-3.275 1.166,-3.028 1.888,-2.535C2.61,-2.042 3.138,-1.272 3.473,-0.224C3.807,0.824 3.975,2.219 3.975,3.962L3.975,6.313C3.975,8.039 3.812,9.426 3.486,10.473C3.16,11.521 2.632,12.287 1.902,12.771C1.171,13.255 0.18,13.497 -1.07,13.497C-2.355,13.497 -3.364,13.251 -4.094,12.758" style="fill:white;fill-rule:nonzero;"/>
                </g>
                <g transform="matrix(1,0,0,1,1012.186,1663.467966)">
                    <path d="M0,-11.146C-0.185,-10.917 -0.308,-10.543 -0.37,-10.024C-0.432,-9.504 -0.462,-8.716 -0.462,-7.66L-0.462,-6.497L2.205,-6.497L2.205,-7.66C2.205,-8.698 2.17,-9.486 2.1,-10.024C2.029,-10.561 1.902,-10.939 1.717,-11.159C1.532,-11.379 1.246,-11.49 0.859,-11.49C0.471,-11.49 0.185,-11.375 0,-11.146M-0.462,-4.332L-0.462,-3.513C-0.462,-2.474 -0.432,-1.694 -0.37,-1.175C-0.308,-0.656 -0.181,-0.277 0.013,-0.039C0.207,0.198 0.506,0.317 0.911,0.317C1.457,0.317 1.831,0.106 2.034,-0.317C2.236,-0.739 2.346,-1.443 2.364,-2.43L5.507,-2.245C5.525,-2.104 5.534,-1.91 5.534,-1.664C5.534,-0.167 5.124,0.951 4.305,1.691C3.487,2.43 2.329,2.8 0.832,2.8C-0.964,2.8 -2.223,2.237 -2.945,1.11C-3.667,-0.017 -4.028,-1.76 -4.028,-4.12L-4.028,-6.947C-4.028,-9.376 -3.654,-11.15 -2.905,-12.269C-2.157,-13.387 -0.876,-13.946 0.938,-13.946C2.188,-13.946 3.147,-13.717 3.817,-13.259C4.486,-12.801 4.957,-12.088 5.23,-11.12C5.503,-10.151 5.639,-8.813 5.639,-7.105L5.639,-4.332L-0.462,-4.332Z" style="fill:white;fill-rule:nonzero;"/>
                </g>
                <g transform="matrix(1,0,0,1,946.7491,1651.042166)">
                    <path d="M0,7.791L-4.147,-7.185L-0.528,-7.185L0.924,-0.397C1.294,1.276 1.567,2.702 1.743,3.882L1.849,3.882C1.972,3.037 2.245,1.62 2.668,-0.37L4.173,-7.185L7.792,-7.185L3.592,7.791L3.592,14.976L0,14.976L0,7.791Z" style="fill:white;fill-rule:nonzero;"/>
                </g>
                <g transform="matrix(1,0,0,1,975.4626,1666.281766)">
                    <path d="M0,-16.455L0,-0.264L-2.853,-0.264L-3.17,-2.245L-3.249,-2.245C-4.024,-0.748 -5.186,0 -6.735,0C-7.81,0 -8.602,-0.352 -9.112,-1.056C-9.623,-1.76 -9.878,-2.861 -9.878,-4.358L-9.878,-16.455L-6.233,-16.455L-6.233,-4.569C-6.233,-3.847 -6.154,-3.332 -5.996,-3.024C-5.837,-2.716 -5.573,-2.562 -5.203,-2.562C-4.886,-2.562 -4.583,-2.658 -4.292,-2.852C-4.001,-3.046 -3.786,-3.292 -3.645,-3.592L-3.645,-16.455L0,-16.455Z" style="fill:white;fill-rule:nonzero;"/>
                </g>
                <g transform="matrix(1,0,0,1,994.159,1666.281766)">
                    <path d="M0,-16.455L0,-0.264L-2.853,-0.264L-3.17,-2.245L-3.249,-2.245C-4.024,-0.748 -5.186,0 -6.735,0C-7.81,0 -8.602,-0.352 -9.112,-1.056C-9.623,-1.76 -9.878,-2.861 -9.878,-4.358L-9.878,-16.455L-6.233,-16.455L-6.233,-4.569C-6.233,-3.847 -6.154,-3.332 -5.996,-3.024C-5.837,-2.716 -5.573,-2.562 -5.203,-2.562C-4.886,-2.562 -4.583,-2.658 -4.292,-2.852C-4.001,-3.046 -3.786,-3.292 -3.645,-3.592L-3.645,-16.455L0,-16.455Z" style="fill:white;fill-rule:nonzero;"/>
                </g>
                <g transform="matrix(1,0,0,1,985.3673,1663.086466)">
                    <path d="M0,-16.297L-3.619,-16.297L-3.619,2.932L-7.184,2.932L-7.184,-16.297L-10.803,-16.297L-10.803,-19.229L0,-19.229L0,-16.297Z" style="fill:white;fill-rule:nonzero;"/>
                </g>
                <g transform="matrix(1,0,0,1,1002.8813,1650.274466)">
                    <path d="M0,8.745C0,9.925 -0.049,10.849 -0.145,11.518C-0.242,12.188 -0.405,12.663 -0.634,12.944C-0.863,13.226 -1.171,13.367 -1.558,13.367C-1.858,13.367 -2.135,13.297 -2.39,13.156C-2.646,13.015 -2.853,12.804 -3.011,12.522L-3.011,3.33C-2.888,2.891 -2.677,2.529 -2.377,2.247C-2.078,1.966 -1.752,1.825 -1.4,1.825C-1.03,1.825 -0.744,1.97 -0.542,2.261C-0.339,2.551 -0.198,3.04 -0.119,3.727C-0.04,4.413 0,5.391 0,6.658L0,8.745ZM3.341,2.141C3.121,1.12 2.764,0.38 2.271,-0.078C1.778,-0.536 1.1,-0.765 0.238,-0.765C-0.432,-0.765 -1.057,-0.575 -1.638,-0.197C-2.219,0.182 -2.668,0.679 -2.985,1.296L-3.011,1.296L-3.011,-7.236L-6.524,-7.236L-6.524,15.743L-3.513,15.743L-3.143,14.211L-3.064,14.211C-2.783,14.757 -2.36,15.189 -1.796,15.506C-1.233,15.823 -0.608,15.981 0.079,15.981C1.311,15.981 2.219,15.413 2.8,14.277C3.381,13.141 3.671,11.368 3.671,8.955L3.671,6.393C3.671,4.58 3.561,3.162 3.341,2.141" style="fill:white;fill-rule:nonzero;"/>
                </g>
                <g transform="matrix(1,0,0,1,914.5945,1649.409166)">
                    <path d="M0,11.08L0,0L9.595,5.54L0,11.08ZM23.833,-3.35C23.409,-4.939 22.157,-6.191 20.568,-6.615C17.688,-7.387 6.138,-7.387 6.138,-7.387C6.138,-7.387 -5.412,-7.387 -8.292,-6.615C-9.881,-6.191 -11.133,-4.939 -11.557,-3.35C-12.329,-0.47 -12.329,5.54 -12.329,5.54C-12.329,5.54 -12.329,11.549 -11.557,14.43C-11.133,16.019 -9.881,17.27 -8.292,17.695C-5.412,18.467 6.138,18.467 6.138,18.467C6.138,18.467 17.688,18.467 20.568,17.695C22.157,17.27 23.409,16.019 23.833,14.43C24.605,11.549 24.605,5.54 24.605,5.54C24.605,5.54 24.605,-0.47 23.833,-3.35" style="fill:white;fill-rule:nonzero;"/>
                </g>
            </g>
        </g>
    </g>
</svg>
