<?xml version="1.0" encoding="utf-8"?>
<!-- Generator: Adobe Illustrator 19.1.0, SVG Export Plug-In . SVG Version: 6.00 Build 0)  -->
<svg version="1.1" id="Layer_1" xmlns="http://www.w3.org/2000/svg" xmlns:xlink="http://www.w3.org/1999/xlink" x="0px" y="0px"
	 viewBox="-241 267 28 28" style="enable-background:new -241 267 28 28;" xml:space="preserve">
<style type="text/css">
	.st0{fill:#DF2C52;}
</style>
<g>
	<path class="st0" d="M-227,268.6c1.9,0,3.7-0.1,5.6,0c3.8,0.2,6.7,3.3,6.8,7c0,3.5,0,7.1,0,10.6c0,3.8-3.1,7-7,7
		c-3.6,0-7.2,0-10.8,0c-3.9,0-7-3.2-7-7.1c0-3.5,0-7,0-10.6c0-4,3.2-7.1,7.2-7.1C-230.5,268.6-228.7,268.6-227,268.6L-227,268.6z
		 M-227,271c-1.8,0-3.5,0-5.3,0c-2.7,0-4.8,2-4.8,4.8c0,3.5,0,7,0,10.5c0,0.3,0,0.6,0.1,0.9c0.4,2.3,2.4,3.9,4.8,4
		c1.7,0,3.4,0,5.2,0s3.7,0,5.5,0c2.6-0.1,4.6-2.2,4.6-4.8c0-3.5,0-7,0-10.5c0-2.9-2.1-4.9-4.9-4.9C-223.5,271-225.2,271-227,271z"/>
	<path class="st0" d="M-227,287.5c-3.6,0-6.4-2.9-6.4-6.4s2.9-6.4,6.4-6.4s6.4,2.9,6.4,6.4S-223.4,287.5-227,287.5z M-227,285.2
		c2.3,0,4.2-1.8,4.2-4.1c0-2.3-1.8-4.2-4.1-4.2c-2.3,0-4.2,1.9-4.2,4.1C-231.2,283.3-229.3,285.2-227,285.2z"/>
	<path class="st0" d="M-218.9,274.4c0,0.8-0.7,1.5-1.5,1.5c-0.8,0-1.5-0.7-1.5-1.5c0-0.8,0.7-1.5,1.5-1.5
		C-219.6,272.9-218.9,273.6-218.9,274.4z"/>
</g>
</svg>
