<?xml version="1.0" encoding="utf-8"?>
<!-- Generator: Adobe Illustrator 19.1.0, SVG Export Plug-In . SVG Version: 6.00 Build 0)  -->
<svg version="1.1" id="Layer_1" xmlns="http://www.w3.org/2000/svg" xmlns:xlink="http://www.w3.org/1999/xlink" x="0px" y="0px"
	 viewBox="-241 267 28 28" style="enable-background:new -241 267 28 28;" xml:space="preserve">
<style type="text/css">
	.st0{fill:#DF2C52;}
</style>
<g>
	<path class="st0" d="M-238.3,269.5c0.1,0,0.2,0,0.3,0c2,0,4.1,0,6.1,0c0.2,0,0.3,0.1,0.4,0.2c1.9,2.7,3.7,5.4,5.6,8.1
		c0.1,0.2,0.2,0.2,0.3,0c2.3-2.7,4.7-5.5,7-8.2c0.1-0.1,0.1-0.1,0.2-0.1c0.6,0,1.2,0,1.9,0c-0.4,0.5-0.7,0.9-1.1,1.3
		c-2.4,2.8-4.8,5.5-7.2,8.3c-0.1,0.1-0.1,0.2,0,0.3c2.7,3.9,5.3,7.7,8,11.6c0.3,0.5,0.7,1,1.1,1.6c-0.1,0-0.2,0-0.2,0
		c-2.1,0-4.1,0-6.2,0c-0.2,0-0.3-0.1-0.4-0.2c-2-2.9-3.9-5.7-5.9-8.6c-0.2-0.3-0.2-0.3-0.4,0c-2.5,2.9-5,5.8-7.4,8.7
		c-0.1,0.1-0.1,0.1-0.2,0.1c-0.6,0-1.2,0-1.8,0c0.6-0.6,1.1-1.3,1.6-1.9c1.8-2.1,3.6-4.2,5.4-6.3c0.5-0.6,1-1.2,1.6-1.8
		c0.2-0.2,0.2-0.3,0-0.5c-2.9-4.2-5.7-8.3-8.5-12.4C-238.2,269.6-238.2,269.6-238.3,269.5z M-218.7,290.9c0,0,0-0.1-0.1-0.1
		c-1.4-2-2.8-4-4.1-6c-3.1-4.5-6.2-9.1-9.4-13.6c-0.1-0.2-0.2-0.2-0.3-0.2c-0.9,0-1.7,0-2.6,0c-0.1,0-0.1,0-0.2,0c0,0,0,0.1,0.1,0.1
		c0.9,1.3,1.8,2.7,2.8,4c3.2,4.7,6.4,9.3,9.7,14c0.4,0.6,0.8,1.3,1.3,1.8h0.1C-220.5,290.9-219.6,290.9-218.7,290.9L-218.7,290.9
		C-218.7,291-218.7,290.9-218.7,290.9z"/>
	<path class="st0" d="M-218.7,291v-0.1V291L-218.7,291z"/>
	<path class="st0" d="M-221.6,291h0.1C-221.5,291-221.5,291-221.6,291z"/>
</g>
</svg>
