<?xml version="1.0" encoding="utf-8"?>
<!-- Generator: Adobe Illustrator 19.1.0, SVG Export Plug-In . SVG Version: 6.00 Build 0)  -->
<svg version="1.1" id="Layer_1" xmlns="http://www.w3.org/2000/svg" xmlns:xlink="http://www.w3.org/1999/xlink" x="0px" y="0px"
	 viewBox="-241 267 28 28" style="enable-background:new -241 267 28 28;" xml:space="preserve">
<style type="text/css">
	.st0{fill:#DF2C52;}
</style>
<g>
	<path class="st0" d="M-226.9,271.9c2.7,0.1,5.5,0.2,8.3,0.3c0.7,0,1.4,0.2,2,0.4c0.9,0.3,1.4,0.9,1.8,1.8c0.4,0.9,0.5,2,0.5,3
		c0.1,2.3,0.2,4.6,0.1,6.9c-0.1,0.8-0.2,1.6-0.3,2.4c-0.3,1.7-1.3,2.7-3,2.9c-1.5,0.2-3.1,0.3-4.7,0.4c-4,0.2-8,0.1-12-0.1
		c-0.7,0-1.5-0.1-2.2-0.2c-1-0.2-2-0.6-2.5-1.6c-0.3-0.6-0.4-1.2-0.5-1.8c-0.4-2.6-0.3-5.3-0.2-8c0-0.9,0.1-1.8,0.2-2.6
		c0.2-1.6,1.1-2.7,2.7-3c0.5-0.1,1-0.2,1.5-0.2C-232.4,272.1-229.7,272-226.9,271.9z M-229.5,277.2c0,2.5,0,5,0,7.5
		c2.2-1.3,4.3-2.5,6.5-3.8C-225.2,279.7-227.4,278.5-229.5,277.2z"/>
</g>
</svg>
