<?xml version="1.0" encoding="UTF-8" standalone="no"?>
<!DOCTYPE svg PUBLIC "-//W3C//DTD SVG 1.1//EN" "http://www.w3.org/Graphics/SVG/1.1/DTD/svg11.dtd">
<svg width="100%" height="100%" viewBox="0 0 2917 665" version="1.1" xmlns="http://www.w3.org/2000/svg" xmlns:xlink="http://www.w3.org/1999/xlink" xml:space="preserve" xmlns:serif="http://www.serif.com/" style="fill-rule:evenodd;clip-rule:evenodd;stroke-miterlimit:10;">
    <g transform="matrix(1,0,0,1,-16799,-6602)">
        <g id="Mesa-de-trabajo5" serif:id="Mesa de trabajo5" transform="matrix(0.987826,0,0,1,204.151587,-0.415502)">
            <rect x="16799.366" y="6602.416" width="2952.612" height="664.874" style="fill:none;"/>
            <g transform="matrix(8.436034,0,0,8.333333,4099.399933,-6856.388967)">
                <g transform="matrix(1,0,0,1,1815.0256,1622.974466)">
                    <path d="M0,63.949L-269.166,63.949C-286.825,63.949 -301.14,49.634 -301.14,31.975C-301.14,14.316 -286.825,0 -269.166,0L0,0C17.659,0 31.974,14.316 31.974,31.975C31.974,49.634 17.659,63.949 0,63.949Z" style="fill:none;fill-rule:nonzero;stroke:white;stroke-width:1px;"/>
                </g>
                <g transform="matrix(1,0,0,1,1738.4709,1642.891866)">
                    <path d="M0,-3.245C-1.368,-2.175 -0.842,0.053 0.842,0.369C2.509,0.684 3.719,-1.017 2.982,-2.631C2.561,-3.578 0.86,-3.929 0,-3.245" style="fill:white;fill-rule:nonzero;"/>
                </g>
                <g transform="matrix(1,0,0,1,1613.9592,1650.207166)">
                    <path d="M0,2.105C0,4.333 -0.649,5.403 -1.982,5.403C-3,5.403 -3.526,4.859 -3.631,3.701C-3.771,2.175 -2.561,1.017 -0.824,1.017L0,1.017L0,2.105ZM-3.105,-5.999C-4.175,-5.771 -5.122,-5.245 -5.824,-4.456C-6.473,-3.737 -6.947,-2.649 -6.789,-2.245C-6.701,-2.035 -4.947,-1.614 -4.157,-1.614C-4,-1.614 -3.754,-1.877 -3.614,-2.193C-3.14,-3.333 -1.842,-3.877 -0.86,-3.368C-0.386,-3.105 0,-2.263 0,-1.491L0,-0.824L-1.544,-0.807C-3.543,-0.772 -4.859,-0.281 -5.964,0.824C-6.876,1.754 -7.192,2.596 -7.192,4.105C-7.192,5.368 -6.771,6.35 -5.912,7.104C-5.087,7.824 -4.228,8.087 -2.982,7.999C-1.824,7.911 -1,7.455 -0.351,6.508C0.105,5.841 0.228,5.929 0.421,7.017L0.544,7.648L1.737,7.718C3.701,7.806 3.508,8.332 3.508,2.789C3.508,-2.754 3.403,-3.421 2.315,-4.631C1.965,-5.035 1.333,-5.508 0.93,-5.684C0.088,-6.052 -2.052,-6.227 -3.105,-5.999" style="fill:white;fill-rule:nonzero;"/>
                </g>
                <g transform="matrix(1,0,0,1,1625.1333,1657.416966)">
                    <path d="M0,-13.139C-0.789,-12.841 -1.456,-12.279 -1.824,-11.578C-2.14,-10.964 -2.263,-11.069 -2.491,-12.122L-2.666,-12.946L-5.473,-12.946L-5.526,-6.245L-5.561,0.474L-2.263,0.474L-2.193,-3.965C-2.123,-9.034 -2.017,-9.508 -0.912,-9.982C-0.386,-10.192 -0.14,-10.21 0.333,-10.052C1.491,-9.666 1.544,-9.473 1.596,-4.228L1.649,0.474L3.298,0.474C4.614,0.474 4.947,0.421 5.035,0.193C5.087,0.035 5.14,-1.965 5.14,-4.28C5.14,-7.578 5.192,-8.613 5.403,-9.104C5.929,-10.385 7.771,-10.508 8.438,-9.297C8.701,-8.806 8.736,-8.105 8.788,-4.14C8.841,-0.158 8.876,0.456 9.122,0.508C9.262,0.544 10.034,0.526 10.823,0.474L12.244,0.386L12.297,-3.649C12.349,-8.262 12.174,-10.017 11.543,-11.262C10.736,-12.876 9.227,-13.613 7.473,-13.209C6.648,-13.034 6.333,-12.841 5.631,-12.122C5.175,-11.648 4.789,-11.174 4.789,-11.087C4.789,-10.736 4.508,-10.964 4.122,-11.63C3.333,-12.999 1.474,-13.683 0,-13.139" style="fill:white;fill-rule:nonzero;"/>
                </g>
                <g transform="matrix(1,0,0,1,1646.3589,1649.575666)">
                    <path d="M0,3.017C-0.088,4.491 -0.403,5.315 -1.035,5.754C-1.544,6.104 -2.561,6.104 -3.052,5.771C-3.789,5.245 -3.894,3.771 -3.263,2.719C-2.912,2.14 -1.772,1.649 -0.754,1.649L0.105,1.649L0,3.017ZM-3.052,-5.368C-4.157,-5.14 -5.034,-4.666 -5.754,-3.93C-6.42,-3.245 -7.017,-1.877 -6.806,-1.544C-6.701,-1.368 -4.947,-0.983 -4.228,-0.983C-3.929,-0.983 -3.789,-1.14 -3.631,-1.614C-3.508,-1.982 -3.21,-2.368 -2.859,-2.579C-1.561,-3.368 -0.193,-2.666 -0.017,-1.07L0.088,-0.193L-1.456,-0.175C-3.982,-0.14 -5.806,0.754 -6.719,2.403C-7.753,4.28 -7.245,6.876 -5.613,8.017C-4.684,8.683 -3.105,8.841 -1.982,8.42C-1.245,8.139 -0.123,7.122 -0.123,6.736C-0.123,6.631 -0.053,6.56 0.035,6.56C0.123,6.56 0.263,6.929 0.351,7.385L0.491,8.227L3.473,8.227L3.473,3.228C3.473,-2.193 3.438,-2.491 2.491,-3.789C1.526,-5.105 -0.947,-5.824 -3.052,-5.368" style="fill:white;fill-rule:nonzero;"/>
                </g>
                <g transform="matrix(1,0,0,1,1669.3212,1655.610966)">
                    <path d="M0,-8.228C0.702,-7.561 1.035,-6.404 1.035,-4.562C1.035,-1.615 0.281,-0.176 -1.245,-0.176C-1.895,-0.176 -2.07,-0.264 -2.526,-0.79C-3.245,-1.597 -3.438,-2.369 -3.438,-4.404C-3.438,-6.86 -2.929,-8.228 -1.859,-8.649C-1.386,-8.842 -0.421,-8.614 0,-8.228M-2.438,-11.403C-3.508,-11.123 -4.368,-10.614 -5.14,-9.772C-7.859,-6.825 -7.771,-1.738 -4.982,1.069C-2.508,3.543 1.719,2.946 3.508,-0.106C5.438,-3.386 4.842,-8.053 2.228,-10.245C1,-11.28 -0.965,-11.771 -2.438,-11.403" style="fill:white;fill-rule:nonzero;"/>
                </g>
                <g transform="matrix(1,0,0,1,1681.6005,1657.696866)">
                    <path d="M0,-13.489C-0.789,-13.244 -1.649,-12.577 -1.982,-11.963C-2.316,-11.332 -2.561,-11.209 -2.561,-11.7C-2.561,-11.858 -2.649,-12.296 -2.754,-12.665L-2.93,-13.331L-4.368,-13.279L-5.806,-13.226L-5.806,0.106L-4.105,0.158L-2.403,0.211L-2.351,-4.315C-2.298,-8.507 -2.263,-8.893 -1.947,-9.455C-1.456,-10.279 -0.403,-10.682 0.333,-10.314C0.596,-10.174 1,-9.84 1.193,-9.577C1.544,-9.104 1.561,-8.823 1.614,-4.437L1.666,0.194L4.982,0.194L4.982,-4.771C4.982,-9.314 4.947,-9.823 4.631,-10.805C4.245,-11.893 3.526,-12.805 2.666,-13.244C2.017,-13.577 0.667,-13.7 0,-13.489" style="fill:white;fill-rule:nonzero;"/>
                </g>
                <g transform="matrix(1,0,0,1,1699.3002,1657.521566)">
                    <path d="M0,-13.226C-0.684,-12.98 -1.281,-12.454 -1.859,-11.559L-2.158,-11.121L-2.263,-11.823C-2.473,-13.016 -2.526,-13.051 -4.052,-13.051L-5.438,-13.051L-5.438,0.281L-2.105,0.281L-2.017,-4.315C-1.93,-8.612 -1.912,-8.928 -1.561,-9.402C-0.754,-10.489 0.474,-10.56 1.21,-9.577C1.561,-9.104 1.579,-8.806 1.666,-4.403L1.754,0.281L3.228,0.369C4.087,0.421 4.806,0.386 4.929,0.281C5.105,0.141 5.175,-0.964 5.21,-4.403C5.262,-8.648 5.28,-8.928 5.631,-9.402C6.438,-10.489 7.666,-10.56 8.402,-9.577C8.753,-9.104 8.771,-8.806 8.859,-4.403L8.946,0.281L12.279,0.281L12.332,-4.192C12.385,-8.858 12.262,-10.226 11.665,-11.402C10.946,-12.788 9.35,-13.647 7.929,-13.419C6.929,-13.261 6.368,-12.91 5.473,-11.91L4.666,-11.016L4.403,-11.525C3.842,-12.63 2.386,-13.507 1.14,-13.489C0.895,-13.472 0.386,-13.366 0,-13.226" style="fill:white;fill-rule:nonzero;"/>
                </g>
                <g transform="matrix(1,0,0,1,1729.4019,1657.925566)">
                    <path d="M0,-13.63C-2.035,-13.051 -3.175,-11.63 -3.175,-9.648C-3.175,-8.49 -2.684,-7.42 -1.93,-6.824C-1.193,-6.28 -0.719,-6.087 1.298,-5.543C2.158,-5.298 3,-4.982 3.158,-4.842C3.964,-4.122 3.579,-2.807 2.509,-2.508C1.228,-2.158 0.158,-2.789 -0.193,-4.087C-0.298,-4.456 -0.456,-4.807 -0.544,-4.859C-0.754,-4.982 -3.017,-4.596 -3.298,-4.368C-3.701,-4.07 -2.982,-2.07 -2.158,-1.21C-0.842,0.175 1.877,0.719 3.842,-0.018C5.841,-0.772 6.894,-2.123 6.894,-3.982C6.911,-5.35 6.754,-5.859 6.087,-6.613C5.385,-7.42 4.614,-7.824 2.789,-8.28C1.982,-8.49 1.105,-8.771 0.842,-8.894C-0.438,-9.56 0.175,-11.087 1.719,-11.087C2.316,-11.087 2.579,-10.981 2.982,-10.578C3.263,-10.297 3.491,-9.946 3.491,-9.788C3.491,-9.367 3.719,-9.332 4.912,-9.525C6.876,-9.823 6.947,-9.911 6.28,-11.35C5.35,-13.332 2.544,-14.349 0,-13.63" style="fill:white;fill-rule:nonzero;"/>
                </g>
                <g transform="matrix(1,0,0,1,1747.312,1658.294066)">
                    <path d="M0,-13.946C-2.368,-13.086 -3.964,-10.753 -4.192,-7.824C-4.456,-4.473 -2.807,-1.351 -0.245,-0.404C1.824,0.386 4.333,-0.246 5.684,-1.912C6.333,-2.684 6.806,-3.842 6.806,-4.614C6.806,-5.07 6.754,-5.105 5.596,-5.298C3.859,-5.579 3.894,-5.579 3.579,-4.666C3.158,-3.456 2.526,-2.86 1.631,-2.86C0.193,-2.86 -0.561,-4.333 -0.561,-7.157C-0.561,-9.157 -0.21,-10.385 0.509,-10.999C1.123,-11.525 1.965,-11.595 2.561,-11.174C2.965,-10.894 3.649,-9.718 3.649,-9.297C3.649,-8.771 4.07,-8.701 5.456,-8.964C6.806,-9.21 6.806,-9.21 6.806,-9.753C6.806,-11.122 5.228,-13.192 3.701,-13.823C2.631,-14.279 1.07,-14.332 0,-13.946" style="fill:white;fill-rule:nonzero;"/>
                </g>
                <g transform="matrix(1,0,0,1,1651.832,1657.873666)">
                    <path d="M0,-13.28C-0.053,-12.262 0,-10.982 0.105,-10.894C0.175,-10.824 1.403,-10.736 2.842,-10.684L5.473,-10.596L2.649,-6.649L-0.158,-2.702L-0.158,-1.352C-0.158,-0.317 -0.105,0.017 0.07,0.017C0.21,0.017 0.93,-0.141 1.702,-0.352C3.596,-0.843 6.017,-0.843 7.806,-0.352C9.736,0.175 9.666,0.21 9.666,-1.211C9.666,-2.281 9.613,-2.457 9.28,-2.685C8.595,-3.123 6.964,-3.492 5.578,-3.544C4.841,-3.562 4.228,-3.597 4.228,-3.614C4.228,-3.632 5.368,-5.228 6.771,-7.158L9.315,-10.649L9.315,-13.49L4.666,-13.49C1.07,-13.49 0.017,-13.438 0,-13.28" style="fill:white;fill-rule:nonzero;"/>
                </g>
                <g transform="matrix(1,0,0,1,1713.6669,1658.065766)">
                    <path d="M0,-13.437C-0.053,-13.297 -0.07,-10.946 -0.035,-8.209L0.018,-3.245L0.596,-2.052C1.351,-0.544 2.14,0.035 3.596,0.14C5.035,0.246 6.069,-0.228 6.771,-1.333C7.087,-1.824 7.315,-2.052 7.368,-1.912C7.403,-1.772 7.508,-1.351 7.578,-0.965L7.736,-0.263L9.192,-0.21L10.63,-0.158L10.63,-13.683L7.297,-13.683L7.297,-9.648C7.297,-7.438 7.21,-5.228 7.104,-4.754C6.806,-3.315 5.648,-2.631 4.438,-3.175C3.578,-3.561 3.526,-3.807 3.438,-8.859L3.35,-13.595L1.719,-13.647C0.421,-13.683 0.088,-13.647 0,-13.437" style="fill:white;fill-rule:nonzero;"/>
                </g>
                <g transform="matrix(1,0,0,1,1738.1027,1657.784966)">
                    <path d="M0,-13.279C-0.07,-13.226 -0.123,-10.174 -0.123,-6.525L-0.123,0.123L1.596,0.07L3.298,0.018L3.35,-6.297C3.368,-9.771 3.35,-12.788 3.298,-13.016C3.21,-13.384 3.122,-13.402 1.649,-13.402C0.807,-13.402 0.053,-13.349 0,-13.279" style="fill:white;fill-rule:nonzero;"/>
                </g>
                <g transform="matrix(1,0,0,1,1655.5508,1667.731866)">
                    <path d="M0,-8.596C-1.245,-8.386 -3.105,-7.473 -3.473,-6.912C-3.754,-6.491 -3.754,-6.456 -3.421,-6.21C-3.228,-6.07 -2.912,-6.017 -2.684,-6.07C-2.456,-6.123 -1.631,-6.245 -0.842,-6.351C1.368,-6.631 2.789,-6.315 2.789,-5.544C2.789,-5.053 2.228,-3.596 1.438,-2C0.754,-0.649 0.667,-0.351 0.86,-0.123C1.228,0.333 1.544,0.21 2.649,-0.86C3.859,-2.018 4.456,-2.93 4.912,-4.421C5.385,-5.965 5.35,-7.28 4.824,-7.824C4.087,-8.543 1.824,-8.929 0,-8.596" style="fill:white;fill-rule:nonzero;"/>
                </g>
                <g transform="matrix(1,0,0,1,1615.6432,1670.152766)">
                    <path d="M0,-10.052C-0.21,-9.491 0.474,-8.491 2.298,-6.667C5.771,-3.211 9.771,-1.123 15.156,0.052C16.823,0.42 17.437,0.456 21.734,0.456C26.962,0.438 28.19,0.28 31.681,-0.878C36.312,-2.404 41.153,-5.807 40.259,-6.895C40.118,-7.052 39.943,-7.175 39.855,-7.175C39.767,-7.175 38.802,-6.789 37.732,-6.316C32.733,-4.105 27.453,-3.176 21.12,-3.369C13.156,-3.614 7.157,-5.579 1.772,-9.684C0.877,-10.368 0.175,-10.508 0,-10.052" style="fill:white;fill-rule:nonzero;"/>
                </g>
            </g>
        </g>
    </g>
</svg>
