<?xml version="1.0" encoding="utf-8"?>
<!-- Generator: Adobe Illustrator 19.1.0, SVG Export Plug-In . SVG Version: 6.00 Build 0)  -->
<svg version="1.1" id="Layer_1" xmlns="http://www.w3.org/2000/svg" xmlns:xlink="http://www.w3.org/1999/xlink" x="0px" y="0px"
	 viewBox="0 0 30 30" style="enable-background:new 0 0 30 30;" xml:space="preserve">
<style type="text/css">
	.st0{fill:#2430BD;}
</style>
<g>
	<g>
		<path class="st0" d="M28.3,16h-27c-0.6,0-1-0.4-1-1s0.4-1,1-1h27c0.6,0,1,0.4,1,1S28.8,16,28.3,16z"/>
	</g>
	<g>
		<path class="st0" d="M21.3,22.2L21.3,22.2c-0.4-0.4-0.3-1,0-1.4l6.2-5.8l-6.2-5.8c-0.4-0.4-0.4-1,0-1.4l0,0c0.4-0.4,1-0.4,1.4,0
			l6.6,6.1c0.6,0.6,0.6,1.6,0,2.2l-6.6,6.1C22.2,22.6,21.6,22.5,21.3,22.2z"/>
	</g>
</g>
</svg>
