<?xml version="1.0" encoding="UTF-8" standalone="no"?><!DOCTYPE svg PUBLIC "-//W3C//DTD SVG 1.1//EN" "http://www.w3.org/Graphics/SVG/1.1/DTD/svg11.dtd"><svg width="100%" height="100%" viewBox="0 0 128 34" version="1.1" xmlns="http://www.w3.org/2000/svg" xmlns:xlink="http://www.w3.org/1999/xlink" xml:space="preserve" xmlns:serif="http://www.serif.com/" style="fill-rule:evenodd;clip-rule:evenodd;stroke-linejoin:round;stroke-miterlimit:2;"><rect id="Artboard1" x="0" y="0" width="128" height="33.075" style="fill:none;"/><g id="Artboard11" serif:id="Artboard1"><g><path d="M6.707,31.717c3.804,0 5.847,-2.254 5.847,-6.27c0,-3.065 -1.022,-5.037 -4.262,-7.891c-2.536,-2.219 -3.346,-3.523 -3.346,-5.319c0,-1.691 0.705,-2.36 1.937,-2.36c1.233,0 1.937,0.669 1.937,2.431l0,1.268l3.663,0l0,-1.022c0,-3.945 -1.867,-6.2 -5.636,-6.2c-3.769,0 -5.777,2.254 -5.777,6.129c0,2.818 1.057,4.826 4.298,7.679c2.536,2.219 3.311,3.523 3.311,5.566c0,1.832 -0.775,2.466 -2.008,2.466c-1.233,0 -2.008,-0.634 -2.008,-2.395l0,-1.691l-3.663,0l0,1.409c0,3.945 1.902,6.2 5.707,6.2Z" style="fill:#fff;fill-rule:nonzero;"/><path d="M20.409,31.717c3.804,0 5.777,-2.254 5.777,-6.2l0,-18.81l-3.734,0l0,19.092c0,1.761 -0.74,2.395 -1.973,2.395c-1.233,0 -1.973,-0.634 -1.973,-2.395l0,-19.092l-3.875,0l0,18.81c0,3.945 1.973,6.2 5.777,6.2Z" style="fill:#fff;fill-rule:nonzero;"/><path d="M33.971,31.717c3.804,0 5.847,-2.254 5.847,-6.27c0,-3.065 -1.022,-5.037 -4.262,-7.891c-2.536,-2.219 -3.346,-3.523 -3.346,-5.319c0,-1.691 0.705,-2.36 1.937,-2.36c1.233,0 1.937,0.669 1.937,2.431l0,1.268l3.663,0l0,-1.022c0,-3.945 -1.867,-6.2 -5.636,-6.2c-3.769,0 -5.777,2.254 -5.777,6.129c0,2.818 1.057,4.826 4.298,7.679c2.536,2.219 3.311,3.523 3.311,5.566c0,1.832 -0.775,2.466 -2.008,2.466c-1.233,0 -2.008,-0.634 -2.008,-2.395l0,-1.691l-3.663,0l0,1.409c0,3.945 1.902,6.2 5.707,6.2Z" style="fill:#fff;fill-rule:nonzero;"/><path d="M47.498,31.717c3.734,0 5.707,-2.254 5.707,-6.059l0,-3.487l-3.663,0l0,3.769c0,1.62 -0.775,2.254 -1.937,2.254c-1.162,0 -1.937,-0.634 -1.937,-2.254l0,-13.773c0,-1.62 0.775,-2.29 1.937,-2.29c1.162,0 1.937,0.669 1.937,2.29l0,2.853l3.663,0l0,-2.607c0,-3.804 -1.973,-6.059 -5.707,-6.059c-3.734,0 -5.707,2.254 -5.707,6.059l0,13.245c0,3.804 1.973,6.059 5.707,6.059Z" style="fill:#fff;fill-rule:nonzero;"/><path d="M55.529,31.364l3.875,0l0,-10.568l1.339,0c1.761,0 2.431,0.74 2.431,3.029l0,4.509c0,2.008 0.141,2.395 0.352,3.029l3.945,0c-0.387,-0.916 -0.423,-1.797 -0.423,-2.994l0,-4.333c0,-2.783 -0.634,-4.615 -2.571,-5.213l0,-0.07c1.726,-0.705 2.536,-2.325 2.536,-4.861l0,-1.515c0,-3.804 -1.726,-5.671 -5.742,-5.671l-5.742,0l0,24.658Zm3.875,-14.09l0,-7.045l1.761,0c1.374,0 1.973,0.775 1.973,2.536l0,1.902c0,1.973 -0.881,2.607 -2.325,2.607l-1.409,0Z" style="fill:#fff;fill-rule:nonzero;"/><path d="M69.549,5.051l2.924,0l3.769,-4.051l-4.227,0l-2.466,4.051Zm0.176,26.313l3.875,0l0,-24.658l-3.875,0l0,24.658Z" style="fill:#fff;fill-rule:nonzero;"/><path d="M76.488,31.364l6.094,0c3.875,0 5.883,-2.043 5.883,-5.847l0,-2.114c0,-2.607 -0.81,-4.438 -2.888,-5.143l0,-0.07c1.726,-0.705 2.501,-2.29 2.501,-4.826l0,-0.986c0,-3.804 -1.726,-5.671 -5.742,-5.671l-5.847,0l0,24.658Zm3.875,-14.619l0,-6.517l1.867,0c1.374,0 1.973,0.775 1.973,2.536l0,1.374c0,1.973 -0.881,2.607 -2.325,2.607l-1.515,0Zm0,11.096l0,-7.573l1.726,0c1.761,0 2.501,0.705 2.501,2.994l0,2.149c0,1.832 -0.705,2.431 -2.008,2.431l-2.219,0Z" style="fill:#fff;fill-rule:nonzero;"/><path d="M90.719,31.364l10.568,0l0,-3.523l-6.693,0l0,-7.573l5.319,0l0,-3.523l-5.319,0l0,-6.517l6.693,0l0,-3.523l-10.568,0l0,24.658Z" style="fill:#fff;fill-rule:nonzero;"/><path d="M106.536,31.364l3.875,0l0,-21.135l4.051,0l0,-3.523l-11.977,0l0,3.523l4.051,0l0,21.135Z" style="fill:#fff;fill-rule:nonzero;"/><path d="M116.328,31.364l10.568,0l0,-3.523l-6.693,0l0,-7.573l5.319,0l0,-3.523l-5.319,0l0,-6.517l6.693,0l0,-3.523l-10.568,0l0,24.658Z" style="fill:#fff;fill-rule:nonzero;"/></g></g></svg>