<?xml version="1.0" encoding="utf-8"?>
<!-- Generator: Adobe Illustrator 19.1.0, SVG Export Plug-In . SVG Version: 6.00 Build 0)  -->
<svg version="1.1" id="Layer_1" xmlns="http://www.w3.org/2000/svg" xmlns:xlink="http://www.w3.org/1999/xlink" x="0px" y="0px"
	 viewBox="0 0 45 45" style="enable-background:new 0 0 45 45;" xml:space="preserve">
<style type="text/css">
	.st0{fill:#FFFFFF;}
</style>
<g>
	<g>
		<path class="st0" d="M4.1,24.1c0-1,0-1.9,0-2.9c0.1,0,0.1-0.1,0.1-0.1c0-0.1,0-0.3,0-0.4c0.1-1.2,0.4-2.3,0.7-3.4
			c0.8-2.5,2.1-4.8,3.8-6.8c1.6-1.8,3.4-3.2,5.5-4.3c1.1-0.5,2.2-1,3.3-1.3c1.1-0.3,2.2-0.5,3.3-0.6c0,0,0.1,0,0.1-0.1
			c1,0,1.9,0,2.9,0C24,4.2,24,4.2,24.1,4.2c1.3,0.1,2.5,0.3,3.7,0.7c0.7,0.2,1.4,0.5,2.1,0.8c0.9,0.4,1.8,0.9,2.6,1.4
			c2,1.3,3.6,2.9,5,4.8c1.2,1.6,2,3.4,2.6,5.3c0.4,1.3,0.6,2.5,0.7,3.8c0,0,0,0.1,0.1,0.1c0,0.9,0,1.9,0,2.8c-0.1,0-0.1,0-0.1,0.1
			c-0.1,0.4-0.1,0.8-0.2,1.2c-0.1,0.6-0.2,1.2-0.4,1.8c-0.8,3.1-2.3,5.7-4.4,8.1c-0.6,0.7-1.3,1.2-1.9,1.8c-2.5,2-5.2,3.2-8.3,3.8
			c-0.1,0-0.1,0-0.2,0c0.2,0,0.1-0.1,0.1-0.2c0-4.2,0-8.4,0-12.5c0-0.3,0-0.3,0.2-0.3c1.2,0,2.4,0,3.6,0c0.1,0,0.2,0,0.2-0.2
			c0.1-0.4,0.1-0.9,0.2-1.3c0.2-1.2,0.4-2.4,0.6-3.6c-0.1,0-0.1,0-0.2,0c-1.5,0-3,0-4.5,0c-0.1,0-0.2,0-0.2-0.2c0-1.1,0-2.3,0-3.4
			c0-0.2,0-0.5,0-0.7c0.1-0.8,0.6-1.4,1.4-1.7c0.4-0.1,0.9-0.2,1.3-0.2c0.7,0,1.5,0,2.2,0c0.1,0,0.2,0,0.2-0.2c0-1.5,0-2.9,0-4.4
			c0-0.1-0.1-0.2-0.2-0.2c-0.6-0.1-1.1-0.1-1.7-0.2c-1.1-0.1-2.2-0.2-3.3-0.1c-1,0.1-1.9,0.4-2.8,0.8c-0.8,0.4-1.5,1.1-2,1.8
			c-0.8,1.2-1.2,2.6-1.2,4c0,1.4,0,2.9,0,4.3c0,0.2,0,0.2-0.2,0.2c-1.4,0-2.8,0-4.2,0c-0.2,0-0.2,0-0.2,0.2c0,1.6,0,3.2,0,4.8
			c0,0.2,0,0.2,0.2,0.2c1.4,0,2.8,0,4.2,0c0.2,0,0.2,0,0.2,0.2c0,4.2,0,8.3,0,12.5c0,0.1,0,0.2,0,0.2c-0.1,0.1-0.1,0.1-0.2,0.1
			c-1.6-0.3-3.2-0.8-4.7-1.5c-4-2-7-5-8.9-9.1c-0.9-1.9-1.4-3.9-1.6-6C4.1,24.1,4.2,24,4.1,24.1z"/>
	</g>
</g>
</svg>
