<?xml version="1.0" encoding="utf-8"?>
<!-- Generator: Adobe Illustrator 19.1.0, SVG Export Plug-In . SVG Version: 6.00 Build 0)  -->
<svg version="1.1" id="Layer_1" xmlns="http://www.w3.org/2000/svg" xmlns:xlink="http://www.w3.org/1999/xlink" x="0px" y="0px"
	 viewBox="0 0 45 45" style="enable-background:new 0 0 45 45;" xml:space="preserve">
<style type="text/css">
	.st0{fill:#FFFFFF;}
</style>
<g>
	<g>
		<path class="st0" d="M24.7,7.2c3,0.1,8.3-0.1,13.5,0.7c3.3,0.5,5.1,2.2,5.4,5.5c0.7,6.1,0.9,12.3,0,18.4c-0.5,3.1-2.1,4.8-5.3,5.2
			c-6.7,0.8-13.4,0.8-20.1,0.7c-3.7-0.1-7.5-0.1-11.2-0.6c-3.6-0.6-5.1-2.2-5.6-5.8c-0.8-5.7-0.6-11.3-0.1-17C1.7,9.9,3.6,8,8,7.7
			C12.8,7.3,17.7,7.2,24.7,7.2z M18.2,28.9c3.8-2.2,7.3-4.3,11-6.5c-3.8-2.2-7.3-4.2-11-6.4C18.2,20.5,18.2,24.5,18.2,28.9z"/>
	</g>
</g>
</svg>
