<?xml version="1.0" encoding="utf-8"?>
<!-- Generator: Adobe Illustrator 19.1.0, SVG Export Plug-In . SVG Version: 6.00 Build 0)  -->
<svg version="1.1" id="Layer_1" xmlns:serif="http://www.serif.com/"
	 xmlns="http://www.w3.org/2000/svg" xmlns:xlink="http://www.w3.org/1999/xlink" x="0px" y="0px" viewBox="0 170.6 960 218.8"
	 style="enable-background:new 0 170.6 960 218.8;" xml:space="preserve">
<style type="text/css">
	.st0{fill:none;stroke:#DF2C52;stroke-width:2.7366;stroke-miterlimit:10;}
	.st1{fill:#DF2C52;}
</style>
<g>
	<path class="st0" d="M848.3,367.5H111.7c-48.3,0-87.5-39.2-87.5-87.5v0c0-48.3,39.2-87.5,87.5-87.5h736.6
		c48.3,0,87.5,39.2,87.5,87.5v0C935.8,328.3,896.6,367.5,848.3,367.5z"/>
	<g transform="translate(0.000000,563.000000) scale(0.100000,-0.100000)">
		<path class="st1" d="M6388,3249c-37.4-29.3-23-90.2,23-98.9c45.6-8.6,78.7,37.9,58.6,82.1C6458.1,3258.1,6411.5,3267.7,6388,3249z
			"/>
		<path class="st1" d="M2895.7,3124.1c-29.3-6.2-55.2-20.6-74.4-42.2c-17.8-19.7-30.7-49.4-26.4-60.5c2.4-5.8,50.4-17.3,72-17.3
			c4.3,0,11,7.2,14.9,15.8c13,31.2,48.5,46.1,75.4,32.2c13-7.2,23.5-30.2,23.5-51.4v-18.2l-42.2-0.5c-54.7-1-90.7-14.4-121-44.6
			c-25-25.4-33.6-48.5-33.6-89.8c0-34.6,11.5-61.4,35-82.1c22.6-19.7,46.1-26.9,80.2-24.5c31.7,2.4,54.2,14.9,72,40.8
			c12.5,18.2,15.8,15.8,21.1-13.9l3.4-17.3l32.6-1.9c53.8-2.4,48.5-16.8,48.5,134.9s-2.9,169.9-32.6,203.1
			c-9.6,11-26.9,24-37.9,28.8C2983,3125.6,2924.5,3130.4,2895.7,3124.1z M2980.6,2902.4c0-61-17.8-90.2-54.2-90.2
			c-27.8,0-42.2,14.9-45.1,46.6c-3.8,41.8,29.3,73.4,76.8,73.4h22.6V2902.4z"/>
		<path class="st1" d="M3286.4,3122.2c-21.6-8.2-39.8-23.5-49.9-42.7c-8.6-16.8-12-13.9-18.2,14.9l-4.8,22.6h-38.4h-38.4l-1.4-183.4
			l-1-183.9h45.1h45.1l1.9,121.5c1.9,138.7,4.8,151.7,35,164.7c14.4,5.8,21.1,6.2,34.1,1.9c31.7-10.6,33.1-15.8,34.6-159.4
			l1.4-128.7h45.1c36,0,45.1,1.4,47.5,7.7c1.4,4.3,2.9,59,2.9,122.4c0,90.2,1.4,118.6,7.2,132c14.4,35,64.8,38.4,83,5.3
			c7.2-13.4,8.2-32.6,9.6-141.1c1.4-109,2.4-125.8,9.1-127.2c3.8-1,25-0.5,46.6,1l38.9,2.4l1.4,110.4
			c1.4,126.3-3.4,174.3-20.6,208.3c-22.1,44.2-63.4,64.3-111.4,53.3c-22.6-4.8-31.2-10.1-50.4-29.8c-12.5-13-23-25.9-23-28.3
			c0-9.6-7.7-3.4-18.2,14.9C3377.6,3118.4,3326.7,3137.1,3286.4,3122.2z"/>
		<path class="st1" d="M3783.7,3124.1c-30.2-6.2-54.2-19.2-73.9-39.4c-18.2-18.7-34.6-56.2-28.8-65.3c2.9-4.8,50.9-15.4,70.6-15.4
			c8.2,0,12,4.3,16.3,17.3c3.4,10.1,11.5,20.6,21.1,26.4c35.5,21.6,73,2.4,77.8-41.3l2.9-24l-42.2-0.5c-69.1-1-119.1-25.4-144-70.6
			c-28.3-51.4-14.4-122.4,30.2-153.6c25.4-18.2,68.6-22.6,99.4-11c20.2,7.7,50.9,35.5,50.9,46.1c0,2.9,1.9,4.8,4.3,4.8
			s6.2-10.1,8.6-22.6l3.8-23h40.8h40.8v136.8c0,148.3-1,156.5-26.9,192C3909,3116.9,3841.4,3136.6,3783.7,3124.1z M3867.3,2894.7
			c-2.4-40.3-11-62.9-28.3-74.9c-13.9-9.6-41.8-9.6-55.2-0.5c-20.2,14.4-23,54.7-5.8,83.5c9.6,15.8,40.8,29.3,68.6,29.3h23.5
			L3867.3,2894.7z"/>
		<path class="st1" d="M4428.9,3124.1c-29.3-7.7-52.8-21.6-73.9-44.6c-74.4-80.6-72-219.9,4.3-296.7
			c67.7-67.7,183.4-51.4,232.3,32.2c52.8,89.8,36.5,217.5-35,277.5C4523,3120.8,4469.2,3134.2,4428.9,3124.1z M4495.7,3037.3
			c19.2-18.2,28.3-49.9,28.3-100.3c0-80.6-20.6-120-62.4-120c-17.8,0-22.6,2.4-35,16.8c-19.7,22.1-25,43.2-25,98.9
			c0,67.2,13.9,104.6,43.2,116.2C4457.7,3054.1,4484.1,3047.8,4495.7,3037.3z"/>
		<path class="st1" d="M4831.7,3124.1c-21.6-6.7-45.1-25-54.2-41.8c-9.1-17.3-15.8-20.6-15.8-7.2c0,4.3-2.4,16.3-5.3,26.4l-4.8,18.2
			l-39.4-1.4l-39.4-1.4v-182.4v-182.4l46.6-1.4l46.6-1.4l1.4,123.9c1.4,114.7,2.4,125.3,11,140.7c13.4,22.6,42.2,33.6,62.4,23.5
			c7.2-3.8,18.2-13,23.5-20.2c9.6-13,10.1-20.6,11.5-140.7l1.4-126.7h45.6h45.1v135.9c0,124.3-1,138.3-9.6,165.1
			c-10.6,29.8-30.2,54.7-53.8,66.7C4886.9,3126.5,4849.9,3129.9,4831.7,3124.1z"/>
		<path class="st1" d="M5316,3121.7c-18.7-6.7-35-21.1-50.9-45.6l-8.2-12l-2.9,19.2c-5.8,32.6-7.2,33.6-49,33.6h-37.9v-182.4v-182.4
			h45.6h45.6l2.4,125.8c2.4,117.6,2.9,126.3,12.5,139.2c22.1,29.8,55.7,31.7,75.8,4.8c9.6-13,10.1-21.1,12.5-141.6l2.4-128.2
			l40.3-2.4c23.5-1.4,43.2-0.5,46.6,2.4c4.8,3.8,6.7,34.1,7.7,128.2c1.4,116.2,1.9,123.9,11.5,136.8c22.1,29.8,55.7,31.7,75.8,4.8
			c9.6-13,10.1-21.1,12.5-141.6l2.4-128.2h45.6h45.6l1.4,122.4c1.4,127.7-1.9,165.1-18.2,197.3c-19.7,37.9-63.4,61.4-102.2,55.2
			c-27.4-4.3-42.7-13.9-67.2-41.3l-22.1-24.5l-7.2,13.9c-15.4,30.2-55.2,54.2-89.3,53.8C5340.5,3128.5,5326.6,3125.6,5316,3121.7z"
			/>
		<path class="st1" d="M6139.8,3121.7c-55.7-15.8-86.9-54.7-86.9-109c0-31.7,13.4-61,34.1-77.3c20.2-14.9,33.1-20.2,88.3-35
			c23.5-6.7,46.6-15.4,50.9-19.2c22.1-19.7,11.5-55.7-17.8-63.8c-35-9.6-64.3,7.7-73.9,43.2c-2.9,10.1-7.2,19.7-9.6,21.1
			c-5.8,3.4-67.7-7.2-75.4-13.4c-11-8.2,8.6-62.9,31.2-86.4c36-37.9,110.4-52.8,164.2-32.6c54.7,20.6,83.5,57.6,83.5,108.5
			c0.5,37.4-3.8,51.4-22.1,72c-19.2,22.1-40.3,33.1-90.2,45.6c-22.1,5.8-46.1,13.4-53.3,16.8c-35,18.2-18.2,60,24,60
			c16.3,0,23.5-2.9,34.6-13.9c7.7-7.7,13.9-17.3,13.9-21.6c0-11.5,6.2-12.5,38.9-7.2c53.8,8.2,55.7,10.6,37.4,49.9
			C6286.2,3113.6,6209.4,3141.4,6139.8,3121.7z"/>
		<path class="st1" d="M6629.9,3120.3c-64.8-23.5-108.5-87.4-114.7-167.5c-7.2-91.7,37.9-177.1,108-203.1
			c56.6-21.6,125.3-4.3,162.3,41.3c17.8,21.1,30.7,52.8,30.7,73.9c0,12.5-1.4,13.4-33.1,18.7c-47.5,7.7-46.6,7.7-55.2-17.3
			c-11.5-33.1-28.8-49.4-53.3-49.4c-39.4,0-60,40.3-60,117.6c0,54.7,9.6,88.3,29.3,105.1c16.8,14.4,39.8,16.3,56.2,4.8
			c11-7.7,29.8-39.8,29.8-51.4c0-14.4,11.5-16.3,49.4-9.1c37,6.7,37,6.7,37,21.6c0,37.4-43.2,94.1-85,111.4
			C6701.9,3129.4,6659.2,3130.9,6629.9,3120.3z"/>
		<path class="st1" d="M4017,3113.6c-1.4-27.8,0-62.9,2.9-65.3c1.9-1.9,35.5-4.3,74.9-5.8l72-2.4l-77.3-108l-76.8-108v-37
			c0-28.3,1.4-37.4,6.2-37.4c3.8,0,23.5,4.3,44.6,10.1c51.8,13.4,118.1,13.4,167.1,0c52.8-14.4,50.9-15.4,50.9,23.5
			c0,29.3-1.4,34.1-10.6,40.3c-18.7,12-63.4,22.1-101.3,23.5c-20.2,0.5-37,1.4-37,1.9c0,0.5,31.2,44.2,69.6,97l69.6,95.5v38.9v38.9
			h-127.2C4046.3,3119.3,4017.5,3117.9,4017,3113.6z"/>
		<path class="st1" d="M5709.2,3112.6c-1.4-3.8-1.9-68.2-1-143.1l1.4-135.9l15.8-32.6c20.6-41.3,42.2-57.1,82.1-60
			c39.4-2.9,67.7,10.1,86.9,40.3c8.6,13.4,14.9,19.7,16.3,15.8c1-3.8,3.8-15.4,5.8-25.9l4.3-19.2l39.8-1.4l39.4-1.4v185.3v184.8
			h-45.6h-45.6v-110.4c0-60.5-2.4-121-5.3-133.9c-8.2-39.4-39.8-58.1-73-43.2c-23.5,10.6-25,17.3-27.4,155.5l-2.4,129.6l-44.6,1.4
			C5720.7,3119.3,5711.6,3118.4,5709.2,3112.6z"/>
		<path class="st1" d="M6377.9,3116c-1.9-1.4-3.4-85-3.4-184.8v-181.9l47,1.4l46.6,1.4l1.4,172.8c0.5,95,0,177.6-1.4,183.9
			c-2.4,10.1-4.8,10.6-45.1,10.6C6400,3119.3,6379.3,3117.9,6377.9,3116z"/>
		<path class="st1" d="M4118.8,2715.6c-34.1-5.8-85-30.7-95-46.1c-7.7-11.5-7.7-12.5,1.4-19.2c5.3-3.8,13.9-5.3,20.2-3.8
			c6.2,1.4,28.8,4.8,50.4,7.7c60.5,7.7,99.4-1,99.4-22.1c0-13.4-15.4-53.3-37-97c-18.7-37-21.1-45.1-15.8-51.4
			c10.1-12.5,18.7-9.1,49,20.2c33.1,31.7,49.4,56.6,61.9,97.4c13,42.2,12,78.2-2.4,93.1C4230.7,2714.2,4168.7,2724.8,4118.8,2715.6z
			"/>
		<path class="st1" d="M3026.7,2689.2c-5.8-15.4,13-42.7,62.9-92.6c95-94.6,204.5-151.7,351.9-183.9c45.6-10.1,62.4-11,180-11
			c143.1,0.5,176.7,4.8,272.2,36.5c126.7,41.8,259.2,134.9,234.7,164.7c-3.8,4.3-8.6,7.7-11,7.7c-2.4,0-28.8-10.6-58.1-23.5
			c-136.8-60.5-281.3-85.9-454.6-80.6c-217.9,6.7-382.1,60.5-529.5,172.8C3050.7,2697.9,3031.5,2701.7,3026.7,2689.2z"/>
	</g>
</g>
</svg>
