<?xml version="1.0" encoding="utf-8"?>
<!-- Generator: Adobe Illustrator 19.1.0, SVG Export Plug-In . SVG Version: 6.00 Build 0)  -->
<svg version="1.1" id="Layer_1" xmlns:serif="http://www.serif.com/"
	 xmlns="http://www.w3.org/2000/svg" xmlns:xlink="http://www.w3.org/1999/xlink" x="0px" y="0px" viewBox="0 171.2 960 218.8"
	 style="enable-background:new 0 171.2 960 218.8;" xml:space="preserve">
<style type="text/css">
	.st0{fill:none;stroke:#DF2C52;stroke-width:2.7366;stroke-miterlimit:10;}
	.st1{fill:#DF2C52;}
</style>
<g>
	<path class="st0" d="M848.3,368.1H111.7c-48.3,0-87.5-39.2-87.5-87.5v0c0-48.3,39.2-87.5,87.5-87.5h736.6
		c48.3,0,87.5,39.2,87.5,87.5v0C935.8,328.9,896.6,368.1,848.3,368.1z"/>
	<g>
		<g id="_Group__2_">
			<g id="_Group_2_2_">
				<path id="_Compound_Path__2_" class="st1" d="M406.5,302.2H392l-3.5,10.3h-6.2l13.8-38.2h6.4l13.8,38.2H410L406.5,302.2z
					 M393.5,297.5H405l-5.7-16.8h-0.2L393.5,297.5z"/>
				<path id="_Compound_Path_2_2_" class="st1" d="M446.1,298.6c0,8.7-4.6,14.2-11.6,14.2c-3.6,0.2-7-1.7-8.8-4.9h-0.1v13.8h-5.7
					v-37.1h5.5v4.6h0.1c1.8-3.2,5.2-5,8.9-4.9C441.4,284.4,446.1,290,446.1,298.6z M440.2,298.6c0-5.6-2.9-9.4-7.4-9.4
					c-4.4,0-7.3,3.8-7.3,9.4c0,5.6,2.9,9.4,7.3,9.4C437.3,308,440.2,304.3,440.2,298.6L440.2,298.6z"/>
				<path id="_Compound_Path_3_2_" class="st1" d="M476.8,298.6c0,8.7-4.6,14.2-11.6,14.2c-3.6,0.2-7-1.7-8.8-4.9h-0.1v13.8h-5.7
					v-37.1h5.5v4.6h0.1c1.8-3.2,5.2-5,8.9-4.9C472.1,284.4,476.8,290,476.8,298.6z M470.9,298.6c0-5.6-2.9-9.4-7.4-9.4
					c-4.4,0-7.3,3.8-7.3,9.4c0,5.6,2.9,9.4,7.3,9.4C468,308,470.9,304.3,470.9,298.6z"/>
				<path id="_Compound_Path_4_2_" class="st1" d="M481.4,274.3h5.7v38.2h-5.7V274.3z"/>
				<path id="_Compound_Path_5_2_" class="st1" d="M516.9,304.4c-0.8,5.1-5.7,8.5-12,8.5c-8.1,0-13.1-5.4-13.1-14.2
					c0-8.7,5.1-14.4,12.9-14.4c7.7,0,12.6,5.3,12.6,13.8v2h-19.7v0.3c-0.4,4,2.6,7.5,6.6,7.9c0.3,0,0.6,0,0.9,0
					c2.8,0.3,5.4-1.3,6.4-3.9H516.9L516.9,304.4z M497.5,296.1h13.9c0.2-3.7-2.6-6.9-6.3-7.1c-0.2,0-0.3,0-0.5,0
					C500.7,289,497.6,292.1,497.5,296.1C497.5,296,497.5,296.1,497.5,296.1z"/>
				<path id="_Compound_Path_6_2_" class="st1" d="M566.6,312.6v-28.1h-0.2l-11.5,27.9h-4.4l-11.6-27.9h-0.2v28.1h-5.4v-38.2h6.9
					l12.4,30.2h0.2l12.3-30.2h6.9v38.2H566.6z"/>
				<path id="_Compound_Path_7_2_" class="st1" d="M602.5,312.6H597v-4.8h-0.1c-1.5,3.4-5,5.4-8.6,5.1c-5.1,0.3-9.5-3.6-9.8-8.7
					c0-0.5,0-1,0-1.6v-17.9h5.7v16.8c-0.5,3,1.5,5.9,4.5,6.4c0.5,0.1,1,0.1,1.4,0.1c3.6,0.1,6.5-2.7,6.7-6.2c0-0.3,0-0.6,0-1v-16.1
					h5.7L602.5,312.6L602.5,312.6z"/>
				<path id="_Compound_Path_8_2_" class="st1" d="M618.8,284.4c6.2,0,10.6,3.4,10.7,8.3h-5.4c-0.4-2.6-2.9-4.4-5.5-4l0,0
					c-3.1,0-5.2,1.4-5.2,3.6c0,1.7,1.4,2.8,4.3,3.5l4.7,1.1c5.6,1.4,7.7,3.4,7.7,7.5c0,5-4.8,8.5-11.6,8.5c-6.6,0-11-3.4-11.4-8.5
					h5.7c0.5,2.8,3.2,4.6,6,4.1c3.4,0,5.6-1.4,5.6-3.6c0-1.7-1.1-2.7-4-3.4l-5-1.2c-5-1.2-7.6-3.8-7.6-7.7
					C607.9,287.8,612.3,284.4,618.8,284.4z"/>
				<path id="_Compound_Path_9_2_" class="st1" d="M634.6,277.4c0-1.8,1.4-3.4,3.3-3.4c1.8,0,3.4,1.4,3.4,3.3c0,1.8-1.4,3.4-3.3,3.4
					c0,0-0.1,0-0.1,0C636.1,280.6,634.6,279.2,634.6,277.4C634.6,277.4,634.6,277.4,634.6,277.4z M635,284.7h5.7v27.9H635V284.7z"/>
				<path id="_Compound_Path_10_2_" class="st1" d="M665.4,294.3c-0.5-3.2-3.4-5.4-6.6-5.1c-4.4,0-7.3,3.7-7.3,9.5
					c0,5.9,2.9,9.5,7.4,9.5c3.2,0.3,6-1.9,6.5-5h5.5c-0.7,6-6.1,10.3-12.1,9.8c-8,0-13.1-5.4-13.1-14.3c0-8.7,5.2-14.3,13.1-14.3
					c6.1-0.5,11.4,3.9,12.1,9.9H665.4z"/>
			</g>
			<path id="_Compound_Path_11_3_" class="st1" d="M365,249.7c-1.9-4.5-5.7-7.9-10.4-9.3c-3.1-0.8-6.2-1.1-9.4-1h-34.8
				c-3.2-0.1-6.3,0.2-9.4,1c-4.7,1.4-8.5,4.8-10.4,9.3c-1.2,3.5-1.7,7.3-1.5,11v34.8c-0.2,3.7,0.4,7.4,1.5,11
				c1.9,4.5,5.7,7.9,10.4,9.3c3.1,0.8,6.2,1.1,9.4,1h34.8c3.2,0.1,6.3-0.2,9.4-1c4.7-1.4,8.5-4.8,10.4-9.3c1.2-3.5,1.7-7.3,1.5-11
				v-34.8C366.7,257,366.2,253.3,365,249.7z M345.6,292.7c-0.2,1-0.6,1.9-1.1,2.7c-0.6,0.8-1.3,1.5-2.1,2c-0.8,0.5-1.7,0.8-2.7,1
				c-1.4,0.4-2.8,0.4-4.2,0.2c-1-0.2-2-0.7-2.8-1.4c-2.5-2.2-2.7-6-0.4-8.5c0,0,0.1-0.1,0.1-0.1c0.7-0.7,1.6-1.3,2.5-1.6
				c1.4-0.5,2.8-0.8,4.3-1.1c0.5-0.1,1-0.2,1.5-0.3c0.6-0.1,1.2-0.4,1.7-0.9c0.4-0.6,0.5-1.2,0.5-1.9l0-17.1c0-1.3-0.6-1.7-1.8-1.4
				c-0.9,0.2-20,4-20,4c-0.9,0-1.5,0.8-1.5,1.7c0,0.1,0,0.2,0,0.3l0,25c0,1-0.1,1.9-0.3,2.8c-0.2,1-0.6,1.9-1.1,2.7
				c-0.6,0.8-1.3,1.5-2.1,2c-0.8,0.5-1.7,0.8-2.7,1c-1.4,0.4-2.8,0.4-4.2,0.2c-1-0.2-2-0.7-2.8-1.4c-2.5-2.3-2.6-6.2-0.3-8.6
				c0.7-0.7,1.6-1.3,2.5-1.6c1.4-0.5,2.8-0.8,4.3-1.1c0.5-0.1,1-0.2,1.5-0.3c0.6-0.1,1.2-0.4,1.7-0.9c0.4-0.6,0.6-1.2,0.5-1.9v-28.8
				c0-0.3,0-0.5,0.1-0.8c0.1-0.6,0.3-1.1,0.8-1.5c0.4-0.3,0.9-0.6,1.4-0.6l0,0l23-4.6c0.2,0,1.9-0.3,2-0.4c1-0.1,1.8,0.6,2,1.5
				c0,0.2,0,0.3,0,0.5l0,36.5C345.8,290.8,345.7,291.7,345.6,292.7L345.6,292.7z"/>
		</g>
		<g>
			<path class="st1" d="M395.7,262.6h-11.6V244h2.9v16h8.7L395.7,262.6L395.7,262.6z"/>
			<path class="st1" d="M399.1,244.4c-0.1-1,0.7-1.8,1.7-1.9c1-0.1,1.8,0.7,1.9,1.7c0.1,1-0.7,1.8-1.7,1.9c0,0-0.1,0-0.1,0
				C399.9,246.1,399.1,245.4,399.1,244.4C399.1,244.4,399.1,244.4,399.1,244.4z M399.5,248.5h2.8v14.1h-2.8V248.5z"/>
			<path class="st1" d="M411.9,248.3c2.6-0.4,5.1,1.3,5.5,4h-2.7c-0.4-1.2-1.6-1.9-2.8-1.7c-1.3-0.2-2.5,0.6-2.7,1.8
				c0,0.8,0.7,1.4,2.2,1.7l2.3,0.5c2.1,0,3.9,1.7,3.9,3.8c-0.3,2.8-2.8,4.8-5.6,4.5c-0.1,0-0.2,0-0.3,0c-2.7,0.5-5.3-1.3-5.8-4h2.8
				c0.5,1.2,1.8,1.9,3.1,1.8c1.3,0.3,2.7-0.6,3-1.9c-0.2-1-1-1.7-2.1-1.7l-2.5-0.6c-2.1-0.1-3.9-1.8-3.9-3.9
				c0.3-2.6,2.6-4.5,5.2-4.3C411.7,248.2,411.8,248.3,411.9,248.3z"/>
			<path class="st1" d="M425,245v3.6h3v2.3h-3v7.2c-0.2,1,0.4,1.9,1.4,2.1c0.2,0,0.4,0,0.6,0c0.4,0,0.7,0,1.1-0.1v2.3
				c-0.5,0.1-1,0.1-1.5,0.1c-3.1,0-4.3-1.1-4.3-3.8v-7.9H420v-2.3h2.2V245H425z"/>
			<path class="st1" d="M443.4,258.8c-0.8,2.7-3.3,4.4-6.1,4.1c-3.5,0.1-6.5-2.7-6.6-6.2c0-0.3,0-0.7,0.1-1c-0.5-3.6,2-6.8,5.6-7.3
				c0.3,0,0.6-0.1,0.9-0.1c3.4-0.1,6.3,2.6,6.3,6c0,0.4,0,0.7-0.1,1.1v1h-9.9v0.2c-0.2,2,1.3,3.8,3.4,4c0.1,0,0.2,0,0.4,0
				c1.4,0.2,2.7-0.5,3.3-1.7H443.4z M433.7,254.3h7.1c0.1-1.9-1.3-3.5-3.1-3.6c-0.1,0-0.2,0-0.3,0
				C435.3,250.6,433.7,252.2,433.7,254.3C433.7,254.2,433.7,254.2,433.7,254.3z"/>
			<path class="st1" d="M447.3,248.5h2.7v2.2h0.2c0.7-1.6,2.4-2.7,4.2-2.5c2.5-0.2,4.7,1.7,4.9,4.2c0,0.3,0,0.7,0,1v9.1h-2.8v-8.4
				c0.3-1.5-0.7-3-2.2-3.3c-0.3-0.1-0.5-0.1-0.8,0c-1.8-0.1-3.3,1.3-3.4,3.1c0,0.2,0,0.3,0,0.5v8.2h-2.8V248.5z"/>
			<path class="st1" d="M470.5,255.6c-0.4-3.7,2.3-6.9,6-7.3c3.7-0.4,6.9,2.3,7.3,6c0,0.4,0,0.8,0,1.3c0.4,3.7-2.3,6.9-6,7.3
				s-6.9-2.3-7.3-6C470.4,256.4,470.4,256,470.5,255.6z M480.9,255.6c0-3-1.4-4.8-3.8-4.8c-2.4,0-3.8,1.8-3.8,4.8
				c0,3.1,1.4,4.8,3.8,4.8C479.5,260.4,480.9,258.6,480.9,255.6z"/>
			<path class="st1" d="M487.4,248.5h2.7v2.2h0.2c0.7-1.6,2.4-2.7,4.2-2.5c2.5-0.2,4.7,1.7,4.9,4.2c0,0.3,0,0.7,0,1v9.1h-2.8v-8.4
				c0.3-1.5-0.7-3-2.2-3.3c-0.3-0.1-0.5-0.1-0.8,0c-1.8-0.1-3.3,1.3-3.4,3.1c0,0.2,0,0.3,0,0.5v8.2h-2.8V248.5z"/>
		</g>
	</g>
</g>
</svg>
