<?xml version="1.0" encoding="utf-8"?>
<!-- Generator: Adobe Illustrator 19.1.0, SVG Export Plug-In . SVG Version: 6.00 Build 0)  -->
<svg version="1.1" id="Layer_1" xmlns="http://www.w3.org/2000/svg" xmlns:xlink="http://www.w3.org/1999/xlink" x="0px" y="0px"
	 viewBox="0 0 64 64" style="enable-background:new 0 0 64 64;" xml:space="preserve">
<style type="text/css">
	.st0{fill:none;stroke:#DF2C52;stroke-miterlimit:10;}
	.st1{fill:#DF2C52;}
</style>
<g>
	<path class="st0" d="M32,62L32,62C15.4,62,2,48.6,2,32v0C2,15.4,15.4,2,32,2h0c16.6,0,30,13.4,30,30v0C62,48.6,48.6,62,32,62z"/>
	<path class="st1" d="M43.3,20.4c0.3-1.8,0.8-2.9,1.3-2.9h0c0.9,0,1.7,3.9,1.7,8.7c0,4.8-0.8,8.7-1.7,8.7c-0.4,0-0.7-0.7-1-1.8
		c-0.5,4.1-1.4,6.9-2.5,6.9c-0.8,0-1.6-1.7-2.1-4.3c-0.3,5-1.2,8.6-2.2,8.6c-0.6,0-1.2-1.4-1.6-3.7c-0.5,4.8-1.7,8.1-3.1,8.1
		c-1.4,0-2.6-3.3-3.1-8.1c-0.4,2.3-1,3.7-1.6,3.7c-1,0-1.9-3.6-2.2-8.6c-0.5,2.6-1.3,4.3-2.1,4.3c-1.1,0-2-2.8-2.5-6.9
		c-0.3,1.1-0.6,1.8-1,1.8c-0.9,0-1.7-3.9-1.7-8.7c0-4.8,0.8-8.7,1.7-8.7c0.5,0,1,1.1,1.3,2.9c0.5-3.1,1.3-5.1,2.2-5.1
		c1.1,0,2,2.8,2.5,7c0.4-3,1.1-4.9,1.8-4.9c1,0,1.9,3.8,2.3,9C30.1,23.7,31,22,32,22c1,0,1.9,1.7,2.5,4.4c0.3-5.2,1.2-9,2.3-9
		c0.7,0,1.4,1.9,1.8,4.9c0.4-4.1,1.4-7,2.5-7C42,15.3,42.8,17.3,43.3,20.4z M15.3,25.4c0-2.2,0.4-3.9,1-3.9c0.5,0,1,1.7,1,3.9
		c0,2.2-0.4,3.9-1,3.9C15.7,29.3,15.3,27.5,15.3,25.4z M46.8,25.4c0-2.2,0.4-3.9,1-3.9c0.5,0,1,1.7,1,3.9c0,2.2-0.4,3.9-1,3.9
		C47.2,29.3,46.8,27.5,46.8,25.4z"/>
</g>
</svg>
