<?xml version="1.0" encoding="utf-8"?>
<!-- Generator: Adobe Illustrator 19.1.0, SVG Export Plug-In . SVG Version: 6.00 Build 0)  -->
<svg version="1.1" id="Layer_1" xmlns:serif="http://www.serif.com/"
	 xmlns="http://www.w3.org/2000/svg" xmlns:xlink="http://www.w3.org/1999/xlink" x="0px" y="0px" viewBox="0 171.2 960 218.8"
	 style="enable-background:new 0 171.2 960 218.8;" xml:space="preserve">
<style type="text/css">
	.st0{fill:none;stroke:#DF2C52;stroke-width:2.7366;stroke-miterlimit:10;}
	.st1{fill:#DF2C52;}
</style>
<g>
	<path class="st0" d="M848.3,368.1H111.7c-48.3,0-87.5-39.2-87.5-87.5v0c0-48.3,39.2-87.5,87.5-87.5h736.6
		c48.3,0,87.5,39.2,87.5,87.5v0C935.8,328.9,896.6,368.1,848.3,368.1z"/>
	<g>
		<path class="st1" d="M503.6,303.6H472v-38.4h31.6v10.4h-16.7v4.4h15.7v8.5h-15.7v4.7h16.7V303.6z M538.8,303.6h-31.6v-38.4h31.6
			v10.4h-16.7v4.4h15.7v8.5h-15.7v4.7h16.7V303.6z M653.7,303.6c-2.2-5.9-5.2-12.1-9.2-19.2c4.7-1.4,7.6-4.4,7.6-9
			c0-7-6.4-10.3-16.6-10.3h-21v38.4h15v-15.9c3.3,5.6,5.8,10.9,7.4,15.9H653.7z M629.4,282.4v-6.8h5.2c2.2,0,3.4,1.2,3.4,3.4
			s-1.2,3.4-3.4,3.4H629.4z M610.9,303.6h-31.6v-38.4h31.6v10.4h-16.7v4.4h15.7v8.5h-15.7v4.7h16.7V303.6z M542.4,275.6h15.4
			c-6.4,5.2-11.7,11.2-15.7,17.7v10.4h34v-10.4h-17c3.9-5.7,9.3-11.3,17-17.7v-10.4h-33.7V275.6z M430.1,265.2h19.3
			c11.9,0,20.4,7.9,20.4,19.2c0,11.3-8.4,19.2-20.4,19.2h-19.3V265.2z M445,293.3h3.5c3.7,0,5.7-2.5,5.7-8.8c0-6.3-2-8.8-5.7-8.8
			H445V293.3z"/>
		<path class="st1" d="M387.9,256.3c0.9-5.2,2.2-8.5,3.7-8.5h0c2.7,0,4.9,11.4,4.9,25.4c0,14.1-2.2,25.4-4.9,25.4
			c-1.1,0-2.2-1.9-3-5.2c-1.3,11.9-4,20-7.2,20c-2.4,0-4.6-4.9-6.1-12.6c-1,14.7-3.5,25.1-6.5,25.1c-1.9,0-3.5-4.1-4.8-10.9
			c-1.5,13.9-5,23.6-9,23.6c-4.1,0-7.5-9.7-9-23.6c-1.2,6.7-2.9,10.9-4.8,10.9c-3,0-5.5-10.4-6.5-25.1c-1.5,7.7-3.7,12.6-6.1,12.6
			c-3.2,0-5.9-8.2-7.2-20c-0.8,3.3-1.9,5.2-3,5.2c-2.7,0-4.9-11.4-4.9-25.4c0-14.1,2.2-25.4,4.9-25.4c1.5,0,2.8,3.3,3.7,8.5
			c1.5-9,3.8-14.8,6.5-14.8c3.2,0,5.9,8.3,7.2,20.3c1.3-8.7,3.2-14.3,5.4-14.3c3,0,5.6,11,6.6,26.2c1.8-7.8,4.4-12.8,7.3-12.8
			c2.9,0,5.5,4.9,7.3,12.8c1-15.3,3.5-26.2,6.6-26.2c2.2,0,4.1,5.6,5.4,14.3c1.3-12,4.1-20.3,7.2-20.3
			C384.1,241.5,386.5,247.3,387.9,256.3z M306.3,270.8c0-6.3,1.3-11.4,2.8-11.4c1.6,0,2.8,5.1,2.8,11.4c0,6.3-1.3,11.4-2.8,11.4
			C307.6,282.1,306.3,277,306.3,270.8z M398,270.8c0-6.3,1.3-11.4,2.8-11.4c1.6,0,2.8,5.1,2.8,11.4c0,6.3-1.3,11.4-2.8,11.4
			C399.3,282.1,398,277,398,270.8z"/>
	</g>
</g>
</svg>
