<?xml version="1.0" encoding="UTF-8" standalone="no"?>
<!DOCTYPE svg PUBLIC "-//W3C//DTD SVG 1.1//EN" "http://www.w3.org/Graphics/SVG/1.1/DTD/svg11.dtd">
<svg width="100%" height="100%" viewBox="0 0 32 32" version="1.1" xmlns="http://www.w3.org/2000/svg" xmlns:xlink="http://www.w3.org/1999/xlink" xml:space="preserve" xmlns:serif="http://www.serif.com/" style="fill-rule:evenodd;clip-rule:evenodd;stroke-linejoin:round;stroke-miterlimit:2;">
    <g transform="matrix(1,0,0,1,-1686.359969,-3687)">
        <g id="Mesa-de-trabajo7" serif:id="Mesa de trabajo7" transform="matrix(0.780463,0,0,0.658036,399.891904,1260.721916)">
            <rect x="1648.34" y="3687.152" width="41.001" height="48.63" style="fill:none;"/>
            <g transform="matrix(2.133158,0,0,2.530031,-2004.435586,-4613.353613)">
                <g transform="matrix(1,0,0,1,1721.9838,3283.081028)">
                    <path d="M0,14.523C1.481,14.494 2.962,14.552 4.443,14.409C6.149,14.245 6.951,13.474 7.064,11.748C7.256,8.808 7.257,5.867 7.064,2.927C6.951,1.212 6.144,0.403 4.428,0.29C1.488,0.096 -1.453,0.095 -4.394,0.289C-6.149,0.406 -6.928,1.193 -7.047,2.973C-7.243,5.913 -7.24,8.854 -7.045,11.794C-6.934,13.47 -6.112,14.248 -4.443,14.409C-2.963,14.551 -1.481,14.497 0,14.523M0.001,16.305C-1.608,16.265 -3.217,16.258 -4.819,16.065C-7.135,15.786 -8.259,14.888 -8.61,12.596C-9.143,9.127 -9.122,5.621 -8.626,2.151C-8.303,-0.106 -7.392,-0.993 -5.127,-1.307C-1.716,-1.779 1.725,-1.782 5.135,-1.298C7.41,-0.975 8.332,-0.049 8.653,2.227C9.134,5.637 9.138,9.079 8.657,12.488C8.32,14.871 7.171,15.793 4.758,16.073C3.176,16.256 1.589,16.265 0.001,16.305" style="fill:rgb(223,44,82);fill-rule:nonzero;"/>
                </g>
                <g transform="matrix(1,0,0,1,1721.976,3287.728128)">
                    <path d="M0,5.4C1.457,5.412 2.719,4.158 2.719,2.698C2.719,1.262 1.51,0.031 0.064,-0.005C-1.385,-0.041 -2.662,1.199 -2.686,2.665C-2.71,4.118 -1.463,5.388 0,5.4M-0.005,-1.768C2.463,-1.779 4.475,0.221 4.482,2.691C4.488,5.154 2.461,7.179 0.007,7.163C-2.45,7.146 -4.412,5.196 -4.448,2.735C-4.484,0.285 -2.471,-1.756 -0.005,-1.768" style="fill:rgb(223,44,82);fill-rule:nonzero;"/>
                </g>
                <g transform="matrix(0.017072,-0.999854,-0.999854,-0.017072,1726.515086,3285.066583)">
                    <path d="M-0.888,-0.853C-1.37,-0.853 -1.756,-0.458 -1.757,0.037C-1.759,0.552 -1.407,0.903 -0.888,0.904C-0.39,0.905 -0,0.523 -0.001,0.037C-0.002,-0.437 -0.418,-0.854 -0.888,-0.853" style="fill:rgb(223,44,82);fill-rule:nonzero;"/>
                </g>
            </g>
        </g>
    </g>
</svg>
