<?xml version="1.0" encoding="UTF-8" standalone="no"?>
<!DOCTYPE svg PUBLIC "-//W3C//DTD SVG 1.1//EN" "http://www.w3.org/Graphics/SVG/1.1/DTD/svg11.dtd">
<svg width="100%" height="100%" viewBox="0 0 32 32" version="1.1" xmlns="http://www.w3.org/2000/svg" xmlns:xlink="http://www.w3.org/1999/xlink" xml:space="preserve" xmlns:serif="http://www.serif.com/" style="fill-rule:evenodd;clip-rule:evenodd;stroke-linejoin:round;stroke-miterlimit:2;">
    <g transform="matrix(1,0,0,1,-1723.939452,-3687)">
        <g id="Mesa-de-trabajo7" serif:id="Mesa de trabajo7" transform="matrix(0.780463,0,0,0.658036,437.471387,1260.721916)">
            <rect x="1648.34" y="3687.152" width="41.001" height="48.63" style="fill:none;"/>
            <g transform="matrix(2.139607,0,0,2.537679,1665.784519,3710.424813)">
                <path d="M0,1.292C-0.412,1.177 -0.815,1.137 -1.228,1.198C-2.499,1.385 -3.459,2.481 -3.483,3.779C-3.506,5.07 -2.576,6.205 -1.311,6.429C0.356,6.726 1.835,5.484 1.838,3.778C1.842,1.327 1.841,-1.125 1.841,-3.576C1.842,-5.173 1.842,-6.77 1.842,-8.367L1.842,-8.572L4.774,-8.572C4.814,-7.335 5.251,-6.266 6.133,-5.397C7.01,-4.531 8.079,-4.107 9.322,-4.081L9.322,-1.166C7.653,-1.174 6.153,-1.686 4.782,-2.7L4.782,-2.477C4.787,-0.414 4.774,1.649 4.8,3.712C4.837,6.611 2.704,8.864 0.117,9.311C-3.085,9.864 -6.135,7.567 -6.441,4.341C-6.717,1.436 -4.645,-1.22 -1.76,-1.663C-1.214,-1.747 -0.668,-1.757 -0.119,-1.694C-0.028,-1.684 0.019,-1.661 0.018,-1.555C0.014,-0.629 0.016,0.297 0.015,1.223C0.015,1.239 0.008,1.255 0,1.292" style="fill:rgb(223,44,82);fill-rule:nonzero;"/>
            </g>
        </g>
    </g>
</svg>
