<?xml version="1.0" encoding="UTF-8" standalone="no"?>
<!DOCTYPE svg PUBLIC "-//W3C//DTD SVG 1.1//EN" "http://www.w3.org/Graphics/SVG/1.1/DTD/svg11.dtd">
<svg width="100%" height="100%" viewBox="0 0 32 32" version="1.1" xmlns="http://www.w3.org/2000/svg" xmlns:xlink="http://www.w3.org/1999/xlink" xml:space="preserve" xmlns:serif="http://www.serif.com/" style="fill-rule:evenodd;clip-rule:evenodd;stroke-linejoin:round;stroke-miterlimit:2;">
    <g transform="matrix(1,0,0,1,-1761.876563,-3687)">
        <g id="Mesa-de-trabajo7" serif:id="Mesa de trabajo7" transform="matrix(0.780463,0,0,0.658036,475.408498,1260.721916)">
            <rect x="1648.34" y="3687.152" width="41.001" height="48.63" style="fill:none;"/>
            <g transform="matrix(2.135475,0,0,2.532779,1654.581682,3731.293635)">
                <path d="M0,-15.658C0.023,-15.622 0.039,-15.596 0.056,-15.571C2.156,-12.564 4.256,-9.556 6.357,-6.55C7.871,-4.383 9.388,-2.219 10.901,-0.052C10.946,0.013 10.994,0.037 11.071,0.037C11.691,0.035 12.311,0.036 12.93,0.037L13.349,0.037C13.325,-0 13.309,-0.026 13.292,-0.05C11.159,-3.103 9.026,-6.155 6.893,-9.208C5.407,-11.334 3.922,-13.459 2.438,-15.586C2.403,-15.636 2.368,-15.657 2.305,-15.657C1.685,-15.655 1.065,-15.657 0.446,-15.658L0,-15.658M5.437,-5.813C5.296,-5.651 5.161,-5.499 5.029,-5.345C4.39,-4.604 3.752,-3.862 3.114,-3.12C2.364,-2.248 1.614,-1.375 0.865,-0.502C0.395,0.044 -0.073,0.59 -0.544,1.135C-0.561,1.155 -0.596,1.169 -0.623,1.169C-1.041,1.171 -1.46,1.171 -1.879,1.169C-1.947,1.169 -2.015,1.16 -2.107,1.154C0.187,-1.514 2.468,-4.166 4.755,-6.827C2.467,-10.158 0.183,-13.485 -2.108,-16.821C-2.073,-16.823 -2.048,-16.825 -2.023,-16.825C-0.331,-16.825 1.361,-16.825 3.053,-16.826C3.106,-16.826 3.138,-16.812 3.169,-16.766C4.641,-14.62 6.115,-12.475 7.588,-10.33C7.608,-10.301 7.63,-10.273 7.659,-10.234C7.701,-10.274 7.741,-10.307 7.774,-10.346C8.194,-10.83 8.614,-11.315 9.032,-11.801C9.755,-12.641 10.477,-13.48 11.199,-14.32C11.887,-15.12 12.575,-15.92 13.26,-16.722C13.322,-16.795 13.382,-16.83 13.482,-16.828C13.913,-16.82 14.344,-16.823 14.774,-16.821C14.804,-16.821 14.834,-16.817 14.881,-16.813C14.828,-16.748 14.785,-16.696 14.74,-16.644C13.662,-15.389 12.583,-14.133 11.504,-12.877C10.563,-11.781 9.622,-10.685 8.681,-9.589C8.592,-9.485 8.507,-9.378 8.416,-9.277C8.376,-9.232 8.378,-9.199 8.41,-9.152C8.716,-8.702 9.019,-8.248 9.327,-7.799C11.292,-4.934 13.258,-2.069 15.224,0.796C15.302,0.91 15.378,1.025 15.462,1.149C15.433,1.152 15.413,1.155 15.393,1.156C14.963,1.161 14.532,1.169 14.101,1.17C12.852,1.171 11.603,1.169 10.354,1.172C10.273,1.172 10.227,1.147 10.182,1.08C8.664,-1.131 7.143,-3.34 5.623,-5.549C5.565,-5.634 5.505,-5.717 5.437,-5.813" style="fill:rgb(223,44,82);fill-rule:nonzero;"/>
            </g>
        </g>
    </g>
</svg>
