<?xml version="1.0" encoding="utf-8"?>
<!-- Generator: Adobe Illustrator 19.1.0, SVG Export Plug-In . SVG Version: 6.00 Build 0)  -->
<svg version="1.1" id="Layer_1" xmlns:serif="http://www.serif.com/"
	 xmlns="http://www.w3.org/2000/svg" xmlns:xlink="http://www.w3.org/1999/xlink" x="0px" y="0px" viewBox="0 171.2 960 218.8"
	 style="enable-background:new 0 171.2 960 218.8;" xml:space="preserve">
<style type="text/css">
	.st0{fill:none;stroke:#DF2C52;stroke-width:2.7366;stroke-miterlimit:10;}
	.st1{fill:#DF2C52;}
</style>
<g>
	<path class="st0" d="M848.3,368.1H111.7c-48.3,0-87.5-39.2-87.5-87.5v0c0-48.3,39.2-87.5,87.5-87.5h736.6
		c48.3,0,87.5,39.2,87.5,87.5v0C935.8,328.9,896.6,368.1,848.3,368.1z"/>
	<g>
		<path class="st1" d="M404.1,280.6c0.1,25.3-20.8,46.6-47.2,45.9c-24.4-0.6-45.1-20.9-44.5-47.1c0.6-24.6,21-45.4,47.2-44.6
			C384.2,235.4,404.1,255.6,404.1,280.6z M345.5,260.3c-1,0.1-2,0.1-3,0.2c-3.7,0.2-7.4,0.7-11.1,1.4c-0.7,0.1-1.5,0.2-2.2,0.6
			c-2,1-2.8,3.2-2.1,5.3c0.7,2,2.8,3.2,4.9,2.8c5.1-1,10.3-1.6,15.5-1.6c2.7,0,5.4,0.1,8.2,0.3c6.2,0.6,12.3,1.8,18.2,3.7
			c4.3,1.4,8.4,3.2,12.4,5.2c2.1,1.1,4.7,0.2,5.7-1.9c1.1-2.1,0.3-4.7-1.8-5.8c-1.3-0.7-2.6-1.3-3.9-2c-6.9-3.2-14.1-5.4-21.5-6.8
			c-5.2-1-10.5-1.5-15.9-1.5C347.8,260.2,346.7,260.2,345.5,260.3z M348.3,276.1c-1.9,0-3.7,0.1-5.6,0.2c-3.5,0.3-7,0.8-10.4,1.5
			c-1.9,0.4-3.1,2.1-2.8,4c0.3,1.8,1.9,3.1,3.7,3c0.8-0.1,1.6-0.3,2.4-0.4c3.9-0.8,7.8-1.1,11.7-1.2c2.6,0,5.1,0.1,7.7,0.3
			c4.9,0.5,9.6,1.5,14.3,3c3.9,1.3,7.7,2.9,11.4,4.9c1.8,0.9,3.8,0.2,4.8-1.5c0.9-1.7,0.2-3.8-1.5-4.7c-4.3-2.3-8.8-4.2-13.5-5.7
			C363.3,277.2,355.9,276.1,348.3,276.1z M348.8,290.3c-2.4,0-4.3,0.1-6.2,0.3c-2.8,0.3-5.5,0.8-8.3,1.4c-1.5,0.3-2.5,1.8-2.2,3.3
			c0.4,1.5,1.8,2.4,3.4,2c4.1-1,8.2-1.5,12.4-1.5c1.9,0,3.8,0.1,5.7,0.2c4.6,0.4,9.1,1.4,13.5,3c3,1.1,5.9,2.4,8.7,4
			c0.4,0.2,0.9,0.4,1.3,0.3c1.3-0.1,2.3-1,2.6-2.1c0.3-1.2-0.3-2.4-1.4-3c-3.6-2-7.4-3.7-11.4-5
			C360.9,291.3,354.7,290.3,348.8,290.3z"/>
		<path class="st1" d="M617.5,291.3c0.6-1.5,1.2-2.9,1.8-4.4c1.7-4.1,3.4-8.2,5.1-12.3c0.6-1.3,1.1-2.7,1.7-4
			c0.2-0.4,0.4-0.6,0.9-0.6c2.7,0,5.5,0,8.2,0c0.7,0,0.8,0.1,0.5,0.8c-2.4,5.6-4.9,11.1-7.3,16.6c-2.2,4.9-4.3,9.8-6.5,14.7
			c-1.7,3.9-3.4,7.7-5.1,11.6c-0.2,0.4-0.5,0.6-0.9,0.6c-2.9,0-5.9,0-8.8,0c-0.7,0-0.8-0.2-0.5-0.8c1.8-4.1,3.7-8.1,5.6-12.2
			c0.1-0.2,0.1-0.4,0-0.6c-2.2-4.7-4.4-9.5-6.6-14.3c-1.3-2.8-2.6-5.6-3.8-8.4c-0.1-0.3-0.3-0.4-0.6-0.4c-2.2,0-4.3,0-6.5,0
			c-0.4,0-0.5,0.1-0.5,0.5c0,8.2,0,16.5,0,24.7c0,0.7,0,0.8-0.8,0.8c-2.7,0-5.4,0-8,0c-0.8,0-0.8,0-0.8-0.8c0-8.2,0-16.4,0-24.6
			c0-0.4-0.1-0.6-0.6-0.6c-1.7,0-3.3,0-5,0c-0.6,0-0.7-0.1-0.7-0.7c0-2.1,0-4.2,0-6.3c0-0.6,0.1-0.7,0.7-0.7c1.6,0,3.3,0,4.9,0
			c0.5,0,0.6-0.2,0.6-0.6c0-1.8-0.1-3.5,0.2-5.3c0.8-4.1,2.9-7.2,6.9-8.7c2.7-1,5.5-0.9,8.2-0.1c0.7,0.2,1.5,0.5,2.1,0.8
			c0.3,0.2,0.5,0.4,0.6,0.7c1,2.3,2,4.7,2.9,7c0.1,0.2,0.2,0.4,0,0.5c-0.2,0.2-0.4,0-0.5-0.1c-1.4-0.8-2.7-1.5-4.3-1.7
			c-1.8-0.3-3.4,0-4.9,1.2c-1.1,0.9-1.6,2.1-1.7,3.5c-0.1,0.8,0,1.5-0.1,2.3c0,0.4,0.1,0.5,0.5,0.5c4.4,0,8.8,0,13.2,0
			c0.5,0,0.8,0.1,1,0.6c1.7,4.2,3.5,8.4,5.2,12.5C615.3,285.9,616.4,288.6,617.5,291.3z"/>
		<path class="st1" d="M470.5,277c0.9-1.4,1.9-2.8,3.2-4c2.4-2.3,5.3-3.4,8.6-3.6c3.5-0.1,6.7,0.9,9.4,3.1c2.7,2.2,4.4,5.1,5.3,8.5
			c1.2,4.8,1.1,9.5-0.9,14c-1.9,4.4-5,7.6-9.8,8.8c-4.6,1.1-8.8,0.3-12.4-2.8c-1.2-1-2.2-2.3-3-3.6c-0.1-0.2-0.2-0.4-0.4-0.6
			c-0.1,0.2-0.1,0.3-0.1,0.5c0,5.4,0,10.8,0,16.2c0,0.8-0.1,0.9-0.9,0.9c-2.6,0-5.1,0-7.7,0c-0.8,0-0.9-0.1-0.9-0.9
			c0-14.2,0-28.4,0-42.6c0-0.8,0-0.9,0.8-0.9c2.6,0,5.3,0,7.9,0c0.6,0,0.7,0.1,0.7,0.7C470.5,272.9,470.5,274.9,470.5,277z
			 M488,286.8c0-1.2-0.1-2.4-0.5-3.5c-0.6-2.1-1.8-3.8-3.7-4.8c-3.2-1.7-7.3-0.9-10.1,2c-1.6,1.7-2.7,3.7-3.4,5.9
			c-0.1,0.3-0.1,0.5,0,0.7c0.9,2.5,2.2,4.7,4.1,6.5c1.7,1.6,3.7,2.6,6.1,2.5c2.2-0.1,4-1,5.4-2.7C487.6,291.5,488,289.2,488,286.8z"
			/>
		<path class="st1" d="M423.1,293.4c0-1.5,0-3,0-4.6c0-0.2-0.1-0.5,0.2-0.6c0.3-0.1,0.4,0.1,0.6,0.3c4,4.5,9.2,6.8,15.1,7.6
			c2.1,0.3,4.3,0.1,6.3-0.7c2.2-0.9,3.1-2.8,3-5.1c-0.1-1.9-1.3-3-2.9-3.8c-1.8-0.9-3.8-1.5-5.8-2c-3-0.8-6-1.6-8.9-2.9
			c-2.2-1-4.2-2.3-5.6-4.3c-1.3-1.8-1.8-3.8-1.9-5.9c-0.2-3.2,0.6-6,2.5-8.6c1.9-2.4,4.3-3.9,7.1-5c3.2-1.2,6.5-1.5,9.9-1.4
			c3.5,0.2,6.8,1,10,2.4c1,0.4,1.9,1,2.8,1.6c0.3,0.2,0.4,0.6,0.4,0.9c0,2.7,0,5.5,0,8.2c0,0.2,0,0.5-0.3,0.7
			c-0.3,0.1-0.5,0-0.8-0.2c-3.1-2.5-6.7-4.2-10.7-4.7c-2.7-0.4-5.4-0.3-8,0.8c-1.3,0.5-2.5,1.4-3,2.7c-0.8,1.9-0.2,3.5,2,4.5
			c1.7,0.8,3.4,1.3,5.2,1.8c3.1,0.9,6.3,1.7,9.2,3.1c2.3,1.1,4.5,2.5,6.1,4.5c1.4,1.8,2.1,3.9,2.3,6.3c0.2,2.4-0.2,4.8-1.2,7
			c-1.3,2.7-3.3,4.7-5.9,6.2c-2.7,1.5-5.6,2.2-8.6,2.3c-4.8,0.2-9.4-0.5-13.8-2.4c-1.8-0.8-3.5-1.8-4.9-3.2
			c-0.3-0.3-0.5-0.7-0.5-1.1C423.1,296.3,423.1,294.8,423.1,293.4z"/>
		<path class="st1" d="M518.5,269.3c3.4,0,6.5,0.6,9.3,2c4.7,2.4,7.7,6.1,8.9,11.2c1.4,5.9,0.3,11.3-3.7,16
			c-2.9,3.3-6.6,5.1-10.9,5.8c-3.4,0.5-6.8,0.3-10.1-0.8c-5.9-2.1-9.8-6.2-11.3-12.3c-1.2-5-0.5-9.7,2.3-14.1
			c2.4-3.6,5.7-5.9,9.9-7.1C514.9,269.5,516.8,269.2,518.5,269.3z M518.8,296.2c3.3-0.1,5.8-1.4,7.5-4.2c1.1-1.7,1.4-3.7,1.3-5.7
			c-0.1-2.1-0.7-4-2.1-5.6c-2.1-2.5-4.8-3.4-7.9-3.1c-2.7,0.3-4.9,1.6-6.3,4c-1.2,1.9-1.6,3.9-1.4,6.1
			C510.2,292.7,513.9,296.3,518.8,296.2z"/>
		<path class="st1" d="M543.8,285.7c0-2.5,0-5,0-7.4c0-0.4-0.1-0.5-0.5-0.5c-1.7,0-3.4,0-5.1,0c-0.7,0-0.7-0.1-0.7-0.7
			c0-1.1,0-2.3,0-3.4c0-0.4,0.1-0.7,0.5-1c4.8-3.8,9.6-7.6,14.4-11.3c0.3-0.2,0.5-0.6,0.9-0.4c0.4,0.2,0.2,0.6,0.2,1
			c0,2.6,0,5.2,0,7.7c0,0.4,0.1,0.5,0.5,0.5c2.5,0,5.1,0,7.6,0c0.7,0,0.8,0,0.8,0.8c0,2.1,0,4.2,0,6.3c0,0.6-0.1,0.7-0.7,0.7
			c-2.5,0-5.1,0-7.6,0c-0.4,0-0.5,0.1-0.5,0.5c0,4.4,0,8.7,0,13.1c0,1.3,0.3,2.6,1.2,3.6c0.8,0.9,1.8,1.2,2.9,1.2
			c1.5,0.1,2.9-0.2,4.2-0.9c0.6-0.3,0.7-0.2,0.7,0.4c0,2,0,4,0,6c0,0.5-0.1,0.7-0.5,0.9c-1.6,0.8-3.4,1.3-5.2,1.4
			c-2.3,0.2-4.6,0.1-6.8-0.8c-2.8-1.1-4.6-3.2-5.5-6.1c-0.5-1.6-0.7-3.3-0.7-4.9C543.8,290.1,543.8,287.9,543.8,285.7z"/>
		<path class="st1" d="M565.6,286.9c0-5.4,0-10.8,0-16.1c0-0.7,0.1-0.7,0.7-0.7c2.7,0,5.5,0,8.2,0c0.6,0,0.7,0.1,0.7,0.8
			c0,2.1,0,4.2,0,6.2c0,8.6,0,17.2,0,25.7c0,0.9,0,0.9-0.9,0.9c-2.6,0-5.3,0-7.9,0c-0.8,0-0.8,0-0.8-0.9
			C565.6,297.6,565.6,292.3,565.6,286.9z"/>
		<path class="st1" d="M576,260.1c0,2.8-2,5-4.7,5.3c-1.8,0.2-3.4-0.1-4.9-1.4c-2.4-2.1-2.3-6.1,0.2-8.1c2.3-1.8,6-1.6,8,0.5
			C575.5,257.4,576,258.6,576,260.1z"/>
		<path class="st1" d="M637.2,274.6c-0.1-2.5,1.7-5,5.2-5c3.1,0,5.2,2.2,5.2,5.1c0,3-2.2,5-5.3,5
			C639.4,279.7,637.1,277.5,637.2,274.6z M646.6,274.7c0-2.4-1.7-4.2-4.2-4.2c-2.4,0-4.2,1.7-4.2,4.1c0,2.4,1.7,4.2,4.2,4.2
			C644.8,278.8,646.6,277.1,646.6,274.7z"/>
		<path class="st1" d="M644.9,276.9c-0.1,0-0.1,0.1-0.1,0.1c-0.8,0.1-1.5,0-1.9-0.9c-0.2-0.3-0.4-0.6-0.6-0.8
			c-0.1-0.2-0.4-0.1-0.5-0.1c-0.2,0-0.1,0.2-0.1,0.4c0,0.4,0,0.8,0,1.2c0,0.2,0,0.4-0.3,0.3c-0.2,0-0.3,0-0.5,0
			c-0.2,0-0.3-0.1-0.3-0.3c0-1.4,0-2.8,0-4.2c0-0.2,0-0.3,0.2-0.3c0.9,0,1.8-0.1,2.7,0.1c0.7,0.1,1.2,0.5,1.3,1.1
			c0.1,0.7-0.2,1.2-1,1.5c-0.3,0.1-0.3,0.2-0.1,0.4C644.1,275.7,644.5,276.3,644.9,276.9z M642.3,273.1c-0.7,0-0.7,0-0.7,0.7
			c0,0.1,0,0.1,0,0.2c0,0.1,0,0.2,0.1,0.2c0.5,0,1,0.1,1.5-0.1c0.2-0.1,0.3-0.2,0.3-0.4c0-0.2-0.1-0.4-0.3-0.5
			C642.9,273,642.6,273.1,642.3,273.1z"/>
	</g>
</g>
</svg>
