<?xml version="1.0" encoding="utf-8"?>
<!-- Generator: Adobe Illustrator 19.1.0, SVG Export Plug-In . SVG Version: 6.00 Build 0)  -->
<svg version="1.1" id="Layer_1" xmlns:serif="http://www.serif.com/"
	 xmlns="http://www.w3.org/2000/svg" xmlns:xlink="http://www.w3.org/1999/xlink" x="0px" y="0px" viewBox="0 171.2 960 218.8"
	 style="enable-background:new 0 171.2 960 218.8;" xml:space="preserve">
<style type="text/css">
	.st0{fill:none;stroke:#DF2C52;stroke-width:2.7366;stroke-miterlimit:10;}
	.st1{fill:#DF2C52;}
</style>
<g>
	<path class="st0" d="M848.3,368.1H111.7c-48.3,0-87.5-39.2-87.5-87.5v0c0-48.3,39.2-87.5,87.5-87.5h736.6
		c48.3,0,87.5,39.2,87.5,87.5v0C935.8,328.9,896.6,368.1,848.3,368.1z"/>
	<g>
		<g>
			<g>
				<path class="st1" d="M468.2,309.6c-2-1.3-3.4-3.4-4.3-6.3c-0.8-2.8-1.3-6.6-1.3-11.3v-6.4c0-4.8,0.5-8.6,1.4-11.5
					c1-2.9,2.5-5,4.5-6.3c2-1.3,4.7-2,8.1-2c3.3,0,5.9,0.7,7.9,2c2,1.3,3.4,3.5,4.3,6.3c0.9,2.9,1.4,6.7,1.4,11.5v6.4
					c0,4.7-0.4,8.5-1.3,11.4c-0.9,2.9-2.3,5-4.3,6.3c-2,1.3-4.7,2-8.1,2C473,311.6,470.2,310.9,468.2,309.6z M479.4,302.7
					c0.6-1.4,0.8-3.8,0.8-7.1v-13.8c0-3.2-0.3-5.5-0.8-7c-0.6-1.5-1.5-2.2-2.9-2.2c-1.3,0-2.3,0.7-2.9,2.2c-0.6,1.5-0.8,3.8-0.8,7
					v13.8c0,3.3,0.3,5.6,0.8,7.1c0.5,1.4,1.5,2.2,2.9,2.2C477.9,304.8,478.9,304.1,479.4,302.7z"/>
				<path class="st1" d="M621.8,292.1v2.2c0,2.8,0.1,5,0.3,6.4c0.2,1.4,0.5,2.5,1,3.1c0.5,0.7,1.3,1,2.5,1c1.5,0,2.5-0.6,3.1-1.7
					c0.6-1.2,0.9-3.1,0.9-5.8l8.6,0.5c0,0.4,0.1,0.9,0.1,1.6c0,4.1-1.1,7.2-3.4,9.2c-2.2,2-5.4,3-9.5,3c-4.9,0-8.4-1.5-10.3-4.6
					c-2-3.1-3-7.9-3-14.3v-7.7c0-6.6,1-11.5,3.1-14.6c2-3.1,5.6-4.6,10.5-4.6c3.4,0,6,0.6,7.9,1.9c1.8,1.3,3.1,3.2,3.9,5.9
					c0.7,2.7,1.1,6.3,1.1,11v7.6H621.8z M623,273.4c-0.5,0.6-0.8,1.7-1,3.1c-0.2,1.4-0.3,3.6-0.3,6.5v3.2h7.3V283
					c0-2.8-0.1-5-0.3-6.5c-0.2-1.5-0.5-2.5-1-3.1c-0.5-0.6-1.3-0.9-2.3-0.9C624.3,272.5,623.5,272.8,623,273.4z"/>
				<path class="st1" d="M444,291.2l-11.3-41h9.9l4,18.6c1,4.6,1.8,8.5,2.2,11.7h0.3c0.3-2.3,1.1-6.2,2.2-11.6l4.1-18.6h9.9
					l-11.5,41v19.7H444V291.2z"/>
				<path class="st1" d="M522.5,266.6v44.3h-7.8l-0.9-5.4h-0.2c-2.1,4.1-5.3,6.1-9.5,6.1c-2.9,0-5.1-1-6.5-2.9
					c-1.4-1.9-2.1-4.9-2.1-9v-33.1h10v32.5c0,2,0.2,3.4,0.7,4.2c0.4,0.8,1.2,1.3,2.2,1.3c0.9,0,1.7-0.3,2.5-0.8
					c0.8-0.5,1.4-1.2,1.8-2v-35.2H522.5z"/>
				<path class="st1" d="M573.7,266.6v44.3h-7.8l-0.9-5.4h-0.2c-2.1,4.1-5.3,6.1-9.5,6.1c-2.9,0-5.1-1-6.5-2.9
					c-1.4-1.9-2.1-4.9-2.1-9v-33.1h10v32.5c0,2,0.2,3.4,0.7,4.2c0.4,0.8,1.2,1.3,2.2,1.3c0.9,0,1.7-0.3,2.5-0.8
					c0.8-0.5,1.4-1.2,1.8-2v-35.2H573.7z"/>
				<path class="st1" d="M549.6,258.3h-9.9v52.6H530v-52.6h-9.9v-8h29.6V258.3z"/>
				<path class="st1" d="M606.7,273.7c-0.6-2.8-1.6-4.8-2.9-6.1c-1.3-1.3-3.2-1.9-5.6-1.9c-1.8,0-3.5,0.5-5.1,1.6
					c-1.6,1-2.8,2.4-3.7,4.1h-0.1l0-23.3h-9.6v62.9h8.2l1-4.2h0.2c0.8,1.5,1.9,2.7,3.5,3.5c1.5,0.9,3.3,1.3,5.1,1.3
					c3.4,0,5.9-1.6,7.4-4.7c1.6-3.1,2.4-8,2.4-14.6v-7C607.6,280.3,607.3,276.5,606.7,273.7z M597.6,291.7c0,3.2-0.1,5.8-0.4,7.6
					c-0.3,1.8-0.7,3.1-1.3,3.9c-0.6,0.8-1.5,1.2-2.5,1.2c-0.8,0-1.6-0.2-2.3-0.6c-0.7-0.4-1.3-1-1.7-1.7v-25.2
					c0.3-1.2,0.9-2.2,1.7-3c0.8-0.8,1.7-1.2,2.7-1.2c1,0,1.8,0.4,2.3,1.2c0.6,0.8,0.9,2.1,1.2,4c0.2,1.9,0.3,4.6,0.3,8V291.7z"/>
			</g>
		</g>
		<path class="st1" d="M421,255c-1.2-4.3-4.6-7.8-8.9-8.9c-7.9-2.1-39.5-2.1-39.5-2.1s-31.6,0-39.5,2.1c-4.3,1.2-7.8,4.6-8.9,8.9
			c-2.1,7.9-2.1,24.3-2.1,24.3s0,16.4,2.1,24.3c1.2,4.3,4.6,7.8,8.9,8.9c7.9,2.1,39.5,2.1,39.5,2.1s31.6,0,39.5-2.1
			c4.3-1.2,7.8-4.6,8.9-8.9c2.1-7.9,2.1-24.3,2.1-24.3S423.1,262.9,421,255z M357,294.5v-30.3l26.3,15.2L357,294.5z"/>
	</g>
</g>
</svg>
