<?xml version="1.0" encoding="utf-8"?>
<!-- Generator: Adobe Illustrator 19.1.0, SVG Export Plug-In . SVG Version: 6.00 Build 0)  -->
<svg version="1.1" id="Layer_1" xmlns="http://www.w3.org/2000/svg" xmlns:xlink="http://www.w3.org/1999/xlink" x="0px" y="0px"
	 viewBox="0 0 35 35" style="enable-background:new 0 0 35 35;" xml:space="preserve">
<style type="text/css">
	.st0{fill:#3F0503;}
	.st1{fill:#FFFFFF;}
</style>
<g>
	<path id="_Compound_Path_11_9_" class="st0" d="M30.7,8.7c-0.6-1.5-1.9-2.6-3.5-3.1c-1-0.3-2.1-0.4-3.1-0.3H12.5
		c-1.1,0-2.1,0.1-3.1,0.3C7.8,6,6.5,7.1,5.9,8.7c-0.4,1.2-0.6,2.4-0.5,3.7v11.6c-0.1,1.2,0.1,2.5,0.5,3.7c0.6,1.5,1.9,2.6,3.5,3.1
		c1,0.3,2.1,0.4,3.1,0.3h11.6c1.1,0,2.1-0.1,3.1-0.3c1.6-0.5,2.8-1.6,3.5-3.1c0.4-1.2,0.6-2.4,0.5-3.7V12.3
		C31.3,11.1,31.1,9.8,30.7,8.7z M24.2,23c-0.1,0.3-0.2,0.6-0.4,0.9c-0.2,0.3-0.4,0.5-0.7,0.7c-0.3,0.2-0.6,0.3-0.9,0.3
		c-0.5,0.1-0.9,0.1-1.4,0.1c-0.3-0.1-0.7-0.2-0.9-0.5c-0.8-0.7-0.9-2-0.1-2.8c0,0,0,0,0,0c0.2-0.2,0.5-0.4,0.8-0.5
		c0.5-0.2,0.9-0.3,1.4-0.4c0.2,0,0.3-0.1,0.5-0.1c0.2,0,0.4-0.1,0.6-0.3c0.1-0.2,0.2-0.4,0.2-0.6l0-5.7c0-0.4-0.2-0.6-0.6-0.5
		c-0.3,0.1-6.7,1.3-6.7,1.3c-0.3,0-0.5,0.3-0.5,0.6c0,0,0,0.1,0,0.1l0,8.3c0,0.3,0,0.6-0.1,0.9c-0.1,0.3-0.2,0.6-0.4,0.9
		c-0.2,0.3-0.4,0.5-0.7,0.7c-0.3,0.2-0.6,0.3-0.9,0.3c-0.5,0.1-0.9,0.1-1.4,0.1c-0.3-0.1-0.7-0.2-0.9-0.5c-0.8-0.8-0.9-2.1-0.1-2.9
		c0.2-0.2,0.5-0.4,0.8-0.5c0.5-0.2,0.9-0.3,1.4-0.4c0.2,0,0.3-0.1,0.5-0.1c0.2,0,0.4-0.1,0.6-0.3c0.1-0.2,0.2-0.4,0.2-0.6v-9.6
		c0-0.1,0-0.2,0-0.3c0-0.2,0.1-0.4,0.3-0.5c0.1-0.1,0.3-0.2,0.5-0.2l0,0L23,9.3c0.1,0,0.6-0.1,0.7-0.1c0.3,0,0.6,0.2,0.7,0.5
		c0,0.1,0,0.1,0,0.2l0,12.2C24.3,22.4,24.3,22.7,24.2,23L24.2,23z"/>
	<path id="_Compound_Path_11_6_" class="st1" d="M29.1,7.4c-0.6-1.5-1.9-2.6-3.5-3.1c-1-0.3-2.1-0.4-3.1-0.3H10.9
		C9.8,3.9,8.8,4,7.7,4.3C6.2,4.7,4.9,5.9,4.3,7.4c-0.4,1.2-0.6,2.4-0.5,3.7v11.6c-0.1,1.2,0.1,2.5,0.5,3.7c0.6,1.5,1.9,2.6,3.5,3.1
		c1,0.3,2.1,0.4,3.1,0.3h11.6c1.1,0,2.1-0.1,3.1-0.3c1.6-0.5,2.8-1.6,3.5-3.1c0.4-1.2,0.6-2.4,0.5-3.7V11.1
		C29.7,9.8,29.5,8.6,29.1,7.4z M22.6,21.7c-0.1,0.3-0.2,0.6-0.4,0.9c-0.2,0.3-0.4,0.5-0.7,0.7c-0.3,0.2-0.6,0.3-0.9,0.3
		c-0.5,0.1-0.9,0.1-1.4,0.1c-0.3-0.1-0.7-0.2-0.9-0.5c-0.8-0.7-0.9-2-0.1-2.8c0,0,0,0,0,0c0.2-0.2,0.5-0.4,0.8-0.5
		c0.5-0.2,0.9-0.3,1.4-0.4c0.2,0,0.3-0.1,0.5-0.1c0.2,0,0.4-0.1,0.6-0.3c0.1-0.2,0.2-0.4,0.2-0.6l0-5.7c0-0.4-0.2-0.6-0.6-0.5
		c-0.3,0.1-6.7,1.3-6.7,1.3c-0.3,0-0.5,0.3-0.5,0.6c0,0,0,0.1,0,0.1l0,8.3c0,0.3,0,0.6-0.1,0.9c-0.1,0.3-0.2,0.6-0.4,0.9
		c-0.2,0.3-0.4,0.5-0.7,0.7c-0.3,0.2-0.6,0.3-0.9,0.3c-0.5,0.1-0.9,0.1-1.4,0.1c-0.3-0.1-0.7-0.2-0.9-0.5c-0.8-0.8-0.9-2.1-0.1-2.9
		c0.2-0.2,0.5-0.4,0.8-0.5c0.5-0.2,0.9-0.3,1.4-0.4c0.2,0,0.3-0.1,0.5-0.1c0.2,0,0.4-0.1,0.6-0.3c0.1-0.2,0.2-0.4,0.2-0.6v-9.6
		c0-0.1,0-0.2,0-0.3c0-0.2,0.1-0.4,0.3-0.5c0.1-0.1,0.3-0.2,0.5-0.2l0,0L21.4,8C21.4,8,22,7.9,22,7.9c0.3,0,0.6,0.2,0.7,0.5
		c0,0.1,0,0.1,0,0.2l0,12.2C22.7,21.1,22.7,21.4,22.6,21.7L22.6,21.7z"/>
</g>
</svg>
