<?xml version="1.0" encoding="utf-8"?>
<!-- Generator: Adobe Illustrator 19.1.0, SVG Export Plug-In . SVG Version: 6.00 Build 0)  -->
<svg version="1.1" id="Layer_1" xmlns="http://www.w3.org/2000/svg" xmlns:xlink="http://www.w3.org/1999/xlink" x="0px" y="0px"
	 viewBox="0 0 35 35" style="enable-background:new 0 0 35 35;" xml:space="preserve">
<style type="text/css">
	.st0{fill:#3F0503;}
	.st1{fill:#FFFFFF;}
</style>
<g>
	<g>
		<path class="st0" d="M18.3,31.1C16,31,13.7,31,11.4,30.7c-3.3-0.4-5-1.7-5.5-5c-0.8-5-0.7-10,0-15c0.5-3.2,1.8-4.5,5-5
			c4.9-0.7,9.9-0.7,14.8,0c3.3,0.5,4.6,1.8,5.1,5.1c0.7,4.9,0.7,9.9,0,14.8c-0.5,3.4-2.1,4.8-5.6,5.2C22.9,31,20.6,31,18.3,31.1z
			 M18.3,28.5c2.1,0,4.3,0,6.4-0.2c2.5-0.2,3.6-1.3,3.8-3.8c0.3-4.2,0.3-8.5,0-12.7c-0.2-2.5-1.3-3.6-3.8-3.8
			C20.4,7.7,16.2,7.7,12,8c-2.5,0.2-3.6,1.3-3.8,3.9c-0.3,4.2-0.3,8.5,0,12.7c0.2,2.4,1.3,3.5,3.7,3.8C14,28.5,16.2,28.5,18.3,28.5z
			"/>
		<path class="st0" d="M18.3,11.7c3.6,0,6.4,2.9,6.5,6.4c0,3.5-2.9,6.5-6.4,6.4c-3.5,0-6.4-2.8-6.4-6.4
			C11.8,14.7,14.7,11.8,18.3,11.7z M18.3,22.1c2.1,0,3.9-1.8,3.9-3.9c0-2.1-1.7-3.8-3.8-3.9c-2.1-0.1-3.9,1.7-4,3.8
			C14.4,20.2,16.2,22,18.3,22.1z"/>
		<path class="st0" d="M26,11.7c0,0.7-0.6,1.2-1.3,1.2c-0.7,0-1.2-0.5-1.2-1.3c0-0.7,0.6-1.3,1.3-1.3C25.5,10.5,26,11.1,26,11.7z"/>
	</g>
	<g>
		<path class="st1" d="M16.7,29.8c-2.3-0.1-4.6-0.1-6.9-0.3c-3.3-0.4-5-1.7-5.5-5c-0.8-5-0.7-10,0-15c0.5-3.2,1.8-4.5,5-5
			c4.9-0.7,9.9-0.7,14.8,0c3.3,0.5,4.6,1.8,5.1,5.1c0.7,4.9,0.7,9.9,0,14.8c-0.5,3.4-2.1,4.8-5.6,5.2C21.3,29.7,19,29.7,16.7,29.8z
			 M16.7,27.2c2.1,0,4.3,0,6.4-0.2c2.5-0.2,3.6-1.3,3.8-3.8c0.3-4.2,0.3-8.5,0-12.7c-0.2-2.5-1.3-3.6-3.8-3.8
			c-4.2-0.3-8.5-0.3-12.7,0C7.8,6.9,6.7,8,6.5,10.6c-0.3,4.2-0.3,8.5,0,12.7c0.2,2.4,1.3,3.5,3.7,3.8C12.4,27.3,14.5,27.2,16.7,27.2
			z"/>
		<path class="st1" d="M16.7,10.5c3.6,0,6.4,2.9,6.5,6.4c0,3.5-2.9,6.5-6.4,6.4c-3.5,0-6.4-2.8-6.4-6.4
			C10.2,13.4,13.1,10.5,16.7,10.5z M16.7,20.8c2.1,0,3.9-1.8,3.9-3.9c0-2.1-1.7-3.8-3.8-3.9c-2.1-0.1-3.9,1.7-4,3.8
			C12.8,18.9,14.6,20.8,16.7,20.8z"/>
		<path class="st1" d="M24.4,10.5c0,0.7-0.6,1.2-1.3,1.2c-0.7,0-1.2-0.5-1.2-1.3c0-0.7,0.6-1.3,1.3-1.3C23.8,9.2,24.4,9.8,24.4,10.5
			z"/>
	</g>
</g>
</svg>
