<?xml version="1.0" encoding="utf-8"?>
<!-- Generator: Adobe Illustrator 19.1.0, SVG Export Plug-In . SVG Version: 6.00 Build 0)  -->
<svg version="1.1" id="Layer_1" xmlns="http://www.w3.org/2000/svg" xmlns:xlink="http://www.w3.org/1999/xlink" x="0px" y="0px"
	 viewBox="0 0 35 35" style="enable-background:new 0 0 35 35;" xml:space="preserve">
<style type="text/css">
	.st0{fill:#3F0503;}
	.st1{fill:#FFFFFF;}
</style>
<g>
	<path class="st0" d="M31.2,18.1c0,7.1-5.9,13.1-13.3,12.9C11,30.9,5.2,25.2,5.4,17.8C5.5,10.9,11.3,5,18.7,5.2
		C25.6,5.4,31.3,11.1,31.2,18.1z M14.7,12.4c-0.3,0-0.6,0-0.9,0c-1.1,0.1-2.1,0.2-3.1,0.4c-0.2,0-0.4,0.1-0.6,0.2
		c-0.6,0.3-0.8,0.9-0.6,1.5c0.2,0.6,0.8,0.9,1.4,0.8c1.4-0.3,2.9-0.4,4.4-0.5c0.8,0,1.5,0,2.3,0.1c1.8,0.2,3.5,0.5,5.1,1.1
		c1.2,0.4,2.4,0.9,3.5,1.5c0.6,0.3,1.3,0.1,1.6-0.5c0.3-0.6,0.1-1.3-0.5-1.6c-0.4-0.2-0.7-0.4-1.1-0.6c-1.9-0.9-4-1.5-6.1-1.9
		c-1.5-0.3-3-0.4-4.5-0.4C15.4,12.4,15,12.4,14.7,12.4z M15.5,16.9c-0.5,0-1,0-1.6,0.1c-1,0.1-2,0.2-2.9,0.4
		c-0.5,0.1-0.9,0.6-0.8,1.1c0.1,0.5,0.5,0.9,1.1,0.8c0.2,0,0.4-0.1,0.7-0.1c1.1-0.2,2.2-0.3,3.3-0.3c0.7,0,1.4,0,2.2,0.1
		c1.4,0.1,2.7,0.4,4,0.8c1.1,0.4,2.2,0.8,3.2,1.4c0.5,0.3,1.1,0.1,1.3-0.4c0.3-0.5,0.1-1.1-0.4-1.3c-1.2-0.7-2.5-1.2-3.8-1.6
		C19.7,17.2,17.6,16.9,15.5,16.9z M15.6,20.9c-0.7,0-1.2,0-1.8,0.1c-0.8,0.1-1.6,0.2-2.3,0.4c-0.4,0.1-0.7,0.5-0.6,0.9
		c0.1,0.4,0.5,0.7,0.9,0.6c1.1-0.3,2.3-0.4,3.5-0.4c0.5,0,1.1,0,1.6,0.1c1.3,0.1,2.6,0.4,3.8,0.8c0.9,0.3,1.7,0.7,2.5,1.1
		c0.1,0.1,0.2,0.1,0.4,0.1c0.4,0,0.7-0.3,0.7-0.6c0.1-0.3-0.1-0.7-0.4-0.8c-1-0.6-2.1-1-3.2-1.4C19,21.1,17.3,20.9,15.6,20.9z"/>
	<path class="st1" d="M29.6,16.9c0,7.1-5.9,13.1-13.3,12.9C9.4,29.6,3.6,23.9,3.8,16.5C3.9,9.6,9.7,3.7,17.1,3.9
		C24,4.1,29.6,9.8,29.6,16.9z M13.1,11.1c-0.3,0-0.6,0-0.9,0c-1.1,0.1-2.1,0.2-3.1,0.4c-0.2,0-0.4,0.1-0.6,0.2
		c-0.6,0.3-0.8,0.9-0.6,1.5c0.2,0.6,0.8,0.9,1.4,0.8c1.4-0.3,2.9-0.4,4.4-0.5c0.8,0,1.5,0,2.3,0.1c1.8,0.2,3.5,0.5,5.1,1.1
		c1.2,0.4,2.4,0.9,3.5,1.5c0.6,0.3,1.3,0.1,1.6-0.5c0.3-0.6,0.1-1.3-0.5-1.6c-0.4-0.2-0.7-0.4-1.1-0.6c-1.9-0.9-4-1.5-6.1-1.9
		c-1.5-0.3-3-0.4-4.5-0.4C13.7,11.1,13.4,11.1,13.1,11.1z M13.9,15.6c-0.5,0-1,0-1.6,0.1c-1,0.1-2,0.2-2.9,0.4
		c-0.5,0.1-0.9,0.6-0.8,1.1c0.1,0.5,0.5,0.9,1.1,0.8c0.2,0,0.4-0.1,0.7-0.1c1.1-0.2,2.2-0.3,3.3-0.3c0.7,0,1.4,0,2.2,0.1
		c1.4,0.1,2.7,0.4,4,0.8c1.1,0.4,2.2,0.8,3.2,1.4c0.5,0.3,1.1,0.1,1.3-0.4c0.3-0.5,0.1-1.1-0.4-1.3c-1.2-0.7-2.5-1.2-3.8-1.6
		C18.1,15.9,16,15.6,13.9,15.6z M14,19.6c-0.7,0-1.2,0-1.8,0.1c-0.8,0.1-1.6,0.2-2.3,0.4c-0.4,0.1-0.7,0.5-0.6,0.9
		c0.1,0.4,0.5,0.7,0.9,0.6c1.1-0.3,2.3-0.4,3.5-0.4c0.5,0,1.1,0,1.6,0.1c1.3,0.1,2.6,0.4,3.8,0.8c0.9,0.3,1.7,0.7,2.5,1.1
		c0.1,0.1,0.2,0.1,0.4,0.1c0.4,0,0.7-0.3,0.7-0.6c0.1-0.3-0.1-0.7-0.4-0.8c-1-0.6-2.1-1-3.2-1.4C17.4,19.9,15.7,19.6,14,19.6z"/>
</g>
</svg>
