<?xml version="1.0" encoding="utf-8"?>
<!-- Generator: Adobe Illustrator 19.1.0, SVG Export Plug-In . SVG Version: 6.00 Build 0)  -->
<svg version="1.1" id="Layer_1" xmlns="http://www.w3.org/2000/svg" xmlns:xlink="http://www.w3.org/1999/xlink" x="0px" y="0px"
	 viewBox="0 0 35 35" style="enable-background:new 0 0 35 35;" xml:space="preserve">
<style type="text/css">
	.st0{fill:#3F0503;}
	.st1{fill:#FFFFFF;}
</style>
<g>
	<g>
		<path class="st0" d="M19.9,7.4c2.1,0,5.8,0,9.5,0.5c2.3,0.3,3.6,1.6,3.8,3.9c0.5,4.3,0.6,8.7,0,13c-0.3,2.2-1.5,3.4-3.7,3.7
			C24.7,29,20,29,15.2,28.9c-2.6-0.1-5.3-0.1-7.9-0.5c-2.6-0.4-3.6-1.5-4-4.1c-0.5-4-0.4-8,0-12C3.6,9.3,5,7.9,8.1,7.7
			C11.5,7.4,14.9,7.3,19.9,7.4z M15.3,22.6c2.7-1.6,5.1-3,7.8-4.5c-2.7-1.6-5.2-3-7.8-4.5C15.3,16.7,15.3,19.6,15.3,22.6z"/>
	</g>
	<g>
		<path class="st1" d="M18.2,6.1c2.1,0,5.8,0,9.5,0.5c2.3,0.3,3.6,1.6,3.8,3.9c0.5,4.3,0.6,8.7,0,13c-0.3,2.2-1.5,3.4-3.7,3.7
			c-4.7,0.6-9.4,0.6-14.2,0.5c-2.6-0.1-5.3-0.1-7.9-0.5c-2.6-0.4-3.6-1.5-4-4.1c-0.5-4-0.4-8,0-12C2,8,3.4,6.7,6.5,6.4
			C9.9,6.2,13.3,6.1,18.2,6.1z M13.6,21.4c2.7-1.6,5.1-3,7.8-4.5c-2.7-1.6-5.2-3-7.8-4.5C13.6,15.4,13.6,18.3,13.6,21.4z"/>
	</g>
</g>
</svg>
