<?xml version="1.0" encoding="utf-8"?>
<!-- Generator: Adobe Illustrator 19.1.0, SVG Export Plug-In . SVG Version: 6.00 Build 0)  -->
<svg version="1.1" id="Layer_1" xmlns="http://www.w3.org/2000/svg" xmlns:xlink="http://www.w3.org/1999/xlink" x="0px" y="0px"
	 viewBox="0 0 315 74" style="enable-background:new 0 0 315 74;" xml:space="preserve">
<style type="text/css">
	.st0{fill:#FFFFFF;}
</style>
<g>
	<path class="st0" d="M224.2,24.4c-1.6,1.2-1,3.8,1,4.2c1.9,0.4,3.3-1.6,2.5-3.4C227.2,24,225.2,23.6,224.2,24.4z"/>
	<path class="st0" d="M85.1,39.8c0-6.4-0.1-7.1-1.4-8.5c-0.4-0.5-1.1-1-1.6-1.2c-1-0.4-3.4-0.6-4.6-0.4c-1.2,0.3-2.3,0.9-3.1,1.8
		c-0.7,0.8-1.3,2.1-1.1,2.5c0.1,0.2,2.1,0.7,3,0.7c0.2,0,0.5-0.3,0.6-0.7c0.5-1.3,2-1.9,3.1-1.4c0.5,0.3,1,1.3,1,2.2v0.8l-1.7,0
		c-2.3,0-3.8,0.6-5.1,1.9c-1,1.1-1.4,2-1.4,3.8c0,1.5,0.5,2.6,1.5,3.4c0.9,0.8,1.9,1.1,3.4,1c1.3-0.1,2.3-0.6,3-1.7
		c0.5-0.8,0.7-0.7,0.9,0.6l0.1,0.7l1.4,0.1C85.3,45.5,85.1,46.1,85.1,39.8z M81,39c0,2.6-0.7,3.8-2.2,3.8c-1.2,0-1.8-0.5-1.9-1.8
		c-0.2-1.8,1.2-2.9,3.2-2.9H81V39z"/>
	<path class="st0" d="M91.3,45l0.1-4.9c0.1-5.8,0.2-6.3,1.5-6.8c0.6-0.2,0.9-0.2,1.4,0c1.3,0.4,1.4,0.5,1.5,6.5l0.1,5.2h1.9
		c1.5,0,1.9,0.1,2-0.1c0.1-0.2,0.1-2.4,0.1-5c0-3.8,0.1-4.9,0.3-5.5c0.6-1.5,2.7-1.6,3.5-0.2c0.3,0.6,0.3,1.4,0.4,5.9
		c0.1,4.6,0.1,5.3,0.4,5.3c0.2,0,1,0,2,0l1.6-0.1l0.1-4.6c0.1-5.3-0.1-7.3-0.9-8.8c-0.9-1.9-2.7-2.7-4.7-2.2
		c-0.9,0.2-1.3,0.4-2.1,1.3c-0.5,0.5-1,1.1-1,1.2c0,0.4-0.3,0.1-0.8-0.6c-0.9-1.6-3-2.4-4.7-1.7c-0.9,0.3-1.7,1-2.1,1.8
		c-0.4,0.7-0.5,0.6-0.8-0.6L90.9,30h-1.6h-1.6l-0.1,7.5l0,7.5h1.9H91.3z"/>
	<path class="st0" d="M110.6,38.6c-1.2,2.2-0.6,5.1,1.3,6.5c1.1,0.8,2.9,0.9,4.2,0.5c0.8-0.3,2.1-1.5,2.1-1.9c0-0.1,0.1-0.2,0.2-0.2
		s0.3,0.3,0.4,0.8l0.2,0.8h1.7h1.4v-5.5c0-6.2,0.1-6.6-1-8.1c-1.1-1.5-3.9-2.3-6.3-1.8c-1.3,0.3-2.2,0.8-3.1,1.7
		c-0.8,0.8-1.4,2.4-1.2,2.7c0.1,0.2,2.1,0.6,3,0.6c0.3,0,0.5-0.2,0.7-0.7c0.1-0.4,0.5-0.9,0.9-1.1c1.5-0.9,3.1-0.1,3.3,1.7l0.1,1
		l-1.8,0C113.7,35.7,111.6,36.7,110.6,38.6z M118.4,38l-0.1,1.4c-0.1,1.7-0.5,2.6-1.2,3.1c-0.6,0.4-1.8,0.4-2.3,0
		c-0.8-0.6-1-2.2-0.2-3.4c0.4-0.7,1.7-1.1,2.9-1.1H118.4z"/>
	<path class="st0" d="M147.3,31c-1.4-1.2-3.7-1.8-5.4-1.3c-1.2,0.3-2.2,0.9-3.1,1.9c-3.1,3.4-3,9.2,0.2,12.5
		c2.8,2.8,7.7,2.2,9.8-1.4C151,38.9,150.3,33.5,147.3,31z M143.3,42.6c-0.7,0-0.9-0.1-1.5-0.7c-0.8-0.9-1-1.8-1-4.2
		c0-2.8,0.6-4.4,1.8-4.9c0.5-0.2,1.7,0,2.1,0.5c0.8,0.8,1.2,2.1,1.2,4.2C145.9,40.9,145,42.6,143.3,42.6z"/>
	<path class="st0" d="M161.9,29.9c-0.7-0.4-2.3-0.5-3.1-0.3c-0.9,0.3-1.9,1-2.3,1.8c-0.4,0.7-0.7,0.9-0.7,0.3c0-0.2-0.1-0.7-0.2-1.1
		l-0.2-0.8l-1.7,0.1L152,30v7.7v7.7l2,0.1l2,0.1l0.1-5.2c0.1-4.8,0.1-5.3,0.5-5.9c0.6-0.9,1.8-1.4,2.6-1c0.3,0.2,0.8,0.5,1,0.8
		c0.4,0.5,0.4,0.7,0.5,5.7l0.1,5.1h1.9h2.3v-5.3c0-5.2-0.3-5.8-0.6-6.9C163.9,31.5,162.9,30.4,161.9,29.9z"/>
	<path class="st0" d="M188.3,29.5c-1.1,0.2-1.8,0.6-2.8,1.7l-0.9,1l-0.3-0.6c-0.6-1.3-2.3-2.3-3.8-2.3c-0.3,0-0.9,0.1-1.3,0.3
		c-0.8,0.3-1.5,0.9-2.1,1.9l-0.3,0.5l-0.1-0.8c-0.2-1.4-0.3-1.4-2.1-1.4H173v7.6V45h1.8h1.9l0.1-5.1c0.1-4.9,0.1-5.2,0.5-5.8
		c0.9-1.3,2.3-1.3,3.2-0.2c0.4,0.5,0.4,0.9,0.5,6l0.1,5.4l1.7,0.1c1,0.1,1.8,0,2-0.1c0.2-0.2,0.3-1.4,0.3-5.4
		c0.1-4.9,0.1-5.2,0.5-5.7c0.9-1.3,2.3-1.3,3.2-0.2c0.4,0.5,0.4,0.7,0.5,5.8l0.1,5.2h1.9h1.9l0.1-5c0.1-5.4-0.1-6.9-0.8-8.2
		C191.8,30.2,189.9,29.3,188.3,29.5z"/>
	<path class="st0" d="M217,35.9c-0.9-0.2-1.9-0.6-2.2-0.7c-1.5-0.8-0.8-2.5,1-2.5c0.7,0,1,0.1,1.5,0.6c0.3,0.3,0.6,0.7,0.6,0.9
		c0,0.5,0.3,0.5,1.6,0.3c2.3-0.3,2.3-0.4,1.6-2.1c-1.1-2.3-4.3-3.4-7.2-2.6c-2.3,0.7-3.6,2.3-3.6,4.6c0,1.3,0.6,2.6,1.4,3.2
		c0.8,0.6,1.4,0.8,3.7,1.5c1,0.3,2,0.6,2.1,0.8c0.9,0.8,0.5,2.3-0.7,2.7c-1.5,0.4-2.7-0.3-3.1-1.8c-0.1-0.4-0.3-0.8-0.4-0.9
		c-0.2-0.1-2.8,0.3-3.2,0.6c-0.5,0.3,0.4,2.6,1.3,3.6c1.5,1.6,4.6,2.2,6.9,1.4c2.3-0.9,3.5-2.4,3.5-4.6c0-1.6-0.2-2.2-0.9-3
		C220,36.9,219.1,36.4,217,35.9z"/>
	<path class="st0" d="M240.8,39.8c-2-0.3-2-0.3-2.3,0.7c-0.5,1.4-1.2,2.1-2.2,2.1c-1.7,0-2.5-1.7-2.5-4.9c0-2.3,0.4-3.7,1.2-4.4
		c0.7-0.6,1.7-0.7,2.4-0.2c0.5,0.3,1.3,1.7,1.3,2.2c0,0.6,0.5,0.7,2.1,0.4c1.6-0.3,1.6-0.3,1.6-0.9c0-1.6-1.8-4-3.6-4.7
		c-1.2-0.5-3-0.6-4.3-0.1c-2.7,1-4.6,3.7-4.8,7c-0.3,3.9,1.6,7.4,4.5,8.5c2.4,0.9,5.3,0.2,6.8-1.7c0.7-0.9,1.3-2.2,1.3-3.1
		C242.2,40,242.1,40,240.8,39.8z"/>
	<path class="st0" d="M135.3,42.3c-0.8-0.5-2.7-0.9-4.3-1c-0.8,0-1.6-0.1-1.6-0.1s1.2-1.9,2.8-4.1l2.8-4v-1.6V30h-5
		c-4.1,0-5.3,0-5.4,0.2c-0.1,1.2,0,2.6,0.1,2.7c0.1,0.1,1.5,0.2,3.1,0.2l3,0.1l-3.5,4.5l-3.4,4.5v1.6c0,1.2,0.3,1.6,0.5,1.6
		c0.2,0,1.1-0.2,2-0.4c2.2-0.6,5-0.6,7.1,0c2.2,0.6,2.2,0.6,2.2-1C135.7,42.7,135.7,42.5,135.3,42.3z"/>
	<path class="st0" d="M204,30v4.5c0,2.5-0.1,5.1-0.2,5.6c-0.3,1.7-1.7,2.4-3,1.8c-1-0.4-1-0.7-1.1-6.5l-0.1-5.4l-1.9-0.1
		c-1.5,0-1.9,0-2,0.2c-0.1,0.2-0.1,2.9,0,6l0.1,5.7l0.7,1.4c0.9,1.7,1.8,2.4,3.4,2.5c1.7,0.1,2.8-0.4,3.6-1.7
		c0.4-0.6,0.6-0.8,0.7-0.7c0,0.2,0.2,0.6,0.2,1.1l0.2,0.8l1.7,0.1l1.7,0.1v-7.8V30h-2H204z"/>
	<path class="st0" d="M225.7,29.9c-1,0-1.7,0.1-1.7,0.1c-0.1,0.1,0,3.6,0,7.8v7.6l1.8-0.1l1.9-0.1l0-7.3c0-4,0-7.5-0.1-7.7
		C227.5,29.9,227.4,29.9,225.7,29.9z"/>
	<path class="st0" d="M128.9,46.8c-1.4,0.2-3.6,1.3-4,1.9c-0.3,0.5-0.3,0.5,0.1,0.8c0.2,0.2,0.6,0.2,0.8,0.2
		c0.3-0.1,1.2-0.2,2.1-0.3c2.5-0.3,4.2,0,4.2,0.9c0,0.6-0.6,2.2-1.6,4.1c-0.8,1.6-0.9,1.9-0.7,2.2c0.4,0.5,0.8,0.4,2.1-0.8
		c1.4-1.3,2.1-2.4,2.6-4.1c0.5-1.8,0.5-3.3-0.1-3.9C133.6,46.9,131,46.4,128.9,46.8z"/>
	<path class="st0" d="M128.8,51.2c-0.1,0-1.2,0.4-2.4,1c-5.7,2.5-11.8,3.6-19.1,3.4c-9.2-0.3-16.1-2.5-22.2-7.3
		c-1-0.8-1.8-0.9-2-0.4c-0.2,0.6,0.5,1.8,2.6,3.9c4,4,8.6,6.4,14.8,7.7c1.9,0.4,2.6,0.5,7.6,0.5c6,0,7.4-0.2,11.4-1.5
		c5.3-1.8,10.9-5.7,9.9-6.9C129.1,51.4,128.9,51.2,128.8,51.2z"/>
</g>
</svg>
