<?xml version="1.0" encoding="utf-8"?>
<!-- Generator: Adobe Illustrator 19.1.0, SVG Export Plug-In . SVG Version: 6.00 Build 0)  -->
<svg version="1.1" id="Layer_1" xmlns="http://www.w3.org/2000/svg" xmlns:xlink="http://www.w3.org/1999/xlink" x="0px" y="0px"
	 viewBox="0 0 315 74" style="enable-background:new 0 0 315 74;" xml:space="preserve">
<style type="text/css">
	.st0{opacity:0.8;}
	.st1{fill:#FFFFFF;}
</style>
<g class="st0">
	<g id="_Group__5_">
		<g id="_Group_2_5_">
			<path id="_Compound_Path__5_" class="st1" d="M126.6,46.1h-6.1l-1.5,4.3h-2.6l5.8-16.1h2.7l5.8,16.1h-2.6L126.6,46.1z
				 M121.1,44.1h4.9l-2.4-7h-0.1L121.1,44.1z"/>
			<path id="_Compound_Path_2_5_" class="st1" d="M143.3,44.6c0,3.6-1.9,6-4.9,6c-1.5,0.1-3-0.7-3.7-2h-0.1v5.8h-2.4V38.7h2.3v1.9h0
				c0.8-1.3,2.2-2.1,3.7-2.1C141.3,38.6,143.3,41,143.3,44.6z M140.8,44.6c0-2.4-1.2-3.9-3.1-3.9c-1.8,0-3.1,1.6-3.1,3.9
				c0,2.4,1.2,3.9,3.1,3.9C139.6,48.5,140.8,47,140.8,44.6L140.8,44.6z"/>
			<path id="_Compound_Path_3_5_" class="st1" d="M156.1,44.6c0,3.6-1.9,6-4.9,6c-1.5,0.1-3-0.7-3.7-2h-0.1v5.8h-2.4V38.7h2.3v1.9h0
				c0.8-1.3,2.2-2.1,3.7-2.1C154.2,38.6,156.1,41,156.1,44.6z M153.7,44.6c0-2.4-1.2-3.9-3.1-3.9c-1.8,0-3.1,1.6-3.1,3.9
				c0,2.4,1.2,3.9,3.1,3.9C152.4,48.5,153.7,47,153.7,44.6z"/>
			<path id="_Compound_Path_4_5_" class="st1" d="M158.1,34.4h2.4v16.1h-2.4V34.4z"/>
			<path id="_Compound_Path_5_5_" class="st1" d="M173,47c-0.3,2.1-2.4,3.6-5,3.6c-3.4,0-5.5-2.3-5.5-5.9c0-3.7,2.1-6.1,5.4-6.1
				c3.2,0,5.3,2.2,5.3,5.8v0.8h-8.3v0.1c-0.1,1.7,1.1,3.2,2.8,3.3c0.1,0,0.3,0,0.4,0c1.2,0.1,2.3-0.6,2.7-1.6H173L173,47z
				 M164.9,43.5h5.9c0.1-1.6-1.1-2.9-2.7-3c-0.1,0-0.1,0-0.2,0C166.2,40.5,164.9,41.8,164.9,43.5C164.9,43.5,164.9,43.5,164.9,43.5z
				"/>
			<path id="_Compound_Path_6_5_" class="st1" d="M193.9,50.4V38.6h-0.1l-4.8,11.7h-1.8l-4.9-11.7h-0.1v11.8h-2.3V34.4h2.9l5.2,12.7
				h0.1l5.2-12.7h2.9v16.1H193.9z"/>
			<path id="_Compound_Path_7_5_" class="st1" d="M209,50.4h-2.3v-2h-0.1c-0.6,1.4-2.1,2.3-3.6,2.1c-2.2,0.1-4-1.5-4.1-3.7
				c0-0.2,0-0.4,0-0.7v-7.5h2.4v7c-0.2,1.3,0.6,2.5,1.9,2.7c0.2,0,0.4,0,0.6,0c1.5,0,2.8-1.1,2.8-2.6c0-0.1,0-0.3,0-0.4v-6.7h2.4
				L209,50.4L209,50.4z"/>
			<path id="_Compound_Path_8_5_" class="st1" d="M215.8,38.6c2.6,0,4.5,1.4,4.5,3.5H218c-0.2-1.1-1.2-1.8-2.3-1.7l0,0
				c-1.3,0-2.2,0.6-2.2,1.5c0,0.7,0.6,1.2,1.8,1.5l2,0.5c2.4,0.6,3.3,1.4,3.3,3.2c0,2.1-2,3.6-4.9,3.6c-2.8,0-4.6-1.4-4.8-3.6h2.4
				c0.2,1.2,1.4,1.9,2.5,1.7c1.4,0,2.3-0.6,2.3-1.5c0-0.7-0.4-1.1-1.7-1.4l-2.1-0.5c-2.1-0.5-3.2-1.6-3.2-3.2
				C211.2,40,213.1,38.6,215.8,38.6z"/>
			<path id="_Compound_Path_9_5_" class="st1" d="M222.4,35.6c0-0.8,0.6-1.4,1.4-1.4c0.8,0,1.4,0.6,1.4,1.4c0,0.8-0.6,1.4-1.4,1.4
				c0,0,0,0,0,0C223.1,37,222.5,36.4,222.4,35.6C222.4,35.6,222.4,35.6,222.4,35.6z M222.6,38.7h2.4v11.7h-2.4V38.7z"/>
			<path id="_Compound_Path_10_5_" class="st1" d="M235.4,42.8c-0.2-1.3-1.4-2.3-2.8-2.2c-1.8,0-3.1,1.5-3.1,4c0,2.5,1.2,4,3.1,4
				c1.3,0.1,2.5-0.8,2.7-2.1h2.3c-0.3,2.5-2.6,4.3-5.1,4.1c-3.3,0-5.5-2.3-5.5-6c0-3.6,2.2-6,5.5-6c2.5-0.2,4.8,1.6,5.1,4.2H235.4z"
				/>
		</g>
		<path id="_Compound_Path_11_2_" class="st1" d="M109.2,24c-0.8-1.9-2.4-3.3-4.4-3.9c-1.3-0.3-2.6-0.5-3.9-0.4H86.2
			c-1.3,0-2.6,0.1-3.9,0.4c-2,0.6-3.6,2-4.4,3.9c-0.5,1.5-0.7,3-0.6,4.6v14.6c-0.1,1.6,0.1,3.1,0.6,4.6c0.8,1.9,2.4,3.3,4.4,3.9
			c1.3,0.3,2.6,0.5,3.9,0.4h14.6c1.3,0,2.6-0.1,3.9-0.4c2-0.6,3.6-2,4.4-3.9c0.5-1.5,0.7-3,0.6-4.6V28.6
			C109.9,27.1,109.7,25.5,109.2,24z M101,42.1c-0.1,0.4-0.2,0.8-0.5,1.1c-0.2,0.3-0.5,0.6-0.9,0.8c-0.4,0.2-0.7,0.3-1.1,0.4
			c-0.6,0.1-1.2,0.2-1.7,0.1c-0.4-0.1-0.8-0.3-1.2-0.6c-1-0.9-1.1-2.5-0.2-3.6c0,0,0,0,0.1-0.1c0.3-0.3,0.7-0.5,1.1-0.7
			c0.6-0.2,1.2-0.4,1.8-0.5c0.2,0,0.4-0.1,0.6-0.1c0.3,0,0.5-0.2,0.7-0.4c0.2-0.2,0.2-0.5,0.2-0.8l0-7.2c0-0.5-0.2-0.7-0.8-0.6
			c-0.4,0.1-8.4,1.7-8.4,1.7c-0.4,0-0.7,0.3-0.6,0.7c0,0,0,0.1,0,0.1l0,10.5c0,0.4,0,0.8-0.1,1.2c-0.1,0.4-0.2,0.8-0.5,1.1
			c-0.2,0.3-0.5,0.6-0.9,0.8c-0.4,0.2-0.7,0.3-1.1,0.4c-0.6,0.1-1.2,0.2-1.7,0.1c-0.4-0.1-0.8-0.3-1.2-0.6c-1-1-1.1-2.6-0.1-3.6
			c0.3-0.3,0.7-0.5,1.1-0.7c0.6-0.2,1.2-0.4,1.8-0.5c0.2,0,0.4-0.1,0.6-0.1c0.3,0,0.5-0.2,0.7-0.4c0.2-0.2,0.2-0.5,0.2-0.8V28
			c0-0.1,0-0.2,0-0.3c0-0.2,0.1-0.5,0.3-0.6c0.2-0.1,0.4-0.2,0.6-0.3l0,0l9.7-2c0.1,0,0.8-0.1,0.9-0.1c0.4-0.1,0.8,0.2,0.8,0.6
			c0,0.1,0,0.1,0,0.2l0,15.3C101.1,41.3,101.1,41.7,101,42.1L101,42.1z"/>
	</g>
	<g>
		<path class="st1" d="M122.1,29.4h-4.9v-7.8h1.2v6.7h3.7L122.1,29.4L122.1,29.4z"/>
		<path class="st1" d="M123.5,21.8c0-0.4,0.3-0.8,0.7-0.8c0.4,0,0.8,0.3,0.8,0.7s-0.3,0.8-0.7,0.8c0,0,0,0,0,0
			C123.9,22.5,123.5,22.2,123.5,21.8C123.5,21.8,123.5,21.8,123.5,21.8z M123.7,23.5h1.2v5.9h-1.2V23.5z"/>
		<path class="st1" d="M128.9,23.4c1.1-0.2,2.1,0.6,2.3,1.7h-1.1c-0.2-0.5-0.7-0.8-1.2-0.7c-0.5-0.1-1,0.2-1.1,0.8
			c0,0.4,0.3,0.6,0.9,0.7l1,0.2c0.9,0,1.6,0.7,1.6,1.6c-0.1,1.2-1.2,2-2.3,1.9c0,0-0.1,0-0.1,0c-1.1,0.2-2.2-0.5-2.4-1.7h1.2
			c0.2,0.5,0.7,0.8,1.3,0.7c0.6,0.1,1.1-0.2,1.2-0.8c-0.1-0.4-0.4-0.7-0.9-0.7l-1-0.2c-0.9,0-1.6-0.7-1.6-1.6
			C126.7,24.1,127.7,23.3,128.9,23.4C128.8,23.4,128.8,23.4,128.9,23.4z"/>
		<path class="st1" d="M134.4,22.1v1.5h1.3v1h-1.3v3c-0.1,0.4,0.2,0.8,0.6,0.9c0.1,0,0.2,0,0.3,0c0.1,0,0.3,0,0.4,0v1
			c-0.2,0-0.4,0.1-0.6,0.1c-1.3,0-1.8-0.5-1.8-1.6v-3.3h-0.9v-1h0.9v-1.5H134.4z"/>
		<path class="st1" d="M142.1,27.8c-0.3,1.1-1.4,1.8-2.6,1.7c-1.5,0-2.7-1.1-2.8-2.6c0-0.1,0-0.3,0-0.4c-0.2-1.5,0.8-2.9,2.3-3.1
			c0.1,0,0.3,0,0.4,0c1.4,0,2.6,1.1,2.7,2.5c0,0.1,0,0.3,0,0.4v0.4H138v0.1c-0.1,0.9,0.6,1.6,1.4,1.7c0,0,0.1,0,0.1,0
			c0.6,0.1,1.1-0.2,1.4-0.7H142.1z M138,25.9h3c0.1-0.8-0.5-1.5-1.3-1.5c0,0-0.1,0-0.1,0C138.7,24.4,138.1,25.1,138,25.9
			C138,25.9,138,25.9,138,25.9z"/>
		<path class="st1" d="M143.8,23.5h1.1v0.9h0.1c0.3-0.7,1-1.1,1.8-1.1c1.1-0.1,2,0.7,2.1,1.8c0,0.1,0,0.3,0,0.4v3.8h-1.2v-3.5
			c0.1-0.6-0.3-1.3-0.9-1.4c-0.1,0-0.2,0-0.3,0c-0.7,0-1.4,0.5-1.4,1.3c0,0.1,0,0.1,0,0.2v3.5h-1.2V23.5z"/>
		<path class="st1" d="M153.5,26.5c-0.1-1.5,1-2.9,2.5-3.1c1.5-0.1,2.9,1,3.1,2.5c0,0.2,0,0.4,0,0.5c0.1,1.5-1,2.9-2.5,3.1
			c-1.5,0.1-2.9-1-3.1-2.5C153.5,26.8,153.5,26.7,153.5,26.5z M157.9,26.5c0-1.3-0.6-2-1.6-2c-1,0-1.6,0.7-1.6,2c0,1.3,0.6,2,1.6,2
			C157.3,28.5,157.9,27.8,157.9,26.5z"/>
		<path class="st1" d="M160.6,23.5h1.1v0.9h0.1c0.3-0.7,1-1.1,1.8-1.1c1.1-0.1,2,0.7,2.1,1.8c0,0.1,0,0.3,0,0.4v3.8h-1.2v-3.5
			c0.1-0.6-0.3-1.3-0.9-1.4c-0.1,0-0.2,0-0.3,0c-0.7,0-1.4,0.5-1.4,1.3c0,0.1,0,0.1,0,0.2v3.5h-1.2V23.5z"/>
	</g>
</g>
</svg>
