<?xml version="1.0" encoding="utf-8"?>
<!-- Generator: Adobe Illustrator 19.1.0, SVG Export Plug-In . SVG Version: 6.00 Build 0)  -->
<svg version="1.1" id="Layer_1" xmlns="http://www.w3.org/2000/svg" xmlns:xlink="http://www.w3.org/1999/xlink" x="0px" y="0px"
	 viewBox="0 0 315 74" style="enable-background:new 0 0 315 74;" xml:space="preserve">
<style type="text/css">
	.st0{opacity:0.8;}
	.st1{fill:#FFFFFF;}
</style>
<g class="st0">
	<path class="st1" d="M125.6,37c0,10.6-8.7,19.6-19.8,19.3c-10.3-0.3-19-8.8-18.7-19.8c0.2-10.3,8.8-19.1,19.8-18.8
		C117.2,18,125.6,26.5,125.6,37z M101,28.5c-0.4,0-0.9,0-1.3,0.1c-1.6,0.1-3.1,0.3-4.7,0.6c-0.3,0.1-0.6,0.1-0.9,0.2
		c-0.8,0.4-1.2,1.4-0.9,2.2c0.3,0.9,1.2,1.4,2.1,1.2c2.1-0.4,4.3-0.7,6.5-0.7c1.1,0,2.3,0,3.4,0.1c2.6,0.2,5.2,0.8,7.7,1.6
		c1.8,0.6,3.5,1.3,5.2,2.2c0.9,0.4,2,0.1,2.4-0.8c0.5-0.9,0.1-2-0.7-2.4c-0.5-0.3-1.1-0.6-1.7-0.8c-2.9-1.3-5.9-2.3-9-2.9
		c-2.2-0.4-4.4-0.6-6.7-0.6C102,28.4,101.5,28.4,101,28.5z M102.2,35.1c-0.8,0-1.6,0-2.3,0.1c-1.5,0.1-2.9,0.3-4.4,0.6
		c-0.8,0.2-1.3,0.9-1.2,1.7c0.1,0.7,0.8,1.3,1.6,1.3c0.3,0,0.7-0.1,1-0.2c1.6-0.3,3.3-0.5,4.9-0.5c1.1,0,2.1,0,3.2,0.1
		c2,0.2,4,0.6,6,1.2c1.7,0.5,3.2,1.2,4.8,2c0.7,0.4,1.6,0.1,2-0.6c0.4-0.7,0.1-1.6-0.6-2c-1.8-1-3.7-1.8-5.7-2.4
		C108.5,35.6,105.4,35.1,102.2,35.1z M102.4,41.1c-1,0-1.8,0-2.6,0.1c-1.2,0.1-2.3,0.3-3.5,0.6c-0.6,0.1-1.1,0.8-0.9,1.4
		c0.1,0.6,0.8,1,1.4,0.9c1.7-0.4,3.4-0.6,5.2-0.6c0.8,0,1.6,0,2.4,0.1c1.9,0.2,3.8,0.6,5.7,1.3c1.3,0.5,2.5,1,3.7,1.7
		c0.2,0.1,0.4,0.2,0.6,0.1c0.5,0,1-0.4,1.1-0.9c0.1-0.5-0.1-1-0.6-1.3c-1.5-0.9-3.1-1.6-4.8-2.1C107.5,41.5,104.9,41.1,102.4,41.1z"
		/>
	<path class="st1" d="M215.3,41.5c0.3-0.6,0.5-1.2,0.8-1.8c0.7-1.7,1.4-3.4,2.1-5.2c0.2-0.6,0.5-1.1,0.7-1.7
		c0.1-0.2,0.2-0.2,0.4-0.2c1.2,0,2.3,0,3.5,0c0.3,0,0.4,0.1,0.2,0.3c-1,2.3-2.1,4.7-3.1,7c-0.9,2.1-1.8,4.1-2.7,6.2
		c-0.7,1.6-1.4,3.2-2.1,4.9c-0.1,0.2-0.2,0.3-0.4,0.3c-1.2,0-2.5,0-3.7,0c-0.3,0-0.3-0.1-0.2-0.3c0.8-1.7,1.6-3.4,2.3-5.1
		c0-0.1,0-0.2,0-0.3c-0.9-2-1.8-4-2.8-6c-0.5-1.2-1.1-2.3-1.6-3.5c-0.1-0.1-0.1-0.2-0.3-0.2c-0.9,0-1.8,0-2.7,0
		c-0.2,0-0.2,0-0.2,0.2c0,3.5,0,6.9,0,10.4c0,0.3,0,0.3-0.3,0.3c-1.1,0-2.3,0-3.4,0c-0.3,0-0.3,0-0.3-0.3c0-3.4,0-6.9,0-10.3
		c0-0.2,0-0.3-0.2-0.2c-0.7,0-1.4,0-2.1,0c-0.3,0-0.3,0-0.3-0.3c0-0.9,0-1.8,0-2.7c0-0.3,0-0.3,0.3-0.3c0.7,0,1.4,0,2.1,0
		c0.2,0,0.2-0.1,0.2-0.3c0-0.7,0-1.5,0.1-2.2c0.4-1.7,1.2-3,2.9-3.7c1.1-0.4,2.3-0.4,3.4-0.1c0.3,0.1,0.6,0.2,0.9,0.3
		c0.1,0.1,0.2,0.2,0.3,0.3c0.4,1,0.8,2,1.2,2.9c0,0.1,0.1,0.2,0,0.2c-0.1,0.1-0.2,0-0.2,0c-0.6-0.3-1.2-0.6-1.8-0.7
		c-0.7-0.1-1.4,0-2,0.5c-0.5,0.4-0.7,0.9-0.7,1.5c0,0.3,0,0.6,0,1c0,0.2,0,0.2,0.2,0.2c1.9,0,3.7,0,5.6,0c0.2,0,0.3,0.1,0.4,0.3
		c0.7,1.8,1.5,3.5,2.2,5.3C214.3,39.2,214.8,40.3,215.3,41.5z"/>
	<path class="st1" d="M153.5,35.5c0.4-0.6,0.8-1.2,1.3-1.7c1-1,2.2-1.4,3.6-1.5c1.5,0,2.8,0.4,4,1.3c1.1,0.9,1.9,2.2,2.2,3.6
		c0.5,2,0.4,4-0.4,5.9c-0.8,1.9-2.1,3.2-4.1,3.7c-1.9,0.5-3.7,0.1-5.2-1.2c-0.5-0.4-0.9-1-1.2-1.5c0-0.1-0.1-0.2-0.2-0.3
		c-0.1,0.1,0,0.1,0,0.2c0,2.3,0,4.5,0,6.8c0,0.3,0,0.4-0.4,0.4c-1.1,0-2.2,0-3.2,0c-0.4,0-0.4,0-0.4-0.4c0-6,0-11.9,0-17.9
		c0-0.3,0-0.4,0.4-0.4c1.1,0,2.2,0,3.3,0c0.3,0,0.3,0,0.3,0.3C153.5,33.8,153.5,34.6,153.5,35.5z M160.9,39.6c0-0.5-0.1-1-0.2-1.5
		c-0.3-0.9-0.7-1.6-1.6-2c-1.4-0.7-3-0.4-4.2,0.9c-0.7,0.7-1.1,1.5-1.4,2.5c0,0.1,0,0.2,0,0.3c0.4,1,0.9,2,1.7,2.7
		c0.7,0.7,1.6,1.1,2.6,1.1c0.9,0,1.7-0.4,2.3-1.1C160.7,41.6,160.9,40.6,160.9,39.6z"/>
	<path class="st1" d="M133.6,42.4c0-0.6,0-1.3,0-1.9c0-0.1,0-0.2,0.1-0.3c0.1,0,0.2,0.1,0.2,0.1c1.7,1.9,3.9,2.9,6.3,3.2
		c0.9,0.1,1.8,0,2.7-0.3c0.9-0.4,1.3-1.2,1.3-2.1c0-0.8-0.6-1.3-1.2-1.6c-0.8-0.4-1.6-0.6-2.4-0.9c-1.3-0.4-2.5-0.7-3.7-1.2
		c-0.9-0.4-1.8-1-2.4-1.8c-0.5-0.7-0.8-1.6-0.8-2.5c-0.1-1.3,0.2-2.5,1.1-3.6c0.8-1,1.8-1.7,3-2.1c1.3-0.5,2.7-0.6,4.2-0.6
		c1.5,0.1,2.9,0.4,4.2,1c0.4,0.2,0.8,0.4,1.2,0.7c0.1,0.1,0.2,0.2,0.2,0.4c0,1.1,0,2.3,0,3.4c0,0.1,0,0.2-0.1,0.3
		c-0.1,0.1-0.2,0-0.3-0.1c-1.3-1.1-2.8-1.7-4.5-2c-1.1-0.2-2.3-0.1-3.4,0.3c-0.5,0.2-1,0.6-1.3,1.1c-0.3,0.8-0.1,1.5,0.9,1.9
		c0.7,0.3,1.4,0.5,2.2,0.8c1.3,0.4,2.6,0.7,3.9,1.3c1,0.5,1.9,1,2.6,1.9c0.6,0.8,0.9,1.7,1,2.6c0.1,1-0.1,2-0.5,3
		c-0.5,1.1-1.4,2-2.5,2.6c-1.1,0.6-2.3,0.9-3.6,1c-2,0.1-3.9-0.2-5.8-1c-0.8-0.3-1.5-0.7-2.1-1.3c-0.1-0.1-0.2-0.3-0.2-0.5
		C133.6,43.6,133.6,43,133.6,42.4z"/>
	<path class="st1" d="M173.7,32.2c1.4,0,2.7,0.2,3.9,0.9c2,1,3.2,2.6,3.8,4.7c0.6,2.5,0.1,4.8-1.6,6.7c-1.2,1.4-2.8,2.2-4.6,2.4
		c-1.4,0.2-2.9,0.1-4.2-0.3c-2.5-0.9-4.1-2.6-4.7-5.2c-0.5-2.1-0.2-4.1,1-5.9c1-1.5,2.4-2.5,4.2-3C172.2,32.3,173,32.2,173.7,32.2z
		 M173.8,43.6c1.4,0,2.5-0.6,3.2-1.8c0.4-0.7,0.6-1.5,0.6-2.4c0-0.9-0.3-1.7-0.9-2.4c-0.9-1-2-1.4-3.3-1.3c-1.1,0.1-2.1,0.7-2.7,1.7
		c-0.5,0.8-0.7,1.7-0.6,2.6C170.2,42.1,171.7,43.6,173.8,43.6z"/>
	<path class="st1" d="M184.3,39.2c0-1,0-2.1,0-3.1c0-0.2,0-0.2-0.2-0.2c-0.7,0-1.4,0-2.2,0c-0.3,0-0.3,0-0.3-0.3c0-0.5,0-1,0-1.4
		c0-0.2,0.1-0.3,0.2-0.4c2-1.6,4-3.2,6.1-4.8c0.1-0.1,0.2-0.3,0.4-0.2c0.2,0.1,0.1,0.3,0.1,0.4c0,1.1,0,2.2,0,3.3
		c0,0.2,0,0.2,0.2,0.2c1.1,0,2.1,0,3.2,0c0.3,0,0.3,0,0.3,0.3c0,0.9,0,1.8,0,2.6c0,0.3,0,0.3-0.3,0.3c-1.1,0-2.1,0-3.2,0
		c-0.2,0-0.2,0-0.2,0.2c0,1.8,0,3.7,0,5.5c0,0.6,0.1,1.1,0.5,1.5c0.3,0.4,0.8,0.5,1.2,0.5c0.6,0,1.2-0.1,1.7-0.4
		c0.2-0.1,0.3-0.1,0.3,0.2c0,0.8,0,1.7,0,2.5c0,0.2-0.1,0.3-0.2,0.4c-0.7,0.3-1.4,0.5-2.2,0.6c-1,0.1-1.9,0-2.9-0.3
		c-1.2-0.5-1.9-1.4-2.3-2.6c-0.2-0.7-0.3-1.4-0.3-2.1C184.3,41,184.3,40.1,184.3,39.2z"/>
	<path class="st1" d="M193.4,39.7c0-2.3,0-4.5,0-6.8c0-0.3,0-0.3,0.3-0.3c1.1,0,2.3,0,3.4,0c0.3,0,0.3,0,0.3,0.3c0,0.9,0,1.7,0,2.6
		c0,3.6,0,7.2,0,10.8c0,0.4,0,0.4-0.4,0.4c-1.1,0-2.2,0-3.3,0c-0.3,0-0.4,0-0.4-0.4C193.4,44.1,193.4,41.9,193.4,39.7z"/>
	<path class="st1" d="M197.8,28.4c0,1.2-0.8,2.1-2,2.2c-0.8,0.1-1.4-0.1-2-0.6c-1-0.9-1-2.6,0.1-3.4c1-0.8,2.5-0.7,3.4,0.2
		C197.6,27.3,197.8,27.8,197.8,28.4z"/>
	<path class="st1" d="M223.6,34.5c0-1,0.7-2.1,2.2-2.1c1.3,0,2.2,0.9,2.2,2.1c0,1.2-0.9,2.1-2.2,2.1
		C224.4,36.6,223.5,35.7,223.6,34.5z M227.5,34.5c0-1-0.7-1.8-1.8-1.8c-1,0-1.8,0.7-1.8,1.7c0,1,0.7,1.7,1.8,1.7
		C226.7,36.3,227.5,35.5,227.5,34.5z"/>
	<path class="st1" d="M226.8,35.4C226.7,35.4,226.7,35.5,226.8,35.4c-0.4,0.1-0.7,0-0.9-0.3c-0.1-0.1-0.2-0.2-0.3-0.4
		c-0.1-0.1-0.2-0.1-0.2-0.1c-0.1,0-0.1,0.1-0.1,0.1c0,0.2,0,0.3,0,0.5c0,0.1,0,0.2-0.1,0.1c-0.1,0-0.1,0-0.2,0c-0.1,0-0.1,0-0.1-0.1
		c0-0.6,0-1.2,0-1.8c0-0.1,0-0.1,0.1-0.1c0.4,0,0.8,0,1.2,0c0.3,0.1,0.5,0.2,0.5,0.5c0,0.3-0.1,0.5-0.4,0.6c-0.1,0-0.1,0.1,0,0.2
		C226.4,35,226.6,35.2,226.8,35.4z M225.7,33.8c-0.3,0-0.3,0-0.3,0.3c0,0,0,0.1,0,0.1c0,0,0,0.1,0.1,0.1c0.2,0,0.4,0,0.6-0.1
		c0.1,0,0.1-0.1,0.1-0.2c0-0.1,0-0.2-0.1-0.2C225.9,33.8,225.8,33.8,225.7,33.8z"/>
</g>
</svg>
