<?xml version="1.0" encoding="utf-8"?>
<!-- Generator: Adobe Illustrator 19.1.0, SVG Export Plug-In . SVG Version: 6.00 Build 0)  -->
<svg version="1.1" id="Layer_1" xmlns="http://www.w3.org/2000/svg" xmlns:xlink="http://www.w3.org/1999/xlink" x="0px" y="0px"
	 viewBox="0 0 315 74" style="enable-background:new 0 0 315 74;" xml:space="preserve">
<style type="text/css">
	.st0{opacity:0.8;}
	.st1{fill:#FFFFFF;}
</style>
<g class="st0">
	<g>
		<g>
			<path class="st1" d="M152.3,51.2c-0.8-0.6-1.4-1.4-1.8-2.6c-0.4-1.2-0.5-2.8-0.5-4.8v-2.7c0-2,0.2-3.6,0.6-4.8
				c0.4-1.2,1-2.1,1.9-2.7c0.9-0.6,2-0.8,3.4-0.8c1.4,0,2.5,0.3,3.3,0.9c0.8,0.6,1.4,1.5,1.8,2.7c0.4,1.2,0.6,2.8,0.6,4.8v2.7
				c0,2-0.2,3.6-0.6,4.8c-0.4,1.2-1,2.1-1.8,2.6c-0.8,0.6-2,0.8-3.4,0.8C154.3,52,153.2,51.7,152.3,51.2z M157,48.3
				c0.2-0.6,0.3-1.6,0.3-3v-5.8c0-1.3-0.1-2.3-0.3-2.9c-0.2-0.6-0.6-0.9-1.2-0.9c-0.6,0-1,0.3-1.2,0.9c-0.2,0.6-0.3,1.6-0.3,2.9v5.8
				c0,1.4,0.1,2.4,0.3,3c0.2,0.6,0.6,0.9,1.2,0.9C156.4,49.2,156.8,48.9,157,48.3z"/>
			<path class="st1" d="M216.8,43.8v0.9c0,1.2,0,2.1,0.1,2.7c0.1,0.6,0.2,1,0.4,1.3c0.2,0.3,0.6,0.4,1,0.4c0.6,0,1.1-0.2,1.3-0.7
				c0.2-0.5,0.4-1.3,0.4-2.4l3.6,0.2c0,0.2,0,0.4,0,0.7c0,1.7-0.5,3-1.4,3.9c-0.9,0.9-2.3,1.3-4,1.3c-2.1,0-3.5-0.6-4.3-1.9
				c-0.8-1.3-1.2-3.3-1.2-6v-3.2c0-2.8,0.4-4.8,1.3-6.1c0.9-1.3,2.3-1.9,4.4-1.9c1.4,0,2.5,0.3,3.3,0.8c0.8,0.5,1.3,1.3,1.6,2.5
				c0.3,1.1,0.5,2.7,0.5,4.6v3.2H216.8z M217.3,36c-0.2,0.3-0.4,0.7-0.4,1.3c-0.1,0.6-0.1,1.5-0.1,2.7v1.3h3.1V40
				c0-1.2,0-2.1-0.1-2.7c-0.1-0.6-0.2-1.1-0.4-1.3c-0.2-0.3-0.5-0.4-1-0.4C217.9,35.6,217.5,35.7,217.3,36z"/>
			<path class="st1" d="M142.1,43.5l-4.8-17.2h4.2l1.7,7.8c0.4,1.9,0.7,3.6,0.9,4.9h0.1c0.1-1,0.5-2.6,0.9-4.9l1.7-7.8h4.2
				l-4.8,17.2v8.3h-4.1V43.5z"/>
			<path class="st1" d="M175.1,33.1v18.6h-3.3l-0.4-2.3h-0.1c-0.9,1.7-2.2,2.6-4,2.6c-1.2,0-2.1-0.4-2.7-1.2
				c-0.6-0.8-0.9-2.1-0.9-3.8V33.1h4.2v13.7c0,0.8,0.1,1.4,0.3,1.8c0.2,0.4,0.5,0.5,0.9,0.5c0.4,0,0.7-0.1,1-0.3
				c0.3-0.2,0.6-0.5,0.7-0.9V33.1H175.1z"/>
			<path class="st1" d="M196.6,33.1v18.6h-3.3l-0.4-2.3h-0.1c-0.9,1.7-2.2,2.6-4,2.6c-1.2,0-2.1-0.4-2.7-1.2
				c-0.6-0.8-0.9-2.1-0.9-3.8V33.1h4.2v13.7c0,0.8,0.1,1.4,0.3,1.8c0.2,0.4,0.5,0.5,0.9,0.5c0.4,0,0.7-0.1,1-0.3
				c0.3-0.2,0.6-0.5,0.7-0.9V33.1H196.6z"/>
			<path class="st1" d="M186.5,29.6h-4.2v22.1h-4.1V29.6h-4.2v-3.4h12.4V29.6z"/>
			<path class="st1" d="M210.5,36.1c-0.3-1.2-0.7-2-1.2-2.6c-0.6-0.5-1.3-0.8-2.3-0.8c-0.8,0-1.5,0.2-2.2,0.7
				c-0.7,0.4-1.2,1-1.5,1.7h0l0-9.8h-4v26.4h3.5L203,50h0.1c0.3,0.6,0.8,1.1,1.5,1.5c0.6,0.4,1.4,0.5,2.2,0.5c1.4,0,2.5-0.7,3.1-2
				c0.7-1.3,1-3.3,1-6.1V41C210.9,38.9,210.7,37.3,210.5,36.1z M206.6,43.7c0,1.4-0.1,2.4-0.2,3.2c-0.1,0.8-0.3,1.3-0.6,1.6
				c-0.3,0.3-0.6,0.5-1.1,0.5c-0.3,0-0.7-0.1-1-0.2c-0.3-0.2-0.5-0.4-0.7-0.7V37.5c0.1-0.5,0.4-0.9,0.7-1.2c0.3-0.3,0.7-0.5,1.1-0.5
				c0.4,0,0.8,0.2,1,0.5c0.2,0.3,0.4,0.9,0.5,1.7c0.1,0.8,0.1,1.9,0.1,3.4V43.7z"/>
		</g>
	</g>
	<path class="st1" d="M132.8,28.8c-0.5-1.8-1.9-3.3-3.8-3.8c-3.3-0.9-16.6-0.9-16.6-0.9s-13.3,0-16.6,0.9c-1.8,0.5-3.3,1.9-3.8,3.8
		C91.2,32.1,91.2,39,91.2,39s0,6.9,0.9,10.2c0.5,1.8,1.9,3.3,3.8,3.8c3.3,0.9,16.6,0.9,16.6,0.9s13.3,0,16.6-0.9
		c1.8-0.5,3.3-1.9,3.8-3.8c0.9-3.3,0.9-10.2,0.9-10.2S133.6,32.1,132.8,28.8z M106.9,32.6l11,6.4l-11,6.4V32.6z"/>
</g>
</svg>
