<?xml version="1.0" encoding="utf-8"?>
<!-- Generator: Adobe Illustrator 19.1.0, SVG Export Plug-In . SVG Version: 6.00 Build 0)  -->
<svg version="1.1" id="Layer_1" xmlns="http://www.w3.org/2000/svg" xmlns:xlink="http://www.w3.org/1999/xlink" x="0px" y="0px"
	 viewBox="0 0 55 55" style="enable-background:new 0 0 55 55;" xml:space="preserve">
<style type="text/css">
	.st0{fill:#C11D04;}
	.st1{fill:#FFFFFF;}
</style>
<g>
	<circle class="st0" cx="27.5" cy="27.5" r="27.2"/>
	<g>
		<g>
			<path class="st1" d="M17.5,27.8c0.7,0,1.2,0.4,1.5,1H19c0.4-0.7,0.9-1,1.5-1c1,0,1.7,0.9,1.7,2.3v3.4c0,0.1-0.1,0.2-0.2,0.2H21
				c-0.1,0-0.2-0.1-0.2-0.2v-3.3c0-0.7-0.3-1-0.8-1c-0.5,0-0.8,0.4-0.8,1.2v3.1c0,0.1-0.1,0.2-0.2,0.2h-1.1c-0.1,0-0.2-0.1-0.2-0.2
				v-3.3c0-0.7-0.3-1-0.8-1c-0.5,0-0.8,0.4-0.8,1.2v3.1c0,0.1-0.1,0.2-0.2,0.2h-1.1c-0.1,0-0.2-0.1-0.2-0.2v-5.4
				c0-0.1,0.1-0.2,0.2-0.2h0.9c0.1,0,0.2,0.1,0.2,0.2l0.1,0.7h0.1C16.4,28.1,16.9,27.8,17.5,27.8z"/>
			<path class="st1" d="M27.6,28.1v5.4c0,0.1-0.1,0.2-0.2,0.2h-0.9c-0.1,0-0.2-0.1-0.2-0.2l-0.1-0.7h-0.1c-0.2,0.6-0.7,1-1.4,1
				c-1,0-1.7-0.9-1.7-2.2v-3.5c0-0.1,0.1-0.2,0.2-0.2h1.1c0.1,0,0.2,0.1,0.2,0.2v3.4c0,0.7,0.3,1,0.8,1c0.6,0,0.8-0.4,0.8-1.2v-3.2
				c0-0.1,0.1-0.2,0.2-0.2h1.1C27.6,27.9,27.6,28,27.6,28.1z"/>
			<path class="st1" d="M31.3,29.6c-0.1-0.4-0.4-0.6-0.8-0.6c-0.4,0-0.7,0.2-0.7,0.5c0,0.3,0.2,0.5,0.6,0.6l0.8,0.2
				c1,0.2,1.4,0.8,1.4,1.7c0,1.1-0.9,1.9-2.2,1.9c-1.1,0-2.1-0.6-2.2-1.8c0-0.1,0-0.2,0.2-0.2l1-0.2c0.1,0,0.2,0,0.2,0.2
				c0.1,0.6,0.4,0.9,0.9,0.9c0.4,0,0.7-0.2,0.7-0.6c0-0.4-0.2-0.6-0.7-0.7L30,31.2c-1.2-0.3-1.6-0.9-1.6-1.7c0-1.1,0.9-1.8,2.1-1.8
				c1.2,0,1.9,0.6,2.1,1.5c0,0.1,0,0.2-0.1,0.2l-1,0.2C31.4,29.7,31.3,29.7,31.3,29.6z"/>
			<path class="st1" d="M34.1,25.7c0.5,0,0.9,0.3,0.9,0.9c0,0.5-0.4,0.9-0.9,0.9c-0.5,0-0.9-0.3-0.9-0.9
				C33.3,26.1,33.7,25.7,34.1,25.7z M33.4,33.5v-5.4c0-0.1,0.1-0.2,0.2-0.2h1.1c0.1,0,0.2,0.1,0.2,0.2v5.4c0,0.1-0.1,0.2-0.2,0.2
				h-1.1C33.5,33.7,33.4,33.6,33.4,33.5z"/>
			<path class="st1" d="M40.3,31.9c-0.2,1.2-1.2,1.9-2.2,1.9c-1.4,0-2.5-1.3-2.5-3c0-1.7,1.1-3,2.5-3c1.1,0,2,0.7,2.2,1.9
				c0,0.1,0,0.2-0.1,0.2l-1,0.2c-0.1,0-0.2,0-0.2-0.1c-0.2-0.7-0.5-1-0.9-1c-0.6,0-1,0.7-1,1.8c0,1.2,0.3,1.8,1,1.8
				c0.4,0,0.7-0.3,0.9-1c0-0.1,0.1-0.2,0.2-0.1l1,0.2C40.3,31.7,40.3,31.8,40.3,31.9z"/>
			<path class="st1" d="M33.4,36.6c0.1,0.2,0.3,0.2,0.6,0.1c0.8-0.2,1.9-0.2,2.1,0.1c0.2,0.3-0.2,1.2-0.7,2
				c-0.2,0.3-0.2,0.5-0.1,0.6c0,0,0.1,0.1,0.1,0.1c0.2,0,0.4-0.2,0.6-0.4c0.4-0.4,0.8-0.9,1-1.4c0.2-0.5,0.3-1.3,0.1-1.6
				c-0.2-0.3-0.9-0.5-1.5-0.4c-0.6,0-1.2,0.1-1.7,0.4C33.6,36.2,33.3,36.4,33.4,36.6L33.4,36.6z"/>
			<path class="st1" d="M18.1,36.3c0,0.1,0.2,0.3,0.3,0.5c2.1,2.6,5.6,3.8,8.9,3.8c2.9,0,5.7-0.9,7.5-2.4c0.3-0.3,0.5-0.5,0.5-0.7
				c0-0.1,0-0.1-0.1-0.2c-0.2-0.2-0.4,0-0.7,0.1c-1.7,0.9-4.2,1.5-6.9,1.5c-3,0-6.3-0.8-8.8-2.7c-0.2-0.2-0.5-0.4-0.7-0.2
				C18,36,18,36.1,18.1,36.3L18.1,36.3z"/>
			<path class="st1" d="M12.3,24.8c-1,0-1.7-0.7-1.7-1.7c0-1.2,1-2,2.5-2c0.2,0,0.4,0,0.6,0v-0.1c0-0.7-0.3-1-0.8-1
				c-0.4,0-0.7,0.2-0.8,0.7c0,0.1-0.1,0.2-0.2,0.2l-1-0.2c-0.1,0-0.2-0.1-0.1-0.2c0.3-1,1.1-1.5,2.2-1.5c1.4,0,2.2,0.8,2.2,2.2v3.5
				c0,0.1-0.1,0.2-0.2,0.2h-0.9c-0.1,0-0.2-0.1-0.2-0.2l-0.1-0.7h-0.1C13.5,24.4,13,24.8,12.3,24.8z M12.9,23.7
				c0.6,0,0.9-0.5,0.9-1.5v-0.4c-0.1,0-0.2,0-0.4,0c-0.8,0-1.2,0.4-1.2,1.1C12.2,23.4,12.5,23.7,12.9,23.7z"/>
			<path class="st1" d="M19,18.8c0.7,0,1.2,0.4,1.5,1h0.1c0.4-0.7,0.9-1,1.5-1c1,0,1.7,0.9,1.7,2.3v3.4c0,0.1-0.1,0.2-0.2,0.2h-1.1
				c-0.1,0-0.2-0.1-0.2-0.2v-3.3c0-0.7-0.3-1-0.8-1c-0.5,0-0.8,0.4-0.8,1.2v3.1c0,0.1-0.1,0.2-0.2,0.2h-1.1c-0.1,0-0.2-0.1-0.2-0.2
				v-3.3c0-0.7-0.3-1-0.8-1c-0.5,0-0.8,0.4-0.8,1.2v3.1c0,0.1-0.1,0.2-0.2,0.2h-1.1c-0.1,0-0.2-0.1-0.2-0.2v-5.4
				c0-0.1,0.1-0.2,0.2-0.2h0.9c0.1,0,0.2,0.1,0.2,0.2l0.1,0.7h0.1C17.9,19.1,18.4,18.8,19,18.8z"/>
			<path class="st1" d="M26,24.8c-1,0-1.7-0.7-1.7-1.7c0-1.2,1-2,2.5-2c0.2,0,0.4,0,0.6,0v-0.1c0-0.7-0.3-1-0.8-1
				c-0.4,0-0.7,0.2-0.8,0.7c0,0.1-0.1,0.2-0.2,0.2l-1-0.2c-0.1,0-0.2-0.1-0.1-0.2c0.3-1,1.1-1.5,2.2-1.5c1.4,0,2.2,0.8,2.2,2.2v3.5
				c0,0.1-0.1,0.2-0.2,0.2h-0.9c-0.1,0-0.2-0.1-0.2-0.2l-0.1-0.7h-0.1C27.2,24.4,26.7,24.8,26,24.8z M26.6,23.7
				c0.6,0,0.9-0.5,0.9-1.5v-0.4c-0.1,0-0.2,0-0.4,0c-0.8,0-1.2,0.4-1.2,1.1C25.9,23.4,26.1,23.7,26.6,23.7z"/>
			<path class="st1" d="M29.6,23.6c0-0.1,0-0.2,0.1-0.3l2.3-3.3h-2.1c-0.1,0-0.2-0.1-0.2-0.2v-0.8c0-0.1,0.1-0.2,0.2-0.2h3.6
				c0.1,0,0.2,0.1,0.2,0.2v0.8c0,0.1,0,0.2-0.1,0.3l-2.3,3.3h2.3c0.1,0,0.2,0.1,0.2,0.2v0.8c0,0.1-0.1,0.2-0.2,0.2h-3.8
				c-0.1,0-0.2-0.1-0.2-0.2V23.6z"/>
			<path class="st1" d="M34,21.8c0-1.7,1.1-3,2.5-3c1.4,0,2.5,1.3,2.5,3c0,1.7-1.1,3-2.5,3C35.1,24.8,34,23.5,34,21.8z M36.5,23.6
				c0.6,0,1-0.7,1-1.8c0-1.2-0.4-1.8-1-1.8c-0.6,0-1,0.7-1,1.8C35.5,22.9,35.9,23.6,36.5,23.6z"/>
			<path class="st1" d="M42.6,18.8c1.1,0,1.7,0.9,1.7,2.3v3.4c0,0.1-0.1,0.2-0.2,0.2H43c-0.1,0-0.2-0.1-0.2-0.2v-3.3
				c0-0.7-0.3-1-0.8-1c-0.6,0-0.9,0.4-0.9,1.2v3.1c0,0.1-0.1,0.2-0.2,0.2h-1.1c-0.1,0-0.2-0.1-0.2-0.2v-5.4c0-0.1,0.1-0.2,0.2-0.2
				h0.9c0.1,0,0.2,0.1,0.2,0.2l0.1,0.7h0.1C41.4,19.1,41.9,18.8,42.6,18.8z"/>
		</g>
	</g>
</g>
</svg>
