<?xml version="1.0" encoding="utf-8"?>
<!-- Generator: Adobe Illustrator 19.1.0, SVG Export Plug-In . SVG Version: 6.00 Build 0)  -->
<svg version="1.1" id="Layer_1" xmlns="http://www.w3.org/2000/svg" xmlns:xlink="http://www.w3.org/1999/xlink" x="0px" y="0px"
	 viewBox="0 0 55 55" style="enable-background:new 0 0 55 55;" xml:space="preserve">
<style type="text/css">
	.st0{fill:#C11D04;}
	.st1{fill:#FFFFFF;}
</style>
<g>
	<circle class="st0" cx="27.5" cy="27.5" r="27.2"/>
	<path id="_Compound_Path_11_9_" class="st1" d="M40.8,17.4c-0.7-1.6-2-2.8-3.7-3.3c-1.1-0.3-2.2-0.4-3.3-0.4H21.3
		c-1.1,0-2.2,0.1-3.3,0.4c-1.7,0.5-3,1.7-3.7,3.3c-0.4,1.3-0.6,2.6-0.5,3.9v12.4c-0.1,1.3,0.1,2.7,0.5,3.9c0.7,1.6,2,2.8,3.7,3.3
		c1.1,0.3,2.2,0.4,3.3,0.4h12.4c1.1,0,2.2-0.1,3.3-0.4c1.7-0.5,3-1.7,3.7-3.3c0.4-1.3,0.6-2.6,0.5-3.9V21.3
		C41.4,20,41.2,18.6,40.8,17.4z M33.8,32.7c-0.1,0.3-0.2,0.7-0.4,0.9c-0.2,0.3-0.5,0.5-0.8,0.7c-0.3,0.2-0.6,0.3-1,0.3
		c-0.5,0.1-1,0.2-1.5,0.1c-0.4-0.1-0.7-0.2-1-0.5c-0.9-0.8-1-2.2-0.2-3c0,0,0,0,0-0.1c0.3-0.3,0.6-0.5,0.9-0.6
		c0.5-0.2,1-0.3,1.5-0.4c0.2,0,0.4-0.1,0.5-0.1c0.2,0,0.4-0.1,0.6-0.3c0.1-0.2,0.2-0.4,0.2-0.7l0-6.1c0-0.5-0.2-0.6-0.7-0.5
		c-0.3,0.1-7.1,1.4-7.1,1.4c-0.3,0-0.6,0.3-0.5,0.6c0,0,0,0.1,0,0.1l0,8.9c0,0.3,0,0.7-0.1,1c-0.1,0.3-0.2,0.7-0.4,0.9
		c-0.2,0.3-0.5,0.5-0.8,0.7c-0.3,0.2-0.6,0.3-1,0.4c-0.5,0.1-1,0.2-1.5,0.1c-0.4-0.1-0.7-0.3-1-0.5c-0.9-0.8-0.9-2.2-0.1-3.1
		c0.3-0.3,0.6-0.5,0.9-0.6c0.5-0.2,1-0.3,1.5-0.4c0.2,0,0.4-0.1,0.5-0.1c0.2,0,0.4-0.1,0.6-0.3c0.1-0.2,0.2-0.4,0.2-0.7V20.7
		c0-0.1,0-0.2,0-0.3c0-0.2,0.1-0.4,0.3-0.5c0.1-0.1,0.3-0.2,0.5-0.2l0,0l8.2-1.7c0.1,0,0.7-0.1,0.7-0.1c0.3,0,0.7,0.2,0.7,0.5
		c0,0.1,0,0.1,0,0.2l0,13C33.9,32,33.9,32.3,33.8,32.7L33.8,32.7z"/>
</g>
</svg>
