<?xml version="1.0" encoding="utf-8"?>
<!-- Generator: Adobe Illustrator 19.1.0, SVG Export Plug-In . SVG Version: 6.00 Build 0)  -->
<svg version="1.1" id="Layer_1" xmlns="http://www.w3.org/2000/svg" xmlns:xlink="http://www.w3.org/1999/xlink" x="0px" y="0px"
	 viewBox="0 0 55 55" style="enable-background:new 0 0 55 55;" xml:space="preserve">
<style type="text/css">
	.st0{fill:#C11D04;}
	.st1{fill:#FFFFFF;}
</style>
<g>
	<circle class="st0" cx="27.5" cy="27.5" r="27.2"/>
</g>
<g>
	<path class="st1" d="M15.4,12.6c0.1,0,0.2,0,0.3,0c4.8,0,9.5,0,14.3,0c2.2,0,4.3,0.4,6.3,1.3c3.6,1.7,5.6,4.5,6.1,8.4
		c0.3,2.4,0.1,4.7-0.8,7c-1.3,3.4-3.8,5.5-7.1,6.7c-2.2,0.8-4.6,1.1-6.9,1.1c-0.7,0-1.4,0-2.1,0c0,0.1,0,0.3,0,0.4
		c0,1.9,0,3.7,0,5.6c0,1.1-0.6,1.7-1.7,1.7c-2.7,0-5.4,0-8.1,0c-0.1,0-0.2,0-0.3,0C15.4,34,15.4,23.3,15.4,12.6z"/>
</g>
</svg>
