<?xml version="1.0" encoding="utf-8"?>
<!-- Generator: Adobe Illustrator 19.1.0, SVG Export Plug-In . SVG Version: 6.00 Build 0)  -->
<svg version="1.1" id="Layer_1" xmlns="http://www.w3.org/2000/svg" xmlns:xlink="http://www.w3.org/1999/xlink" x="0px" y="0px"
	 viewBox="0 0 55 55" style="enable-background:new 0 0 55 55;" xml:space="preserve">
<style type="text/css">
	.st0{fill:#C11D04;}
	.st1{fill:#FFFFFF;}
</style>
<g>
	<circle class="st0" cx="27.5" cy="27.5" r="27.2"/>
	<path class="st1" d="M40.8,27.5c0,7.3-6,13.5-13.7,13.3C20,40.6,14,34.7,14.2,27.2C14.4,20,20.3,14,27.9,14.2
		C35,14.4,40.8,20.3,40.8,27.5z M23.8,21.6c-0.3,0-0.6,0-0.9,0.1c-1.1,0.1-2.2,0.2-3.2,0.4c-0.2,0-0.4,0.1-0.6,0.2
		c-0.6,0.3-0.8,0.9-0.6,1.5c0.2,0.6,0.8,0.9,1.4,0.8c1.5-0.3,3-0.5,4.5-0.5c0.8,0,1.6,0,2.4,0.1c1.8,0.2,3.6,0.5,5.3,1.1
		c1.2,0.4,2.4,0.9,3.6,1.5c0.6,0.3,1.4,0.1,1.7-0.5c0.3-0.6,0.1-1.4-0.5-1.7c-0.4-0.2-0.8-0.4-1.1-0.6c-2-0.9-4.1-1.6-6.2-2
		c-1.5-0.3-3.1-0.4-4.6-0.4C24.5,21.6,24.1,21.6,23.8,21.6z M24.6,26.2c-0.5,0-1.1,0-1.6,0.1c-1,0.1-2,0.2-3,0.4
		c-0.5,0.1-0.9,0.6-0.8,1.2c0.1,0.5,0.5,0.9,1.1,0.9c0.2,0,0.5-0.1,0.7-0.1c1.1-0.2,2.3-0.3,3.4-0.3c0.7,0,1.5,0,2.2,0.1
		c1.4,0.1,2.8,0.4,4.1,0.9c1.1,0.4,2.2,0.8,3.3,1.4c0.5,0.3,1.1,0.1,1.4-0.4c0.3-0.5,0.1-1.1-0.4-1.4c-1.2-0.7-2.5-1.2-3.9-1.6
		C29,26.5,26.8,26.2,24.6,26.2z M24.7,30.3c-0.7,0-1.2,0-1.8,0.1c-0.8,0.1-1.6,0.2-2.4,0.4c-0.4,0.1-0.7,0.5-0.6,0.9
		c0.1,0.4,0.5,0.7,1,0.6c1.2-0.3,2.4-0.4,3.6-0.4c0.6,0,1.1,0,1.7,0.1c1.3,0.1,2.7,0.4,3.9,0.9c0.9,0.3,1.7,0.7,2.5,1.2
		c0.1,0.1,0.3,0.1,0.4,0.1c0.4,0,0.7-0.3,0.8-0.6c0.1-0.3-0.1-0.7-0.4-0.9c-1.1-0.6-2.1-1.1-3.3-1.4C28.3,30.6,26.5,30.3,24.7,30.3z
		"/>
</g>
</svg>
