<?xml version="1.0" encoding="utf-8"?>
<!-- Generator: Adobe Illustrator 19.1.0, SVG Export Plug-In . SVG Version: 6.00 Build 0)  -->
<svg version="1.1" id="Layer_1" xmlns="http://www.w3.org/2000/svg" xmlns:xlink="http://www.w3.org/1999/xlink" x="0px" y="0px"
	 viewBox="0 0 55 55" style="enable-background:new 0 0 55 55;" xml:space="preserve">
<style type="text/css">
	.st0{fill:#C11D04;}
	.st1{fill:#FFFFFF;}
</style>
<g>
	<circle class="st0" cx="27.5" cy="27.5" r="27.2"/>
	<path class="st1" d="M41.1,20.6c-0.3-1.2-1.3-2.2-2.5-2.5c-2.2-0.6-11.1-0.6-11.1-0.6s-8.9,0-11.1,0.6c-1.2,0.3-2.2,1.3-2.5,2.5
		c-0.6,2.2-0.6,6.9-0.6,6.9s0,4.6,0.6,6.9c0.3,1.2,1.3,2.2,2.5,2.5c2.2,0.6,11.1,0.6,11.1,0.6s8.9,0,11.1-0.6
		c1.2-0.3,2.2-1.3,2.5-2.5c0.6-2.2,0.6-6.9,0.6-6.9S41.7,22.9,41.1,20.6z M24.7,31.8v-8.5l7.4,4.3L24.7,31.8z"/>
</g>
</svg>
