<?xml version="1.0" encoding="utf-8"?>
<!-- Generator: Adobe Illustrator 19.1.0, SVG Export Plug-In . SVG Version: 6.00 Build 0)  -->
<svg version="1.1" id="Layer_1" xmlns="http://www.w3.org/2000/svg" xmlns:xlink="http://www.w3.org/1999/xlink" x="0px" y="0px"
	 viewBox="-339 246 280 70" style="enable-background:new -339 246 280 70;" xml:space="preserve">
<style type="text/css">
	.st0{fill:#FFFFFF;}
</style>
<g>
	<path class="st0" d="M-89.7,252.2c-2.6,2-1.6,6.2,1.6,6.8c3.1,0.6,5.4-2.6,4-5.7C-84.9,251.5-88.1,250.9-89.7,252.2z"/>
	<path class="st0" d="M-317.6,277.3c0-10.4-0.2-11.7-2.2-14c-0.7-0.8-1.9-1.7-2.6-2c-1.6-0.7-5.6-1-7.6-0.6c-2,0.4-3.8,1.4-5.1,2.9
		c-1.2,1.4-2.1,3.4-1.8,4.2c0.2,0.4,3.5,1.2,5,1.2c0.3,0,0.8-0.5,1-1.1c0.9-2.1,3.3-3.2,5.2-2.2c0.9,0.5,1.6,2.1,1.6,3.5v1.3l-2.9,0
		c-3.8,0.1-6.2,1-8.3,3.1c-1.7,1.8-2.3,3.3-2.3,6.2c0,2.4,0.8,4.2,2.4,5.7c1.6,1.4,3.2,1.9,5.5,1.7c2.2-0.2,3.7-1,5-2.8
		c0.9-1.3,1.1-1.1,1.5,1l0.2,1.2l2.2,0.1C-317.3,286.8-317.6,287.8-317.6,277.3z M-324.2,276c0,4.2-1.2,6.2-3.7,6.2
		c-1.9,0-2.9-1-3.1-3.2c-0.3-2.9,2-5.1,5.3-5.1h1.6V276z"/>
	<path class="st0" d="M-307.5,286.5l0.1-8.4c0.1-9.6,0.3-10.4,2.4-11.3c1-0.4,1.5-0.4,2.3-0.1c2.2,0.7,2.3,1.1,2.4,11l0.1,8.9h3.1
		c2.5,0,3.1-0.1,3.3-0.5c0.1-0.3,0.2-4.1,0.2-8.4c0-6.2,0.1-8.2,0.5-9.1c1-2.4,4.5-2.6,5.7-0.4c0.5,0.9,0.6,2.2,0.7,9.7
		c0.1,7.5,0.2,8.7,0.6,8.8c0.3,0.1,1.7,0,3.2-0.1l2.7-0.2l0.1-7.6c0.1-8.7-0.2-12-1.4-14.3c-1.5-3-4.4-4.4-7.7-3.7
		c-1.6,0.3-2.1,0.7-3.5,2c-0.9,0.9-1.6,1.8-1.6,1.9c0,0.7-0.5,0.2-1.3-1c-1.5-2.6-5-3.9-7.8-2.8c-1.5,0.6-2.7,1.6-3.4,2.9
		c-0.6,1.2-0.8,1-1.3-1l-0.3-1.6h-2.6h-2.6l-0.1,12.6l-0.1,12.7h3.1H-307.5z"/>
	<path class="st0" d="M-275.9,275.4c-1.9,3.5-1,8.4,2.1,10.6c1.8,1.3,4.7,1.6,6.8,0.8c1.4-0.5,3.5-2.4,3.5-3.2
		c0-0.2,0.1-0.3,0.3-0.3s0.4,0.7,0.6,1.6l0.3,1.6h2.8h2.8V277c0-10.2-0.1-10.8-1.9-13.2c-1.8-2.5-6.5-3.8-10.4-3
		c-2.1,0.4-3.7,1.3-5.1,2.7c-1.3,1.3-2.4,3.9-2,4.5c0.2,0.3,3.5,1.1,4.9,1.1c0.6,0,0.8-0.3,1.1-1.2c0.2-0.7,0.8-1.4,1.5-1.8
		c2.4-1.5,5-0.2,5.4,2.8l0.2,1.7l-2.9,0C-270.7,270.6-274.1,272.3-275.9,275.4z M-263,274l-0.2,2.6c-0.2,2.8-0.8,4.3-1.9,5.2
		c-1,0.7-2.9,0.7-3.8,0c-1.4-1-1.6-3.8-0.4-5.8c0.7-1.1,2.8-2,4.7-2H-263z"/>
	<path class="st0" d="M-215.8,262.9c-2.3-1.9-6-2.9-8.8-2.2c-2,0.5-3.6,1.5-5.1,3.1c-5.1,5.6-5,15.1,0.3,20.4
		c4.7,4.7,12.6,3.5,16-2.2C-209.7,275.9-210.8,267.1-215.8,262.9z M-222.3,281.9c-1.2,0-1.6-0.2-2.4-1.2c-1.4-1.5-1.7-3-1.7-6.8
		c0-4.6,1-7.2,3-8c0.9-0.4,2.7,0.1,3.5,0.8c1.3,1.3,1.9,3.4,1.9,6.9C-218,279.2-219.4,281.9-222.3,281.9z"/>
	<path class="st0" d="M-191.8,261.2c-1.2-0.6-3.8-0.9-5-0.5c-1.5,0.5-3.1,1.7-3.7,2.9c-0.6,1.2-1.1,1.4-1.1,0.5
		c0-0.3-0.2-1.1-0.4-1.8l-0.3-1.3l-2.7,0.1l-2.7,0.1v12.6v12.6l3.2,0.1l3.2,0.1l0.1-8.5c0.1-7.9,0.2-8.6,0.8-9.7
		c0.9-1.6,2.9-2.3,4.3-1.6c0.5,0.3,1.3,0.9,1.6,1.4c0.7,0.9,0.7,1.4,0.8,9.7l0.1,8.7h3.1h3.1v-9.4c0-8.6-0.1-9.5-0.7-11.4
		C-188.8,263.8-190.2,262.1-191.8,261.2z"/>
	<path class="st0" d="M-148.5,260.6c-1.9,0.3-2.9,1-4.6,2.8l-1.5,1.7l-0.5-1c-1.1-2.1-3.8-3.7-6.1-3.7c-0.5,0-1.4,0.2-2.1,0.5
		c-1.3,0.5-2.4,1.5-3.5,3.1l-0.6,0.8l-0.2-1.3c-0.4-2.2-0.5-2.3-3.4-2.3h-2.6v12.6v12.6h3.1h3.1l0.2-8.7c0.2-8.1,0.2-8.7,0.9-9.6
		c1.5-2,3.8-2.2,5.2-0.3c0.7,0.9,0.7,1.5,0.9,9.7l0.2,8.8l2.8,0.2c1.6,0.1,3,0,3.2-0.2c0.3-0.3,0.5-2.3,0.5-8.8
		c0.1-8,0.1-8.5,0.8-9.4c1.5-2,3.8-2.2,5.2-0.3c0.7,0.9,0.7,1.5,0.9,9.7l0.2,8.8h3.1h3.1l0.1-8.4c0.1-8.8-0.1-11.4-1.3-13.6
		C-142.9,261.8-145.9,260.1-148.5,260.6z"/>
	<path class="st0" d="M-101.5,271c-1.5-0.4-3.2-0.9-3.7-1.2c-2.4-1.3-1.3-4.1,1.7-4.1c1.1,0,1.6,0.2,2.4,1c0.5,0.5,1,1.2,1,1.5
		c0,0.8,0.4,0.9,2.7,0.5c3.7-0.6,3.8-0.7,2.6-3.4c-1.8-3.7-7-5.7-11.8-4.3c-3.8,1.1-6,3.8-6,7.5c0,2.2,0.9,4.2,2.3,5.3
		c1.4,1,2.3,1.4,6.1,2.4c1.6,0.5,3.2,1.1,3.5,1.3c1.5,1.4,0.8,3.8-1.2,4.4c-2.4,0.7-4.4-0.5-5.1-3c-0.2-0.7-0.5-1.4-0.7-1.5
		c-0.4-0.2-4.7,0.5-5.2,0.9c-0.8,0.6,0.6,4.3,2.1,5.9c2.5,2.6,7.6,3.6,11.3,2.2c3.8-1.4,5.8-4,5.8-7.5c0-2.6-0.3-3.5-1.5-5
		C-96.6,272.6-98.1,271.9-101.5,271z"/>
	<path class="st0" d="M-68.2,266.3c0.8,0.5,2,2.7,2,3.5c0,1,0.8,1.1,3.4,0.6c2.5-0.5,2.5-0.5,2.5-1.5c0-2.6-3-6.5-5.8-7.7
		c-2-0.9-5-1-7-0.2c-4.5,1.6-7.5,6-7.9,11.5c-0.5,6.3,2.6,12.2,7.4,14c3.9,1.5,8.6,0.3,11.2-2.8c1.2-1.5,2.1-3.6,2.1-5.1
		c0-0.9-0.1-0.9-2.3-1.3c-3.3-0.5-3.2-0.5-3.8,1.2c-0.8,2.3-2,3.4-3.7,3.4c-2.7,0-4.1-2.8-4.1-8.1c0-3.8,0.7-6.1,2-7.2
		C-70.9,265.6-69.3,265.5-68.2,266.3z"/>
	<path class="st0" d="M-235.4,281.5c-1.3-0.8-4.4-1.5-7-1.6c-1.4,0-2.5-0.1-2.5-0.1s2.1-3,4.8-6.7l4.8-6.6v-2.7v-2.7h-8.8
		c-6.8,0-8.8,0.1-8.8,0.4c-0.1,1.9,0,4.3,0.2,4.5c0.1,0.1,2.4,0.3,5.2,0.4l5,0.2l-5.3,7.4l-5.3,7.4v2.5c0,1.9,0.1,2.6,0.4,2.6
		c0.3,0,1.6-0.3,3.1-0.7c3.6-0.9,8.1-0.9,11.5,0c3.6,1,3.5,1.1,3.5-1.6C-234.7,282.2-234.8,281.9-235.4,281.5z"/>
	<path class="st0" d="M-122.7,261.1v7.6c0,4.2-0.2,8.3-0.4,9.2c-0.6,2.7-2.7,4-5,3c-1.6-0.7-1.7-1.2-1.9-10.7l-0.2-8.9l-3.1-0.1
		c-2.4-0.1-3.1,0-3.2,0.4c-0.1,0.3-0.1,4.7-0.1,9.8l0.1,9.4l1.1,2.2c1.4,2.8,2.9,3.9,5.7,4.1c2.7,0.2,4.7-0.7,6-2.8
		c0.6-0.9,1-1.4,1.1-1.1c0.1,0.3,0.3,1.1,0.4,1.8l0.3,1.3l2.7,0.1l2.7,0.1v-12.8v-12.7h-3.1H-122.7z"/>
	<path class="st0" d="M-87.3,261.1c-1.6,0-3,0.1-3.1,0.2c-0.1,0.1-0.2,5.8-0.2,12.7v12.5l3.2-0.1l3.2-0.1l0.1-11.9
		c0-6.5,0-12.2-0.1-12.7C-84.3,261.1-84.5,261.1-87.3,261.1z"/>
	<path class="st0" d="M-245.9,288.9c-2.3,0.4-5.8,2.1-6.5,3.2c-0.5,0.8-0.5,0.9,0.1,1.3c0.4,0.3,1,0.4,1.4,0.3s2-0.3,3.5-0.5
		c4.2-0.5,6.8,0.1,6.8,1.5c0,0.9-1.1,3.7-2.5,6.7c-1.3,2.5-1.5,3.1-1.1,3.5c0.7,0.9,1.3,0.6,3.4-1.4c2.3-2.2,3.4-3.9,4.3-6.7
		c0.9-2.9,0.8-5.4-0.2-6.4C-238.2,289-242.5,288.3-245.9,288.9z"/>
	<path class="st0" d="M-246,296.1c-0.2,0-2,0.7-4,1.6c-9.4,4.2-19.4,5.9-31.3,5.6c-15-0.5-26.3-4.2-36.5-11.9
		c-1.7-1.3-3-1.6-3.3-0.7c-0.4,1.1,0.9,2.9,4.3,6.4c6.5,6.5,14.1,10.4,24.2,12.7c3.1,0.7,4.3,0.8,12.4,0.8c9.8,0,12.2-0.3,18.7-2.5
		c8.7-2.9,17.8-9.3,16.2-11.3C-245.5,296.4-245.8,296.1-246,296.1z"/>
</g>
</svg>
