<?xml version="1.0" encoding="utf-8"?>
<!-- Generator: Adobe Illustrator 19.1.0, SVG Export Plug-In . SVG Version: 6.00 Build 0)  -->
<svg version="1.1" id="Layer_1" xmlns="http://www.w3.org/2000/svg" xmlns:xlink="http://www.w3.org/1999/xlink" x="0px" y="0px"
	 viewBox="0 0 280 70" style="enable-background:new 0 0 280 70;" xml:space="preserve">
<style type="text/css">
	.st0{fill:#FFFFFF;}
</style>
<g>
	<g>
		<g id="_Group__9_">
			<g id="_Group_2_9_">
				<path id="_Compound_Path__9_" class="st0" d="M89.7,50.4h-10l-2.4,7.1H73l9.5-26.3h4.4l9.5,26.3h-4.3L89.7,50.4z M80.7,47.1h8
					l-3.9-11.5h-0.1L80.7,47.1z"/>
				<path id="_Compound_Path_2_9_" class="st0" d="M116.9,47.9c0,6-3.2,9.8-8,9.8c-2.5,0.1-4.8-1.2-6-3.4h-0.1v9.5h-3.9V38.3h3.8
					v3.2h0.1c1.3-2.2,3.6-3.5,6.1-3.4C113.7,38.1,116.9,42,116.9,47.9z M112.9,47.9c0-3.9-2-6.4-5.1-6.4c-3,0-5,2.6-5,6.4
					c0,3.9,2,6.5,5,6.5C110.9,54.4,112.9,51.8,112.9,47.9L112.9,47.9z"/>
				<path id="_Compound_Path_3_9_" class="st0" d="M138,47.9c0,6-3.2,9.8-8,9.8c-2.5,0.1-4.8-1.2-6-3.4h-0.1v9.5h-3.9V38.3h3.8v3.2
					h0.1c1.3-2.2,3.6-3.5,6.1-3.4C134.8,38.1,138,42,138,47.9z M134,47.9c0-3.9-2-6.4-5.1-6.4c-3,0-5,2.6-5,6.4c0,3.9,2,6.5,5,6.5
					C132,54.4,134,51.8,134,47.9z"/>
				<path id="_Compound_Path_4_9_" class="st0" d="M141.2,31.2h3.9v26.3h-3.9V31.2z"/>
				<path id="_Compound_Path_5_9_" class="st0" d="M165.6,51.9c-0.5,3.5-3.9,5.9-8.3,5.9c-5.6,0-9-3.7-9-9.7c0-6,3.5-9.9,8.9-9.9
					c5.3,0,8.6,3.6,8.6,9.5v1.4h-13.6v0.2c-0.2,2.7,1.8,5.2,4.5,5.4c0.2,0,0.4,0,0.6,0c1.9,0.2,3.7-0.9,4.4-2.7H165.6L165.6,51.9z
					 M152.3,46.2h9.6c0.1-2.5-1.8-4.7-4.4-4.9c-0.1,0-0.2,0-0.4,0C154.5,41.3,152.3,43.4,152.3,46.2
					C152.3,46.1,152.3,46.1,152.3,46.2z"/>
				<path id="_Compound_Path_6_9_" class="st0" d="M199.9,57.5V38.1h-0.1l-7.9,19.2h-3l-8-19.2h-0.1v19.4H177V31.2h4.7l8.5,20.8h0.1
					l8.5-20.8h4.7v26.3H199.9z"/>
				<path id="_Compound_Path_7_9_" class="st0" d="M224.6,57.5h-3.8v-3.3h-0.1c-1,2.3-3.4,3.7-5.9,3.5c-3.5,0.2-6.6-2.5-6.8-6
					c0-0.4,0-0.7,0-1.1V38.3h3.9v11.5c-0.4,2.1,1,4.1,3.1,4.4c0.3,0.1,0.7,0.1,1,0c2.5,0.1,4.5-1.8,4.6-4.3c0-0.2,0-0.4,0-0.7V38.3
					h3.9L224.6,57.5L224.6,57.5z"/>
				<path id="_Compound_Path_8_9_" class="st0" d="M235.8,38.1c4.2,0,7.3,2.4,7.4,5.7h-3.7c-0.3-1.8-2-3-3.8-2.7l0,0
					c-2.1,0-3.6,1-3.6,2.5c0,1.1,0.9,1.9,2.9,2.4l3.2,0.7c3.9,0.9,5.3,2.4,5.3,5.2c0,3.5-3.3,5.8-8,5.8c-4.5,0-7.6-2.3-7.9-5.8h3.9
					c0.4,1.9,2.2,3.2,4.1,2.8c2.4,0,3.8-1,3.8-2.5c0-1.2-0.7-1.8-2.7-2.3l-3.4-0.8c-3.5-0.8-5.2-2.6-5.2-5.3
					C228.3,40.4,231.3,38.1,235.8,38.1z"/>
				<path id="_Compound_Path_9_9_" class="st0" d="M246.7,33.3c0-1.3,1-2.3,2.2-2.3c1.3,0,2.3,1,2.3,2.2c0,1.3-1,2.3-2.2,2.3
					c0,0,0,0-0.1,0C247.7,35.5,246.7,34.5,246.7,33.3C246.7,33.3,246.7,33.3,246.7,33.3z M247,38.3h3.9v19.2H247V38.3z"/>
				<path id="_Compound_Path_10_9_" class="st0" d="M267.9,44.9c-0.4-2.2-2.3-3.7-4.5-3.5c-3,0-5,2.5-5,6.5c0,4.1,2,6.6,5.1,6.6
					c2.2,0.2,4.1-1.3,4.5-3.4h3.8c-0.5,4.1-4.2,7.1-8.3,6.7c-5.5,0-9-3.7-9-9.8c0-6,3.6-9.8,9-9.8c4.2-0.4,7.9,2.7,8.3,6.8
					L267.9,44.9z"/>
			</g>
			<path id="_Compound_Path_11_9_" class="st0" d="M61.1,14.2c-1.3-3.1-3.9-5.5-7.2-6.4c-2.1-0.5-4.3-0.8-6.4-0.7h-24
				c-2.2-0.1-4.3,0.2-6.4,0.7c-3.2,1-5.9,3.3-7.2,6.4c-0.8,2.4-1.2,5-1.1,7.6v24c-0.1,2.6,0.2,5.1,1.1,7.6c1.3,3.1,3.9,5.5,7.2,6.4
				c2.1,0.5,4.3,0.8,6.4,0.7h24c2.2,0.1,4.3-0.2,6.4-0.7c3.2-1,5.9-3.3,7.2-6.4c0.8-2.4,1.2-5,1.1-7.6v-24
				C62.2,19.2,61.9,16.7,61.1,14.2z M47.7,43.8c-0.1,0.7-0.4,1.3-0.8,1.8c-0.4,0.5-0.9,1-1.5,1.3c-0.6,0.3-1.2,0.6-1.9,0.7
				c-0.9,0.2-1.9,0.3-2.9,0.1c-0.7-0.1-1.4-0.5-1.9-1c-1.7-1.5-1.8-4.2-0.3-5.9c0,0,0.1-0.1,0.1-0.1c0.5-0.5,1.1-0.9,1.7-1.1
				c1-0.3,1.9-0.6,2.9-0.7c0.3-0.1,0.7-0.1,1-0.2c0.4,0,0.9-0.3,1.2-0.6c0.3-0.4,0.4-0.9,0.3-1.3l0-11.7c0-0.9-0.4-1.1-1.3-1
				C43.9,24.3,30.8,27,30.8,27c-0.6,0-1.1,0.6-1,1.2c0,0.1,0,0.1,0,0.2l0,17.2c0,0.7,0,1.3-0.2,1.9c-0.1,0.7-0.4,1.3-0.8,1.8
				c-0.4,0.5-0.9,1-1.5,1.3c-0.6,0.3-1.2,0.6-1.9,0.7c-0.9,0.2-1.9,0.3-2.9,0.1c-0.7-0.1-1.4-0.5-1.9-1c-1.7-1.6-1.8-4.2-0.2-6
				c0.5-0.5,1.1-0.9,1.7-1.1c1-0.3,1.9-0.6,2.9-0.7c0.3-0.1,0.7-0.1,1-0.2c0.4,0,0.9-0.3,1.2-0.6c0.3-0.4,0.4-0.8,0.3-1.3V20.7
				c0-0.2,0-0.4,0-0.5c0-0.4,0.2-0.8,0.5-1c0.3-0.2,0.6-0.4,1-0.4l0,0l15.8-3.2c0.1,0,1.3-0.2,1.4-0.2c0.7-0.1,1.3,0.4,1.3,1
				c0,0.1,0,0.2,0,0.4l0,25.1C47.9,42.5,47.8,43.2,47.7,43.8L47.7,43.8z"/>
		</g>
		<g>
			<path class="st0" d="M82.2,23.1h-8V10.3h2v11h6L82.2,23.1L82.2,23.1z"/>
			<path class="st0" d="M84.5,10.6c0-0.7,0.5-1.3,1.2-1.3c0.7,0,1.3,0.5,1.3,1.2s-0.5,1.3-1.2,1.3c0,0,0,0-0.1,0
				C85.1,11.8,84.6,11.3,84.5,10.6C84.5,10.6,84.5,10.6,84.5,10.6z M84.8,13.4h1.9v9.7h-1.9V13.4z"/>
			<path class="st0" d="M93.3,13.2c1.8-0.3,3.5,0.9,3.8,2.7h-1.8c-0.3-0.8-1.1-1.3-2-1.2c-0.9-0.2-1.7,0.4-1.9,1.3
				c0,0.6,0.5,0.9,1.5,1.2l1.6,0.4c1.5,0,2.7,1.2,2.7,2.6c-0.2,1.9-1.9,3.3-3.8,3.1c-0.1,0-0.1,0-0.2,0c-1.9,0.3-3.6-0.9-4-2.8h1.9
				c0.3,0.8,1.2,1.3,2.1,1.2c0.9,0.2,1.8-0.4,2-1.3c-0.1-0.7-0.7-1.2-1.4-1.2l-1.7-0.4c-1.5,0-2.7-1.2-2.7-2.7
				c0.2-1.8,1.8-3.1,3.6-2.9C93.2,13.2,93.3,13.2,93.3,13.2z"/>
			<path class="st0" d="M102.4,11v2.5h2.1v1.6h-2.1v5c-0.1,0.7,0.3,1.3,0.9,1.4c0.1,0,0.3,0,0.4,0c0.2,0,0.5,0,0.7,0v1.6
				c-0.3,0.1-0.7,0.1-1,0.1c-2.1,0-3-0.7-3-2.6v-5.5h-1.5v-1.6h1.5V11H102.4z"/>
			<path class="st0" d="M115.1,20.5c-0.5,1.8-2.3,3-4.2,2.8c-2.4,0.1-4.4-1.9-4.5-4.3c0-0.2,0-0.5,0-0.7c-0.3-2.4,1.4-4.7,3.8-5
				c0.2,0,0.4,0,0.6,0c2.4-0.1,4.3,1.8,4.4,4.2c0,0.2,0,0.5,0,0.7v0.7h-6.8v0.1c-0.1,1.4,0.9,2.6,2.3,2.8c0.1,0,0.2,0,0.2,0
				c0.9,0.1,1.8-0.4,2.3-1.2L115.1,20.5z M108.4,17.4h4.9c0.1-1.3-0.9-2.4-2.2-2.5c-0.1,0-0.1,0-0.2,0
				C109.5,14.9,108.4,15.9,108.4,17.4C108.4,17.3,108.4,17.4,108.4,17.4z"/>
			<path class="st0" d="M117.7,13.4h1.8V15h0.1c0.5-1.1,1.7-1.8,2.9-1.7c1.7-0.1,3.2,1.2,3.4,2.9c0,0.2,0,0.5,0,0.7v6.3h-1.9v-5.8
				c0.2-1.1-0.5-2.1-1.5-2.3c-0.2,0-0.4,0-0.6,0c-1.2-0.1-2.3,0.9-2.3,2.1c0,0.1,0,0.2,0,0.3v5.7h-1.9V13.4z"/>
			<path class="st0" d="M133.7,18.3c-0.2-2.5,1.6-4.8,4.1-5s4.8,1.6,5,4.1c0,0.3,0,0.6,0,0.9c0.2,2.5-1.6,4.8-4.1,5
				c-2.5,0.2-4.8-1.6-5-4.1C133.7,18.9,133.7,18.6,133.7,18.3z M140.8,18.3c0-2.1-0.9-3.3-2.6-3.3c-1.7,0-2.6,1.2-2.6,3.3
				c0,2.1,0.9,3.3,2.6,3.3C139.9,21.6,140.8,20.4,140.8,18.3z"/>
			<path class="st0" d="M145.4,13.4h1.8V15h0.1c0.5-1.1,1.7-1.8,2.9-1.7c1.7-0.1,3.2,1.2,3.4,2.9c0,0.2,0,0.5,0,0.7v6.3h-1.9v-5.8
				c0.2-1.1-0.5-2.1-1.5-2.3c-0.2,0-0.4,0-0.6,0c-1.2-0.1-2.3,0.9-2.3,2.1c0,0.1,0,0.2,0,0.3v5.7h-1.9V13.4z"/>
		</g>
	</g>
</g>
</svg>
