<?xml version="1.0" encoding="utf-8"?>
<!-- Generator: Adobe Illustrator 19.1.0, SVG Export Plug-In . SVG Version: 6.00 Build 0)  -->
<svg version="1.1" id="Layer_1" xmlns="http://www.w3.org/2000/svg" xmlns:xlink="http://www.w3.org/1999/xlink" x="0px" y="0px"
	 viewBox="-339 246 280 70" style="enable-background:new -339 246 280 70;" xml:space="preserve">
<style type="text/css">
	.st0{fill:#FFFFFF;}
</style>
<g>
	<path class="st0" d="M-290.7,290.6c-0.6,1.5-1.1,2.9-1.6,4.4c-0.3,0.9-0.9,1.6-1.9,1.7c-1.1,0.1-1.6-0.7-2-1.5
		c-1.1-2.1-1.6-4.4-2-6.7c-0.2-0.8-0.4-1.6-0.6-2.4c-2.1,2-2.8,1.8-3.5-0.9c-0.7-2.6-1.4-5.2-1.4-8c0.1-5.4-0.3-10.7,0.5-16.1
		c0.2-1.5,0.8-2.9,1.3-4.3c0.2-0.6,0.5-1.2,1.2-1.2c0.8,0,1.2,0.6,1.4,1.3c0.3,0.8,0.6,1.7,0.9,2.6c0.7-2,1.2-3.9,1.9-5.8
		c0.4-1,0.8-2.1,2.1-2.1c1.4-0.1,1.9,1.1,2.4,2.1c1.2,2.9,1.8,5.9,2.2,9.2c0.8-1.6,1-3.2,1.2-4.8c0.2-1.5,1-2.5,2.3-2.7
		c1.3-0.2,1.6,1.2,1.9,2.2c1.4,4,1.7,8.1,2.3,12.7c0.7-1.6,1.2-3,1.8-4.2c0.5-1.1,1.2-2.2,2.6-2.3c1.4-0.1,2.1,1.1,2.7,2.2
		c0.6,1.1,1.1,2.3,1.9,4c0.5-3.2,0.9-5.9,1.3-8.6c0.2-1.5,0.6-3,1.3-4.4c0.3-0.8,0.6-1.7,1.7-1.6c1,0,1.4,0.9,1.7,1.7
		c0.6,1.5,1,3,1.6,4.8c0.7-2.6,1.3-5,2.1-7.2c0.4-1.2,0.8-2.9,2.4-3c1.8-0.1,2.3,1.6,2.7,2.9c0.5,1.4,0.9,2.9,1.3,4.3
		c0.9-0.2,0.7-1,0.9-1.5c0.4-0.7,0.6-1.7,1.6-1.7c1,0,1.2,1,1.5,1.8c1.1,3,1.3,6.2,1.5,9.4c0.4,5.8,0.3,11.5-1,17.2
		c-0.1,0.5-0.2,1.1-0.4,1.5c-0.4,0.8-0.5,1.9-1.6,2c-1,0.1-1.1-1.1-1.9-1.8c-0.5,2.2-0.9,4.1-1.3,6.1c-0.3,1.3-0.7,2.5-1.4,3.6
		c-1.1,1.9-2.9,1.9-4,0c-0.4-0.6-0.7-1.3-0.8-2.1c-0.1-0.7-0.3-1.3-0.9-1.9c-0.4,2.8-0.8,5.4-1.2,8.1c-0.1,0.7-0.4,1.5-0.6,2.2
		c-0.4,1.2-0.6,2.9-2.1,3c-1.6,0.1-1.6-1.7-2.2-2.8c-0.3-0.5-0.1-1.2-0.9-1.6c-0.6,2.4-1.1,4.7-1.7,7c-0.4,1.6-1,3-2,4.3
		c-1.3,1.7-2.8,1.7-4.1-0.1c-1.4-2-2-4.4-2.6-6.8c-0.4-1.5-0.6-3.1-1-5c-0.6,1.5-1,2.6-1.5,3.7c-0.3,0.6-0.6,1.3-1.4,1.3
		c-0.9,0.1-1.3-0.7-1.6-1.4c-1.2-2.7-1.8-5.6-2.1-8.5C-290.2,293.3-290,291.9-290.7,290.6z"/>
	<path class="st0" d="M-89.6,290.5c-3.2,0-6.2,0-9.3,0c-1.1,0-1.5-0.4-1.9-1.4c-0.9-2.6-2.1-5.2-4.1-7.5c0,2.3-0.1,4.7,0,7
		c0,1.4-0.2,2.1-1.9,1.9c-2.5-0.3-5.8,1-7.2-0.5c-1.2-1.4-0.4-4.6-0.4-7c0-5,0-10,0-15c0-0.9-0.2-1.8,1.3-1.8
		c5.1,0.1,10.2-0.2,15.2,0.2c1.4,0.1,2.7,0.5,3.9,1.1c2.1,1,3.2,2.7,3.3,5c0.1,2.4-1,4.2-3.1,5.1c-1.5,0.7-1.4,1.2-0.7,2.4
		C-92.5,283.4-90.7,286.7-89.6,290.5z M-103.1,277c1.8-0.1,3.5,0.2,3.5-2.1c0-2.3-1.7-2-3.2-2.1c-1.7-0.2-2.2,0.4-2.1,2.1
		C-104.8,276.5-104.6,277.4-103.1,277z"/>
	<path class="st0" d="M-230.5,278.5c0-3.6,0-7.1,0-10.7c0-1.2,0.4-1.6,1.6-1.6c3.9,0.1,7.7-0.1,11.6,0.1c7.2,0.3,12,5.3,11.9,12.2
		c-0.1,6.8-5.1,11.8-12.2,12c-3.7,0.1-7.4,0-11.2,0.1c-1.5,0-1.7-0.6-1.7-1.9C-230.4,285.3-230.5,281.9-230.5,278.5z M-220.9,278.2
		C-220.9,278.2-220.9,278.2-220.9,278.2c0,1.4,0,2.9,0,4.3c0,0.5-0.3,1.2,0.5,1.3c1.6,0.1,3.4,0.4,4.3-1.3c1.3-2.6,1.3-5.5,0.1-8.1
		c-0.8-1.7-2.7-1.7-4.2-1.4c-1.4,0.3-0.4,1.7-0.6,2.5C-221,276.3-220.9,277.3-220.9,278.2z"/>
	<path class="st0" d="M-181.9,278.3c0-3.4,0.1-6.8,0-10.2c0-1.3,0.3-1.9,1.7-1.9c5.5,0.1,11.1,0.1,16.6,0c1.5,0,1.7,0.5,1.7,1.8
		c0,4.8,0,4.8-4.6,4.8c-1.5,0-3,0-4.6,0c-1,0-1.5,0.2-1.5,1.4c0,1.1,0.3,1.4,1.4,1.4c2.4-0.1,4.7,0,7.1,0c1.2,0,1.5,0.3,1.5,1.5
		c0.1,3.9,0.1,3.9-3.7,3.9c-1.6,0-3.2,0-4.8,0c-1,0-1.6,0.1-1.5,1.3c0,1.1,0.2,1.7,1.5,1.6c2.6-0.1,5.2,0,7.7,0
		c1.1,0,1.4,0.3,1.5,1.4c0.3,5.3,0.3,5.3-4.9,5.3c-4.5,0-9-0.1-13.4,0c-1.5,0-1.8-0.4-1.8-1.8C-181.8,285.3-181.9,281.8-181.9,278.3
		z"/>
	<path class="st0" d="M-204,278.4c0-3.4,0.1-6.8,0-10.3c-0.1-1.7,0.5-2,2.1-2c5.4,0.1,10.8,0.1,16.2,0c1.5,0,1.9,0.4,1.9,1.9
		c0,4.7,0,4.7-4.7,4.7c-1.1,0-2.3-0.1-3.4,0c-0.9,0.1-2.4-0.9-2.4,1.3c-0.1,2.1,1.4,1.4,2.3,1.4c2,0.1,4,0.1,5.9,0
		c1.2,0,1.7,0.2,1.7,1.6c0,3.8,0.1,3.8-3.8,3.8c-1.5,0-3,0.1-4.6,0c-1.1-0.1-1.6,0.3-1.6,1.5c0,1.3,0.6,1.4,1.7,1.4
		c2.4,0,4.9,0,7.3,0c1.1,0,1.6,0.3,1.6,1.5c0.2,5.2,0.2,5.2-5,5.2c-4.5,0-9,0-13.4,0c-1.3,0-1.7-0.3-1.7-1.7
		C-204,285.4-204,281.9-204,278.4z"/>
	<path class="st0" d="M-136.5,278.4c0-3.5,0-7,0-10.5c0-1.2,0.2-1.8,1.6-1.7c5.7,0.1,11.4,0,17.1,0c1.1,0,1.4,0.3,1.5,1.4
		c0.2,5.2,0.3,5.2-4.8,5.2c-1.4,0-2.9,0.1-4.3,0c-1,0-1.5,0.2-1.5,1.3c0,1.1,0.3,1.5,1.4,1.4c2.3-0.1,4.6,0,6.8,0
		c1.2,0,1.7,0.3,1.7,1.6c-0.1,4.7,0.5,3.7-3.6,3.8c-1.4,0-2.9,0-4.3,0c-1.1,0-2.1-0.2-2,1.5c0,1.6,1,1.4,1.9,1.4c2.4,0,4.9,0,7.3,0
		c1.1,0,1.4,0.3,1.4,1.4c0.3,5.3,0.3,5.3-5,5.3c-4.4,0-8.8-0.1-13.2,0c-1.5,0-1.9-0.4-1.9-1.9C-136.4,285.2-136.5,281.8-136.5,278.4
		z"/>
	<path class="st0" d="M-148.9,283.9c3.3,0,6.2,0.1,9.1,0c1.2,0,1.5,0.3,1.6,1.5c0.2,5.2,0.2,5.2-4.9,5.2c-4.9,0-9.9,0-14.8,0
		c-1.4,0-1.6-0.4-1.9-1.7c-1-6,3.1-9.3,6.5-13c0.9-0.9,1.8-1.7,3.2-3c-2.8,0-5.2-0.1-7.6,0c-1.6,0.1-1.9-0.5-1.9-1.9
		c0-4.7,0-4.7,4.8-4.7c4.9,0,9.7,0.1,14.6,0c1.8-0.1,2,0.6,2.1,2.2c0.3,3.2-0.7,5.4-3.2,7.3C-144.3,277.8-146.6,280.5-148.9,283.9z"
		/>
	<path class="st0" d="M-247,270c0,2-0.2,3.9-0.8,5.8c-0.2,0.5-0.4,1.1-1,1.1c-0.6,0-0.9-0.5-1.1-1c-1.1-4-1.1-8.1,0-12.1
		c0.1-0.5,0.4-1.1,1-1.1c0.7,0,0.9,0.6,1,1.1C-247.1,265.7-247,267.8-247,270z"/>
	<path class="st0" d="M-308.4,269.5c0-2.3-0.1-4.1,0.7-5.8c0.2-0.4,0.2-0.9,0.8-0.9c0.6,0,1,0.4,1.1,0.9c0.6,2.4,1.4,4.9,0.8,7.3
		c-0.4,1.5,0.2,3.2-0.8,4.6c-0.3,0.4-0.3,1.1-0.9,1.1c-0.8,0-0.9-0.7-1.1-1.3C-308.4,273.4-308.5,271.2-308.4,269.5z"/>
</g>
</svg>
