<?xml version="1.0" encoding="utf-8"?>
<!-- Generator: Adobe Illustrator 19.1.0, SVG Export Plug-In . SVG Version: 6.00 Build 0)  -->
<svg version="1.1" id="Layer_1" xmlns="http://www.w3.org/2000/svg" xmlns:xlink="http://www.w3.org/1999/xlink" x="0px" y="0px"
	 viewBox="-460 262 38 38" style="enable-background:new -460 262 38 38;" xml:space="preserve">
<style type="text/css">
	.st0{fill:#FFFFFF;}
</style>
<g>
	<path class="st0" d="M-440.7,262.7c2.8,0,5.5,0,8.3,0.1c5.6,0.3,9.9,4.9,9.8,10.5c0,5.2-0.1,10.5-0.2,15.7
		c-0.1,5.7-4.8,10.3-10.5,10.2c-5.3,0-10.6-0.1-15.9-0.2c-5.7-0.1-10.2-4.9-10.2-10.6c0-5.2,0.1-10.4,0.2-15.6
		c0.1-5.9,4.8-10.4,10.7-10.4C-445.9,262.6-443.3,262.7-440.7,262.7C-440.7,262.7-440.7,262.7-440.7,262.7z M-440.7,266.2
		c-2.6,0-5.2-0.1-7.8-0.1c-4.1-0.1-7.2,2.9-7.3,7.1c-0.1,5.2-0.2,10.3-0.2,15.5c0,0.4,0,0.9,0.1,1.3c0.6,3.5,3.4,5.9,7,5.9
		c2.5,0,5.1,0.1,7.6,0.1c2.7,0,5.4,0.1,8.1,0.1c3.9,0,6.9-3.1,6.9-7c0.1-5.2,0.1-10.3,0.2-15.5c0.1-4.2-2.9-7.2-7.1-7.3
		C-435.6,266.3-438.2,266.2-440.7,266.2z"/>
	<path class="st0" d="M-441.1,290.6c-5.2-0.1-9.4-4.4-9.3-9.6c0.1-5.2,4.4-9.4,9.6-9.3c5.2,0.1,9.4,4.4,9.3,9.6
		C-431.6,286.5-435.9,290.6-441.1,290.6z M-441.1,287.2c3.4,0.1,6.2-2.6,6.3-6c0.1-3.4-2.6-6.2-6-6.3c-3.4-0.1-6.2,2.6-6.3,6
		C-447.2,284.4-444.5,287.2-441.1,287.2z"/>
	<path class="st0" d="M-428.9,271.4c0,1.2-1,2.2-2.2,2.2c-1.2,0-2.2-1-2.2-2.3c0-1.2,1-2.2,2.2-2.2
		C-429.8,269.2-428.8,270.2-428.9,271.4z"/>
</g>
</svg>
