<?xml version="1.0" encoding="utf-8"?>
<!-- Generator: Adobe Illustrator 19.1.0, SVG Export Plug-In . SVG Version: 6.00 Build 0)  -->
<svg version="1.1" id="Layer_1" xmlns="http://www.w3.org/2000/svg" xmlns:xlink="http://www.w3.org/1999/xlink" x="0px" y="0px"
	 viewBox="0 0 280 70" style="enable-background:new 0 0 280 70;" xml:space="preserve">
<style type="text/css">
	.st0{fill:#FFFFFF;}
</style>
<g>
	<g>
		<path class="st0" d="M92.3,35c0.1,15.9-13.1,29.3-29.7,28.9c-15.4-0.4-28.4-13.2-28-29.6C34.9,18.8,47.8,5.7,64.3,6.2
			C79.7,6.6,92.3,19.3,92.3,35z M55.4,22.2c-0.6,0-1.3,0.1-1.9,0.1c-2.3,0.1-4.7,0.4-7,0.9c-0.5,0.1-0.9,0.2-1.4,0.4
			c-1.2,0.7-1.8,2-1.3,3.3c0.4,1.3,1.8,2,3.1,1.8c3.2-0.6,6.5-1,9.8-1c1.7,0,3.4,0.1,5.1,0.2c3.9,0.3,7.7,1.1,11.5,2.4
			c2.7,0.9,5.3,2,7.8,3.3c1.3,0.7,2.9,0.1,3.6-1.2c0.7-1.3,0.2-3-1.1-3.7c-0.8-0.4-1.6-0.8-2.5-1.2c-4.3-2-8.9-3.4-13.5-4.3
			c-3.3-0.6-6.6-0.9-10-1C56.9,22.2,56.1,22.2,55.4,22.2z M57.2,32.2c-1.2,0-2.3,0-3.5,0.1c-2.2,0.2-4.4,0.5-6.5,1
			c-1.2,0.3-1.9,1.3-1.8,2.5c0.2,1.1,1.2,2,2.4,1.9c0.5,0,1-0.2,1.5-0.3c2.4-0.5,4.9-0.7,7.4-0.8c1.6,0,3.2,0.1,4.8,0.2
			c3.1,0.3,6.1,0.9,9,1.9c2.5,0.8,4.9,1.8,7.2,3.1c1.1,0.6,2.4,0.1,3-1c0.6-1.1,0.1-2.4-0.9-3c-2.7-1.5-5.5-2.6-8.5-3.6
			C66.6,32.9,61.9,32.2,57.2,32.2z M57.5,41.1c-1.5,0-2.7,0.1-3.9,0.2c-1.8,0.2-3.5,0.5-5.2,0.9c-1,0.2-1.6,1.1-1.4,2
			c0.2,1,1.1,1.5,2.1,1.3c2.6-0.6,5.2-0.9,7.8-1c1.2,0,2.4,0,3.6,0.2c2.9,0.3,5.8,0.9,8.5,1.9c1.9,0.7,3.7,1.5,5.5,2.5
			c0.3,0.1,0.5,0.2,0.8,0.2c0.8,0,1.5-0.6,1.6-1.3c0.2-0.7-0.2-1.5-0.9-1.9c-2.3-1.3-4.7-2.3-7.2-3.1C65.1,41.7,61.2,41.1,57.5,41.1
			z"/>
		<path class="st0" d="M226.5,41.7c0.4-1,0.8-1.9,1.1-2.8c1.1-2.6,2.1-5.1,3.2-7.7c0.3-0.8,0.7-1.7,1-2.5c0.1-0.3,0.2-0.4,0.5-0.4
			c1.7,0,3.5,0,5.2,0c0.5,0,0.5,0.1,0.3,0.5c-1.5,3.5-3.1,7-4.6,10.5c-1.4,3.1-2.7,6.2-4.1,9.2c-1.1,2.4-2.1,4.9-3.2,7.3
			c-0.1,0.3-0.3,0.4-0.6,0.4c-1.8,0-3.7,0-5.5,0c-0.4,0-0.5-0.1-0.3-0.5c1.2-2.6,2.3-5.1,3.5-7.7c0.1-0.1,0.1-0.2,0-0.4
			c-1.4-3-2.8-6-4.1-9c-0.8-1.8-1.6-3.5-2.4-5.3c-0.1-0.2-0.2-0.2-0.4-0.2c-1.4,0-2.7,0-4.1,0c-0.3,0-0.3,0.1-0.3,0.3
			c0,5.2,0,10.4,0,15.5c0,0.5,0,0.5-0.5,0.5c-1.7,0-3.4,0-5.1,0c-0.5,0-0.5,0-0.5-0.5c0-5.2,0-10.3,0-15.5c0-0.3,0-0.4-0.4-0.4
			c-1,0-2.1,0-3.1,0c-0.4,0-0.4-0.1-0.4-0.4c0-1.3,0-2.7,0-4c0-0.4,0-0.4,0.5-0.4c1,0,2.1,0,3.1,0c0.3,0,0.4-0.1,0.4-0.4
			c0-1.1-0.1-2.2,0.2-3.3c0.5-2.6,1.8-4.5,4.3-5.5c1.7-0.6,3.4-0.6,5.2-0.1c0.5,0.1,0.9,0.3,1.3,0.5c0.2,0.1,0.3,0.2,0.4,0.4
			c0.6,1.5,1.2,2.9,1.8,4.4c0,0.1,0.1,0.2,0,0.3c-0.1,0.1-0.2,0-0.3-0.1c-0.9-0.5-1.7-0.9-2.7-1.1c-1.1-0.2-2.2,0-3.1,0.7
			c-0.7,0.6-1,1.3-1.1,2.2c0,0.5,0,1,0,1.5c0,0.3,0,0.3,0.3,0.3c2.8,0,5.5,0,8.3,0c0.3,0,0.5,0.1,0.6,0.4c1.1,2.6,2.2,5.3,3.3,7.9
			C225.1,38.3,225.8,40,226.5,41.7z"/>
		<path class="st0" d="M134,32.7c0.6-0.9,1.2-1.8,2-2.5c1.5-1.4,3.3-2.2,5.4-2.2c2.2-0.1,4.2,0.6,5.9,2c1.7,1.4,2.8,3.2,3.3,5.4
			c0.8,3,0.7,6-0.6,8.8c-1.2,2.8-3.1,4.8-6.1,5.5c-2.9,0.7-5.5,0.2-7.8-1.8c-0.7-0.7-1.4-1.4-1.9-2.3c-0.1-0.1-0.2-0.2-0.2-0.4
			c-0.1,0.1,0,0.2,0,0.3c0,3.4,0,6.8,0,10.2c0,0.5,0,0.6-0.6,0.6c-1.6,0-3.2,0-4.8,0c-0.5,0-0.6-0.1-0.6-0.6c0-8.9,0-17.9,0-26.8
			c0-0.5,0-0.5,0.5-0.5c1.7,0,3.3,0,5,0c0.4,0,0.4,0,0.4,0.5C134,30.1,134,31.4,134,32.7z M145.1,38.9c0-0.8-0.1-1.5-0.3-2.2
			c-0.4-1.3-1.1-2.4-2.3-3c-2-1.1-4.6-0.6-6.3,1.3c-1,1.1-1.7,2.3-2.1,3.7c-0.1,0.2-0.1,0.3,0,0.5c0.5,1.6,1.4,3,2.6,4.1
			c1.1,1,2.3,1.6,3.9,1.6c1.4-0.1,2.5-0.6,3.4-1.7C144.8,41.9,145,40.4,145.1,38.9z"/>
		<path class="st0" d="M104.2,43c0-1,0-1.9,0-2.9c0-0.1,0-0.3,0.1-0.4c0.2-0.1,0.3,0.1,0.4,0.2c2.5,2.8,5.8,4.3,9.5,4.8
			c1.3,0.2,2.7,0.1,4-0.4c1.4-0.6,1.9-1.7,1.9-3.2c-0.1-1.2-0.8-1.9-1.8-2.4c-1.2-0.6-2.4-0.9-3.7-1.3c-1.9-0.5-3.8-1-5.6-1.8
			c-1.4-0.6-2.6-1.4-3.5-2.7c-0.8-1.1-1.1-2.4-1.2-3.7c-0.1-2,0.4-3.8,1.6-5.4c1.2-1.5,2.7-2.5,4.4-3.1c2-0.7,4.1-1,6.2-0.9
			c2.2,0.1,4.3,0.6,6.3,1.5c0.6,0.3,1.2,0.6,1.7,1c0.2,0.1,0.2,0.4,0.3,0.6c0,1.7,0,3.4,0,5.2c0,0.1,0,0.3-0.2,0.4
			c-0.2,0.1-0.3,0-0.5-0.1c-2-1.6-4.2-2.6-6.7-3c-1.7-0.3-3.4-0.2-5,0.5c-0.8,0.3-1.5,0.9-1.9,1.7c-0.5,1.2-0.1,2.2,1.3,2.8
			c1.1,0.5,2.2,0.8,3.3,1.1c2,0.6,3.9,1.1,5.8,2c1.5,0.7,2.8,1.5,3.9,2.9c0.9,1.2,1.3,2.5,1.4,3.9c0.1,1.5-0.1,3-0.8,4.4
			c-0.8,1.7-2.1,3-3.7,3.9c-1.7,0.9-3.5,1.4-5.4,1.5c-3,0.1-5.9-0.3-8.7-1.5c-1.1-0.5-2.2-1.1-3.1-2c-0.2-0.2-0.3-0.4-0.3-0.7
			C104.2,44.9,104.2,44,104.2,43z"/>
		<path class="st0" d="M164.2,27.9c2.2,0,4.1,0.4,5.8,1.3c2.9,1.5,4.9,3.8,5.6,7.1c0.9,3.7,0.2,7.1-2.4,10c-1.8,2.1-4.1,3.2-6.8,3.7
			c-2.1,0.3-4.3,0.2-6.3-0.5c-3.7-1.3-6.2-3.9-7.1-7.7c-0.8-3.1-0.3-6.1,1.5-8.8c1.5-2.3,3.6-3.7,6.2-4.5
			C161.9,28,163.2,27.9,164.2,27.9z M164.4,44.8c2,0,3.7-0.9,4.7-2.6c0.7-1.1,0.9-2.3,0.8-3.6c-0.1-1.3-0.5-2.5-1.3-3.5
			c-1.3-1.5-3-2.1-5-1.9c-1.7,0.2-3.1,1-4,2.5c-0.7,1.2-1,2.5-0.9,3.9C159,42.6,161.3,44.9,164.4,44.8z"/>
		<path class="st0" d="M180.1,38.2c0-1.6,0-3.1,0-4.7c0-0.2-0.1-0.3-0.3-0.3c-1.1,0-2.2,0-3.2,0c-0.4,0-0.5,0-0.5-0.5
			c0-0.7,0-1.4,0-2.1c0-0.3,0.1-0.5,0.3-0.6c3-2.4,6-4.8,9.1-7.1c0.2-0.1,0.3-0.4,0.6-0.3c0.2,0.1,0.1,0.4,0.1,0.6
			c0,1.6,0,3.2,0,4.9c0,0.2,0,0.3,0.3,0.3c1.6,0,3.2,0,4.8,0c0.5,0,0.5,0,0.5,0.5c0,1.3,0,2.6,0,4c0,0.4-0.1,0.4-0.5,0.4
			c-1.6,0-3.2,0-4.8,0c-0.3,0-0.3,0-0.3,0.3c0,2.7,0,5.5,0,8.2c0,0.8,0.2,1.6,0.8,2.3c0.5,0.5,1.1,0.7,1.8,0.8
			c0.9,0,1.8-0.1,2.6-0.6c0.4-0.2,0.4-0.1,0.4,0.3c0,1.3,0,2.5,0,3.8c0,0.3-0.1,0.4-0.3,0.6c-1,0.5-2.1,0.8-3.3,0.9
			c-1.5,0.1-2.9,0.1-4.3-0.5c-1.8-0.7-2.9-2-3.4-3.8c-0.3-1-0.4-2.1-0.4-3.1C180.1,41,180.1,39.6,180.1,38.2z"/>
		<path class="st0" d="M193.8,39c0-3.4,0-6.8,0-10.1c0-0.4,0-0.4,0.5-0.4c1.7,0,3.4,0,5.2,0c0.4,0,0.5,0.1,0.5,0.5
			c0,1.3,0,2.6,0,3.9c0,5.4,0,10.8,0,16.2c0,0.6,0,0.6-0.6,0.6c-1.7,0-3.3,0-5,0c-0.5,0-0.5,0-0.5-0.5
			C193.8,45.7,193.8,42.3,193.8,39z"/>
		<path class="st0" d="M200.4,22.1c0,1.7-1.2,3.1-3,3.3c-1.1,0.1-2.2-0.1-3.1-0.9c-1.5-1.3-1.4-3.9,0.2-5.1c1.5-1.1,3.7-1,5,0.3
			C200.1,20.4,200.4,21.2,200.4,22.1z"/>
		<path class="st0" d="M238.9,31.3c-0.1-1.6,1.1-3.2,3.3-3.2c2,0,3.3,1.4,3.3,3.2c0,1.9-1.4,3.2-3.3,3.2
			C240.2,34.5,238.8,33,238.9,31.3z M244.8,31.3c0-1.5-1.1-2.6-2.6-2.6c-1.5,0-2.6,1.1-2.6,2.6c0,1.5,1.1,2.6,2.6,2.6
			C243.7,33.9,244.8,32.8,244.8,31.3z"/>
		<path class="st0" d="M243.7,32.6C243.7,32.7,243.7,32.7,243.7,32.6c-0.6,0.1-1,0-1.3-0.5c-0.1-0.2-0.3-0.4-0.4-0.5
			c-0.1-0.1-0.2-0.1-0.3-0.1c-0.1,0-0.1,0.1-0.1,0.2c0,0.2,0,0.5,0,0.7c0,0.2,0,0.2-0.2,0.2c-0.1,0-0.2,0-0.3,0
			c-0.1,0-0.2,0-0.2-0.2c0-0.9,0-1.8,0-2.7c0-0.1,0-0.2,0.1-0.2c0.6,0,1.2,0,1.7,0.1c0.4,0.1,0.7,0.3,0.8,0.7
			c0.1,0.5-0.1,0.8-0.6,0.9c-0.2,0.1-0.2,0.1-0.1,0.2C243.2,31.9,243.5,32.3,243.7,32.6z M242.1,30.3c-0.5,0-0.5,0-0.5,0.5
			c0,0,0,0.1,0,0.1c0,0.1,0,0.1,0.1,0.1c0.3,0,0.6,0.1,0.9-0.1c0.1,0,0.2-0.1,0.2-0.3c0-0.1-0.1-0.2-0.2-0.3
			C242.5,30.2,242.3,30.3,242.1,30.3z"/>
	</g>
</g>
</svg>
