<?xml version="1.0" encoding="utf-8"?>
<!-- Generator: Adobe Illustrator 19.1.0, SVG Export Plug-In . SVG Version: 6.00 Build 0)  -->
<svg version="1.1" id="Layer_1" xmlns="http://www.w3.org/2000/svg" xmlns:xlink="http://www.w3.org/1999/xlink" x="0px" y="0px"
	 viewBox="0 0 38 38" style="enable-background:new 0 0 38 38;" xml:space="preserve">
<style type="text/css">
	.st0{fill:#FFFFFF;}
</style>
<g>
	<path class="st0" d="M2.9,1.7c0.2,0,0.3,0,0.4,0c3,0,6,0.1,9,0.1c0.3,0,0.4,0.1,0.6,0.3c2.7,4,5.4,8,8,12.1c0.2,0.2,0.2,0.3,0.4,0
		c3.5-4,7-8,10.6-11.9c0.1-0.1,0.1-0.2,0.3-0.2c0.9,0,1.8,0,2.7,0c-0.6,0.7-1.1,1.3-1.7,1.9c-3.6,4-7.1,8.1-10.7,12.1
		c-0.2,0.2-0.1,0.3,0,0.5c3.9,5.8,7.7,11.5,11.5,17.3c0.5,0.8,1,1.5,1.5,2.3c-0.2,0-0.3,0-0.4,0c-3,0-6.1-0.1-9.1-0.1
		c-0.3,0-0.4-0.1-0.5-0.3c-2.8-4.3-5.7-8.5-8.5-12.8c-0.3-0.4-0.3-0.4-0.6,0c-3.7,4.2-7.4,8.4-11.2,12.6c-0.1,0.1-0.2,0.2-0.3,0.2
		c-0.9,0-1.8,0-2.7,0C3.2,34.9,4,34,4.7,33.1c2.7-3.1,5.4-6.2,8.2-9.2c0.8-0.9,1.6-1.8,2.4-2.7c0.2-0.3,0.3-0.4,0.1-0.8
		C11.2,14.3,7.2,8.2,3.1,2C3,2,3,1.9,2.9,1.7z M31.3,33.8c0-0.1-0.1-0.1-0.1-0.2c-2-3-4-6-6-9c-4.5-6.8-9-13.5-13.5-20.3
		c-0.1-0.2-0.2-0.2-0.5-0.2c-1.3,0-2.5,0-3.8,0C7.3,4,7.2,4,7.2,4.1c0,0.1,0.1,0.1,0.1,0.2c1.3,2,2.7,4,4,6
		c4.6,7,9.3,13.9,13.9,20.9c0.6,0.9,1.2,1.9,1.9,2.7c0.1,0,0.1,0,0.2,0c1.3,0,2.7,0,4,0.1c0,0,0.1,0,0.1,0
		C31.3,33.9,31.3,33.8,31.3,33.8z"/>
	<path class="st0" d="M31.2,34c0-0.1,0-0.1,0-0.2c0,0.1,0.1,0.1,0.1,0.2C31.3,33.9,31.3,34,31.2,34z"/>
	<path class="st0" d="M27.1,33.9c0.1-0.1,0.1-0.1,0.2,0C27.2,33.9,27.1,33.9,27.1,33.9z"/>
</g>
</svg>
