<?xml version="1.0" encoding="utf-8"?>
<!-- Generator: Adobe Illustrator 19.1.0, SVG Export Plug-In . SVG Version: 6.00 Build 0)  -->
<svg version="1.1" id="Layer_1" xmlns="http://www.w3.org/2000/svg" xmlns:xlink="http://www.w3.org/1999/xlink" x="0px" y="0px"
	 viewBox="-339 246 280 70" style="enable-background:new -339 246 280 70;" xml:space="preserve">
<style type="text/css">
	.st0{fill:#FFFFFF;}
</style>
<g>
	<g>
		<g>
			<g>
				<path class="st0" d="M-206.7,299.2c-1.3-0.8-2.2-2.2-2.7-4c-0.5-1.8-0.8-4.2-0.8-7.1v-4c0-3,0.3-5.4,0.9-7.2
					c0.6-1.8,1.6-3.1,2.8-4c1.3-0.8,3-1.3,5.1-1.3c2.1,0,3.7,0.4,5,1.3c1.2,0.8,2.2,2.2,2.7,4c0.6,1.8,0.9,4.2,0.9,7.2v4
					c0,3-0.3,5.4-0.8,7.2c-0.6,1.8-1.5,3.1-2.7,4c-1.3,0.8-3,1.3-5.1,1.3C-203.7,300.5-205.4,300.1-206.7,299.2z M-199.7,294.9
					c0.3-0.9,0.5-2.4,0.5-4.5v-8.7c0-2-0.2-3.5-0.5-4.4c-0.3-0.9-1-1.4-1.8-1.4c-0.8,0-1.4,0.5-1.8,1.4c-0.3,0.9-0.5,2.4-0.5,4.4
					v8.7c0,2.1,0.2,3.5,0.5,4.5c0.3,0.9,0.9,1.4,1.8,1.4C-200.6,296.2-200,295.8-199.7,294.9z"/>
				<path class="st0" d="M-110.1,288.2v1.4c0,1.8,0.1,3.1,0.2,4c0.1,0.9,0.3,1.5,0.7,2c0.3,0.4,0.8,0.6,1.5,0.6
					c0.9,0,1.6-0.4,1.9-1.1c0.3-0.7,0.5-1.9,0.6-3.6l5.4,0.3c0,0.2,0,0.6,0,1c0,2.6-0.7,4.5-2.1,5.8c-1.4,1.3-3.4,1.9-6,1.9
					c-3.1,0-5.3-1-6.5-2.9c-1.2-1.9-1.9-4.9-1.9-9v-4.9c0-4.2,0.6-7.2,1.9-9.2c1.3-1.9,3.5-2.9,6.6-2.9c2.2,0,3.8,0.4,5,1.2
					c1.2,0.8,2,2,2.4,3.7c0.5,1.7,0.7,4,0.7,6.9v4.8H-110.1z M-109.4,276.5c-0.3,0.4-0.5,1-0.6,1.9c-0.1,0.9-0.2,2.3-0.2,4.1v2h4.6
					v-2c0-1.8-0.1-3.1-0.2-4.1c-0.1-0.9-0.3-1.6-0.7-2c-0.3-0.4-0.8-0.6-1.5-0.6C-108.5,275.9-109,276.1-109.4,276.5z"/>
				<path class="st0" d="M-222,287.7l-7.1-25.8h6.2l2.5,11.7c0.6,2.9,1.1,5.3,1.4,7.4h0.2c0.2-1.5,0.7-3.9,1.4-7.3l2.6-11.7h6.2
					l-7.2,25.8v12.4h-6.2V287.7z"/>
				<path class="st0" d="M-172.6,272.2v27.9h-4.9l-0.5-3.4h-0.1c-1.3,2.6-3.3,3.9-6,3.9c-1.8,0-3.2-0.6-4.1-1.8
					c-0.9-1.2-1.3-3.1-1.3-5.7v-20.8h6.3v20.5c0,1.2,0.1,2.1,0.4,2.7c0.3,0.5,0.7,0.8,1.4,0.8c0.5,0,1.1-0.2,1.6-0.5
					c0.5-0.3,0.9-0.8,1.1-1.3v-22.1H-172.6z"/>
				<path class="st0" d="M-140.4,272.2v27.9h-4.9l-0.5-3.4h-0.1c-1.3,2.6-3.3,3.9-6,3.9c-1.8,0-3.2-0.6-4.1-1.8
					c-0.9-1.2-1.3-3.1-1.3-5.7v-20.8h6.3v20.5c0,1.2,0.1,2.1,0.4,2.7c0.3,0.5,0.7,0.8,1.4,0.8c0.5,0,1.1-0.2,1.6-0.5
					c0.5-0.3,0.9-0.8,1.1-1.3v-22.1H-140.4z"/>
				<path class="st0" d="M-155.5,267h-6.2v33.1h-6.1V267h-6.2v-5h18.6V267z"/>
				<path class="st0" d="M-119.6,276.6c-0.4-1.8-1-3-1.8-3.8c-0.8-0.8-2-1.2-3.5-1.2c-1.2,0-2.2,0.3-3.2,1c-1,0.7-1.8,1.5-2.3,2.6h0
					l0-14.7h-6v39.6h5.2l0.6-2.6h0.1c0.5,0.9,1.2,1.7,2.2,2.2c1,0.5,2,0.8,3.2,0.8c2.1,0,3.7-1,4.7-2.9c1-2,1.5-5,1.5-9.2V284
					C-119,280.8-119.2,278.4-119.6,276.6z M-125.4,288c0,2-0.1,3.6-0.3,4.8c-0.2,1.2-0.4,2-0.8,2.5c-0.4,0.5-0.9,0.7-1.6,0.7
					c-0.5,0-1-0.1-1.4-0.4c-0.4-0.2-0.8-0.6-1.1-1.1v-15.8c0.2-0.8,0.6-1.4,1.1-1.9c0.5-0.5,1.1-0.7,1.7-0.7c0.6,0,1.1,0.3,1.5,0.8
					c0.3,0.5,0.6,1.3,0.7,2.5c0.1,1.2,0.2,2.9,0.2,5V288z"/>
			</g>
		</g>
		<path class="st0" d="M-236.1,265.7c-0.7-2.7-2.9-4.9-5.6-5.6c-5-1.3-24.8-1.3-24.8-1.3s-19.9,0-24.8,1.3c-2.7,0.7-4.9,2.9-5.6,5.6
			c-1.3,5-1.3,15.3-1.3,15.3s0,10.3,1.3,15.3c0.7,2.7,2.9,4.9,5.6,5.6c5,1.3,24.8,1.3,24.8,1.3s19.9,0,24.8-1.3
			c2.7-0.7,4.9-2.9,5.6-5.6c1.3-5,1.3-15.3,1.3-15.3S-234.8,270.7-236.1,265.7z M-274,290.5v-19.1l16.5,9.5L-274,290.5z"/>
	</g>
</g>
</svg>
