<?xml version="1.0" encoding="utf-8"?>
<!-- Generator: Adobe Illustrator 19.1.0, SVG Export Plug-In . SVG Version: 6.00 Build 0)  -->
<svg version="1.1" id="Layer_1" xmlns="http://www.w3.org/2000/svg" xmlns:xlink="http://www.w3.org/1999/xlink" x="0px" y="0px"
	 viewBox="0 0 45 45" style="enable-background:new 0 0 45 45;" xml:space="preserve">
<style type="text/css">
	.st0{fill:#EB841F;}
</style>
<g>
	<g>
		<path class="st0" d="M22.5,40.8c-3.3-0.1-6.6-0.1-9.8-0.5c-4.7-0.6-7-2.4-7.7-7.1c-1.1-7.1-1-14.2,0-21.3C5.5,7.3,7.4,5.5,12,4.9
			c7-1,14-1,20.9,0c4.6,0.7,6.5,2.5,7.2,7.2c1,7,1,14,0,20.9c-0.7,4.9-3,6.7-8,7.3C29,40.7,25.7,40.7,22.5,40.8z M22.5,37.2
			c3-0.1,6,0.1,9.1-0.2c3.5-0.3,5.1-1.9,5.3-5.4c0.4-6,0.4-12,0-18C36.7,10,35,8.4,31.5,8.2c-6-0.4-12-0.4-18,0
			C9.9,8.4,8.4,10,8.1,13.6c-0.4,6-0.4,12,0,18c0.2,3.4,1.9,5,5.3,5.3C16.4,37.2,19.5,37.1,22.5,37.2z"/>
		<path class="st0" d="M22.5,13.4c5,0,9.1,4.1,9.2,9.1c0,5-4.1,9.2-9.1,9.1c-5,0-9-4-9.1-9C13.3,17.6,17.4,13.5,22.5,13.4z
			 M22.5,28.1c3,0,5.5-2.5,5.5-5.5c0-2.9-2.5-5.4-5.4-5.5c-3-0.1-5.6,2.5-5.6,5.4C16.9,25.4,19.5,28,22.5,28.1z"/>
		<path class="st0" d="M33.4,13.5c0,1-0.8,1.8-1.8,1.7c-1,0-1.8-0.7-1.7-1.8c0-1,0.8-1.8,1.8-1.8C32.6,11.6,33.5,12.5,33.4,13.5z"/>
	</g>
</g>
</svg>
