<?xml version="1.0" encoding="utf-8"?>
<!-- Generator: Adobe Illustrator 19.1.0, SVG Export Plug-In . SVG Version: 6.00 Build 0)  -->
<svg version="1.1" id="Layer_1" xmlns="http://www.w3.org/2000/svg" xmlns:xlink="http://www.w3.org/1999/xlink" x="0px" y="0px"
	 viewBox="0 0 45 45" style="enable-background:new 0 0 45 45;" xml:space="preserve">
<style type="text/css">
	.st0{fill:#EB841F;}
</style>
<path class="st0" d="M19.6,24.3c-0.8-0.2-1.7-0.3-2.5-0.2c-2.6,0.4-4.6,2.6-4.6,5.3c0,2.6,1.8,4.9,4.4,5.4c3.4,0.6,6.4-1.9,6.4-5.4
	c0-5,0-10,0-15c0-3.3,0-6.5,0-9.8c0-0.1,0-0.3,0-0.4c2,0,4,0,6,0c0.1,2.5,1,4.7,2.8,6.5c1.8,1.8,4,2.6,6.5,2.7c0,2,0,3.9,0,5.9
	c-3.4,0-6.5-1.1-9.3-3.1c0,0.2,0,0.3,0,0.5c0,4.2,0,8.4,0,12.6c0.1,5.9-4.3,10.5-9.6,11.4c-6.5,1.1-12.8-3.6-13.4-10.1
	c-0.6-5.9,3.7-11.3,9.6-12.3c1.1-0.2,2.2-0.2,3.3-0.1c0.2,0,0.3,0.1,0.3,0.3c0,1.9,0,3.8,0,5.7C19.6,24.2,19.6,24.2,19.6,24.3z"/>
</svg>
