<?xml version="1.0" encoding="utf-8"?>
<!-- Generator: Adobe Illustrator 19.1.0, SVG Export Plug-In . SVG Version: 6.00 Build 0)  -->
<svg version="1.1" id="Layer_1" xmlns="http://www.w3.org/2000/svg" xmlns:xlink="http://www.w3.org/1999/xlink" x="0px" y="0px"
	 viewBox="0 0 45 45" style="enable-background:new 0 0 45 45;" xml:space="preserve">
<style type="text/css">
	.st0{fill:#EB841F;}
</style>
<g>
	<g>
		<path class="st0" d="M20,26.6c-0.3,0.3-0.6,0.6-0.8,1c-1.3,1.5-2.6,3-3.9,4.5c-1.5,1.8-3.1,3.6-4.6,5.3c-1,1.1-1.9,2.2-2.9,3.3
			c0,0-0.1,0.1-0.2,0.1c-0.9,0-1.7,0-2.6,0c-0.1,0-0.3,0-0.5,0c4.7-5.4,9.3-10.9,14-16.3C13.9,17.7,9.3,11,4.6,4.2
			c0.1,0,0.1,0,0.2,0c3.5,0,6.9,0,10.4,0c0.1,0,0.2,0,0.2,0.1c3,4.4,6,8.8,9,13.1c0,0.1,0.1,0.1,0.1,0.2c0.1-0.1,0.2-0.1,0.2-0.2
			c0.9-1,1.7-2,2.6-3c1.5-1.7,2.9-3.4,4.4-5.1c1.4-1.6,2.8-3.3,4.2-4.9c0.1-0.1,0.2-0.2,0.5-0.2c0.9,0,1.8,0,2.6,0
			c0.1,0,0.1,0,0.2,0C39.1,4.3,39,4.4,39,4.5c-2.2,2.6-4.4,5.1-6.6,7.7c-1.9,2.2-3.8,4.5-5.8,6.7c-0.2,0.2-0.4,0.4-0.5,0.6
			c-0.1,0.1-0.1,0.2,0,0.3c0.6,0.9,1.2,1.8,1.9,2.8c4,5.8,8,11.7,12,17.5c0.2,0.2,0.3,0.5,0.5,0.7c-0.1,0-0.1,0-0.1,0
			c-0.9,0-1.8,0-2.6,0c-2.5,0-5.1,0-7.6,0c-0.2,0-0.3-0.1-0.4-0.2c-3.1-4.5-6.2-9-9.3-13.5C20.2,27,20.1,26.8,20,26.6z M8.9,6.5
			C8.9,6.6,9,6.7,9,6.7c4.3,6.1,8.6,12.3,12.9,18.4c3.1,4.4,6.2,8.8,9.3,13.3c0.1,0.1,0.2,0.2,0.3,0.2c1.3,0,2.5,0,3.8,0
			c0.3,0,0.6,0,0.9,0c0-0.1-0.1-0.1-0.1-0.2c-4.4-6.2-8.7-12.5-13.1-18.7c-3-4.3-6.1-8.7-9.1-13c-0.1-0.1-0.1-0.1-0.3-0.1
			c-1.3,0-2.5,0-3.8,0C9.5,6.5,9.2,6.5,8.9,6.5z"/>
	</g>
</g>
</svg>
