<?xml version="1.0" encoding="utf-8"?>
<!-- Generator: Adobe Illustrator 19.1.0, SVG Export Plug-In . SVG Version: 6.00 Build 0)  -->
<svg version="1.1" id="Layer_1" xmlns="http://www.w3.org/2000/svg" xmlns:xlink="http://www.w3.org/1999/xlink" x="0px" y="0px"
	 viewBox="186 -19 418 82" style="enable-background:new 186 -19 418 82;" xml:space="preserve">
<style type="text/css">
	.st0{opacity:0.5;fill:url(#SVGID_1_);stroke:#FFFFFF;stroke-miterlimit:10;}
	.st1{fill:#EFEFEF;}
</style>
<g>
	
		<linearGradient id="SVGID_1_" gradientUnits="userSpaceOnUse" x1="187.0804" y1="-16362" x2="602.9196" y2="-16362" gradientTransform="matrix(1 0 0 -1 0 -16340)">
		<stop  offset="0" style="stop-color:#FFFFFF;stop-opacity:0.5"/>
		<stop  offset="1" style="stop-color:#FFFFFF;stop-opacity:0.7"/>
	</linearGradient>
	<path class="st0" d="M563,61.9H227c-22,0-39.9-17.9-39.9-39.9v0c0-22,17.9-39.9,39.9-39.9h336c22,0,39.9,17.9,39.9,39.9v0
		C602.9,44,585,61.9,563,61.9z"/>
	<g>
		<path class="st1" d="M467.4,2.9c-1.7,1.3-1.1,4.1,1.1,4.5c2.1,0.4,3.6-1.7,2.7-3.7C470.6,2.5,468.5,2,467.4,2.9z"/>
		<path class="st1" d="M316.4,19.6c0-6.9-0.1-7.8-1.5-9.3c-0.4-0.5-1.2-1.1-1.7-1.3c-1.1-0.5-3.7-0.7-5-0.4
			c-1.3,0.3-2.5,0.9-3.4,1.9c-0.8,0.9-1.4,2.3-1.2,2.8c0.1,0.3,2.3,0.8,3.3,0.8c0.2,0,0.5-0.3,0.7-0.7c0.6-1.4,2.2-2.1,3.4-1.5
			c0.6,0.3,1.1,1.4,1.1,2.3v0.8l-1.9,0c-2.5,0-4.1,0.7-5.5,2c-1.1,1.2-1.5,2.2-1.5,4.1c0,1.6,0.5,2.8,1.6,3.7c1,0.9,2.1,1.2,3.7,1.1
			c1.4-0.1,2.5-0.7,3.3-1.9c0.6-0.8,0.7-0.7,1,0.6l0.2,0.8l1.5,0.1C316.6,25.8,316.4,26.5,316.4,19.6z M312,18.7
			c0,2.8-0.8,4.1-2.5,4.1c-1.3,0-1.9-0.9-2.1-2.3c-0.2-1.9,1.3-3.5,3.5-3.5h1V18.7z"/>
		<path class="st1" d="M323.1,25l0.1-5.2c0.1-6.3,0.2-6.8,1.6-7.3c0.7-0.3,1-0.2,1.6,0c1.4,0.5,1.5,0.4,1.6,7L328,25h2.1
			c1.6,0,2.1,0.3,2.2,0c0.1-0.2,0.1-2.5,0.1-5.4c0-4.1,0.1-5.3,0.3-5.9c0.7-1.6,3-1.7,3.8-0.2c0.3,0.6,0.4,1.5,0.4,6.5
			c0.1,5,0.1,5.7,0.4,5.8c0.2,0,1.1,0,2.1,0l1.8-0.1l0.1-5c0.1-5.8-0.2-7.9-0.9-9.5c-1-2-2.9-2.9-5.1-2.4c-1,0.2-1.4,0.5-2.3,1.4
			c-0.6,0.6-1.1,1.2-1.1,1.3c0,0.4-0.4,0.2-0.8-0.7c-1-1.7-3.3-2.6-5.1-1.9c-1,0.4-1.8,1.1-2.3,1.9c-0.4,0.8-0.5,0.7-0.8-0.6l-0.2-1
			h-1.8h-1.8l-0.1,8l0,8h2.1H323.1z"/>
		<path class="st1" d="M344.1,18.3c-1.3,2.3-0.7,5.6,1.4,7c1.2,0.8,3.1,1,4.5,0.5c0.9-0.4,2.3-1.6,2.3-2.1c0-0.1,0.1-0.2,0.2-0.2
			s0.3,0.2,0.4,0.7l0.2,0.8h1.9h2.1v-5.7c0-6.8-0.1-7.1-1.3-8.8c-1.2-1.6-4.3-2.5-7-2c-1.4,0.3-2.5,0.9-3.4,1.8
			c-0.8,0.9-1.6,2.6-1.3,3c0.1,0.2,2.3,0.7,3.2,0.7c0.4,0,0.5-0.2,0.7-0.8c0.2-0.5,0.5-0.9,1-1.2c1.6-1,3.3-0.1,3.5,1.9l0.1,1.1
			l-1.9,0C347.5,15.1,345.2,16.2,344.1,18.3z M352.6,17l-0.1,1.9c-0.1,1.8-0.5,3-1.3,3.5c-0.6,0.4-1.9,0.5-2.5,0.1
			c-0.9-0.7-1.1-2.6-0.3-4c0.4-0.7,1.9-1.5,3.1-1.5H352.6z"/>
		<path class="st1" d="M383.9,10c-1.5-1.3-4-1.9-5.8-1.4c-1.3,0.4-2.4,1-3.4,2c-3.4,3.7-3.3,10,0.2,13.5c3.1,3.1,8.4,2.3,10.6-1.5
			C387.9,18.6,387.2,12.8,383.9,10z M379.6,22.6c-0.8,0-1-0.1-1.6-0.8c-0.9-1-1.1-2-1.1-4.5c0-3.1,0.6-4.8,2-5.3
			c0.6-0.2,1.8,0,2.3,0.5c0.9,0.8,1.3,2.3,1.3,4.6C382.4,20.8,381.5,22.6,379.6,22.6z"/>
		<path class="st1" d="M399.8,8.9c-0.8-0.4-2.5-0.6-3.3-0.3c-1,0.3-2.1,1.1-2.5,1.9c-0.4,0.8-0.7,0.9-0.7,0.3c0-0.2-0.1-0.7-0.2-1.2
			l-0.2-0.8l-1.9,0.1L389,8.9v8.3v8.3l2.2,0.1l2.2,0.1l0.1-5.6c0.1-5.2,0.1-5.7,0.5-6.4c0.6-1,1.9-1.5,2.9-1.1
			c0.3,0.2,0.8,0.6,1.1,0.9c0.4,0.6,0.5,0.6,0.5,6.1l0.1,5.4h2.1h2.4v-5.5c0-5.7-0.2-6.3-0.6-7.5C401.9,10.6,400.8,9.4,399.8,8.9z"
			/>
		<path class="st1" d="M428.4,8.5c-1.2,0.2-1.9,0.6-3.1,1.9l-1,1.1l-0.3-0.6c-0.7-1.4-2.5-2.5-4.1-2.5c-0.3,0-0.9,0.2-1.4,0.3
			c-0.9,0.3-1.6,1-2.3,2.1l-0.4,0.5l-0.1-0.8C415.5,9,415.4,9,413.5,9H412v8.2V25h1.8h2.1l0.1-5.5c0.1-5.4,0.1-5.6,0.6-6.2
			c1-1.4,2.5-1.4,3.5-0.1c0.4,0.6,0.5,1,0.6,6.5l0.1,5.9l1.8,0.1c1.1,0.1,2,0,2.1-0.1c0.2-0.2,0.3-1.6,0.4-5.8
			c0.1-5.3,0.1-5.6,0.5-6.2c1-1.4,2.5-1.4,3.5-0.2c0.4,0.6,0.5,0.7,0.6,6.2l0.1,5.6h2.1h2.1l0.1-5.3c0.1-5.8-0.1-7.4-0.8-8.9
			C432.2,9.1,430.2,8.2,428.4,8.5z"/>
		<path class="st1" d="M459.6,15.4c-1-0.3-2.1-0.6-2.4-0.8c-1.6-0.8-0.8-2.7,1.1-2.7c0.7,0,1.1,0.1,1.6,0.6c0.4,0.4,0.6,0.8,0.6,1
			c0,0.5,0.3,0.6,1.8,0.3c2.5-0.4,2.5-0.5,1.7-2.3c-1.2-2.5-4.7-3.7-7.8-2.8c-2.5,0.7-4,2.5-4,5c0,1.4,0.6,2.8,1.6,3.5
			c0.9,0.7,1.5,0.9,4,1.6c1.1,0.3,2.1,0.7,2.3,0.9c1,0.9,0.5,2.5-0.8,2.9c-1.6,0.4-2.9-0.4-3.4-2c-0.1-0.5-0.3-0.9-0.4-1
			c-0.3-0.2-3.1,0.3-3.4,0.6c-0.5,0.4,0.4,2.9,1.4,3.9c1.6,1.7,5,2.4,7.5,1.5c2.5-0.9,3.8-2.6,3.8-4.9c0-1.7-0.2-2.3-1-3.3
			C462.8,16.5,461.9,15.9,459.6,15.4z"/>
		<path class="st1" d="M485.5,19.6c-2.2-0.4-2.1-0.4-2.5,0.8c-0.5,1.5-1.3,2.3-2.4,2.3c-1.8,0-2.7-1.8-2.7-5.4c0-2.5,0.4-4,1.3-4.8
			c0.8-0.7,1.8-0.7,2.6-0.2c0.5,0.4,1.4,1.8,1.4,2.3c0,0.7,0.5,0.7,2.3,0.4c1.7-0.3,1.7-0.3,1.7-1c0-1.7-2-4.3-3.9-5.1
			c-1.3-0.6-3.3-0.6-4.6-0.2c-3,1.1-4.9,4-5.2,7.6c-0.3,4.2,1.7,8.1,4.9,9.3c2.6,1,5.7,0.2,7.4-1.9c0.8-1,1.4-2.4,1.4-3.4
			C487,19.8,486.9,19.8,485.5,19.6z"/>
		<path class="st1" d="M370.9,22.3c-0.9-0.5-2.9-1-4.6-1.1c-0.9,0-1.7-0.1-1.7-0.1s1.5-2,3.2-4.4l3.2-4.4v-1.8V8h-5.9
			c-4.5,0-5.8,0.5-5.8,0.7c-0.1,1.3,0,3.1,0.1,3.2c0.1,0.1,1.6,0.3,3.4,0.4l3.3,0.2l-3.6,5l-3.5,5V24c0,1.3,0.1,1.7,0.3,1.7
			c0.2,0,1.1-0.2,2.1-0.5c2.4-0.6,5.4-0.6,7.6,0c2.4,0.7,2.3,0.7,2.3-1.1C371.3,22.8,371.3,22.6,370.9,22.3z"/>
		<path class="st1" d="M446,8v5.8c0,2.8-0.3,5.5-0.4,6.1c-0.4,1.8-1.9,2.6-3.4,2c-1.1-0.5-1.2-0.8-1.3-7.1l-0.1-5.9l-2-0.1
			c-1.6,0-2,0-2.2,0.3c-0.1,0.2-0.1,3.1,0,6.5l0.1,6.2l0.7,1.5c0.9,1.9,1.9,2.6,3.7,2.7c1.8,0.1,3.1-0.5,4-1.8
			c0.4-0.6,0.7-0.9,0.7-0.7c0,0.2,0.2,0.7,0.3,1.2l0.2,0.9l1.9,0.1l1.9,0.1v-8.5V8h-2.3H446z"/>
		<path class="st1" d="M469,8.8c-1.1,0-1.9,0.1-2,0.2C467,9,467,12.8,467,17.4v8.3l2.1-0.1l2.1-0.1l0-7.9c0-4.3,0-8.1-0.1-8.4
			C471,8.8,470.9,8.8,469,8.8z"/>
		<path class="st1" d="M363.9,27.2c-1.6,0.3-3.9,1.4-4.3,2.1c-0.4,0.5-0.4,0.6,0.1,0.9c0.2,0.2,0.6,0.2,0.9,0.2
			c0.3-0.1,1.3-0.2,2.3-0.4c2.8-0.4,4.5,0,4.5,1c0,0.6-0.7,2.4-1.7,4.4c-0.9,1.7-1,2.1-0.7,2.3c0.5,0.6,0.9,0.4,2.2-0.9
			c1.5-1.4,2.3-2.6,2.8-4.4c0.6-1.9,0.5-3.6-0.1-4.2C369,27.3,366.2,26.8,363.9,27.2z"/>
		<path class="st1" d="M363.9,32c-0.1,0-1.3,0.5-2.6,1.1c-6.2,2.8-12.8,3.9-20.7,3.7c-9.9-0.3-17.4-2.8-24.2-7.9
			c-1.1-0.9-2-1-2.2-0.5c-0.3,0.7,0.6,1.9,2.9,4.2c4.3,4.3,9.3,6.9,16.1,8.4c2.1,0.5,2.8,0.5,8.2,0.5c6.5,0,8.1-0.2,12.4-1.7
			c5.8-1.9,11.8-6.2,10.7-7.5C364.2,32.2,364,32,363.9,32z"/>
	</g>
</g>
</svg>
