<?xml version="1.0" encoding="utf-8"?>
<!-- Generator: Adobe Illustrator 19.1.0, SVG Export Plug-In . SVG Version: 6.00 Build 0)  -->
<svg version="1.1" id="Layer_1" xmlns="http://www.w3.org/2000/svg" xmlns:xlink="http://www.w3.org/1999/xlink" x="0px" y="0px"
	 viewBox="0 0 418 82" style="enable-background:new 0 0 418 82;" xml:space="preserve">
<style type="text/css">
	.st0{opacity:0.5;fill:url(#SVGID_1_);stroke:#FFFFFF;stroke-miterlimit:10;}
	.st1{fill:#EFEFEF;}
</style>
<g>
	
		<linearGradient id="SVGID_1_" gradientUnits="userSpaceOnUse" x1="1.0804" y1="-16341" x2="416.9196" y2="-16341" gradientTransform="matrix(1 0 0 -1 0 -16300)">
		<stop  offset="0" style="stop-color:#FFFFFF;stop-opacity:0.5"/>
		<stop  offset="1" style="stop-color:#FFFFFF;stop-opacity:0.7"/>
	</linearGradient>
	<path class="st0" d="M377,80.9H41C19,80.9,1.1,63,1.1,41v0C1.1,19,19,1.1,41,1.1h336c22,0,39.9,17.9,39.9,39.9v0
		C416.9,63,399,80.9,377,80.9z"/>
	<g>
		<g id="_Group__1_">
			<g id="_Group_2_1_">
				<path id="_Compound_Path__1_" class="st1" d="M175.5,50.9h-6.6l-1.6,4.7h-2.8l6.3-17.4h2.9l6.3,17.4h-2.9L175.5,50.9z
					 M169.5,48.7h5.3l-2.6-7.7h-0.1L169.5,48.7z"/>
				<path id="_Compound_Path_2_1_" class="st1" d="M193.5,49.2c0,4-2.1,6.5-5.3,6.5c-1.6,0.1-3.2-0.8-4-2.2h-0.1v6.3h-2.6V42.9h2.5
					V45h0c0.8-1.4,2.4-2.3,4-2.2C191.4,42.7,193.5,45.3,193.5,49.2z M190.9,49.2c0-2.6-1.3-4.3-3.4-4.3c-2,0-3.3,1.7-3.3,4.3
					c0,2.6,1.3,4.3,3.3,4.3C189.5,53.5,190.9,51.8,190.9,49.2L190.9,49.2z"/>
				<path id="_Compound_Path_3_1_" class="st1" d="M207.5,49.2c0,4-2.1,6.5-5.3,6.5c-1.6,0.1-3.2-0.8-4-2.2h-0.1v6.3h-2.6V42.9h2.5
					V45h0c0.8-1.4,2.4-2.3,4-2.2C205.4,42.7,207.5,45.3,207.5,49.2z M204.8,49.2c0-2.6-1.3-4.3-3.4-4.3c-2,0-3.3,1.7-3.3,4.3
					c0,2.6,1.3,4.3,3.3,4.3C203.5,53.5,204.8,51.8,204.8,49.2z"/>
				<path id="_Compound_Path_4_1_" class="st1" d="M209.6,38.1h2.6v17.4h-2.6V38.1z"/>
				<path id="_Compound_Path_5_1_" class="st1" d="M225.8,51.9c-0.4,2.3-2.6,3.9-5.5,3.9c-3.7,0-6-2.5-6-6.5c0-4,2.3-6.6,5.9-6.6
					c3.5,0,5.7,2.4,5.7,6.3v0.9h-9V50c-0.2,1.8,1.2,3.4,3,3.6c0.1,0,0.3,0,0.4,0c1.3,0.1,2.5-0.6,2.9-1.8H225.8L225.8,51.9z
					 M217,48.1h6.4c0.1-1.7-1.2-3.1-2.9-3.2c-0.1,0-0.2,0-0.2,0C218.5,44.8,217,46.3,217,48.1C217,48,217,48.1,217,48.1z"/>
				<path id="_Compound_Path_6_1_" class="st1" d="M248.5,55.6V42.8h-0.1l-5.3,12.7h-2l-5.3-12.7h-0.1v12.8h-2.5V38.1h3.1l5.6,13.8
					h0.1l5.6-13.8h3.1v17.4H248.5z"/>
				<path id="_Compound_Path_7_1_" class="st1" d="M264.9,55.6h-2.5v-2.2h-0.1c-0.7,1.5-2.3,2.5-3.9,2.3c-2.3,0.1-4.3-1.6-4.5-4
					c0-0.2,0-0.5,0-0.7v-8.2h2.6v7.7c-0.2,1.4,0.7,2.7,2.1,2.9c0.2,0,0.4,0,0.7,0c1.6,0.1,3-1.2,3-2.8c0-0.1,0-0.3,0-0.4v-7.3h2.6
					L264.9,55.6L264.9,55.6z"/>
				<path id="_Compound_Path_8_1_" class="st1" d="M272.3,42.7c2.8,0,4.8,1.6,4.9,3.8h-2.5c-0.2-1.2-1.3-2-2.5-1.8l0,0
					c-1.4,0-2.4,0.7-2.4,1.6c0,0.8,0.6,1.3,1.9,1.6l2.1,0.5c2.6,0.6,3.5,1.6,3.5,3.4c0,2.3-2.2,3.9-5.3,3.9c-3,0-5-1.5-5.2-3.9h2.6
					c0.2,1.3,1.5,2.1,2.7,1.9c1.6,0,2.5-0.6,2.5-1.7c0-0.8-0.5-1.2-1.8-1.5l-2.3-0.6c-2.3-0.6-3.5-1.7-3.5-3.5
					C267.3,44.3,269.3,42.7,272.3,42.7z"/>
				<path id="_Compound_Path_9_1_" class="st1" d="M279.5,39.5c0-0.8,0.6-1.5,1.5-1.5s1.5,0.6,1.5,1.5c0,0.8-0.6,1.5-1.5,1.5
					c0,0,0,0,0,0C280.2,41,279.5,40.4,279.5,39.5C279.5,39.5,279.5,39.5,279.5,39.5z M279.7,42.9h2.6v12.7h-2.6V42.9z"/>
				<path id="_Compound_Path_10_1_" class="st1" d="M293.6,47.2c-0.2-1.4-1.5-2.5-3-2.3c-2,0-3.3,1.7-3.3,4.3c0,2.7,1.3,4.3,3.4,4.3
					c1.4,0.1,2.7-0.9,3-2.3h2.5c-0.3,2.7-2.8,4.7-5.5,4.5c-3.6,0-6-2.5-6-6.5c0-4,2.4-6.5,6-6.5c2.8-0.2,5.2,1.8,5.5,4.5L293.6,47.2
					z"/>
			</g>
			<path id="_Compound_Path_11_1_" class="st1" d="M156.5,26.9c-0.9-2.1-2.6-3.6-4.7-4.3c-1.4-0.3-2.8-0.5-4.3-0.4h-15.9
				c-1.4-0.1-2.9,0.1-4.3,0.4c-2.1,0.6-3.9,2.2-4.7,4.3c-0.5,1.6-0.8,3.3-0.7,5v15.9c-0.1,1.7,0.2,3.4,0.7,5
				c0.9,2.1,2.6,3.6,4.7,4.3c1.4,0.3,2.8,0.5,4.3,0.4h15.9c1.4,0.1,2.9-0.1,4.3-0.4c2.1-0.6,3.9-2.2,4.7-4.3c0.5-1.6,0.8-3.3,0.7-5
				V31.9C157.3,30.2,157.1,28.5,156.5,26.9z M147.7,46.5c-0.1,0.4-0.3,0.8-0.5,1.2c-0.3,0.4-0.6,0.7-1,0.9c-0.4,0.2-0.8,0.4-1.2,0.4
				c-0.6,0.2-1.3,0.2-1.9,0.1c-0.5-0.1-0.9-0.3-1.3-0.6c-1.1-1-1.2-2.8-0.2-3.9c0,0,0,0,0.1-0.1c0.3-0.3,0.7-0.6,1.1-0.7
				c0.6-0.2,1.3-0.4,1.9-0.5c0.2,0,0.5-0.1,0.7-0.1c0.3,0,0.6-0.2,0.8-0.4c0.2-0.3,0.2-0.6,0.2-0.9l0-7.8c0-0.6-0.3-0.8-0.8-0.6
				c-0.4,0.1-9.1,1.8-9.1,1.8c-0.4,0-0.7,0.4-0.7,0.8c0,0,0,0.1,0,0.1l0,11.4c0,0.4,0,0.9-0.1,1.3c-0.1,0.4-0.3,0.8-0.5,1.2
				c-0.3,0.4-0.6,0.7-1,0.9c-0.4,0.2-0.8,0.4-1.2,0.5c-0.6,0.2-1.3,0.2-1.9,0.1c-0.5-0.1-0.9-0.3-1.3-0.7c-1.1-1.1-1.2-2.8-0.1-3.9
				c0.3-0.3,0.7-0.6,1.1-0.7c0.6-0.2,1.3-0.4,1.9-0.5c0.2,0,0.5-0.1,0.7-0.1c0.3,0,0.6-0.2,0.8-0.4c0.2-0.3,0.3-0.6,0.2-0.9V31.2
				c0-0.1,0-0.2,0-0.4c0-0.3,0.2-0.5,0.4-0.7c0.2-0.2,0.4-0.3,0.7-0.3l0,0l10.5-2.1c0.1,0,0.8-0.2,0.9-0.2c0.4-0.1,0.8,0.3,0.9,0.7
				c0,0.1,0,0.2,0,0.2l0,16.7C147.8,45.6,147.8,46.1,147.7,46.5L147.7,46.5z"/>
		</g>
		<g>
			<path class="st1" d="M170.6,32.8h-5.3v-8.5h1.3v7.3h4L170.6,32.8L170.6,32.8z"/>
			<path class="st1" d="M172.1,24.5c0-0.5,0.3-0.8,0.8-0.9c0.5,0,0.8,0.3,0.9,0.8s-0.3,0.8-0.8,0.9c0,0,0,0,0,0
				C172.5,25.3,172.1,24.9,172.1,24.5C172.1,24.5,172.1,24.5,172.1,24.5z M172.3,26.4h1.3v6.4h-1.3V26.4z"/>
			<path class="st1" d="M177.9,26.3c1.2-0.2,2.3,0.6,2.5,1.8h-1.2c-0.2-0.5-0.7-0.9-1.3-0.8c-0.6-0.1-1.1,0.3-1.2,0.8
				c0,0.4,0.3,0.6,1,0.8l1.1,0.2c1,0,1.8,0.8,1.8,1.7c-0.1,1.3-1.3,2.2-2.5,2c0,0-0.1,0-0.1,0c-1.2,0.2-2.4-0.6-2.6-1.8h1.3
				c0.2,0.6,0.8,0.9,1.4,0.8c0.6,0.1,1.2-0.3,1.3-0.9c-0.1-0.5-0.5-0.8-0.9-0.8l-1.1-0.3c-1,0-1.8-0.8-1.8-1.8
				c0.1-1.2,1.2-2.1,2.4-2C177.8,26.2,177.9,26.2,177.9,26.3z"/>
			<path class="st1" d="M183.9,24.8v1.6h1.4v1.1h-1.4v3.3c-0.1,0.4,0.2,0.9,0.6,1c0.1,0,0.2,0,0.3,0c0.2,0,0.3,0,0.5,0v1.1
				c-0.2,0-0.5,0.1-0.7,0.1c-1.4,0-2-0.5-2-1.7v-3.6h-1v-1.1h1v-1.6H183.9z"/>
			<path class="st1" d="M192.3,31.1c-0.4,1.2-1.5,2-2.8,1.9c-1.6,0-2.9-1.2-3-2.8c0-0.2,0-0.3,0-0.5c-0.2-1.6,0.9-3.1,2.5-3.3
				c0.1,0,0.3,0,0.4,0c1.6,0,2.9,1.2,2.9,2.8c0,0.2,0,0.3,0,0.5v0.4h-4.5V30c-0.1,0.9,0.6,1.8,1.5,1.8c0.1,0,0.1,0,0.2,0
				c0.6,0.1,1.2-0.2,1.5-0.8L192.3,31.1z M187.9,29h3.2c0.1-0.9-0.6-1.6-1.4-1.7c0,0-0.1,0-0.1,0C188.6,27.3,187.9,28,187.9,29
				C187.9,29,187.9,29,187.9,29z"/>
			<path class="st1" d="M194.1,26.4h1.2v1h0.1c0.3-0.8,1.1-1.2,1.9-1.1c1.1-0.1,2.2,0.8,2.2,1.9c0,0.2,0,0.3,0,0.5v4.2h-1.3V29
				c0.1-0.7-0.3-1.4-1-1.5c-0.1,0-0.2,0-0.4,0c-0.8,0-1.5,0.6-1.5,1.4c0,0.1,0,0.2,0,0.2v3.8h-1.3V26.4z"/>
			<path class="st1" d="M204.6,29.6c-0.2-1.7,1.1-3.2,2.7-3.3s3.2,1.1,3.3,2.7c0,0.2,0,0.4,0,0.6c0.2,1.7-1.1,3.2-2.7,3.3
				c-1.7,0.2-3.2-1.1-3.3-2.7C204.6,30,204.6,29.8,204.6,29.6z M209.4,29.6c0-1.4-0.6-2.2-1.7-2.2c-1.1,0-1.7,0.8-1.7,2.2
				c0,1.4,0.6,2.2,1.7,2.2C208.8,31.8,209.4,31,209.4,29.6z"/>
			<path class="st1" d="M212.4,26.4h1.2v1h0.1c0.3-0.8,1.1-1.2,1.9-1.1c1.1-0.1,2.2,0.8,2.2,1.9c0,0.2,0,0.3,0,0.5v4.2h-1.3V29
				c0.1-0.7-0.3-1.4-1-1.5c-0.1,0-0.2,0-0.4,0c-0.8,0-1.5,0.6-1.5,1.4c0,0.1,0,0.2,0,0.2v3.8h-1.3V26.4z"/>
		</g>
	</g>
</g>
</svg>
