<?xml version="1.0" encoding="utf-8"?>
<!-- Generator: Adobe Illustrator 19.1.0, SVG Export Plug-In . SVG Version: 6.00 Build 0)  -->
<svg version="1.1" id="Layer_1" xmlns="http://www.w3.org/2000/svg" xmlns:xlink="http://www.w3.org/1999/xlink" x="0px" y="0px"
	 viewBox="0 0 418 82" style="enable-background:new 0 0 418 82;" xml:space="preserve">
<style type="text/css">
	.st0{opacity:0.5;fill:url(#SVGID_1_);stroke:#FFFFFF;stroke-miterlimit:10;}
	.st1{fill:#EFEFEF;}
</style>
<g>
	
		<linearGradient id="SVGID_1_" gradientUnits="userSpaceOnUse" x1="1.0804" y1="-16341" x2="416.9196" y2="-16341" gradientTransform="matrix(1 0 0 -1 0 -16300)">
		<stop  offset="0" style="stop-color:#FFFFFF;stop-opacity:0.5"/>
		<stop  offset="1" style="stop-color:#FFFFFF;stop-opacity:0.7"/>
	</linearGradient>
	<path class="st0" d="M377,80.9H41C19,80.9,1.1,63,1.1,41v0C1.1,19,19,1.1,41,1.1h336c22,0,39.9,17.9,39.9,39.9v0
		C416.9,63,399,80.9,377,80.9z"/>
	<g>
		<path class="st1" d="M219.8,51.5h-14.4V34h14.4v4.7h-7.6v2h7.2v3.9h-7.2v2.2h7.6V51.5z M235.8,51.5h-14.4V34h14.4v4.7h-7.6v2h7.2
			v3.9h-7.2v2.2h7.6V51.5z M288.2,51.5c-1-2.7-2.4-5.5-4.2-8.7c2.2-0.6,3.5-2,3.5-4.1c0-3.2-2.9-4.7-7.6-4.7h-9.6v17.5h6.8v-7.3
			c1.5,2.6,2.6,5,3.4,7.3H288.2z M277.2,41.8v-3.1h2.4c1,0,1.6,0.5,1.6,1.5c0,1-0.6,1.5-1.6,1.5H277.2z M268.7,51.5h-14.4V34h14.4
			v4.7h-7.6v2h7.2v3.9h-7.2v2.2h7.6V51.5z M237.5,38.7h7c-2.9,2.4-5.3,5.1-7.2,8.1v4.7h15.5v-4.7h-7.7c1.8-2.6,4.3-5.2,7.7-8.1V34
			h-15.4V38.7z M186.2,34h8.8c5.4,0,9.3,3.6,9.3,8.8c0,5.1-3.8,8.8-9.3,8.8h-8.8V34z M193,46.8h1.6c1.7,0,2.6-1.1,2.6-4
			c0-2.9-0.9-4-2.6-4H193V46.8z"/>
		<path class="st1" d="M167,29.9c0.4-2.4,1-3.9,1.7-3.9h0c1.2,0,2.3,5.2,2.3,11.6c0,6.4-1,11.6-2.3,11.6c-0.5,0-1-0.9-1.4-2.4
			c-0.6,5.4-1.8,9.1-3.3,9.1c-1.1,0-2.1-2.2-2.8-5.8c-0.5,6.7-1.6,11.5-3,11.5c-0.8,0-1.6-1.9-2.2-5c-0.7,6.3-2.3,10.8-4.1,10.8
			c-1.9,0-3.4-4.4-4.1-10.8c-0.6,3.1-1.3,5-2.2,5c-1.3,0-2.5-4.8-3-11.5c-0.7,3.5-1.7,5.8-2.8,5.8c-1.4,0-2.7-3.7-3.3-9.1
			c-0.4,1.5-0.9,2.4-1.4,2.4c-1.2,0-2.3-5.2-2.3-11.6c0-6.4,1-11.6,2.3-11.6c0.7,0,1.3,1.5,1.7,3.9c0.7-4.1,1.7-6.8,3-6.8
			c1.4,0,2.7,3.8,3.3,9.3c0.6-4,1.5-6.5,2.5-6.5c1.4,0,2.6,5,3,12c0.8-3.6,2-5.8,3.3-5.8s2.5,2.2,3.3,5.8c0.4-7,1.6-12,3-12
			c1,0,1.9,2.5,2.5,6.5c0.6-5.5,1.8-9.3,3.3-9.3C165.3,23.2,166.3,25.8,167,29.9z M129.8,36.5c0-2.9,0.6-5.2,1.3-5.2
			s1.3,2.3,1.3,5.2c0,2.9-0.6,5.2-1.3,5.2S129.8,39.4,129.8,36.5z M171.6,36.5c0-2.9,0.6-5.2,1.3-5.2c0.7,0,1.3,2.3,1.3,5.2
			c0,2.9-0.6,5.2-1.3,5.2C172.2,41.7,171.6,39.4,171.6,36.5z"/>
	</g>
</g>
</svg>
