<?xml version="1.0" encoding="utf-8"?>
<!-- Generator: Adobe Illustrator 19.1.0, SVG Export Plug-In . SVG Version: 6.00 Build 0)  -->
<svg version="1.1" id="Layer_1" xmlns="http://www.w3.org/2000/svg" xmlns:xlink="http://www.w3.org/1999/xlink" x="0px" y="0px"
	 viewBox="0 0 418 82" style="enable-background:new 0 0 418 82;" xml:space="preserve">
<style type="text/css">
	.st0{opacity:0.5;fill:url(#SVGID_1_);stroke:#FFFFFF;stroke-miterlimit:10;}
	.st1{fill:#EFEFEF;}
</style>
<g>
	
		<linearGradient id="SVGID_1_" gradientUnits="userSpaceOnUse" x1="1.0804" y1="-16341" x2="416.9196" y2="-16341" gradientTransform="matrix(1 0 0 -1 0 -16300)">
		<stop  offset="0" style="stop-color:#FFFFFF;stop-opacity:0.5"/>
		<stop  offset="1" style="stop-color:#FFFFFF;stop-opacity:0.7"/>
	</linearGradient>
	<path class="st0" d="M377,80.9H41C19,80.9,1.1,63,1.1,41v0C1.1,19,19,1.1,41,1.1h336c22,0,39.9,17.9,39.9,39.9v0
		C416.9,63,399,80.9,377,80.9z"/>
	<g>
		<g>
			<g id="XMLID_153_">
				<g id="XMLID_154_">
					<path id="XMLID_169_" class="st1" d="M239.3,34c3.9,0,7,3.2,7,7s-3.2,7-7,7c-3.9,0-7-3.2-7-7S235.4,34,239.3,34 M239.3,29.3
						c-6.5,0-11.7,5.3-11.7,11.7s5.3,11.7,11.7,11.7c6.5,0,11.7-5.3,11.7-11.7S245.8,29.3,239.3,29.3L239.3,29.3z"/>
					<path id="XMLID_166_" class="st1" d="M166.5,30v1.9c-2-1.6-4.6-2.6-7.4-2.6c-6.5,0-11.7,5.3-11.7,11.7
						c0,6.5,5.3,11.7,11.7,11.7c2.8,0,5.4-1,7.4-2.6V52h4.3V30H166.5z M159.4,48.3c-4,0-7.3-3.3-7.3-7.3s3.3-7.3,7.3-7.3
						s7.3,3.3,7.3,7.3S163.4,48.3,159.4,48.3z"/>
					<path id="XMLID_163_" class="st1" d="M286,30v1.9c-2-1.6-4.6-2.6-7.4-2.6c-6.5,0-11.7,5.3-11.7,11.7c0,6.5,5.3,11.7,11.7,11.7
						c2.8,0,5.4-1,7.4-2.6V52h4.3V30H286z M278.8,48.3c-4,0-7.3-3.3-7.3-7.3s3.3-7.3,7.3-7.3c4,0,7.3,3.3,7.3,7.3
						S282.9,48.3,278.8,48.3z"/>
					<path id="XMLID_162_" class="st1" d="M258.7,31.4c-2.5,1.6-4.7,4.5-4.7,9.5V52h4.7V40.9h0c0-7.3,7.5-6.9,7.5-6.9v-4.7v0
						C266.2,29.3,262.1,29.2,258.7,31.4z"/>
					<path id="XMLID_161_" class="st1" d="M193.1,31.6c-2-1.5-4.4-2.3-7-2.3c-2.6,0-5.1,0.9-7,2.3c-2.8,2.1-4.7,5.5-4.7,9.4v11h4.7
						v-1.6V41c0-3.9,3.2-7,7-7c3.9,0,7,3.2,7,7v9.4V52h4.7V41C197.8,37.2,196,33.8,193.1,31.6z"/>
					<path id="XMLID_158_" class="st1" d="M222.3,23c-1.2,0-2.2,1-2.2,2.2v6.8c-2-1.6-4.6-2.6-7.4-2.6c-6.5,0-11.7,5.3-11.7,11.7
						c0,6.5,5.3,11.7,11.7,11.7c2.8,0,5.4-1,7.4-2.6V52h4.3V25.1V23H222.3z M212.9,48.3c-4,0-7.3-3.3-7.3-7.3c0-4,3.3-7.3,7.3-7.3
						c4,0,7.3,3.3,7.3,7.3C220.2,45,217,48.3,212.9,48.3z"/>
					<path id="XMLID_155_" class="st1" d="M132.9,29.3c-2.8,0-5.4,1-7.4,2.6V30h-4.3v26.9V59h2.2c1.2,0,2.2-1,2.2-2.2v-6.8
						c2,1.6,4.6,2.6,7.4,2.6c6.5,0,11.7-5.3,11.7-11.7C144.7,34.5,139.4,29.3,132.9,29.3z M132.7,48.3c-4,0-7.3-3.3-7.3-7.3
						c0-4,3.3-7.3,7.3-7.3c4,0,7.3,3.3,7.3,7.3C140,45,136.7,48.3,132.7,48.3z"/>
				</g>
			</g>
			<g>
				<path class="st1" d="M294.6,30c-1.2,0-2.2-1-2.2-2.2c0-1.2,1-2.2,2.2-2.2c1.2,0,2.2,1,2.2,2.2C296.8,29,295.8,30,294.6,30z
					 M294.6,25.9c-1,0-1.9,0.8-1.9,1.9c0,1,0.8,1.9,1.9,1.9c1,0,1.9-0.9,1.9-1.9C296.5,26.8,295.7,25.9,294.6,25.9z M295.2,29.1
					l-0.6-1h-0.5v1h-0.3v-2.5h1c0.4,0,0.8,0.3,0.8,0.8c0,0.6-0.5,0.7-0.6,0.7l0.7,1H295.2z M294.8,26.9h-0.7v0.9h0.7
					c0.2,0,0.4-0.2,0.4-0.5C295.3,27.1,295,26.9,294.8,26.9z"/>
			</g>
		</g>
	</g>
</g>
</svg>
