<?xml version="1.0" encoding="utf-8"?>
<!-- Generator: Adobe Illustrator 19.1.0, SVG Export Plug-In . SVG Version: 6.00 Build 0)  -->
<svg version="1.1" id="Layer_1" xmlns="http://www.w3.org/2000/svg" xmlns:xlink="http://www.w3.org/1999/xlink" x="0px" y="0px"
	 viewBox="0 0 418 82" style="enable-background:new 0 0 418 82;" xml:space="preserve">
<style type="text/css">
	.st0{opacity:0.5;fill:url(#SVGID_1_);stroke:#FFFFFF;stroke-miterlimit:10;}
	.st1{fill:#EFEFEF;}
</style>
<g>
	
		<linearGradient id="SVGID_1_" gradientUnits="userSpaceOnUse" x1="1.0804" y1="-16341" x2="416.9196" y2="-16341" gradientTransform="matrix(1 0 0 -1 0 -16300)">
		<stop  offset="0" style="stop-color:#FFFFFF;stop-opacity:0.5"/>
		<stop  offset="1" style="stop-color:#FFFFFF;stop-opacity:0.7"/>
	</linearGradient>
	<path class="st0" d="M377,80.9H41C19,80.9,1.1,63,1.1,41v0C1.1,19,19,1.1,41,1.1h336c22,0,39.9,17.9,39.9,39.9v0
		C416.9,63,399,80.9,377,80.9z"/>
	<g>
		<path class="st1" d="M174.4,41c0.1,11.6-9.5,21.2-21.5,20.9c-11.2-0.3-20.6-9.5-20.3-21.5c0.3-11.2,9.6-20.7,21.5-20.4
			C165.3,20.4,174.4,29.6,174.4,41z M147.7,31.7c-0.5,0-0.9,0.1-1.4,0.1c-1.7,0.1-3.4,0.3-5.1,0.6c-0.3,0.1-0.7,0.1-1,0.3
			c-0.9,0.5-1.3,1.5-1,2.4c0.3,0.9,1.3,1.5,2.3,1.3c2.3-0.5,4.7-0.7,7.1-0.7c1.2,0,2.5,0,3.7,0.2c2.8,0.3,5.6,0.8,8.3,1.7
			c1.9,0.6,3.8,1.4,5.7,2.4c1,0.5,2.1,0.1,2.6-0.9c0.5-1,0.2-2.1-0.8-2.7c-0.6-0.3-1.2-0.6-1.8-0.9c-3.1-1.4-6.4-2.5-9.8-3.1
			c-2.4-0.4-4.8-0.7-7.2-0.7C148.7,31.7,148.2,31.7,147.7,31.7z M148.9,39c-0.8,0-1.7,0-2.5,0.1c-1.6,0.1-3.2,0.4-4.7,0.7
			c-0.9,0.2-1.4,1-1.3,1.8c0.1,0.8,0.9,1.4,1.7,1.4c0.4,0,0.7-0.1,1.1-0.2c1.8-0.3,3.6-0.5,5.4-0.5c1.2,0,2.3,0,3.5,0.2
			c2.2,0.2,4.4,0.7,6.5,1.4c1.8,0.6,3.5,1.3,5.2,2.2c0.8,0.4,1.8,0.1,2.2-0.7c0.4-0.8,0.1-1.7-0.7-2.2c-2-1.1-4-1.9-6.1-2.6
			C155.7,39.5,152.4,39,148.9,39z M149.1,45.4c-1.1,0-2,0-2.8,0.1c-1.3,0.1-2.5,0.3-3.8,0.6c-0.7,0.2-1.2,0.8-1,1.5
			c0.2,0.7,0.8,1.1,1.5,0.9c1.9-0.4,3.7-0.7,5.7-0.7c0.9,0,1.7,0,2.6,0.1c2.1,0.2,4.2,0.7,6.2,1.4c1.4,0.5,2.7,1.1,4,1.8
			c0.2,0.1,0.4,0.2,0.6,0.2c0.6,0,1.1-0.4,1.2-1c0.1-0.5-0.1-1.1-0.6-1.4c-1.7-0.9-3.4-1.7-5.2-2.3
			C154.7,45.9,151.8,45.4,149.1,45.4z"/>
		<path class="st1" d="M271.7,45.9c0.3-0.7,0.6-1.3,0.8-2c0.8-1.9,1.6-3.7,2.3-5.6c0.3-0.6,0.5-1.2,0.8-1.8c0.1-0.2,0.2-0.3,0.4-0.3
			c1.3,0,2.5,0,3.8,0c0.3,0,0.4,0.1,0.2,0.4c-1.1,2.5-2.2,5.1-3.3,7.6c-1,2.2-2,4.5-2.9,6.7c-0.8,1.8-1.6,3.5-2.3,5.3
			c-0.1,0.2-0.2,0.3-0.4,0.3c-1.3,0-2.7,0-4,0c-0.3,0-0.4-0.1-0.2-0.4c0.8-1.9,1.7-3.7,2.5-5.6c0-0.1,0-0.2,0-0.3
			c-1-2.2-2-4.3-3-6.5c-0.6-1.3-1.2-2.5-1.8-3.8c-0.1-0.1-0.1-0.2-0.3-0.2c-1,0-2,0-3,0c-0.2,0-0.2,0.1-0.2,0.2c0,3.8,0,7.5,0,11.3
			c0,0.3,0,0.4-0.3,0.4c-1.2,0-2.4,0-3.7,0c-0.3,0-0.4,0-0.4-0.4c0-3.7,0-7.5,0-11.2c0-0.2,0-0.3-0.3-0.3c-0.8,0-1.5,0-2.3,0
			c-0.3,0-0.3,0-0.3-0.3c0-1,0-1.9,0-2.9c0-0.3,0-0.3,0.3-0.3c0.7,0,1.5,0,2.2,0c0.2,0,0.3-0.1,0.3-0.3c0-0.8-0.1-1.6,0.1-2.4
			c0.4-1.9,1.3-3.3,3.1-4c1.2-0.5,2.5-0.4,3.7-0.1c0.3,0.1,0.7,0.2,1,0.4c0.1,0.1,0.2,0.2,0.3,0.3c0.4,1.1,0.9,2.1,1.3,3.2
			c0,0.1,0.1,0.2,0,0.2c-0.1,0.1-0.2,0-0.2,0c-0.6-0.4-1.3-0.7-2-0.8c-0.8-0.1-1.6,0-2.2,0.5c-0.5,0.4-0.7,1-0.8,1.6
			c0,0.3,0,0.7,0,1.1c0,0.2,0,0.2,0.2,0.2c2,0,4,0,6,0c0.2,0,0.4,0.1,0.4,0.3c0.8,1.9,1.6,3.8,2.4,5.7
			C270.7,43.4,271.2,44.6,271.7,45.9z"/>
		<path class="st1" d="M204.7,39.4c0.4-0.7,0.9-1.3,1.4-1.8c1.1-1,2.4-1.6,3.9-1.6c1.6-0.1,3.1,0.4,4.3,1.4c1.2,1,2,2.3,2.4,3.9
			c0.6,2.2,0.5,4.3-0.4,6.4c-0.9,2-2.3,3.5-4.5,4c-2.1,0.5-4,0.1-5.7-1.3c-0.5-0.5-1-1-1.4-1.7c-0.1-0.1-0.1-0.2-0.2-0.3
			c-0.1,0.1,0,0.2,0,0.2c0,2.5,0,4.9,0,7.4c0,0.4,0,0.4-0.4,0.4c-1.2,0-2.3,0-3.5,0c-0.4,0-0.4,0-0.4-0.4c0-6.5,0-12.9,0-19.4
			c0-0.4,0-0.4,0.4-0.4c1.2,0,2.4,0,3.6,0c0.3,0,0.3,0,0.3,0.3C204.7,37.5,204.7,38.4,204.7,39.4z M212.7,43.8
			c0-0.5-0.1-1.1-0.2-1.6c-0.3-0.9-0.8-1.7-1.7-2.2c-1.5-0.8-3.3-0.4-4.6,0.9c-0.7,0.8-1.2,1.7-1.5,2.7c0,0.1,0,0.2,0,0.3
			c0.4,1.1,1,2.1,1.9,3c0.8,0.7,1.7,1.2,2.8,1.1c1,0,1.8-0.4,2.5-1.2C212.5,46,212.7,44.9,212.7,43.8z"/>
		<path class="st1" d="M183.1,46.8c0-0.7,0-1.4,0-2.1c0-0.1,0-0.2,0.1-0.3c0.1-0.1,0.2,0.1,0.3,0.1c1.8,2,4.2,3.1,6.9,3.4
			c1,0.1,1.9,0.1,2.9-0.3c1-0.4,1.4-1.3,1.4-2.3c0-0.9-0.6-1.4-1.3-1.7c-0.8-0.4-1.8-0.7-2.7-0.9c-1.4-0.4-2.7-0.7-4-1.3
			c-1-0.5-1.9-1-2.6-2c-0.6-0.8-0.8-1.7-0.9-2.7c-0.1-1.4,0.3-2.8,1.2-3.9c0.8-1.1,1.9-1.8,3.2-2.3c1.5-0.5,3-0.7,4.5-0.6
			c1.6,0.1,3.1,0.4,4.6,1.1c0.4,0.2,0.9,0.5,1.3,0.7c0.2,0.1,0.2,0.3,0.2,0.4c0,1.2,0,2.5,0,3.7c0,0.1,0,0.2-0.1,0.3
			c-0.1,0.1-0.2,0-0.4-0.1c-1.4-1.1-3-1.9-4.9-2.2c-1.2-0.2-2.5-0.1-3.6,0.3c-0.6,0.2-1.1,0.6-1.4,1.2c-0.3,0.9-0.1,1.6,0.9,2.1
			c0.8,0.3,1.6,0.6,2.4,0.8c1.4,0.4,2.9,0.8,4.2,1.4c1.1,0.5,2.1,1.1,2.8,2.1c0.7,0.8,1,1.8,1,2.9c0.1,1.1-0.1,2.2-0.6,3.2
			c-0.6,1.2-1.5,2.2-2.7,2.8c-1.2,0.7-2.5,1-3.9,1.1c-2.2,0.1-4.3-0.2-6.3-1.1c-0.8-0.4-1.6-0.8-2.2-1.5c-0.1-0.1-0.2-0.3-0.2-0.5
			C183.1,48.2,183.1,47.5,183.1,46.8z"/>
		<path class="st1" d="M226.6,35.8c1.6,0,2.9,0.3,4.2,0.9c2.1,1.1,3.5,2.8,4.1,5.1c0.6,2.7,0.1,5.2-1.7,7.3c-1.3,1.5-3,2.3-5,2.7
			c-1.6,0.2-3.1,0.2-4.6-0.4c-2.7-1-4.5-2.8-5.1-5.6c-0.5-2.3-0.2-4.4,1.1-6.4c1.1-1.7,2.6-2.7,4.5-3.2
			C224.9,35.9,225.8,35.8,226.6,35.8z M226.7,48.1c1.5,0,2.7-0.6,3.4-1.9c0.5-0.8,0.7-1.7,0.6-2.6c-0.1-1-0.3-1.8-0.9-2.6
			c-0.9-1.1-2.2-1.6-3.6-1.4c-1.2,0.1-2.2,0.7-2.9,1.8c-0.5,0.9-0.7,1.8-0.6,2.8C222.8,46.5,224.5,48.2,226.7,48.1z"/>
		<path class="st1" d="M238.1,43.3c0-1.1,0-2.3,0-3.4c0-0.2,0-0.2-0.2-0.2c-0.8,0-1.6,0-2.3,0c-0.3,0-0.3,0-0.3-0.3c0-0.5,0-1,0-1.6
			c0-0.2,0.1-0.3,0.2-0.5c2.2-1.7,4.4-3.5,6.6-5.2c0.1-0.1,0.2-0.3,0.4-0.2c0.2,0.1,0.1,0.3,0.1,0.4c0,1.2,0,2.4,0,3.5
			c0,0.2,0,0.2,0.2,0.2c1.2,0,2.3,0,3.5,0c0.3,0,0.4,0,0.4,0.3c0,1,0,1.9,0,2.9c0,0.3,0,0.3-0.3,0.3c-1.2,0-2.3,0-3.5,0
			c-0.2,0-0.2,0-0.2,0.2c0,2,0,4,0,6c0,0.6,0.1,1.2,0.6,1.7c0.4,0.4,0.8,0.5,1.3,0.6c0.7,0,1.3-0.1,1.9-0.4c0.3-0.1,0.3-0.1,0.3,0.2
			c0,0.9,0,1.8,0,2.8c0,0.2-0.1,0.3-0.2,0.4c-0.8,0.4-1.6,0.6-2.4,0.7c-1.1,0.1-2.1,0-3.1-0.4c-1.3-0.5-2.1-1.5-2.5-2.8
			c-0.2-0.7-0.3-1.5-0.3-2.3C238.1,45.3,238.1,44.3,238.1,43.3z"/>
		<path class="st1" d="M248,43.9c0-2.5,0-4.9,0-7.4c0-0.3,0-0.3,0.3-0.3c1.2,0,2.5,0,3.7,0c0.3,0,0.3,0,0.3,0.4c0,0.9,0,1.9,0,2.8
			c0,3.9,0,7.8,0,11.7c0,0.4,0,0.4-0.4,0.4c-1.2,0-2.4,0-3.6,0c-0.4,0-0.4,0-0.4-0.4C248,48.8,248,46.3,248,43.9z"/>
		<path class="st1" d="M252.8,31.7c0,1.3-0.9,2.3-2.2,2.4c-0.8,0.1-1.6-0.1-2.2-0.6c-1.1-0.9-1-2.8,0.1-3.7c1.1-0.8,2.7-0.7,3.6,0.2
			C252.6,30.4,252.8,31,252.8,31.7z"/>
		<path class="st1" d="M280.7,38.3c0-1.1,0.8-2.3,2.4-2.3c1.4,0,2.4,1,2.4,2.3c0,1.4-1,2.3-2.4,2.3
			C281.7,40.6,280.7,39.6,280.7,38.3z M285,38.3c0-1.1-0.8-1.9-1.9-1.9c-1.1,0-1.9,0.8-1.9,1.9c0,1.1,0.8,1.9,1.9,1.9
			C284.2,40.2,285,39.4,285,38.3z"/>
		<path class="st1" d="M284.2,39.3C284.2,39.3,284.2,39.3,284.2,39.3c-0.4,0.1-0.7,0-0.9-0.4c-0.1-0.1-0.2-0.3-0.3-0.4
			c-0.1-0.1-0.2-0.1-0.2-0.1c-0.1,0-0.1,0.1-0.1,0.2c0,0.2,0,0.4,0,0.5c0,0.1,0,0.2-0.1,0.2c-0.1,0-0.2,0-0.2,0
			c-0.1,0-0.1,0-0.1-0.1c0-0.6,0-1.3,0-1.9c0-0.1,0-0.1,0.1-0.1c0.4,0,0.8,0,1.3,0c0.3,0.1,0.5,0.3,0.6,0.5c0,0.3-0.1,0.5-0.4,0.7
			c-0.1,0-0.1,0.1,0,0.2C283.8,38.8,284,39,284.2,39.3z M283,37.6c-0.3,0-0.3,0-0.3,0.3c0,0,0,0.1,0,0.1c0,0,0,0.1,0.1,0.1
			c0.2,0,0.5,0,0.7-0.1c0.1,0,0.1-0.1,0.1-0.2c0-0.1,0-0.2-0.1-0.2C283.3,37.5,283.2,37.6,283,37.6z"/>
	</g>
</g>
</svg>
