<?xml version="1.0" encoding="utf-8"?>
<!-- Generator: Adobe Illustrator 19.1.0, SVG Export Plug-In . SVG Version: 6.00 Build 0)  -->
<svg version="1.1" id="Layer_1" xmlns="http://www.w3.org/2000/svg" xmlns:xlink="http://www.w3.org/1999/xlink" x="0px" y="0px"
	 viewBox="0 0 418 82" style="enable-background:new 0 0 418 82;" xml:space="preserve">
<style type="text/css">
	.st0{opacity:0.5;fill:url(#SVGID_1_);stroke:#FFFFFF;stroke-miterlimit:10;}
	.st1{fill:#EFEFEF;}
</style>
<g>
	
		<linearGradient id="SVGID_1_" gradientUnits="userSpaceOnUse" x1="1.0804" y1="-16341" x2="416.9196" y2="-16341" gradientTransform="matrix(1 0 0 -1 0 -16300)">
		<stop  offset="0" style="stop-color:#FFFFFF;stop-opacity:0.5"/>
		<stop  offset="1" style="stop-color:#FFFFFF;stop-opacity:0.7"/>
	</linearGradient>
	<path class="st0" d="M377,80.9H41C19,80.9,1.1,63,1.1,41v0C1.1,19,19,1.1,41,1.1h336c22,0,39.9,17.9,39.9,39.9v0
		C416.9,63,399,80.9,377,80.9z"/>
	<g>
		<g>
			<g>
				<path class="st1" d="M181.9,53.6h-5.1V35.5h-6.6v-4.4h18.3v4.4h-6.6V53.6z"/>
				<path class="st1" d="M208.9,53.6h-5.1V31.1h5.1V53.6z"/>
				<path class="st1" d="M299.5,49.2h8.9v4.4h-14V31.1h5.1V49.2z"/>
			</g>
			<path class="st1" d="M226,31.1h8.3c6.1,0,12.2,3.2,12.2,11.2c0,7.5-6,11.3-11.9,11.3l-8.6,0V31.1z M231,49.2h3.2
				c4.3,0,7.1-2.7,7.1-6.9c0-4-2.9-6.8-7-6.8H231V49.2z"/>
			<path class="st1" d="M275.1,53.6h5.6l-9.3-22.5h-5.3l-9.3,22.5h5.5l1.7-4.4h9.5L275.1,53.6z M265.3,45.2l3.4-8.8l3.4,8.8H265.3z"
				/>
		</g>
		<g>
			
				<rect x="124.7" y="29.8" transform="matrix(0.7071 -0.7071 0.7071 0.7071 13.5458 101.5436)" class="st1" width="9.3" height="9.3"/>
			
				<rect x="124.7" y="42.9" transform="matrix(0.7071 -0.7071 0.7071 0.7071 4.243 105.3971)" class="st1" width="9.3" height="9.3"/>
			
				<rect x="111.5" y="29.8" transform="matrix(0.7071 -0.7071 0.7071 0.7071 9.6909 92.2393)" class="st1" width="9.3" height="9.3"/>
			
				<rect x="137.8" y="29.8" transform="matrix(0.7071 -0.7071 0.7071 0.7071 17.3999 110.8478)" class="st1" width="9.3" height="9.3"/>
		</g>
	</g>
</g>
</svg>
