<?xml version="1.0" encoding="utf-8"?>
<!-- Generator: Adobe Illustrator 19.1.0, SVG Export Plug-In . SVG Version: 6.00 Build 0)  -->
<svg version="1.1" id="Layer_1" xmlns="http://www.w3.org/2000/svg" xmlns:xlink="http://www.w3.org/1999/xlink" x="0px" y="0px"
	 viewBox="0 0 418 82" style="enable-background:new 0 0 418 82;" xml:space="preserve">
<style type="text/css">
	.st0{opacity:0.5;fill:url(#SVGID_1_);stroke:#FFFFFF;stroke-miterlimit:10;}
	.st1{fill:#EFEFEF;}
</style>
<g>
	
		<linearGradient id="SVGID_1_" gradientUnits="userSpaceOnUse" x1="1.0804" y1="-16341" x2="416.9196" y2="-16341" gradientTransform="matrix(1 0 0 -1 0 -16300)">
		<stop  offset="0" style="stop-color:#FFFFFF;stop-opacity:0.5"/>
		<stop  offset="1" style="stop-color:#FFFFFF;stop-opacity:0.7"/>
	</linearGradient>
	<path class="st0" d="M377,80.9H41C19,80.9,1.1,63,1.1,41v0C1.1,19,19,1.1,41,1.1h336c22,0,39.9,17.9,39.9,39.9v0
		C416.9,63,399,80.9,377,80.9z"/>
	<g>
		<g>
			<g>
				<path class="st1" d="M203.6,54.2c-0.9-0.6-1.6-1.6-1.9-2.9c-0.4-1.3-0.6-3-0.6-5.2v-2.9c0-2.2,0.2-3.9,0.7-5.2
					c0.4-1.3,1.1-2.3,2.1-2.9c0.9-0.6,2.2-0.9,3.7-0.9c1.5,0,2.7,0.3,3.6,0.9c0.9,0.6,1.6,1.6,2,2.9c0.4,1.3,0.6,3,0.6,5.2v2.9
					c0,2.2-0.2,3.9-0.6,5.2c-0.4,1.3-1.1,2.3-2,2.9c-0.9,0.6-2.1,0.9-3.7,0.9C205.8,55.1,204.6,54.8,203.6,54.2z M208.7,51.1
					c0.3-0.7,0.4-1.7,0.4-3.2v-6.3c0-1.5-0.1-2.5-0.4-3.2c-0.3-0.7-0.7-1-1.3-1c-0.6,0-1,0.3-1.3,1c-0.3,0.7-0.4,1.7-0.4,3.2v6.3
					c0,1.5,0.1,2.6,0.4,3.2c0.2,0.7,0.7,1,1.3,1C208.1,52,208.5,51.7,208.7,51.1z"/>
				<path class="st1" d="M273.7,46.2v1c0,1.3,0,2.3,0.1,2.9c0.1,0.6,0.2,1.1,0.5,1.4c0.2,0.3,0.6,0.4,1.1,0.4c0.7,0,1.1-0.3,1.4-0.8
					c0.3-0.5,0.4-1.4,0.4-2.6l3.9,0.2c0,0.2,0,0.4,0,0.7c0,1.9-0.5,3.3-1.5,4.2c-1,0.9-2.5,1.4-4.3,1.4c-2.2,0-3.8-0.7-4.7-2.1
					c-0.9-1.4-1.4-3.6-1.4-6.5V43c0-3,0.5-5.2,1.4-6.6c0.9-1.4,2.5-2.1,4.8-2.1c1.6,0,2.8,0.3,3.6,0.9c0.8,0.6,1.4,1.5,1.8,2.7
					c0.3,1.2,0.5,2.9,0.5,5v3.5H273.7z M274.2,37.7c-0.2,0.3-0.4,0.8-0.5,1.4c-0.1,0.6-0.1,1.6-0.1,3v1.5h3.3v-1.5
					c0-1.3,0-2.3-0.1-3c-0.1-0.7-0.2-1.1-0.5-1.4c-0.2-0.3-0.6-0.4-1.1-0.4C274.8,37.3,274.5,37.4,274.2,37.7z"/>
				<path class="st1" d="M192.6,45.8l-5.2-18.7h4.5l1.8,8.5c0.5,2.1,0.8,3.9,1,5.3h0.1c0.2-1.1,0.5-2.8,1-5.3l1.9-8.5h4.5L197,45.8
					v9h-4.5V45.8z"/>
				<path class="st1" d="M228.4,34.6v20.2h-3.6l-0.4-2.5h-0.1c-1,1.9-2.4,2.8-4.4,2.8c-1.3,0-2.3-0.4-3-1.3c-0.6-0.9-1-2.3-1-4.1
					V34.6h4.6v14.8c0,0.9,0.1,1.5,0.3,1.9c0.2,0.4,0.5,0.6,1,0.6c0.4,0,0.8-0.1,1.1-0.4c0.4-0.2,0.6-0.5,0.8-0.9V34.6H228.4z"/>
				<path class="st1" d="M251.7,34.6v20.2h-3.6l-0.4-2.5h-0.1c-1,1.9-2.4,2.8-4.4,2.8c-1.3,0-2.3-0.4-3-1.3c-0.6-0.9-1-2.3-1-4.1
					V34.6h4.6v14.8c0,0.9,0.1,1.5,0.3,1.9c0.2,0.4,0.5,0.6,1,0.6c0.4,0,0.8-0.1,1.1-0.4c0.4-0.2,0.6-0.5,0.8-0.9V34.6H251.7z"/>
				<path class="st1" d="M240.8,30.8h-4.5v24h-4.5v-24h-4.5v-3.7h13.5V30.8z"/>
				<path class="st1" d="M266.8,37.8c-0.3-1.3-0.7-2.2-1.3-2.8c-0.6-0.6-1.5-0.9-2.5-0.9c-0.8,0-1.6,0.2-2.3,0.7
					c-0.7,0.5-1.3,1.1-1.7,1.9h0l0-10.7h-4.4v28.7h3.8l0.5-1.9h0.1c0.4,0.7,0.9,1.2,1.6,1.6c0.7,0.4,1.5,0.6,2.3,0.6
					c1.5,0,2.7-0.7,3.4-2.1c0.7-1.4,1.1-3.6,1.1-6.6v-3.2C267.2,40.9,267.1,39.1,266.8,37.8z M262.6,46.1c0,1.5-0.1,2.6-0.2,3.5
					c-0.1,0.8-0.3,1.4-0.6,1.8c-0.3,0.4-0.7,0.5-1.2,0.5c-0.4,0-0.7-0.1-1-0.3c-0.3-0.2-0.6-0.4-0.8-0.8V39.3c0.2-0.5,0.4-1,0.8-1.4
					c0.4-0.4,0.8-0.5,1.2-0.5c0.5,0,0.8,0.2,1.1,0.5c0.3,0.4,0.4,1,0.5,1.8c0.1,0.9,0.1,2.1,0.1,3.7V46.1z"/>
			</g>
		</g>
		<path class="st1" d="M182.2,29.6c-0.5-2-2.1-3.5-4.1-4.1c-3.6-1-18-1-18-1s-14.4,0-18,1c-2,0.5-3.5,2.1-4.1,4.1
			c-1,3.6-1,11.1-1,11.1s0,7.5,1,11.1c0.5,2,2.1,3.5,4.1,4.1c3.6,1,18,1,18,1s14.4,0,18-1c2-0.5,3.5-2.1,4.1-4.1
			c1-3.6,1-11.1,1-11.1S183.1,33.2,182.2,29.6z M156,47.6V33.7l12,6.9L156,47.6z"/>
	</g>
</g>
</svg>
