<?xml version="1.0" encoding="utf-8"?>
<!-- Generator: Adobe Illustrator 19.1.0, SVG Export Plug-In . SVG Version: 6.00 Build 0)  -->
<svg version="1.1" id="Layer_1" xmlns="http://www.w3.org/2000/svg" xmlns:xlink="http://www.w3.org/1999/xlink" x="0px" y="0px"
	 viewBox="0 0 30 30" style="enable-background:new 0 0 30 30;" xml:space="preserve">
<style type="text/css">
	.st0{fill:#FFFFFF;}
</style>
<g>
	<g>
		<path class="st0" d="M3.2,16c0-0.6,0-1.2,0-1.9c0.1,0,0,0,0-0.1c0-0.1,0-0.2,0-0.3c0.1-0.7,0.2-1.5,0.5-2.2
			C4.2,10,5.1,8.5,6.2,7.2c1-1.1,2.2-2,3.6-2.7c0.7-0.3,1.4-0.6,2.1-0.8c0.7-0.2,1.4-0.3,2.1-0.4c0,0,0.1,0,0.1,0c0.6,0,1.2,0,1.9,0
			c0,0,0,0,0.1,0c0.8,0.1,1.6,0.2,2.4,0.5c0.5,0.2,0.9,0.3,1.4,0.5c0.6,0.3,1.1,0.5,1.6,0.9c1.3,0.8,2.3,1.8,3.2,3
			c0.7,1,1.3,2.2,1.7,3.4c0.3,0.8,0.4,1.6,0.5,2.5c0,0,0,0.1,0,0.1c0,0.6,0,1.2,0,1.8c0,0,0,0,0,0c0,0.3-0.1,0.5-0.1,0.8
			c0,0.4-0.1,0.8-0.2,1.2c-0.5,2-1.5,3.7-2.8,5.2c-0.4,0.4-0.8,0.8-1.2,1.2c-1.6,1.3-3.4,2.1-5.3,2.4c0,0-0.1,0-0.1,0
			c0.1,0,0.1-0.1,0.1-0.2c0-2.7,0-5.3,0-8c0-0.2,0-0.2,0.2-0.2c0.8,0,1.5,0,2.3,0c0.1,0,0.1,0,0.1-0.1c0-0.3,0.1-0.6,0.1-0.8
			c0.1-0.8,0.2-1.5,0.4-2.3c0,0-0.1,0-0.1,0c-1,0-1.9,0-2.9,0c-0.1,0-0.1,0-0.1-0.1c0-0.7,0-1.4,0-2.2c0-0.2,0-0.3,0-0.5
			c0.1-0.5,0.4-0.9,0.9-1.1c0.3-0.1,0.5-0.1,0.8-0.1c0.5,0,1,0,1.4,0c0.1,0,0.1,0,0.1-0.1c0-0.9,0-1.9,0-2.8c0-0.1,0-0.1-0.1-0.1
			C19.8,8,19.5,8,19.1,8c-0.7-0.1-1.4-0.1-2.1,0c-0.6,0.1-1.2,0.2-1.8,0.5c-0.5,0.3-1,0.7-1.3,1.2c-0.5,0.8-0.8,1.6-0.8,2.6
			c0,0.9,0,1.8,0,2.7c0,0.1,0,0.1-0.1,0.1c-0.9,0-1.8,0-2.7,0c-0.1,0-0.1,0-0.1,0.1c0,1,0,2,0,3c0,0.1,0,0.1,0.1,0.1
			c0.9,0,1.8,0,2.7,0c0.1,0,0.2,0,0.2,0.2c0,2.7,0,5.3,0,8c0,0.1,0,0.1,0,0.2c0,0.1-0.1,0.1-0.1,0c-1-0.2-2-0.5-3-1
			c-2.6-1.3-4.5-3.2-5.7-5.8C3.7,18.7,3.4,17.4,3.2,16C3.2,16,3.3,16,3.2,16z"/>
	</g>
</g>
</svg>
