<?xml version="1.0" encoding="utf-8"?>
<!-- Generator: Adobe Illustrator 19.1.0, SVG Export Plug-In . SVG Version: 6.00 Build 0)  -->
<svg version="1.1" id="Layer_1" xmlns="http://www.w3.org/2000/svg" xmlns:xlink="http://www.w3.org/1999/xlink" x="0px" y="0px"
	 viewBox="0 0 30 30" style="enable-background:new 0 0 30 30;" xml:space="preserve">
<style type="text/css">
	.st0{fill:#FFFFFF;}
</style>
<g>
	<g>
		<path class="st0" d="M15,26.7c-2.1-0.1-4.2-0.1-6.3-0.3c-3-0.4-4.5-1.5-5-4.5c-0.7-4.5-0.7-9.1,0-13.6c0.4-2.9,1.6-4.1,4.6-4.5
			c4.5-0.6,8.9-0.6,13.4,0c3,0.4,4.2,1.6,4.6,4.6c0.6,4.5,0.6,9,0,13.4c-0.4,3.1-1.9,4.3-5.1,4.7C19.1,26.7,17.1,26.7,15,26.7z
			 M15,24.4c1.9,0,3.9,0,5.8-0.1c2.2-0.2,3.3-1.2,3.4-3.5c0.3-3.8,0.3-7.7,0-11.5C24.1,7,23,6,20.8,5.8c-3.8-0.3-7.7-0.3-11.5,0
			C7,6,5.9,7,5.8,9.3c-0.3,3.8-0.3,7.7,0,11.5C5.9,23,7,24,9.2,24.3C11.1,24.4,13.1,24.4,15,24.4z"/>
		<path class="st0" d="M15,9.2c3.2,0,5.9,2.6,5.9,5.8c0,3.2-2.6,5.9-5.8,5.8c-3.2,0-5.8-2.6-5.8-5.8C9.1,11.9,11.8,9.2,15,9.2z
			 M15,18.6c1.9,0,3.6-1.6,3.6-3.5c0-1.9-1.6-3.5-3.5-3.5c-1.9,0-3.6,1.6-3.6,3.5C11.4,16.9,13.1,18.5,15,18.6z"/>
		<path class="st0" d="M22,9.2c0,0.6-0.5,1.1-1.2,1.1c-0.7,0-1.1-0.5-1.1-1.2c0-0.6,0.5-1.2,1.2-1.1C21.5,8,22,8.6,22,9.2z"/>
	</g>
</g>
</svg>
