<?xml version="1.0" encoding="utf-8"?>
<!-- Generator: Adobe Illustrator 19.1.0, SVG Export Plug-In . SVG Version: 6.00 Build 0)  -->
<svg version="1.1" id="Layer_1" xmlns="http://www.w3.org/2000/svg" xmlns:xlink="http://www.w3.org/1999/xlink" x="0px" y="0px"
	 viewBox="0 0 30 30" style="enable-background:new 0 0 30 30;" xml:space="preserve">
<style type="text/css">
	.st0{fill:#FFFFFF;}
</style>
<path class="st0" d="M13.1,16.2c-0.5-0.2-1.1-0.2-1.6-0.1c-1.7,0.2-2.9,1.7-2.9,3.4c0,1.7,1.2,3.2,2.8,3.5c2.2,0.4,4.1-1.2,4.1-3.5
	c0-3.2,0-6.4,0-9.6c0-2.1,0-4.2,0-6.3c0-0.1,0-0.2,0-0.3c1.3,0,2.5,0,3.8,0c0.1,1.6,0.6,3,1.8,4.1c1.1,1.1,2.5,1.7,4.2,1.7
	c0,1.3,0,2.5,0,3.8c-2.2,0-4.1-0.7-5.9-2c0,0.1,0,0.2,0,0.3c0,2.7,0,5.4,0,8.1c0,3.8-2.7,6.7-6.1,7.3c-4.2,0.7-8.2-2.3-8.6-6.5
	c-0.4-3.8,2.3-7.3,6.1-7.8c0.7-0.1,1.4-0.1,2.1,0c0.1,0,0.2,0,0.2,0.2C13.2,13.6,13.2,14.9,13.1,16.2C13.2,16.1,13.1,16.1,13.1,16.2
	z"/>
</svg>
