<?xml version="1.0" encoding="utf-8"?>
<!-- Generator: Adobe Illustrator 19.1.0, SVG Export Plug-In . SVG Version: 6.00 Build 0)  -->
<svg version="1.1" id="Layer_1" xmlns="http://www.w3.org/2000/svg" xmlns:xlink="http://www.w3.org/1999/xlink" x="0px" y="0px"
	 viewBox="0 0 30 30" style="enable-background:new 0 0 30 30;" xml:space="preserve">
<style type="text/css">
	.st0{fill:#FFFFFF;}
</style>
<g>
	<g>
		<path class="st0" d="M16.4,5.2c1.9,0,5.3,0,8.6,0.4c2.1,0.3,3.2,1.4,3.5,3.5c0.4,3.9,0.6,7.9,0,11.8c-0.3,2-1.4,3.1-3.4,3.3
			c-4.3,0.5-8.6,0.5-12.9,0.4c-2.4,0-4.8-0.1-7.2-0.4c-2.3-0.4-3.3-1.4-3.6-3.7c-0.5-3.6-0.4-7.2,0-10.9c0.3-2.8,1.5-4,4.3-4.2
			C8.8,5.3,11.9,5.2,16.4,5.2z M12.2,19.1c2.4-1.4,4.7-2.7,7.1-4.1c-2.4-1.4-4.7-2.7-7.1-4.1C12.2,13.7,12.2,16.3,12.2,19.1z"/>
	</g>
</g>
</svg>
