<?xml version="1.0" encoding="utf-8"?>
<!-- Generator: Adobe Illustrator 19.1.0, SVG Export Plug-In . SVG Version: 6.00 Build 0)  -->
<svg version="1.1" id="Layer_1" xmlns="http://www.w3.org/2000/svg" xmlns:xlink="http://www.w3.org/1999/xlink" x="0px" y="0px"
	 viewBox="0 0 340.5 115" style="enable-background:new 0 0 340.5 115;" xml:space="preserve">
<style type="text/css">
	.st0{opacity:0.7;}
</style>
<g class="st0">
	<path d="M253.9,77.2c-1.1,0.8-2.3,1.5-3.3,2.4c-0.9,0.8-1.9,1.2-3.1,1.1c-1.3-0.1-1.7-0.8-1.3-2c0.4-1.5,1-2.9,1.3-4.4
		c0.2-0.7,0-1.5,0-2.2c-0.1,0-0.2-0.1-0.3-0.1c-0.6,0.5-1.3,0.9-1.8,1.4c-2,1.9-4,3.7-5.9,5.7c-1,1-2.2,1.6-3.6,1.8
		c-1.9,0.2-2.8-0.3-3.3-2.3c-0.8,0.8-1.5,1.6-2.3,2.4c-0.7,0.7-1.5,1-2.4,0.9c-1.5-0.3-2.7,0.1-4,0.9c-2.1,1.3-4.3,2.3-6.8,2.4
		c-4.3,0.2-6.7-1.2-8.6-5.5c-2.7,1.1-5.4,2.3-7.7,4.3c-2,1.7-3.9,3.6-5.8,5.5c-0.8,0.8-1.7,1.4-2.9,1.3c-1.4-0.1-2-1-1.6-2.3
		c0.5-1.5,0.9-2.9,1.5-4.6c-1.8,1.2-3.3,2.3-4.9,3.4c-1,0.7-2,1.3-3.1,1.9c-0.5,0.3-1.2,0.4-1.8,0.4c-1,0-1.5-0.6-1.5-1.6
		c0-1.1,0.2-2.2,0.4-3.5c-0.8,0.3-1.6,0.6-2.3,0.9c-3.5,1.3-6.9,2.6-10.7,2.6c-2.1,0-4-0.4-5.5-2c-2,1.4-3.9,2.8-6,4.1
		c-2.3,1.4-4.7,2.8-7.1,4c-2.2,1.1-4.5,1.5-7,1.4c-2.6-0.1-4-2.2-2.7-4.5c0.8-1.6,2-3.1,3.2-4.5c2.5-2.9,5.6-5.1,8.8-7.3
		c2.9-2,5.9-3.6,9.2-4.8c2.3-0.9,4.7-1.3,7.2-0.3c0.2,0.1,0.6-0.1,0.8-0.1c0.9-0.1,1.9-0.3,2.8-0.3c1,0,1.9,0.5,2.3,1.6
		c0.4,1.1-0.4,1.7-1.1,2.3c-1.6,1.5-3.2,3.1-4.8,4.7c-0.1,0.1-0.2,0.3-0.3,0.5c0.7,0,1.3,0.1,1.9,0c3.9-0.5,7.6-1.5,11.1-3.3
		c1-0.5,1.9-1.3,2.9-1.9c0.7-0.4,1.5-0.8,2.3-1.2c0.7-0.3,1.4-0.2,2,0.4c0.5,0.7,0.5,1.4,0.1,2.1c-0.4,0.8-0.7,1.6-1,2.5
		c-0.1,0.2-0.1,0.4-0.1,0.8c0.4-0.2,0.7-0.4,0.9-0.6c2-1.3,4.1-2.6,6.1-3.9c0.5-0.3,0.9-0.8,1.2-1.2c4.4-9.5,9.4-18.6,15-27.5
		c3.3-5.2,6.9-10.3,11-14.9c1.2-1.4,2.6-2.6,3.9-3.9c1.2-1.1,2.6-1.7,4.2-2c2.1-0.4,3.3,0.8,2.5,2.8c-1.1,2.6-2.4,5.2-4,7.7
		c-4.5,7.3-9.5,14.2-15.1,20.7c-1.2,1.4-2.4,2.7-3.6,4c-3.1,3.2-5.1,7.1-7.2,11c-1.1,2-2,4-3,6c0.1,0.1,0.1,0.1,0.2,0.2
		c0.4-0.2,0.9-0.3,1.3-0.6c2.5-1.4,4.9-2.8,7.4-4.2c0.3-0.1,0.5-0.5,0.5-0.8c0.2-0.9,0.3-1.8,0.5-2.7c0.7-3.4,3.1-5.1,6.2-5.9
		c2.1-0.6,4.3-0.8,6.4-0.1c1.9,0.6,2.5,1.8,1.6,3.6c-0.4,0.9-1,1.8-1.7,2.5c-1.8,1.9-3.8,3.8-6.1,5.1c0,0.2,0.1,0.5,0.1,0.7
		c-0.3,1.2,0.4,2.2,1.6,2.2c1,0,2.1-0.1,3-0.5c3.5-1.5,6.4-3.7,8-7.3c1-2.4,2.8-4.3,4.9-5.8c1.6-1.1,2.9-1,4.1,0.2
		c1.4-0.9,2.8-1.8,4.2-2.6c1-0.5,2.2-1.1,3-0.4c0.5,0.5,0.2,1.9,0.2,2.9c0,0.3-0.1,0.6-0.2,1.1c0.9-0.6,1.5-1.2,2.2-1.7
		c1.8-1.3,3.5-2.6,5.4-3.8c0.7-0.5,1.7-0.7,2.6-0.8c1.4-0.1,2.3,0.9,2,2.3c-0.5,2-1.2,3.9-1.9,5.9c-0.1,0.4-0.3,0.9-0.3,1.5
		c1.3-0.7,2.6-1.4,3.9-2.1c0.6-0.3,1.2-0.6,1.8-0.9c0.6-0.4,1.2-0.8,1.7-1.4c1.6-2.2,3.8-3.8,6.2-4.9c1.2-0.5,2.1-1.2,3-2.1
		c0.6-0.6,1.6-0.9,2.5-1.1c0.8-0.2,1.7-0.1,2.5,0c3.8,0.5,5.2,2.8,4.1,6.4c-0.3,1.1-0.9,2.1-1.4,3.2c1.4,0.8,2.8,0.8,4.2-0.2
		c1-0.7,2-1.5,3-2.2c0.2-0.2,0.5-0.5,0.5-0.7c-0.1-1.8,1-3.1,2.3-4.1c2.2-1.8,4.4-3.6,6.9-4.9c3.2-1.6,6.6-2.7,10-3.9
		c0.9-0.3,2-0.1,3,0.1c0.9,0.1,1.4,0.9,1.4,1.7c0,0.5-0.6,1.1-1,1.3c-2.8,1.4-5.5,2.7-8.3,4c-0.8,0.4-1.5,0.7-1.6,1.9
		c1.1-0.1,2.2-0.3,3.3-0.4c0.7-0.1,1.3-0.2,2-0.2c1.4,0,2.1,0.6,2.1,2c0,0.3,0,0.6,0,1.1c1.4-0.3,2.8-0.4,4.1-0.8
		c2.6-0.8,5.2-1.8,7.8-2.7c1-0.3,1.9-0.7,2.9-1c0.3-0.1,0.7-0.1,1-0.1c0.8,0.1,1.8,0.3,2,1.2c0.1,0.6-0.3,1.5-0.8,1.9
		c-0.7,0.7-1.6,1.1-2.5,1.5c-4.8,2.3-10,3.7-15.1,5c-1.5,0.4-2.8,1-4,2c-3.8,3.1-8.1,4.9-12.9,5.7c-0.8,0.1-1.6,0.1-2.5,0.1
		c-0.9,0-1.7-0.3-2.1-1.2c-0.4-0.9,0-1.7,0.6-2.2c1.3-1.1,2.7-2.3,4.2-3.1c1.7-0.9,3.6-1.5,5.4-2.3c1-0.5,2-1,3.1-1.5
		c0-0.1-0.1-0.2-0.1-0.3c-0.6,0-1.2,0-1.9,0c-2.5-0.1-4.6,0.4-6.4,2.6c-1.8,2.2-4.5,3.4-7.3,4.3c-1.8,0.5-3.5,0.4-5.2-0.4
		c-0.6-0.3-1-0.2-1.4,0.3c-2.1,2.3-4.6,4.1-7.5,5.2c-2.9,1.2-5.9,2.3-9.1,2.2C255.6,80.2,254.6,79.5,253.9,77.2z M164.4,78.9
		c-0.1-0.2-0.1-0.4-0.2-0.5c-0.5,0-1.1-0.1-1.6,0c-6.2,2.2-11.6,5.6-16.2,10.4c-0.3,0.3-0.6,0.8-0.8,1.2c0.1,0.1,0.1,0.2,0.2,0.3
		c1.4-0.5,2.8-0.9,4.1-1.5c4.2-2,8.3-4.3,11.9-7.2C162.8,80.7,163.6,79.7,164.4,78.9z M268.9,66c-0.8,0.8-1.6,1.6-2.4,2.3
		c-0.4,0.4-0.9,0.9-1.4,1.2c-1.7,1.1-3.4,2.3-4.5,4.1c-0.7,1.1-0.3,2,1,2.1c0.6,0.1,1.3,0,1.8-0.2c1.5-0.7,3-1.3,4.4-2.2
		c1.3-0.8,2.5-1.8,3.5-2.6C270.6,69.1,269.8,67.7,268.9,66z M274.8,66.8c0.7-1.2,0.7-2.3,0.1-2.9c-0.2-0.2-0.5-0.3-0.8-0.3
		c-0.1,0-0.4,0.3-0.4,0.5C273.9,65,274,66,274.8,66.8z M216,70.4c-1.1,0.7-2.4,1.1-2.6,2.5c0.1,0.1,0.2,0.1,0.2,0.2
		C214.4,72.2,215.2,71.3,216,70.4z"/>
	<path d="M111.8,64.5c3.6,0.3,7.5,0.5,11.4,0.9c4.3,0.5,8.4,1.5,12.2,3.7c5.3,3,7.1,8.6,4.6,14.1c-2.1,4.5-5.4,7.9-9.1,11
		c-10.3,8.8-22.4,13.8-35.6,16.4c-8.8,1.7-17.7,2.6-26.7,2.6c-3.5,0-7-0.1-10.5,0c-0.8,0-1.7,0.2-2.5,0.3c-1.2,0.2-2.3,0-3.3-0.8
		c-0.6-0.5-1.4-0.8-2.2-0.9c-2.7-0.5-5.5-0.8-8.2-1.3c-1.4-0.3-2.9-0.9-4.2-1.6c-0.9-0.4-1.1-1.4-0.6-2.3c0.5-0.8,1.1-1.6,1.8-2.1
		c1.6-1.1,3.4-1.4,5.3-1.2c3.1,0.4,6.2,0.8,9.3,1.3c0.7,0.1,1-0.1,1.4-0.6c6.1-7.9,12.2-15.8,18.4-23.7c1.9-2.5,4-4.8,6-7.2
		c0.4-0.5,0.6-1.1,1-1.7c0.3-0.5,0.5-1.1,0.9-1.4c2.4-1.7,3.9-4.2,5.9-6.4c2.7-3,5-6.3,7.1-9.7c0.8-1.4,1.5-2.8,2.2-4.3
		c0.6-1.3,1.6-2.1,3.1-2.4c1.7-0.3,2.7,0.8,2.3,2.5c-0.7,3-2.4,5.4-4.2,7.8c-2,2.7-4,5.3-5.9,8c-0.1,0.2-0.3,0.4-0.5,0.8
		c1-0.2,1.8-0.4,2.7-0.6c5.5-1.4,10.9-3,15.9-5.7c3.6-2,6.9-4.3,9.7-7.4c0.9-1,1.6-2.2,2.2-3.4c1.1-2.3,0.4-4.5-1.8-6.1
		c-1.8-1.3-3.9-1.7-6-2c-5.2-0.8-10.4-0.2-15.5,0.8c-9.5,2-18.8,4.8-27.4,9.5c-0.8,0.5-1.6,1-2.4,1.5c-0.2,0.1-0.4,0.3-0.6,0.5
		c0.1,0.2,0.1,0.3,0.2,0.5c0.6,1.4,0.4,1.6-1,2c-1.3,0.3-3.1-0.4-3.7-1.4c-0.6-1-0.4-2.4,0.8-3.5c1.2-1.1,2.4-2.2,3.9-2.8
		c4.2-2,8.4-3.8,12.8-5.5c7.6-2.9,15.5-5,23.6-6.3c4.8-0.8,9.6-1,14.4,0.1c1.8,0.4,3.6,1.1,5.2,2c4.5,2.4,5.9,7.1,3.8,11.7
		c-1.7,3.8-4.5,6.7-7.8,9.1C117.2,61.2,114.3,62.9,111.8,64.5z M61.1,105.3c0.8,0.1,1.3,0.1,1.9,0.2c9.6,0.6,19.1,0.3,28.6-1
		c6-0.8,11.9-2,17.5-4.1c7.9-3,14.6-7.8,20.8-13.3c1.7-1.5,3.2-3.2,4.1-5.3c1.2-2.8,0.6-5.1-2-6.7c-1.1-0.7-2.3-1.3-3.5-1.6
		c-3.2-0.7-6.5-1.4-9.8-1.7c-10.8-0.9-21.5,0.2-32.2,1.9c-0.7,0.1-1.5,0.4-2,0.9c-0.8,0.7-1.5,1.7-2.1,2.6
		c-5.7,7.4-11.4,14.9-17.1,22.3C64,101.2,62.6,103.2,61.1,105.3z"/>
	<path d="M175.5,2.4c2.9,0,5.7,0,8.5,0c0,12,0,23.9,0,36c-2,0-3.9,0-5.8,0c-0.3,0-0.6-0.3-0.9-0.6c-7.8-7.5-15.7-15-23.5-22.5
		c-0.3-0.2-0.5-0.5-0.9-0.8c0,8.1,0,15.9,0,23.9c-2.8,0-5.5,0-8.3,0c0-11.9,0-23.9,0-35.9c2.2,0,4.5,0,6.7,0c0.3,0,0.6,0.3,0.8,0.5
		c6.4,6.1,12.7,12.2,19.1,18.3c1.4,1.4,2.8,2.9,4.2,4.3c0.1-0.1,0.2-0.1,0.3-0.2C175.5,17.7,175.5,10.1,175.5,2.4z"/>
	<path d="M116.1,30.9c1.4-1.3,3-2.5,4.1-4c3.9-5.2,2.5-12.3-3.1-16.1c-5.2-3.6-14.1-3-18.8,1.2c-5.6,5-5,13.4,1.2,17.7
		c0.9,0.6,1.8,1.1,2.7,1.7c-2.5,0.5-5,1-7.4,1.6c-0.4,0.1-0.7,0.1-1,0.3c-1.5,0.8-2.5,0.1-3.6-0.9c-7.1-6.9-6.7-17.8,1-24.5
		c4.3-3.8,9.4-5.7,15-6.1c6.5-0.5,12.7,0.6,18,4.6c4.3,3.2,7.1,7.4,7.6,12.9c0.3,3.6-0.6,6.9-2.5,9.9c-0.8,1.3-1.9,2.5-2.9,3.7
		c-0.2,0.2-0.6,0.4-0.8,0.3C122.5,31.6,119.3,31.1,116.1,30.9z"/>
	<path d="M338.4,8.2c-2.6,1.4-5.1,2.7-7.7,4c-0.3-0.3-0.5-0.7-0.8-1c-2.5-3.4-8.4-4.2-11.7-1.6c-2,1.6-1.9,3.7,0.3,4.9
		c1.8,0.9,3.7,1.5,5.6,2c3.1,0.9,6.4,1.5,9.3,3.2c2.4,1.4,4.4,3.3,4.9,6.2c0.8,4.1-0.6,7.4-4,9.9c-2.6,1.9-5.6,2.8-8.7,3.1
		c-4.6,0.4-9.2,0.1-13.5-1.8c-2.9-1.3-5.2-3.1-7.1-5.9c2.6-1.4,5.1-2.7,7.7-4c0.2,0.3,0.4,0.5,0.6,0.7c2.9,4.1,8.4,5.8,13,4
		c0.9-0.3,1.8-1,2.4-1.8c1.3-1.8,0.6-4-1.6-5.1c-1.7-0.8-3.5-1.3-5.3-1.8c-2.6-0.8-5.3-1.4-7.9-2.4c-2.9-1.1-5.1-3.2-5.9-6.3
		c-1-3.6,0.6-7.5,3.9-9.8c2.3-1.6,4.8-2.5,7.5-2.8c4-0.6,7.9-0.5,11.8,0.8C334.1,3.7,336.4,5.6,338.4,8.2z"/>
	<path d="M277.3,2.4c8.8,0,17.6,0,26.4,0c0,2.2,0,4.3,0,6.5c-5.8,0-11.5,0-17.3,0c0,2.7,0,5.3,0,7.9c5.7,0,11.3,0,17,0
		c0,2.1,0,4.2,0,6.4c-5.6,0-11.3,0-17,0c0,2.9,0,5.6,0,8.5c5.8,0,11.5,0,17.4,0c0,2.2,0,4.3,0,6.5c-8.8,0-17.5,0-26.4,0
		C277.3,26.4,277.3,14.5,277.3,2.4z"/>
	<path d="M253.8,29.1c0.7-1.7,1.4-3.3,2.1-4.9c3.1-7.1,6.2-14.2,9.3-21.3c0.1-0.3,0.5-0.6,0.8-0.6c3.2,0,6.4,0,9.8,0
		c-0.2,0.4-0.3,0.7-0.5,1c-5.6,11.3-11.1,22.6-16.6,34c-0.4,0.8-0.8,1-1.6,1c-2.3-0.1-4.7,0-7,0c-0.6,0-0.9-0.2-1.1-0.7
		c-4-8.2-8-16.4-12-24.6c-1.6-3.2-3.2-6.4-4.7-9.6c-0.1-0.3-0.3-0.6-0.5-1c0.4,0,0.7-0.1,1-0.1c2.8,0,5.5,0,8.3-0.1
		c0.9,0,1.3,0.4,1.6,1.1c3.6,8.4,7.2,16.7,10.9,25C253.6,28.7,253.7,28.8,253.8,29.1z"/>
	<path d="M204.4,2.4c8.8,0,17.5,0,26.3,0c0,2.2,0,4.3,0,6.5c-5.7,0-11.4,0-17.2,0c0,2.7,0,5.2,0,7.9c5.6,0,11.3,0,17,0
		c0,2.2,0,4.2,0,6.4c-5.7,0-11.3,0-17,0c0,2.9,0,5.7,0,8.6c0.7,0,1.5,0,2.5,0c-0.6,0.7-1.1,1.3-1.5,1.8c-1,1.3-2.1,2.6-3.1,4
		c-0.4,0.6-0.9,0.8-1.6,0.8c-1.7,0-3.5,0-5.2,0C204.4,26.3,204.4,14.4,204.4,2.4z"/>
	<path d="M14.6,9C10.2,9,6,9,1.8,9c0-2.2,0-4.3,0-6.5c11.5,0,23.1,0,34.7,0c0,2.2,0,4.3,0,6.5c-4.2,0-8.4,0-12.7,0
		c0,9.8,0,19.6,0,29.3c-3.1,0-6.1,0-9.2,0C14.6,28.5,14.6,18.8,14.6,9z"/>
	<path d="M52.6,9c0-2.3,0-4.4,0-6.6c11.5,0,23,0,34.6,0c0,2.1,0,4.3,0,6.5c-4.2,0-8.4,0-12.8,0c0,9.8,0,19.6,0,29.4
		c-3.1,0-6.1,0-9.2,0c0-9.7,0-19.4,0-29.3C61,9,56.8,9,52.6,9z"/>
	<path d="M49,38.3c-3,0-6,0-9,0c0-11.9,0-23.9,0-35.9c3,0,5.9,0,9,0C49,14.4,49,26.3,49,38.3z"/>
	<path d="M198.6,38.3c-3,0-6,0-9,0c0-12,0-23.9,0-35.9c2.9,0,5.9,0,9,0C198.6,14.4,198.6,26.3,198.6,38.3z"/>
	<path d="M187.5,71.3c0-1.9,1.1-2.9,3-2.9c1.5,0,2.4,0.8,2.4,2c0,1.5-1.5,2.9-3.2,2.9C188.3,73.3,187.5,72.6,187.5,71.3z"/>
	<path d="M216,70.4c-0.8,0.9-1.6,1.8-2.4,2.7c-0.1-0.1-0.2-0.1-0.2-0.2C213.6,71.5,214.9,71,216,70.4z"/>
</g>
</svg>
