<?xml version="1.0" encoding="utf-8"?>
<!-- Generator: Adobe Illustrator 19.1.0, SVG Export Plug-In . SVG Version: 6.00 Build 0)  -->
<svg version="1.1" id="Layer_1" xmlns="http://www.w3.org/2000/svg" xmlns:xlink="http://www.w3.org/1999/xlink" x="0px" y="0px"
	 viewBox="0 0 70 49" style="enable-background:new 0 0 70 49;" xml:space="preserve">
<path d="M69.6,29.9c-1.2-1.8-2.6-3.5-4.1-5.1l-1-23.5c0-0.6-0.7-0.8-1.1-0.5L49.3,14.6C44.8,13,40,12.2,35,12.2
	c-4.7,0-9.3,0.8-13.6,2.2L7.3,0.8C6.9,0.4,6.2,0.6,6.2,1.2L5.3,24.1c-1.8,1.8-3.4,3.7-4.9,5.9l-0.2,0.4l0.2,0.3
	C7.9,41.8,20.8,48.4,35,48.4c14.2,0,27.1-6.6,34.6-17.8l0.2-0.4L69.6,29.9z M37,47.2c0.3-0.2,0.6-0.5,0.8-0.8
	c5.5-7.5,9.1-18.7,9.5-31.3c1.8,0.5,3.5,1.2,5.1,1.9c3.7,1.7,7.1,3.9,10.1,6.6c2.2,2,4.2,4.2,5.9,6.7C61.5,40.4,49.8,46.6,37,47.2z
	 M1.6,30.3c1.4-2.1,3.1-4,4.9-5.8c3.2-3.1,6.9-5.6,11-7.4c1.7-0.8,3.4-1.4,5.2-2c0.4,12.6,4,23.8,9.5,31.3c0.2,0.3,0.5,0.6,0.8,0.8
	C20.1,46.6,8.5,40.4,1.6,30.3z"/>
</svg>
