<?xml version="1.0" encoding="utf-8"?>
<!-- Generator: Adobe Illustrator 19.1.0, SVG Export Plug-In . SVG Version: 6.00 Build 0)  -->
<svg version="1.1" id="Layer_1" xmlns="http://www.w3.org/2000/svg" xmlns:xlink="http://www.w3.org/1999/xlink" x="0px" y="0px"
	 viewBox="0 0 38 38" style="enable-background:new 0 0 38 38;" xml:space="preserve">
<style type="text/css">
	.st0{fill:#FFFFFF;}
</style>
<g>
	<path class="st0" d="M26.4,36.1L26.4,36.1L26.4,36.1c-0.4,0.1-0.8,0.3-1.1,0.4l0,0l0,0c-0.1,0-0.2,0.1-0.3,0.1l0,0l0,0
		c-0.1,0-0.1,0-0.2,0.1c0,0-0.1,0-0.1,0c0,0-0.1,0-0.1,0l0,0l0,0c-0.1,0-0.2,0-0.2,0.1c-0.1,0-0.2,0-0.2,0.1c-0.1,0-0.2,0-0.2,0.1
		c0,0-0.1,0-0.1,0c0,0-0.1,0-0.1,0l0,0c-0.1,0-0.2,0-0.3,0.1c0,0-0.1,0-0.1,0c-0.2,0-0.4,0-0.5,0.1c-0.1,0-0.1,0-0.2,0
		c-0.1,0-0.1,0-0.2,0c0,0-0.1,0-0.1,0c-0.2,0-0.4,0.1-0.6,0.1c0,0-0.1,0-0.1,0c0.1-4.1,0.1-8.1,0.1-12.2c0-0.3,0.1-0.4,0.4-0.4
		c1.1,0,2.2,0,3.3,0.1c0.2,0,0.3,0,0.4-0.2c0.2-1.6,0.5-3.2,0.7-4.7c0-0.3,0-0.4-0.3-0.4c-1.3,0-2.7,0-4,0c-0.2,0-0.3-0.1-0.3-0.3
		c0-1.1,0-2.3,0.1-3.4c0-1.1,0.8-1.8,1.9-1.8c0.8,0,1.7,0,2.5,0c0.3,0,0.4,0,0.4-0.3c0-1.3,0-2.6,0.1-3.9c0-0.3-0.1-0.4-0.4-0.4
		c-1.5,0-3,0-4.5-0.1c-0.5,0-1,0.1-1.5,0.2c-2.2,0.7-3.7,2.7-3.8,5.2c0,1.5-0.1,2.9-0.1,4.4c0,0.3-0.1,0.4-0.4,0.3
		c-1.2,0-2.5,0-3.7-0.1c-0.3,0-0.4,0.1-0.4,0.4c0,1.6,0,3.1-0.1,4.7c0,0.3,0.1,0.3,0.3,0.3c1.2,0,2.4,0,3.7,0c0.3,0,0.4,0.1,0.4,0.4
		c-0.1,3.9-0.1,7.8-0.2,11.7c0,0.1,0,0.2,0,0.3c0,0.2-0.1,0.3-0.3,0.2c-0.7-0.2-1.4-0.4-2.1-0.5c-1.5-0.5-3-1.1-4.4-2.1
		c-5.9-3.9-8.9-9.4-8.5-16.5c0.4-7.5,4.2-12.9,11-16C17-0.2,22.5,0,27.7,2.8c5.1,2.8,8.4,7.1,9.4,12.8c1.2,6.4-0.6,12-5.2,16.7
		c-0.9,0.9-2,1.7-3.1,2.4c0,0,0,0-0.1,0l0,0c-0.1,0-0.3,0.1-0.4,0.2l0,0c0,0-0.1,0-0.1,0.1c0,0,0,0-0.1,0c0,0,0,0-0.1,0l0,0
		c-0.2,0.1-0.3,0.1-0.5,0.3l0,0c-0.1,0-0.3,0.1-0.4,0.2l0,0c-0.1,0-0.2,0.1-0.3,0.1l0,0l0,0c-0.1,0-0.2,0.1-0.3,0.1l0,0l0,0
		C26.6,35.9,26.5,36,26.4,36.1z"/>
</g>
</svg>
