<?xml version="1.0" encoding="utf-8"?>
<!-- Generator: Adobe Illustrator 19.1.0, SVG Export Plug-In . SVG Version: 6.00 Build 0)  -->
<svg version="1.1" id="Layer_1" xmlns="http://www.w3.org/2000/svg" xmlns:xlink="http://www.w3.org/1999/xlink" x="0px" y="0px"
	 viewBox="0 0 770 52" style="enable-background:new 0 0 770 52;" xml:space="preserve">
<style type="text/css">
	.st0{fill:#FFFFFF;}
</style>
<g>
	<path class="st0" d="M648.6,20.5c4,0.9,0.2,6-1.5,7.5c-1.9,1.7-4.1,2.6-6.6,2.8c-16,1.4-33.9-1.1-50,0c-1,0.1-3.3,0.3-4.2,0.5
		c-3.9,0.9-7.5,6.7-2.6,8.5c45.2,0.7,90.6,0.9,135.8-0.1c7-1.6,13.1-8.1,1.4-8.9c-16.9-1.1-34.8,1.6-51.7,0.5
		c-6.4-0.4-10-1.9-7.8-9.1c3.5-11.3,17.9-19.5,29.2-20.3c25-1,50.1-0.3,75.1-0.4c4.5,2.2-0.4,7.5-3.2,9c-1.6,0.8-4.2,1.1-6,1.2
		c-19.9,1.3-42-1.8-61.5,0c-4.1,0.4-9.2,2.4-9.8,6.9c0.5,1.1,1.4,1.9,2.6,2.1l56.8,0c16.8,2.1,0.5,20.6-6.8,24.9
		c-9.9,5.7-18.7,4.7-29.6,5c-49,1.5-98.3-0.1-147.3-0.1c-6.4-1.8-4.8-7.1-2.5-11.7c4.2-8.3,11.9-17.3,15.5-25.5
		c0.2-0.4,0.7-1.3,0.1-1.6c-3.7,1-7.4,3.1-10.9,4.9c-11.6,6-23,12.7-34.6,18.8c-4,2.7-5.7,9.9-9.6,12.2c-2.9,1.8-10,3.4-13.3,3.4
		c-14.2,0,1.3-12.2,0.1-16.4l-16.4-22.1c-1.1-1.3-3.8-2.7-5.5-2.5c-2,0.2-4.9,1.5-7.7,1.7c-19.9,1.3-41.1-1-61.1,0
		c-3.4,0.2-9,3.4-9.9,6.8c-0.2,0.6-0.3,2.1,0.4,2.1h56.4c0.5,0,2.4,1.2,2.6,1.7c-0.1,3.7-4.8,7.8-8.2,8.4
		c-17.2,1.3-36.3-1.4-53.3,0.1c-6.6,0.6-12.7,7.3-3.4,9.4l62.7,0.1c0.8,0.2,1.2,0.3,1.4,1.1c1.3,4.5-4.1,8.7-8.1,9
		c-5.3,0.5-11.7-0.1-17.1,0c-21.3,0.4-42.7-0.1-64,0c-8.3-2.3-2.7-10.6,0-15.3c4.6-8,10.1-15.6,14.7-23.5h-31.4
		c-3.9,0-7.9,3.7-10,6.7c-5.3,7.6-10.3,21.1-16.1,27.5c-3.2,3.5-15.6,7-19.6,4.3c-2.4-1.6-1.3-3.3-0.3-5.4
		c4.6-9.6,12-18.9,16.8-28.5c1.3-3.5-0.6-4.3-3.7-4.6c-18.3-1.7-39.2,1.3-57.7,0c-2.8,0.3-5.5,1.2-7.7,3c-4.6,3.7-12,19.8-15.7,25.8
		c-3.3,5.4-4.1,7.2-10.6,9.1c-2.8,0.8-13.8,3.2-14.1-1.3c-0.1-2.1,4.5-9,5.8-11.3c3.6-6.1,7.9-12,11.4-18.1c1.9-3.4,4.8-6.4-1.1-7.1
		c-8.4-1-18.7,0.5-27.4,0c-1.1-0.1-4.7-0.3-5.5-0.5c-0.7-0.2-1.9-1.7-1.9-2.3c-0.2-2.4,5.9-7.7,8.7-7.4l288.4,0
		c11.7-0.4,14.5,11.1,20.5,18.4c7,8.5,14,1.2,20.9-2.6c10.2-5.7,20.9-12.6,32.2-15.3c33.4-1.1,66.9-0.1,100.4-0.5
		c7.7,2.4-1.6,7.9-4.7,9.8c-22.1,1-44.4,0.1-66.6,0.5c-4,0.5-8.7,4.2-9.2,8.2l0.6,0.7H648.6z"/>
	<path class="st0" d="M177.5,31.7l-7.7-14.3c-4.5-4.1-14.6,3.1-18.8,5.6c-12.2,7.4-24.7,17.4-36.9,24.2c-7.9,4.4-25.7,4.6-34.6,3.3
		C70.2,49,59.1,36.2,50.5,31.5c-5.8-3.2-16.3-0.9-20.4,4.3c-3.3,4.1-4.5,10.1-9.5,12.3C17,49.7,7.3,52.1,3.8,50
		c-3.1-1.8,0.1-5.7,1.4-7.9C10.8,32,19.1,16.9,25.7,7.8c1.8-2.5,2.8-3.4,5.7-4.6C34.8,1.8,47-0.6,48.7,3.5c0.8,2-8.8,12.9-7.9,15.9
		c1.2,3.9,10.1,0.9,12.7,0.1C68,14.9,82.7,7.3,97.1,3.1c5.6-1.6,12.4-2.3,18.2-1.8c1.9,0.2,4.6,0.6,5.3,2.7l-3.3,2.7L71.5,24
		l24.6,17.9c10-5.3,19.6-11.4,29.4-17.1c10.6-6.2,22.3-13.6,33.2-19c6.9-3.4,21.1-8.3,27.1-1.5c6.2,12,14.6,24.9,19.9,37.3
		c1.8,4.1,3.4,8.1-2.9,8.8c-2.8,0.3-11.3,0.3-13.9-0.2c-4.3-0.9-3.7-5.2-6.1-8l-45.7-0.5c-1.2-0.3-2-1.2-2.2-2.4
		c-0.3-2.8,8.3-7.7,10.7-7.7H177.5z"/>
</g>
</svg>
