<?xml version="1.0" encoding="utf-8"?>
<!-- Generator: Adobe Illustrator 19.1.0, SVG Export Plug-In . SVG Version: 6.00 Build 0)  -->
<svg version="1.1" id="Layer_1" xmlns="http://www.w3.org/2000/svg" xmlns:xlink="http://www.w3.org/1999/xlink" x="0px" y="0px"
	 viewBox="0 0 317 49" style="enable-background:new 0 0 317 49;" xml:space="preserve">
<style type="text/css">
	.st0{fill:#FFFFFF;}
</style>
<g>
	<g>
		<path class="st0" d="M27.7,28L26.4,31h-2.3l5.7-13h2.2l5.7,13h-2.3L34.2,28H27.7z M30.9,20.3l-2.4,5.8h4.9L30.9,20.3z"/>
		<path class="st0" d="M50.4,31l-6.9-9.3V31h-2.2V18h2.1l6.9,9.3V18h2.1v13H50.4z M47.9,14.8c0.5,0,0.7-0.3,0.7-0.9H50
			c0,1.6-0.6,2.4-1.7,2.4c-1.1,0-1.6-1-2.2-1c-0.4,0-0.7,0.3-0.7,0.9H44c0-1.6,0.6-2.4,1.7-2.4C46.7,13.8,47.3,14.8,47.9,14.8z"/>
		<path class="st0" d="M59.7,28L58.5,31h-2.3l5.7-13h2.2l5.7,13h-2.3L66.2,28H59.7z M63,20.3l-2.4,5.8h4.9L63,20.3z M61.8,16.6
			l2-2.7l2.2,0.9l-2.3,1.8H61.8z"/>
		<path class="st0" d="M78.7,18c3.9,0,6.7,2.7,6.7,6.5c0,3.7-2.8,6.5-6.8,6.5h-5.3V18H78.7z M75.6,29h3.2c2.5,0,4.4-1.9,4.4-4.5
			c0-2.6-2-4.5-4.5-4.5h-3.1V29z"/>
		<path class="st0" d="M91.8,20v3.5h6.3v2h-6.3V29h7.3v2h-9.5V18h9.3v2H91.8z"/>
		<path class="st0" d="M111.4,29v2h-7.8V18h2.2v11H111.4z"/>
		<path class="st0" d="M117.3,28l-1.2,2.9h-2.3l5.7-13h2.2l5.7,13h-2.3l-1.2-2.9H117.3z M120.6,20.3l-2.4,5.8h4.9L120.6,20.3z"/>
		<path class="st0" d="M139.5,28l-1.2,2.9h-2.3l5.7-13h2.2l5.7,13h-2.3L146,28H139.5z M142.7,20.3l-2.4,5.8h4.9L142.7,20.3z"/>
		<path class="st0" d="M164.5,20v11h-2.2V20h-4.1v-2h10.4v2H164.5z"/>
		<path class="st0" d="M183.4,25.6c0,3.4-2.1,5.5-5.6,5.5s-5.6-2.1-5.6-5.5V18h2.2v7.6c0,2.2,1.4,3.5,3.5,3.5c2.1,0,3.4-1.3,3.4-3.5
			V18h2.2V25.6z"/>
		<path class="st0" d="M200.2,18c3.3,0,5.1,1.6,5.1,4.4c0,2.9-1.9,4.6-5.1,4.6h-3V31H195V18H200.2z M197.2,25.1h2.9
			c2,0,3.1-0.9,3.1-2.6c0-1.7-1.1-2.5-3.1-2.5h-2.9V25.1z"/>
		<path class="st0" d="M217.1,29v2h-7.8V18h2.2v11H217.1z"/>
		<path class="st0" d="M223,28l-1.2,2.9h-2.3l5.7-13h2.2l5.7,13h-2.3l-1.2-2.9H223z M226.3,20.3l-2.4,5.8h4.9L226.3,20.3z"/>
		<path class="st0" d="M241.1,31h-2.2v-4.2l-4.8-8.7h2.2l3.7,6.3l3.6-6.3h2.2l-4.8,8.7V31z"/>
		<path class="st0" d="M257.2,29v2h-7.8V18h2.2v11H257.2z"/>
		<path class="st0" d="M261.2,31V18h2.2v13H261.2z"/>
		<path class="st0" d="M277.4,19.2l-0.9,1.9c-1.4-0.9-2.8-1.2-3.8-1.2c-1.3,0-2.1,0.5-2.1,1.4c0,2.8,7,1.3,7,6c0,2.3-2,3.7-4.9,3.7
			c-2,0-4-0.8-5.3-2.1l0.9-1.9c1.3,1.2,3,1.9,4.4,1.9c1.5,0,2.4-0.6,2.4-1.6c0-2.9-7-1.3-7-5.9c0-2.2,1.9-3.6,4.7-3.6
			C274.6,17.9,276.2,18.5,277.4,19.2z"/>
		<path class="st0" d="M286.8,20v11h-2.2V20h-4.1v-2h10.4v2H286.8z"/>
	</g>
	<g>
		<path class="st0" d="M293.3,47.8H23.8c-12.8,0-23.3-10.4-23.3-23.3S10.9,1.3,23.8,1.3h269.5c12.8,0,23.3,10.4,23.3,23.3
			S306.1,47.8,293.3,47.8z M23.8,2.3c-12.3,0-22.3,10-22.3,22.3s10,22.3,22.3,22.3h269.5c12.3,0,22.3-10,22.3-22.3
			s-10-22.3-22.3-22.3H23.8z"/>
	</g>
</g>
</svg>
