<?xml version="1.0" encoding="utf-8"?>
<!-- Generator: Adobe Illustrator 19.1.0, SVG Export Plug-In . SVG Version: 6.00 Build 0)  -->
<svg version="1.1" id="Layer_1" xmlns="http://www.w3.org/2000/svg" xmlns:xlink="http://www.w3.org/1999/xlink" x="0px" y="0px"
	 viewBox="-460 262 38 38" style="enable-background:new -460 262 38 38;" xml:space="preserve">
<style type="text/css">
	.st0{fill:#FFFFFF;}
</style>
<g>
	<path class="st0" d="M-427.2,271.3c0,2.3-0.1,4.6-0.1,6.9c-2.3-0.3-4.3-1.1-6.2-2.5c0,0.3,0,0.4,0,0.6c-0.1,3.7-0.1,7.4-0.2,11.1
		c-0.2,5.9-5.2,10.5-11.1,10.1c-2.6-0.2-4.9-1.2-6.8-3c-3-2.9-3.8-6.5-2.7-10.5c1.2-3.9,3.9-6.3,7.9-7.3c1.1-0.3,2.3-0.2,3.4-0.1
		c0.1,0,0.3,0.2,0.3,0.3c0,1.8,0,3.6-0.1,5.4c0,0,0,0.1,0,0c-0.8,0-1.6-0.1-2.3,0c-3.4,0.5-5.1,4.3-3.3,7.2c1.1,1.7,3.1,2.6,5.3,2
		c2-0.5,3.4-2.4,3.5-4.4c0.1-7.3,0.2-14.7,0.3-22c0-0.7,0-0.7,0.7-0.7c1,0,1.9,0,2.9,0c0.4,0,0.6,0.1,0.7,0.6
		c0.9,3.4,3.1,5.5,6.6,6.1c0.2,0,0.3,0,0.5,0C-427.6,271.2-427.4,271.2-427.2,271.3z"/>
</g>
</svg>
