<?xml version="1.0" encoding="utf-8"?>
<!-- Generator: Adobe Illustrator 19.1.0, SVG Export Plug-In . SVG Version: 6.00 Build 0)  -->
<svg version="1.1" id="Layer_1" xmlns="http://www.w3.org/2000/svg" xmlns:xlink="http://www.w3.org/1999/xlink" x="0px" y="0px"
	 viewBox="0 0 38 38" style="enable-background:new 0 0 38 38;" xml:space="preserve">
<style type="text/css">
	.st0{fill:#FFFFFF;}
</style>
<g>
	<path class="st0" d="M19.3,5.6c4,0.2,8.1,0.4,12.2,0.7c1,0.1,2,0.3,3,0.7c1.3,0.4,2.1,1.4,2.6,2.6c0.6,1.4,0.6,2.9,0.7,4.4
		c0.1,3.4,0.2,6.8-0.1,10.2c-0.1,1.2-0.3,2.3-0.5,3.5c-0.5,2.5-1.9,3.9-4.5,4.2c-2.3,0.2-4.6,0.3-6.9,0.4c-5.9,0.2-11.8,0-17.7-0.4
		c-1.1-0.1-2.2-0.2-3.2-0.4C3.3,31.2,2,30.5,1.3,29c-0.4-0.8-0.6-1.8-0.7-2.7c-0.6-3.9-0.4-7.8-0.1-11.8c0.1-1.3,0.2-2.6,0.4-3.9
		c0.4-2.3,1.7-3.9,4.1-4.4c0.7-0.2,1.5-0.3,2.3-0.3C11.2,5.8,15.2,5.7,19.3,5.6z M15.4,13.4c-0.1,3.8-0.1,7.4-0.2,11.1
		c3.2-1.8,6.4-3.6,9.6-5.4C21.6,17.2,18.5,15.3,15.4,13.4z"/>
</g>
</svg>
