<?xml version="1.0" encoding="UTF-8" standalone="no"?>
<!DOCTYPE svg PUBLIC "-//W3C//DTD SVG 1.1//EN" "http://www.w3.org/Graphics/SVG/1.1/DTD/svg11.dtd">
<svg width="100%" height="100%" viewBox="0 0 2917 665" version="1.1" xmlns="http://www.w3.org/2000/svg" xmlns:xlink="http://www.w3.org/1999/xlink" xml:space="preserve" xmlns:serif="http://www.serif.com/" style="fill-rule:evenodd;clip-rule:evenodd;stroke-miterlimit:10;">
    <g transform="matrix(1,0,0,1,-16799,-6602)">
        <g id="Mesa-de-trabajo5" serif:id="Mesa de trabajo5" transform="matrix(0.987826,0,0,1,204.151587,-0.415502)">
            <rect x="16799.366" y="6602.416" width="2952.612" height="664.874" style="fill:none;"/>
            <g transform="matrix(8.436034,0,0,8.333333,7138.576687,-6856.388967)">
                <g transform="matrix(1,0,0,1,1454.7643,1622.974466)">
                    <path d="M0,63.949L-269.166,63.949C-286.825,63.949 -301.14,49.634 -301.14,31.975C-301.14,14.316 -286.825,0 -269.166,0L0,0C17.659,0 31.974,14.316 31.974,31.975C31.974,49.634 17.659,63.949 0,63.949Z" style="fill:none;fill-rule:nonzero;stroke:white;stroke-width:1px;"/>
                </g>
                <g transform="matrix(1,0,0,1,1307.401,1653.117166)">
                    <path d="M0,6.456L1.276,6.456C2.644,6.456 3.374,5.544 3.374,3.228C3.374,0.912 2.644,-0 1.276,-0L0,-0L0,6.456ZM-5.471,-3.793L1.568,-3.793C5.927,-3.793 9.009,-0.893 9.009,3.228C9.009,7.35 5.927,10.249 1.568,10.249L-5.471,10.249L-5.471,-3.793ZM35.597,-0L41.241,-0C38.9,1.916 36.972,4.087 35.487,6.456L35.487,10.249L47.906,10.249L47.906,6.456L41.698,6.456C43.121,4.386 45.109,2.326 47.906,-0L47.906,-3.793L35.597,-3.793L35.597,-0ZM60.598,10.249L49.037,10.249L49.037,-3.793L60.598,-3.793L60.598,-0L54.489,-0L54.489,1.623L60.234,1.623L60.234,4.724L54.489,4.724L54.489,6.456L60.598,6.456L60.598,10.249ZM67.382,2.48L67.382,-0L69.279,-0C70.081,-0 70.537,0.438 70.537,1.24C70.537,2.043 70.081,2.48 69.279,2.48L67.382,2.48ZM76.245,10.249C75.457,8.102 74.355,5.811 72.873,3.243C74.606,2.735 75.643,1.642 75.643,-0.036C75.643,-2.589 73.291,-3.793 69.571,-3.793L61.911,-3.793L61.911,10.249L67.382,10.249L67.382,4.441C68.597,6.488 69.493,8.419 70.081,10.249L76.245,10.249ZM34.283,10.249L22.722,10.249L22.722,-3.793L34.283,-3.793L34.283,-0L28.175,-0L28.175,1.623L33.919,1.623L33.919,4.724L28.175,4.724L28.175,6.456L34.283,6.456L34.283,10.249ZM21.409,10.249L9.847,10.249L9.847,-3.793L21.409,-3.793L21.409,-0L15.3,-0L15.3,1.623L21.044,1.623L21.044,4.724L15.3,4.724L15.3,6.456L21.409,6.456L21.409,10.249Z" style="fill:white;fill-rule:nonzero;"/>
                </g>
                <g transform="matrix(1,0,0,1,1290.2274,1665.518866)">
                    <path d="M0,-14.163C0,-16.458 0.459,-18.319 1.026,-18.319C1.592,-18.319 2.051,-16.458 2.051,-14.163C2.051,-11.868 1.592,-10.007 1.026,-10.007C0.459,-10.007 0,-11.868 0,-14.163M-33.51,-14.163C-33.51,-16.458 -33.051,-18.319 -32.485,-18.319C-31.919,-18.319 -31.459,-16.458 -31.459,-14.163C-31.459,-11.868 -31.919,-10.007 -32.485,-10.007C-33.051,-10.007 -33.51,-11.868 -33.51,-14.163M-3.685,-19.437C-3.356,-21.344 -2.873,-22.543 -2.338,-22.545L-2.337,-22.545C-1.34,-22.542 -0.532,-18.383 -0.532,-13.249C-0.532,-8.114 -1.341,-3.952 -2.339,-3.952C-2.749,-3.952 -3.126,-4.659 -3.43,-5.843C-3.911,-1.508 -4.908,1.472 -6.062,1.472C-6.956,1.472 -7.757,-0.318 -8.296,-3.141C-8.663,2.228 -9.588,6.038 -10.669,6.038C-11.347,6.038 -11.966,4.528 -12.423,2.07C-12.974,7.144 -14.246,10.699 -15.729,10.699C-17.213,10.699 -18.487,7.145 -19.035,2.07C-19.49,4.528 -20.108,6.038 -20.79,6.038C-21.871,6.038 -22.793,2.228 -23.163,-3.141C-23.701,-0.318 -24.501,1.472 -25.396,1.472C-26.549,1.472 -27.548,-1.507 -28.028,-5.843C-28.33,-4.655 -28.71,-3.952 -29.119,-3.952C-30.118,-3.952 -30.927,-8.114 -30.927,-13.249C-30.927,-18.383 -30.118,-22.545 -29.119,-22.545C-28.583,-22.545 -28.104,-21.343 -27.772,-19.437C-27.239,-22.725 -26.374,-24.862 -25.396,-24.862C-24.235,-24.862 -23.229,-21.84 -22.753,-17.451C-22.287,-20.645 -21.58,-22.682 -20.789,-22.682C-19.68,-22.682 -18.737,-18.676 -18.387,-13.09C-17.731,-15.954 -16.78,-17.751 -15.727,-17.751C-14.674,-17.751 -13.724,-15.953 -13.068,-13.09C-12.717,-18.676 -11.776,-22.682 -10.666,-22.682C-9.876,-22.682 -9.171,-20.645 -8.703,-17.451C-8.228,-21.84 -7.221,-24.862 -6.06,-24.862C-5.086,-24.862 -4.217,-22.724 -3.685,-19.437" style="fill:white;fill-rule:nonzero;"/>
                </g>
            </g>
        </g>
    </g>
</svg>
