<?xml version="1.0" encoding="utf-8"?>
<!-- Generator: Adobe Illustrator 19.1.0, SVG Export Plug-In . SVG Version: 6.00 Build 0)  -->
<svg version="1.1" id="Layer_1" xmlns:serif="http://www.serif.com/"
	 xmlns="http://www.w3.org/2000/svg" xmlns:xlink="http://www.w3.org/1999/xlink" x="0px" y="0px" viewBox="200 0 560 560"
	 style="enable-background:new 200 0 560 560;" xml:space="preserve">
<style type="text/css">
	.st0{fill:none;}
	.st1{fill:#FFFFFF;}
</style>
<g transform="matrix(1,0,0,1,-1723.939452,-3687)">
	<g id="Mesa-de-trabajo7" transform="matrix(0.780463,0,0,0.658036,437.471387,1260.721916)" serif:id="Mesa de trabajo7">
		<rect x="1904.6" y="3687.2" class="st0" width="717.5" height="851"/>
		<g transform="matrix(2.139607,0,0,2.537679,1665.784519,3710.424813)">
			<path class="st1" d="M254.3,173.9c-7.2-2-14.3-2.7-21.5-1.6c-22.2,3.3-39,22.5-39.5,45.2c-0.4,22.6,15.9,42.5,38,46.4
				c29.2,5.2,55.1-16.5,55.1-46.4c0.1-42.9,0.1-85.8,0.1-128.7c0-27.9,0-55.9,0-83.8V1.3h51.3c0.7,21.6,8.3,40.4,23.8,55.6
				c15.3,15.2,34.1,22.6,55.8,23v51c-29.2-0.1-55.5-9.1-79.4-26.8v3.9c0.1,36.1-0.1,72.2,0.3,108.3c0.6,50.7-36.7,90.2-82,98
				c-56,9.7-109.4-30.5-114.8-87c-4.8-50.8,31.4-97.3,81.9-105.1c9.6-1.5,19.1-1.6,28.7-0.5c1.6,0.2,2.4,0.6,2.4,2.4
				c-0.1,16.2,0,32.4-0.1,48.6C254.6,173,254.4,173.3,254.3,173.9"/>
		</g>
	</g>
</g>
</svg>
