<?xml version="1.0" encoding="utf-8"?>
<!-- Generator: Adobe Illustrator 19.1.0, SVG Export Plug-In . SVG Version: 6.00 Build 0)  -->
<svg version="1.1" id="Layer_1" xmlns:serif="http://www.serif.com/"
	 xmlns="http://www.w3.org/2000/svg" xmlns:xlink="http://www.w3.org/1999/xlink" x="0px" y="0px" viewBox="200 0 560 560"
	 style="enable-background:new 200 0 560 560;" xml:space="preserve">
<style type="text/css">
	.st0{fill:none;}
	.st1{fill:#FFFFFF;}
</style>
<g transform="matrix(1,0,0,1,-1761.876563,-3687)">
	<g id="Mesa-de-trabajo7" transform="matrix(0.780463,0,0,0.658036,475.408498,1260.721916)" serif:id="Mesa de trabajo7">
		<rect x="1904.6" y="3687.2" class="st0" width="717.5" height="851"/>
		<g transform="matrix(2.135475,0,0,2.532779,1654.581682,3731.293635)">
			<path class="st1" d="M168.2,13.6c0.4,0.6,0.7,1.1,1,1.5c36.8,52.6,73.5,105.3,110.3,157.9c26.5,37.9,53,75.8,79.5,113.7
				c0.8,1.1,1.6,1.6,3,1.6c10.9,0,21.7,0,32.5,0h7.3c-0.4-0.6-0.7-1.1-1-1.5c-37.3-53.4-74.7-106.8-112-160.3
				c-26-37.2-52-74.4-78-111.6c-0.6-0.9-1.2-1.2-2.3-1.2c-10.8,0-21.7,0-32.5,0H168.2 M263.4,185.8c-2.5,2.8-4.8,5.5-7.1,8.2
				c-11.2,13-22.3,26-33.5,38.9c-13.1,15.3-26.3,30.5-39.4,45.8c-8.2,9.6-16.4,19.1-24.7,28.6c-0.3,0.4-0.9,0.6-1.4,0.6
				c-7.3,0-14.6,0-22,0c-1.2,0-2.4-0.2-4-0.3c40.1-46.7,80.1-93.1,120.1-139.7c-40-58.3-80-116.5-120.1-174.9c0.6,0,1.1-0.1,1.5-0.1
				c29.6,0,59.2,0,88.8,0c0.9,0,1.5,0.2,2,1c25.8,37.6,51.6,75.1,77.3,112.6c0.4,0.5,0.7,1,1.2,1.7c0.7-0.7,1.4-1.3,2-2
				c7.4-8.5,14.7-17,22-25.5c12.7-14.7,25.3-29.4,37.9-44.1c12-14,24.1-28,36.1-42c1.1-1.3,2.1-1.9,3.9-1.9
				c7.5,0.1,15.1,0.1,22.6,0.1c0.5,0,1,0.1,1.9,0.1c-0.9,1.1-1.7,2-2.5,3c-18.9,22-37.7,43.9-56.6,65.9
				c-16.5,19.2-32.9,38.4-49.4,57.5c-1.6,1.8-3,3.7-4.6,5.5c-0.7,0.8-0.7,1.4-0.1,2.2c5.4,7.9,10.7,15.8,16,23.7
				c34.4,50.1,68.8,100.3,103.2,150.4c1.4,2,2.7,4,4.2,6.2c-0.5,0.1-0.9,0.1-1.2,0.1c-7.5,0.1-15.1,0.2-22.6,0.2
				c-21.9,0-43.7,0-65.6,0c-1.4,0-2.2-0.4-3-1.6c-26.6-38.7-53.2-77.4-79.8-116C265.6,189,264.6,187.5,263.4,185.8"/>
		</g>
	</g>
</g>
</svg>
