<?xml version="1.0" encoding="utf-8"?>
<!-- Generator: Adobe Illustrator 19.1.0, SVG Export Plug-In . SVG Version: 6.00 Build 0)  -->
<svg version="1.1" id="Layer_1" xmlns="http://www.w3.org/2000/svg" xmlns:xlink="http://www.w3.org/1999/xlink" x="0px" y="0px"
	 viewBox="0 0 64 64" style="enable-background:new 0 0 64 64;" xml:space="preserve">
<style type="text/css">
	.st0{fill:none;stroke:#FFFFFF;stroke-miterlimit:10;}
	.st1{fill:#FFFFFF;}
</style>
<g>
	<path class="st0" d="M32,62L32,62C15.4,62,2,48.6,2,32v0C2,15.4,15.4,2,32,2h0c16.6,0,30,13.4,30,30v0C62,48.6,48.6,62,32,62z"/>
	<path class="st1" d="M47.7,32c0,8.7-7.1,16-16.2,15.7c-8.4-0.2-15.5-7.2-15.3-16.1c0.2-8.4,7.2-15.6,16.2-15.3
		C40.9,16.5,47.7,23.4,47.7,32z M27.6,25c-0.3,0-0.7,0-1,0.1c-1.3,0.1-2.5,0.2-3.8,0.5c-0.3,0-0.5,0.1-0.7,0.2
		c-0.7,0.4-1,1.1-0.7,1.8c0.2,0.7,1,1.1,1.7,1c1.8-0.4,3.5-0.5,5.3-0.6c0.9,0,1.9,0,2.8,0.1c2.1,0.2,4.2,0.6,6.3,1.3
		c1.5,0.5,2.9,1.1,4.2,1.8c0.7,0.4,1.6,0.1,2-0.6c0.4-0.7,0.1-1.6-0.6-2c-0.4-0.2-0.9-0.5-1.4-0.7c-2.4-1.1-4.8-1.9-7.4-2.3
		c-1.8-0.3-3.6-0.5-5.4-0.5C28.4,25,28,25,27.6,25z M28.6,30.5c-0.6,0-1.3,0-1.9,0.1c-1.2,0.1-2.4,0.3-3.6,0.5
		c-0.6,0.1-1.1,0.7-1,1.4c0.1,0.6,0.6,1.1,1.3,1c0.3,0,0.5-0.1,0.8-0.1c1.3-0.3,2.7-0.4,4-0.4c0.9,0,1.8,0,2.6,0.1
		c1.7,0.2,3.3,0.5,4.9,1c1.4,0.4,2.6,1,3.9,1.7c0.6,0.3,1.3,0.1,1.6-0.5c0.3-0.6,0.1-1.3-0.5-1.6c-1.5-0.8-3-1.4-4.6-1.9
		C33.7,30.8,31.2,30.5,28.6,30.5z M28.7,35.3c-0.8,0-1.5,0-2.1,0.1c-1,0.1-1.9,0.3-2.8,0.5C23.3,36,22.9,36.5,23,37
		c0.1,0.5,0.6,0.8,1.2,0.7c1.4-0.3,2.8-0.5,4.2-0.5c0.7,0,1.3,0,2,0.1c1.6,0.1,3.1,0.5,4.6,1c1,0.4,2,0.8,3,1.4
		c0.1,0.1,0.3,0.1,0.5,0.1c0.4,0,0.8-0.3,0.9-0.7c0.1-0.4-0.1-0.8-0.5-1c-1.2-0.7-2.5-1.3-3.9-1.7C32.9,35.7,30.8,35.3,28.7,35.3z"
		/>
</g>
</svg>
