<?xml version="1.0" encoding="UTF-8" standalone="no"?>
<!DOCTYPE svg PUBLIC "-//W3C//DTD SVG 1.1//EN" "http://www.w3.org/Graphics/SVG/1.1/DTD/svg11.dtd">
<svg width="100%" height="100%" viewBox="0 0 2917 665" version="1.1" xmlns="http://www.w3.org/2000/svg" xmlns:xlink="http://www.w3.org/1999/xlink" xml:space="preserve" xmlns:serif="http://www.serif.com/" style="fill-rule:evenodd;clip-rule:evenodd;stroke-miterlimit:10;">
    <g transform="matrix(1,0,0,1,-16799,-6602)">
        <g id="Mesa-de-trabajo5" serif:id="Mesa de trabajo5" transform="matrix(0.987826,0,0,1,204.151587,-0.415502)">
            <rect x="16799.366" y="6602.416" width="2952.612" height="664.874" style="fill:none;"/>
            <g transform="matrix(8.436034,0,0,8.333333,16256.111164,-6856.388967)">
                <g transform="matrix(1,0,0,1,373.9799,1622.974466)">
                    <path d="M0,63.949L-269.166,63.949C-286.825,63.949 -301.14,49.634 -301.14,31.975C-301.14,14.316 -286.825,0 -269.166,0L0,0C17.659,0 31.974,14.316 31.974,31.975C31.974,49.634 17.659,63.949 0,63.949Z" style="fill:none;fill-rule:nonzero;stroke:white;stroke-width:1px;"/>
                </g>
                <g transform="matrix(1,0,0,1,191.4391,1651.398566)">
                    <path d="M0,7.094C-0.86,7.094 -1.567,7.13 -2.272,7.197C-3.293,7.293 -4.299,7.475 -5.299,7.7C-5.854,7.826 -6.221,8.361 -6.1,8.888C-5.971,9.447 -5.445,9.77 -4.87,9.634C-3.381,9.282 -1.872,9.09 -0.342,9.079C0.355,9.074 1.049,9.105 1.742,9.17C3.437,9.328 5.085,9.691 6.687,10.265C7.791,10.659 8.852,11.144 9.869,11.726C10.02,11.813 10.188,11.858 10.359,11.85C10.819,11.829 11.214,11.498 11.307,11.07C11.401,10.638 11.2,10.205 10.792,9.977C9.465,9.233 8.082,8.62 6.632,8.157C4.425,7.453 2.163,7.108 0,7.094M-0.167,1.912C-0.845,1.905 -1.521,1.938 -2.197,1.986C-3.476,2.078 -4.74,2.267 -5.99,2.542C-6.679,2.693 -7.112,3.32 -7.016,3.997C-6.922,4.647 -6.33,5.134 -5.65,5.087C-5.36,5.066 -5.074,4.984 -4.787,4.927C-3.371,4.649 -1.941,4.515 -0.5,4.489C0.434,4.472 1.366,4.521 2.297,4.613C4.074,4.789 5.813,5.15 7.513,5.697C8.955,6.16 10.336,6.768 11.676,7.475C12.323,7.816 13.08,7.562 13.413,6.922C13.738,6.299 13.499,5.543 12.864,5.198C11.292,4.344 9.649,3.66 7.939,3.132C5.297,2.317 2.595,1.915 -0.167,1.912M-1.186,-3.882C-1.557,-3.861 -1.928,-3.84 -2.299,-3.818C-3.662,-3.737 -5.013,-3.559 -6.354,-3.303C-6.623,-3.252 -6.896,-3.216 -7.142,-3.086C-7.861,-2.707 -8.176,-1.906 -7.91,-1.141C-7.652,-0.397 -6.892,0.043 -6.103,-0.115C-4.233,-0.492 -2.344,-0.688 -0.437,-0.711C0.557,-0.723 1.551,-0.674 2.542,-0.586C4.816,-0.382 7.038,0.075 9.208,0.781C10.77,1.288 12.273,1.935 13.735,2.681C14.5,3.071 15.438,2.757 15.833,1.993C16.236,1.213 15.956,0.271 15.188,-0.133C14.714,-0.382 14.234,-0.624 13.747,-0.847C11.226,-1.999 8.605,-2.836 5.876,-3.335C3.959,-3.686 2.028,-3.871 0.08,-3.891C-0.342,-3.895 -0.764,-3.9 -1.186,-3.882M20.227,3.539C20.27,12.8 12.622,20.561 2.988,20.306C-5.945,20.069 -13.503,12.665 -13.284,3.112C-13.078,-5.879 -5.61,-13.467 3.978,-13.204C12.942,-12.958 20.239,-5.59 20.227,3.539" style="fill:white;fill-rule:nonzero;"/>
                </g>
                <g transform="matrix(1,0,0,1,289.6485,1653.855866)">
                    <path d="M0,5.011C0.232,4.455 0.45,3.934 0.667,3.413C1.29,1.918 1.912,0.424 2.533,-1.071C2.736,-1.559 2.942,-2.047 3.138,-2.539C3.198,-2.688 3.278,-2.754 3.45,-2.752C4.454,-2.743 5.459,-2.748 6.463,-2.748C6.733,-2.748 6.768,-2.696 6.657,-2.444C5.765,-0.415 4.871,1.612 3.979,3.64C3.192,5.428 2.407,7.217 1.62,9.006C1,10.416 0.377,11.824 -0.238,13.236C-0.307,13.395 -0.406,13.458 -0.571,13.458C-1.642,13.456 -2.714,13.458 -3.786,13.455C-4.039,13.455 -4.079,13.385 -3.976,13.159C-3.3,11.674 -2.626,10.188 -1.947,8.704C-1.91,8.623 -1.915,8.563 -1.951,8.485C-2.753,6.749 -3.551,5.012 -4.35,3.275C-4.819,2.257 -5.289,1.24 -5.755,0.22C-5.801,0.118 -5.856,0.078 -5.973,0.079C-6.762,0.084 -7.552,0.086 -8.342,0.078C-8.49,0.076 -8.52,0.12 -8.52,0.26C-8.516,3.267 -8.517,6.273 -8.517,9.28C-8.517,9.544 -8.534,9.562 -8.794,9.562L-11.733,9.562C-12.01,9.562 -12.026,9.546 -12.026,9.275C-12.026,6.281 -12.027,3.286 -12.023,0.292C-12.022,0.132 -12.051,0.073 -12.228,0.077C-12.834,0.089 -13.44,0.082 -14.047,0.081C-14.266,0.081 -14.304,0.044 -14.304,-0.176C-14.305,-0.947 -14.305,-1.719 -14.304,-2.491C-14.303,-2.725 -14.278,-2.748 -14.037,-2.748C-13.437,-2.748 -12.837,-2.757 -12.237,-2.743C-12.051,-2.739 -12.02,-2.798 -12.022,-2.968C-12.026,-3.608 -12.064,-4.252 -11.933,-4.886C-11.628,-6.371 -10.887,-7.52 -9.414,-8.075C-8.425,-8.447 -7.418,-8.395 -6.413,-8.119C-6.143,-8.044 -5.882,-7.943 -5.63,-7.82C-5.518,-7.765 -5.445,-7.684 -5.399,-7.573C-5.042,-6.72 -4.686,-5.867 -4.331,-5.013C-4.304,-4.949 -4.254,-4.879 -4.337,-4.815C-4.416,-4.754 -4.476,-4.815 -4.536,-4.849C-5.03,-5.133 -5.538,-5.385 -6.109,-5.468C-6.754,-5.561 -7.362,-5.461 -7.885,-5.042C-8.287,-4.721 -8.46,-4.279 -8.496,-3.78C-8.516,-3.5 -8.503,-3.217 -8.52,-2.937C-8.529,-2.788 -8.492,-2.743 -8.334,-2.744C-6.724,-2.75 -5.113,-2.745 -3.503,-2.752C-3.317,-2.752 -3.219,-2.699 -3.145,-2.522C-2.514,-0.991 -1.873,0.535 -1.234,2.062C-0.828,3.034 -0.421,4.005 0,5.011" style="fill:white;fill-rule:nonzero;"/>
                </g>
                <g transform="matrix(1,0,0,1,242.3341,1660.932166)">
                    <path d="M0,-3.706C0.008,-4.146 -0.048,-4.58 -0.174,-5.002C-0.402,-5.761 -0.818,-6.383 -1.537,-6.756C-2.711,-7.367 -4.189,-7.096 -5.222,-6.008C-5.806,-5.393 -6.193,-4.661 -6.449,-3.856C-6.479,-3.763 -6.481,-3.686 -6.449,-3.593C-6.134,-2.685 -5.658,-1.877 -4.95,-1.222C-4.321,-0.641 -3.599,-0.266 -2.711,-0.308C-1.908,-0.345 -1.241,-0.658 -0.736,-1.293C-0.173,-1.999 -0.006,-2.83 0,-3.706M-6.417,-7.304C-6.073,-7.826 -5.712,-8.322 -5.261,-8.749C-4.382,-9.581 -3.337,-10.009 -2.126,-10.047C-0.835,-10.087 0.321,-9.722 1.32,-8.905C2.317,-8.09 2.937,-7.023 3.256,-5.789C3.705,-4.052 3.64,-2.331 2.935,-0.667C2.249,0.953 1.107,2.113 -0.638,2.542C-2.304,2.95 -3.846,2.662 -5.17,1.507C-5.605,1.128 -5.958,0.676 -6.255,0.18C-6.298,0.108 -6.343,0.037 -6.391,-0.042C-6.438,0.024 -6.416,0.086 -6.416,0.143C-6.417,2.114 -6.417,4.086 -6.417,6.057C-6.417,6.352 -6.445,6.38 -6.742,6.38C-7.679,6.381 -8.616,6.381 -9.553,6.38C-9.858,6.38 -9.889,6.349 -9.889,6.046L-9.889,-9.512C-9.889,-9.809 -9.874,-9.824 -9.58,-9.824L-6.678,-9.824C-6.444,-9.824 -6.417,-9.798 -6.417,-9.559L-6.417,-7.304" style="fill:white;fill-rule:nonzero;"/>
                </g>
                <g transform="matrix(1,0,0,1,218.6102,1650.205266)">
                    <path d="M0,9.405C0,8.848 -0.001,8.29 0.001,7.733C0.001,7.651 -0.027,7.55 0.076,7.508C0.177,7.467 0.234,7.552 0.289,7.614C1.766,9.254 3.639,10.115 5.801,10.374C6.579,10.467 7.362,10.417 8.107,10.123C8.921,9.802 9.239,9.117 9.196,8.265C9.161,7.563 8.713,7.176 8.144,6.885C7.469,6.539 6.74,6.341 6.014,6.136C4.917,5.827 3.811,5.546 2.771,5.068C1.97,4.7 1.239,4.238 0.714,3.503C0.252,2.856 0.057,2.123 0.003,1.345C-0.078,0.188 0.207,-0.864 0.932,-1.786C1.612,-2.65 2.494,-3.224 3.513,-3.6C4.681,-4.032 5.891,-4.162 7.13,-4.097C8.403,-4.029 9.624,-3.748 10.786,-3.218C11.141,-3.056 11.474,-2.853 11.794,-2.628C11.917,-2.542 11.939,-2.418 11.94,-2.292C11.944,-1.293 11.943,-0.295 11.94,0.703C11.939,0.789 11.944,0.896 11.841,0.942C11.732,0.99 11.641,0.941 11.556,0.872C10.409,-0.046 9.119,-0.646 7.662,-0.861C6.67,-1.007 5.688,-0.977 4.747,-0.584C4.269,-0.384 3.851,-0.089 3.652,0.411C3.372,1.113 3.584,1.697 4.394,2.061C5.007,2.337 5.651,2.522 6.292,2.716C7.428,3.06 8.581,3.354 9.661,3.862C10.518,4.266 11.31,4.76 11.904,5.521C12.428,6.192 12.675,6.963 12.733,7.805C12.796,8.699 12.666,9.558 12.287,10.373C11.827,11.365 11.093,12.101 10.147,12.63C9.172,13.176 8.116,13.437 7.004,13.488C5.261,13.567 3.577,13.297 1.968,12.608C1.303,12.324 0.689,11.957 0.168,11.445C0.052,11.331 -0.005,11.207 -0.003,11.04C0.005,10.495 0,9.95 0,9.405" style="fill:white;fill-rule:nonzero;"/>
                </g>
                <g transform="matrix(1,0,0,1,253.5697,1653.947666)">
                    <path d="M0,6.718C1.191,6.695 2.132,6.212 2.755,5.181C3.14,4.544 3.279,3.841 3.239,3.098C3.197,2.333 2.973,1.634 2.478,1.045C1.724,0.147 0.739,-0.199 -0.413,-0.071C-1.414,0.041 -2.197,0.527 -2.733,1.379C-3.161,2.061 -3.307,2.815 -3.25,3.617C-3.122,5.412 -1.785,6.734 0,6.718M-0.095,-3.136C1.158,-3.144 2.268,-2.92 3.3,-2.389C5,-1.515 6.126,-0.156 6.563,1.709C7.068,3.865 6.658,5.843 5.195,7.542C4.15,8.755 2.788,9.423 1.218,9.669C-0.031,9.865 -1.269,9.794 -2.464,9.369C-4.627,8.602 -6.046,7.112 -6.589,4.873C-7.028,3.057 -6.763,1.317 -5.732,-0.262C-4.868,-1.587 -3.634,-2.427 -2.117,-2.859C-1.425,-3.056 -0.72,-3.147 -0.095,-3.136" style="fill:white;fill-rule:nonzero;"/>
                </g>
                <g transform="matrix(1,0,0,1,262.7041,1654.477066)">
                    <path d="M0,2.349C0,1.443 -0.003,0.537 0.003,-0.37C0.004,-0.506 -0.029,-0.545 -0.169,-0.543C-0.793,-0.535 -1.418,-0.539 -2.042,-0.54C-2.293,-0.54 -2.315,-0.563 -2.315,-0.812C-2.315,-1.228 -2.308,-1.645 -2.318,-2.061C-2.322,-2.224 -2.269,-2.33 -2.139,-2.431C-0.379,-3.811 1.375,-5.197 3.134,-6.578C3.228,-6.652 3.318,-6.808 3.457,-6.735C3.589,-6.665 3.525,-6.501 3.525,-6.379C3.529,-5.436 3.53,-4.493 3.524,-3.55C3.524,-3.411 3.553,-3.364 3.704,-3.365C4.634,-3.373 5.565,-3.369 6.496,-3.369C6.764,-3.369 6.779,-3.354 6.779,-3.095C6.779,-2.329 6.78,-1.564 6.779,-0.798C6.779,-0.569 6.75,-0.54 6.513,-0.54C5.582,-0.539 4.651,-0.536 3.72,-0.543C3.574,-0.544 3.523,-0.516 3.524,-0.357C3.53,1.235 3.523,2.827 3.531,4.419C3.533,4.909 3.634,5.375 3.986,5.752C4.276,6.064 4.647,6.182 5.054,6.2C5.587,6.225 6.098,6.126 6.575,5.874C6.782,5.765 6.816,5.789 6.816,6.021C6.816,6.756 6.81,7.491 6.821,8.226C6.823,8.392 6.766,8.482 6.624,8.552C6.022,8.852 5.382,9.015 4.717,9.078C3.869,9.157 3.035,9.107 2.236,8.779C1.215,8.36 0.571,7.599 0.241,6.56C0.055,5.974 -0.002,5.369 -0.001,4.755C0.002,3.953 0,3.151 0,2.349" style="fill:white;fill-rule:nonzero;"/>
                </g>
                <g transform="matrix(1,0,0,1,270.6594,1657.261566)">
                    <path d="M0,5.843L0,-5.894C0,-6.133 0.02,-6.154 0.262,-6.154L3.256,-6.154C3.492,-6.154 3.527,-6.119 3.527,-5.873C3.528,-5.113 3.528,-4.354 3.528,-3.595C3.528,-0.46 3.528,2.675 3.527,5.81C3.527,6.137 3.509,6.156 3.189,6.156L0.305,6.156C0.011,6.156 0,6.144 0,5.843Z" style="fill:white;fill-rule:nonzero;"/>
                </g>
                <g transform="matrix(1,0,0,1,274.4809,1647.283466)">
                    <path d="M0,0.181C0,1.197 -0.72,2.003 -1.735,2.115C-2.391,2.187 -2.992,2.064 -3.508,1.614C-4.378,0.856 -4.337,-0.632 -3.418,-1.349C-2.574,-2.006 -1.243,-1.917 -0.503,-1.154C-0.172,-0.812 0,-0.356 0,0.181" style="fill:white;fill-rule:nonzero;"/>
                </g>
                <g transform="matrix(1,0,0,1,300.2758,1652.758066)">
                    <path d="M0,0.049C0,-0.846 -0.637,-1.485 -1.531,-1.485C-2.419,-1.485 -3.067,-0.848 -3.068,0.024C-3.069,0.908 -2.43,1.546 -1.544,1.547C-0.642,1.547 0,0.924 0,0.049M-3.417,0.016C-3.456,-0.886 -2.789,-1.827 -1.528,-1.829C-0.382,-1.83 0.368,-1.019 0.367,0.038C0.367,1.119 -0.434,1.879 -1.572,1.878C-2.648,1.876 -3.467,1.041 -3.417,0.016" style="fill:white;fill-rule:nonzero;"/>
                </g>
                <g transform="matrix(1,0,0,1,298.7022,1653.293066)">
                    <path d="M0,-1.101C-0.268,-1.101 -0.268,-1.101 -0.264,-0.832C-0.263,-0.808 -0.263,-0.783 -0.264,-0.759C-0.264,-0.725 -0.255,-0.697 -0.215,-0.698C-0.034,-0.706 0.152,-0.666 0.328,-0.743C0.394,-0.772 0.44,-0.815 0.439,-0.894C0.438,-0.976 0.402,-1.031 0.325,-1.065C0.22,-1.111 0.11,-1.1 0,-1.101M0.958,0.288C0.931,0.305 0.927,0.31 0.921,0.311C0.616,0.36 0.363,0.303 0.212,-0.007C0.157,-0.12 0.058,-0.211 -0.015,-0.315C-0.07,-0.393 -0.147,-0.369 -0.215,-0.363C-0.301,-0.356 -0.26,-0.278 -0.261,-0.233C-0.267,-0.093 -0.268,0.048 -0.262,0.188C-0.258,0.279 -0.277,0.328 -0.381,0.315C-0.441,0.308 -0.503,0.31 -0.564,0.315C-0.642,0.321 -0.67,0.293 -0.669,0.212C-0.666,-0.302 -0.668,-0.815 -0.668,-1.329C-0.668,-1.386 -0.674,-1.437 -0.587,-1.433C-0.252,-1.418 0.084,-1.461 0.418,-1.397C0.676,-1.347 0.85,-1.196 0.875,-0.992C0.908,-0.724 0.806,-0.554 0.523,-0.449C0.427,-0.414 0.425,-0.39 0.483,-0.318C0.643,-0.12 0.798,0.083 0.958,0.288" style="fill:white;fill-rule:nonzero;"/>
                </g>
            </g>
        </g>
    </g>
</svg>
