<?xml version="1.0" encoding="utf-8"?>
<!-- Generator: Adobe Illustrator 19.1.0, SVG Export Plug-In . SVG Version: 6.00 Build 0)  -->
<svg version="1.1" id="Layer_1" xmlns="http://www.w3.org/2000/svg" xmlns:xlink="http://www.w3.org/1999/xlink" x="0px" y="0px"
	 viewBox="0 0 64 64" style="enable-background:new 0 0 64 64;" xml:space="preserve">
<style type="text/css">
	.st0{fill:none;stroke:#FFFFFF;stroke-miterlimit:10;}
	.st1{fill:#FFFFFF;}
</style>
<g>
	<path class="st0" d="M32,62L32,62C15.4,62,2,48.6,2,32v0C2,15.4,15.4,2,32,2h0c16.6,0,30,13.4,30,30v0C62,48.6,48.6,62,32,62z"/>
	<path class="st1" d="M33.6,20.9c2.2,0,6,0,9.8,0.5c2.4,0.3,3.7,1.6,3.9,4c0.5,4.4,0.7,8.9,0,13.4c-0.4,2.3-1.5,3.5-3.8,3.8
		c-4.8,0.6-9.7,0.6-14.6,0.5c-2.7-0.1-5.4-0.1-8.1-0.5c-2.6-0.4-3.7-1.6-4.1-4.2c-0.6-4.1-0.4-8.2,0-12.3c0.3-3.2,1.7-4.5,4.9-4.8
		C25,21,28.5,20.9,33.6,20.9 M28.9,36.6c2.7-1.6,5.3-3.1,8-4.7c-2.8-1.6-5.3-3.1-8-4.6V36.6z"/>
</g>
</svg>
