<?xml version="1.0" encoding="utf-8"?>
<!-- Generator: Adobe Illustrator 19.1.0, SVG Export Plug-In . SVG Version: 6.00 Build 0)  -->
<svg version="1.1" id="Layer_1" xmlns="http://www.w3.org/2000/svg" xmlns:xlink="http://www.w3.org/1999/xlink" x="0px" y="0px"
	 viewBox="0 0 252 62" style="enable-background:new 0 0 252 62;" xml:space="preserve">
<style type="text/css">
	.st0{fill:#2A35FF;}
	.st1{fill:#FFFFFF;}
</style>
<g>
	<path class="st0" d="M221,60.7H31C14.6,60.7,1.3,47.4,1.3,31v0C1.3,14.6,14.6,1.3,31,1.3h190c16.4,0,29.7,13.3,29.7,29.7v0
		C250.7,47.4,237.4,60.7,221,60.7z"/>
	<g>
		<path class="st1" d="M39.2,33.7l-1.5,3.4H36l6.1-13.5h1.6l6.1,13.5h-1.7l-1.5-3.4H39.2z M42.8,25.3l-3,6.9h6.1L42.8,25.3z"/>
		<path class="st1" d="M57,23.5c3.3,0,5.3,1.7,5.3,4.5c0,3-1.9,4.7-5.3,4.7h-3.5v4.3h-1.5V23.5H57z M53.4,31.3h3.5
			c2.4,0,3.9-1.1,3.9-3.2c0-2.1-1.4-3.1-3.9-3.1h-3.5V31.3z"/>
		<path class="st1" d="M69.9,23.5c3.3,0,5.3,1.7,5.3,4.5c0,3-1.9,4.7-5.3,4.7h-3.5v4.3h-1.5V23.5H69.9z M66.4,31.3h3.5
			c2.4,0,3.9-1.1,3.9-3.2c0-2.1-1.4-3.1-3.9-3.1h-3.5V31.3z"/>
		<path class="st1" d="M85.3,35.6v1.5h-7.5V23.5h1.5v12.1H85.3z"/>
		<path class="st1" d="M89.3,25v4.5h6.8V31h-6.8v4.6h7.9v1.5h-9.4V23.5H97V25H89.3z"/>
		<path class="st1" d="M118,37.1l0-11.2l-4.9,9.7h-0.9l-4.9-9.7v11.2h-1.5V23.5h1.9l5,9.8l4.9-9.8h1.9v13.5H118z"/>
		<path class="st1" d="M134.6,31.5c0,3.5-2.1,5.7-5.7,5.7c-3.6,0-5.7-2.1-5.7-5.7v-8h1.5v8c0,2.6,1.6,4.2,4.2,4.2
			c2.6,0,4.1-1.5,4.1-4.2v-8h1.5V31.5z"/>
		<path class="st1" d="M146.7,24.7l-0.7,1.5c-1.2-0.8-2.7-1.1-3.7-1.1c-1.7,0-2.9,0.7-2.9,1.8c0,3.5,7.6,1.7,7.6,6.6
			c0,2.3-2,3.7-4.9,3.7c-2,0-3.9-0.9-5.2-2.1l0.7-1.4c1.3,1.2,3,1.9,4.5,1.9c2,0,3.2-0.8,3.2-2.1c0-3.6-7.6-1.7-7.6-6.5
			c0-2.1,1.9-3.5,4.7-3.5C144,23.5,145.6,24,146.7,24.7z"/>
		<path class="st1" d="M150.2,37.1V23.5h1.5v13.5H150.2z"/>
		<path class="st1" d="M166.6,25.5l-0.9,1.2c-1-1.1-2.5-1.7-4-1.7c-3.1,0-5.5,2.4-5.5,5.3c0,3,2.5,5.3,5.5,5.3c1.5,0,2.9-0.6,4-1.6
			l0.9,1.1c-1.3,1.3-3.2,2.1-5,2.1c-3.9,0-7-3-7-6.9c0-3.8,3.1-6.8,7.1-6.8C163.5,23.5,165.3,24.3,166.6,25.5z"/>
	</g>
	<path id="_Compound_Path_11_10_" class="st1" d="M236.2,17.9c-0.9-2.1-2.6-3.6-4.8-4.3c-1.4-0.4-2.9-0.5-4.3-0.5h-16
		c-1.4-0.1-2.9,0.1-4.3,0.5c-2.2,0.6-3.9,2.2-4.8,4.3c-0.5,1.6-0.8,3.3-0.7,5v16c-0.1,1.7,0.2,3.4,0.7,5c0.9,2.1,2.6,3.6,4.8,4.3
		c1.4,0.4,2.9,0.5,4.3,0.5h16c1.4,0.1,2.9-0.1,4.3-0.5c2.2-0.6,3.9-2.2,4.8-4.3c0.5-1.6,0.8-3.3,0.7-5V23
		C237,21.3,236.8,19.6,236.2,17.9z M227.3,37.7c-0.1,0.4-0.3,0.9-0.5,1.2c-0.3,0.4-0.6,0.7-1,0.9c-0.4,0.2-0.8,0.4-1.2,0.4
		c-0.6,0.2-1.3,0.2-1.9,0.1c-0.5-0.1-0.9-0.3-1.3-0.7c-1.1-1-1.2-2.8-0.2-3.9c0,0,0,0,0.1-0.1c0.3-0.3,0.7-0.6,1.2-0.7
		c0.6-0.2,1.3-0.4,2-0.5c0.2,0,0.5-0.1,0.7-0.1c0.3,0,0.6-0.2,0.8-0.4c0.2-0.3,0.3-0.6,0.2-0.9l0-7.8c0-0.6-0.3-0.8-0.8-0.7
		c-0.4,0.1-9.2,1.9-9.2,1.9c-0.4,0-0.7,0.4-0.7,0.8c0,0,0,0.1,0,0.1l0,11.5c0,0.4,0,0.9-0.1,1.3c-0.1,0.4-0.3,0.9-0.5,1.2
		c-0.3,0.4-0.6,0.7-1,0.9c-0.4,0.2-0.8,0.4-1.2,0.5c-0.6,0.2-1.3,0.2-1.9,0.1c-0.5-0.1-0.9-0.3-1.3-0.7c-1.1-1.1-1.2-2.8-0.1-4
		c0.3-0.3,0.7-0.6,1.2-0.7c0.6-0.2,1.3-0.4,2-0.5c0.2,0,0.5-0.1,0.7-0.1c0.3,0,0.6-0.2,0.8-0.4c0.2-0.3,0.3-0.6,0.2-0.9V22.3
		c0-0.1,0-0.2,0-0.4c0-0.3,0.2-0.5,0.4-0.7c0.2-0.2,0.4-0.3,0.7-0.3l0,0l10.6-2.1c0.1,0,0.9-0.2,0.9-0.2c0.4-0.1,0.8,0.3,0.9,0.7
		c0,0.1,0,0.2,0,0.2l0,16.8C227.4,36.8,227.4,37.3,227.3,37.7L227.3,37.7z"/>
</g>
</svg>
