<?xml version="1.0" encoding="utf-8"?>
<!-- Generator: Adobe Illustrator 19.1.0, SVG Export Plug-In . SVG Version: 6.00 Build 0)  -->
<svg version="1.1" id="Layer_1" xmlns="http://www.w3.org/2000/svg" xmlns:xlink="http://www.w3.org/1999/xlink" x="0px" y="0px"
	 viewBox="0 0 252 62" style="enable-background:new 0 0 252 62;" xml:space="preserve">
<style type="text/css">
	.st0{fill:#2A35FF;}
	.st1{fill:#FFFFFF;}
</style>
<g>
	<path class="st0" d="M221,60.7H31C14.6,60.7,1.3,47.4,1.3,31v0C1.3,14.6,14.6,1.3,31,1.3h190c16.4,0,29.7,13.3,29.7,29.7v0
		C250.7,47.4,237.4,60.7,221,60.7z"/>
	<g>
		<path class="st1" d="M72.9,24.7l-0.7,1.5C71,25.4,69.6,25,68.5,25c-1.7,0-2.9,0.7-2.9,1.8c0,3.5,7.6,1.7,7.6,6.6
			c0,2.3-2,3.7-4.9,3.7c-2,0-3.9-0.9-5.2-2.1l0.7-1.4c1.3,1.2,3,1.9,4.5,1.9c2,0,3.2-0.8,3.2-2.1c0-3.6-7.6-1.7-7.6-6.5
			c0-2.1,1.9-3.5,4.7-3.5C70.2,23.5,71.8,24,72.9,24.7z"/>
		<path class="st1" d="M81.5,23.5c3.3,0,5.3,1.7,5.3,4.5c0,3-1.9,4.7-5.3,4.7H78v4.3h-1.5V23.5H81.5z M78,31.3h3.5
			c2.4,0,3.9-1.1,3.9-3.2c0-2.1-1.4-3.1-3.9-3.1H78V31.3z"/>
		<path class="st1" d="M102.3,30.3c0,3.8-3.1,6.9-7.1,6.9c-4,0-7.1-3-7.1-6.9c0-3.8,3.1-6.8,7.1-6.8
			C99.2,23.5,102.3,26.5,102.3,30.3z M89.7,30.3c0,3,2.5,5.4,5.5,5.4c3,0,5.5-2.4,5.5-5.4c0-3-2.5-5.3-5.5-5.3
			C92.2,25,89.7,27.3,89.7,30.3z"/>
		<path class="st1" d="M109.1,25v12.1h-1.5V25h-4.4v-1.5h10.4V25H109.1z"/>
		<path class="st1" d="M115.7,37.1V23.5h1.5v13.5H115.7z"/>
		<path class="st1" d="M122.9,25v4.8h6.3v1.5h-6.3v5.8h-1.5V23.5h8.6V25H122.9z"/>
		<path class="st1" d="M137.1,37.1h-1.5v-4.6l-5.2-9h1.6l4.4,7.1l4.3-7.1h1.6l-5.1,8.9V37.1z"/>
	</g>
	<path class="st1" d="M239.8,31c0,9.8-8.1,18.1-18.3,17.8c-9.5-0.3-17.5-8.1-17.3-18.3c0.2-9.6,8.2-17.6,18.4-17.3
		C232,13.4,239.8,21.3,239.8,31z M217,23.1c-0.4,0-0.8,0-1.2,0.1c-1.4,0.1-2.9,0.3-4.3,0.5c-0.3,0.1-0.6,0.1-0.8,0.2
		c-0.8,0.4-1.1,1.3-0.8,2.1c0.3,0.8,1.1,1.3,1.9,1.1c2-0.4,4-0.6,6-0.6c1.1,0,2.1,0,3.2,0.1c2.4,0.2,4.8,0.7,7.1,1.5
		c1.7,0.5,3.3,1.2,4.8,2c0.8,0.4,1.8,0.1,2.2-0.7c0.4-0.8,0.1-1.8-0.7-2.3c-0.5-0.3-1-0.5-1.5-0.8c-2.7-1.2-5.5-2.1-8.4-2.6
		c-2-0.4-4.1-0.6-6.2-0.6C217.9,23.1,217.4,23.1,217,23.1z M218.1,29.3c-0.7,0-1.4,0-2.2,0.1c-1.4,0.1-2.7,0.3-4,0.6
		c-0.7,0.2-1.2,0.8-1.1,1.5c0.1,0.7,0.7,1.2,1.5,1.2c0.3,0,0.6-0.1,0.9-0.2c1.5-0.3,3-0.4,4.6-0.5c1,0,2,0,3,0.1
		c1.9,0.2,3.7,0.6,5.5,1.2c1.5,0.5,3,1.1,4.4,1.9c0.7,0.4,1.5,0.1,1.8-0.6c0.3-0.7,0.1-1.5-0.6-1.8c-1.7-0.9-3.4-1.6-5.2-2.2
		C223.9,29.7,221,29.3,218.1,29.3z M218.2,34.8c-0.9,0-1.7,0-2.4,0.1c-1.1,0.1-2.2,0.3-3.2,0.5c-0.6,0.1-1,0.7-0.9,1.3
		c0.1,0.6,0.7,0.9,1.3,0.8c1.6-0.4,3.2-0.6,4.8-0.6c0.7,0,1.5,0,2.2,0.1c1.8,0.2,3.6,0.6,5.3,1.2c1.2,0.4,2.3,0.9,3.4,1.6
		c0.2,0.1,0.3,0.1,0.5,0.1c0.5,0,0.9-0.4,1-0.8c0.1-0.5-0.1-0.9-0.5-1.2c-1.4-0.8-2.9-1.4-4.4-1.9C223,35.1,220.5,34.8,218.2,34.8z"
		/>
</g>
</svg>
