<?xml version="1.0" encoding="utf-8"?>
<!-- Generator: Adobe Illustrator 19.1.0, SVG Export Plug-In . SVG Version: 6.00 Build 0)  -->
<svg version="1.1" id="Layer_1" xmlns="http://www.w3.org/2000/svg" xmlns:xlink="http://www.w3.org/1999/xlink" x="0px" y="0px"
	 viewBox="0 0 252 62" style="enable-background:new 0 0 252 62;" xml:space="preserve">
<style type="text/css">
	.st0{fill:#2A35FF;}
	.st1{fill:#FFFFFF;}
</style>
<g>
	<path class="st0" d="M221,60.7H31C14.6,60.7,1.3,47.4,1.3,31v0C1.3,14.6,14.6,1.3,31,1.3h190c16.4,0,29.7,13.3,29.7,29.7v0
		C250.7,47.4,237.4,60.7,221,60.7z"/>
	<g>
		<path class="st1" d="M61.6,37.1h-1.5v-4.6l-5.2-9h1.6l4.4,7.1l4.3-7.1h1.6l-5.1,8.9V37.1z"/>
		<path class="st1" d="M81.1,30.3c0,3.8-3.1,6.9-7.1,6.9c-4,0-7.1-3-7.1-6.9c0-3.8,3.1-6.8,7.1-6.8C78,23.5,81.1,26.5,81.1,30.3z
			 M68.5,30.3c0,3,2.5,5.4,5.5,5.4c3,0,5.5-2.4,5.5-5.4c0-3-2.5-5.3-5.5-5.3C71,25,68.5,27.3,68.5,30.3z"/>
		<path class="st1" d="M95,31.5c0,3.5-2.1,5.7-5.7,5.7c-3.6,0-5.7-2.1-5.7-5.7v-8h1.5v8c0,2.6,1.6,4.2,4.2,4.2
			c2.6,0,4.1-1.5,4.1-4.2v-8H95V31.5z"/>
		<path class="st1" d="M102.9,25v12.1h-1.5V25h-4.4v-1.5h10.4V25H102.9z"/>
		<path class="st1" d="M120.7,31.5c0,3.5-2.1,5.7-5.7,5.7c-3.6,0-5.7-2.1-5.7-5.7v-8h1.5v8c0,2.6,1.6,4.2,4.2,4.2
			c2.6,0,4.1-1.5,4.1-4.2v-8h1.5V31.5z"/>
		<path class="st1" d="M130.2,23.5c2.7,0,4.4,1.3,4.4,3.4c0,1.6-0.9,2.7-2.5,3.1c2,0.3,3.1,1.6,3.1,3.4c0,2.3-1.8,3.7-4.9,3.7h-5.8
			V23.5H130.2z M126,29.4h4.1c1.8,0,2.9-0.8,2.9-2.2c0-1.4-1.1-2.1-2.9-2.1H126V29.4z M126,35.6h4.1c2.2,0,3.5-0.9,3.5-2.4
			c0-1.5-1.3-2.3-3.5-2.3H126V35.6z"/>
		<path class="st1" d="M139.9,25v4.5h6.8V31h-6.8v4.6h7.9v1.5h-9.4V23.5h9.2V25H139.9z"/>
	</g>
	<path class="st1" d="M236.2,22.4c-0.4-1.5-1.6-2.7-3.2-3.2c-2.8-0.7-13.9-0.7-13.9-0.7s-11.1,0-13.9,0.7c-1.5,0.4-2.7,1.6-3.2,3.2
		c-0.7,2.8-0.7,8.6-0.7,8.6s0,5.8,0.7,8.6c0.4,1.5,1.6,2.7,3.2,3.2c2.8,0.7,13.9,0.7,13.9,0.7s11.1,0,13.9-0.7
		c1.5-0.4,2.7-1.6,3.2-3.2C237,36.8,237,31,237,31S237,25.2,236.2,22.4z M215,36.3V25.7l9.3,5.3L215,36.3z"/>
</g>
</svg>
