<?xml version="1.0" encoding="utf-8"?>
<!-- Generator: Adobe Illustrator 19.1.0, SVG Export Plug-In . SVG Version: 6.00 Build 0)  -->
<svg version="1.1" id="Layer_1" xmlns="http://www.w3.org/2000/svg" xmlns:xlink="http://www.w3.org/1999/xlink" x="0px" y="0px"
	 viewBox="0 0 525 200" style="enable-background:new 0 0 525 200;" xml:space="preserve">
<style type="text/css">
	.st0{fill:#F92322;}
</style>
<g>
	<path class="st0" d="M78.1,3.9H3.8v192.1h74.3c26.6,0,48.1-21.5,48.1-48.1V52C126.2,25.5,104.7,3.9,78.1,3.9z M71,144.2
		c0,2.4-2,4.4-4.4,4.4h-6.8V50.5h6.8c2.4,0,4.4,2,4.4,4.4V144.2z"/>
	<polygon class="st0" points="140.9,3.9 140.9,196.1 195.1,196.1 195.1,119.3 233.9,119.3 233.9,78.5 195.3,78.5 195.3,50.5 
		233.9,50.5 233.9,3.9 	"/>
	<path class="st0" d="M244.8,3.9l18.3,192.1h61.1l5-123c0-0.5,0.8-0.5,0.8,0l5.5,123h61.1L415.4,3.9h-54.9l-4,144.6
		c0,1.1-1.6,1.1-1.7,0L345.6,3.9H314l-8.6,144c-0.1,1.1-1.6,1-1.7,0L299.2,3.9H244.8z"/>
	<polygon class="st0" points="427,3.9 521.2,3.9 521.2,50.6 481.4,50.6 481.4,75.8 518.7,75.8 518.7,117.3 481.1,117.3 481.1,149 
		521.2,149 521.2,196.1 427,196.1 	"/>
</g>
</svg>
