<?xml version="1.0" encoding="utf-8"?>
<!-- Generator: Adobe Illustrator 19.1.0, SVG Export Plug-In . SVG Version: 6.00 Build 0)  -->
<svg version="1.1" id="Layer_1" xmlns="http://www.w3.org/2000/svg" xmlns:xlink="http://www.w3.org/1999/xlink" x="0px" y="0px"
	 viewBox="0 0 32 32" style="enable-background:new 0 0 32 32;" xml:space="preserve">
<style type="text/css">
	.st0{fill:#FFFFFF;}
</style>
<g>
	<g>
		<path class="st0" d="M3.5,17.1c0-0.7,0-1.3,0-2c0.1,0,0-0.1,0-0.1c0-0.1,0-0.2,0-0.3c0.1-0.8,0.2-1.6,0.5-2.3
			c0.5-1.7,1.4-3.2,2.6-4.6C7.8,6.6,9,5.6,10.4,4.9c0.7-0.4,1.5-0.6,2.2-0.9c0.7-0.2,1.5-0.3,2.3-0.4c0,0,0.1,0,0.1,0
			c0.7,0,1.3,0,2,0c0,0,0,0,0.1,0c0.9,0.1,1.7,0.2,2.5,0.5c0.5,0.2,1,0.3,1.4,0.5c0.6,0.3,1.2,0.6,1.7,0.9c1.3,0.9,2.4,1.9,3.4,3.2
			c0.8,1.1,1.4,2.3,1.8,3.6c0.3,0.8,0.4,1.7,0.5,2.6c0,0,0,0.1,0,0.1c0,0.6,0,1.3,0,1.9c-0.1,0,0,0,0,0c0,0.3-0.1,0.6-0.1,0.8
			c-0.1,0.4-0.1,0.8-0.2,1.2c-0.5,2.1-1.5,3.9-3,5.5c-0.4,0.4-0.9,0.8-1.3,1.2c-1.7,1.3-3.5,2.2-5.6,2.6c0,0-0.1,0-0.1,0
			c0.1,0,0.1-0.1,0.1-0.2c0-2.8,0-5.7,0-8.5c0-0.2,0-0.2,0.2-0.2c0.8,0,1.6,0,2.5,0c0.1,0,0.1,0,0.1-0.1c0-0.3,0.1-0.6,0.1-0.9
			c0.1-0.8,0.3-1.6,0.4-2.5c-0.1,0-0.1,0-0.1,0c-1,0-2,0-3,0c-0.1,0-0.1,0-0.1-0.1c0-0.8,0-1.5,0-2.3c0-0.2,0-0.3,0-0.5
			c0.1-0.6,0.4-1,1-1.1c0.3-0.1,0.6-0.1,0.9-0.1c0.5,0,1,0,1.5,0c0.1,0,0.1,0,0.1-0.1c0-1,0-2,0-3c0-0.1,0-0.1-0.1-0.1
			c-0.4,0-0.8-0.1-1.1-0.1c-0.7-0.1-1.5-0.1-2.3,0c-0.7,0.1-1.3,0.3-1.9,0.6c-0.6,0.3-1,0.7-1.4,1.2C14.3,11.1,14,12.1,14,13
			c0,1,0,1.9,0,2.9c0,0.1,0,0.1-0.1,0.1c-1,0-1.9,0-2.9,0c-0.1,0-0.1,0-0.1,0.1c0,1.1,0,2.1,0,3.2c0,0.1,0,0.1,0.1,0.1
			c0.9,0,1.9,0,2.8,0c0.1,0,0.2,0,0.2,0.2c0,2.8,0,5.6,0,8.5c0,0.1,0,0.1,0,0.2c0,0.1-0.1,0.1-0.1,0c-1.1-0.2-2.2-0.5-3.2-1
			C8,26,5.9,24,4.6,21.2C4,19.9,3.7,18.6,3.5,17.1C3.6,17.1,3.6,17,3.5,17.1z"/>
	</g>
</g>
</svg>
