<?xml version="1.0" encoding="utf-8"?>
<!-- Generator: Adobe Illustrator 19.1.0, SVG Export Plug-In . SVG Version: 6.00 Build 0)  -->
<svg version="1.1" id="Layer_1" xmlns="http://www.w3.org/2000/svg" xmlns:xlink="http://www.w3.org/1999/xlink" x="0px" y="0px"
	 viewBox="0 0 32 32" style="enable-background:new 0 0 32 32;" xml:space="preserve">
<style type="text/css">
	.st0{fill:#FFFFFF;}
</style>
<g>
	<g>
		<path class="st0" d="M16,28.4c-2.2-0.1-4.4-0.1-6.7-0.3c-3.2-0.4-4.8-1.6-5.2-4.8c-0.7-4.8-0.7-9.6,0-14.4
			c0.4-3.1,1.7-4.3,4.8-4.8c4.7-0.7,9.5-0.7,14.2,0c3.1,0.4,4.4,1.7,4.9,4.9c0.7,4.7,0.7,9.5,0,14.2c-0.5,3.3-2.1,4.6-5.4,5
			C20.4,28.3,18.2,28.4,16,28.4z M16,26c2,0,4.1,0,6.1-0.2c2.4-0.2,3.5-1.3,3.6-3.7c0.3-4.1,0.3-8.1,0-12.2
			c-0.2-2.4-1.3-3.5-3.6-3.6C18,6,14,6,9.9,6.3C7.5,6.4,6.4,7.5,6.3,10C6,14.1,6,18.1,6.3,22.2c0.2,2.3,1.3,3.4,3.6,3.6
			C11.9,26,13.9,25.9,16,26z"/>
		<path class="st0" d="M16,9.9c3.4,0,6.2,2.7,6.2,6.2c0,3.4-2.8,6.2-6.2,6.2c-3.4,0-6.1-2.7-6.2-6.1C9.8,12.7,12.6,9.9,16,9.9z
			 M16,19.8c2,0,3.8-1.7,3.8-3.7c0-2-1.7-3.7-3.7-3.7c-2,0-3.8,1.7-3.8,3.7C12.2,18,14,19.7,16,19.8z"/>
		<path class="st0" d="M23.4,9.9c0,0.7-0.6,1.2-1.3,1.2c-0.7,0-1.2-0.5-1.2-1.2c0-0.7,0.5-1.2,1.2-1.2C22.9,8.6,23.4,9.2,23.4,9.9z"
			/>
	</g>
</g>
</svg>
