<?xml version="1.0" encoding="utf-8"?>
<!-- Generator: Adobe Illustrator 19.1.0, SVG Export Plug-In . SVG Version: 6.00 Build 0)  -->
<svg version="1.1" id="Layer_1" xmlns="http://www.w3.org/2000/svg" xmlns:xlink="http://www.w3.org/1999/xlink" x="0px" y="0px"
	 viewBox="0 0 1850 100" style="enable-background:new 0 0 1850 100;" xml:space="preserve">
<style type="text/css">
	.st0{fill:#F92322;}
</style>
<g>
	<polygon class="st0" points="115.1,7.2 99.5,92.8 126,92.8 140.7,7.2 	"/>
	<polygon class="st0" points="1,92.7 27.4,92.7 34.5,42.2 32.1,87.4 43.6,87.4 56.5,42.2 46.1,92.7 73.5,92.7 85.2,7.3 55.3,7.3 
		45.6,45.1 50.1,7.3 20.1,7.3 	"/>
	<polygon class="st0" points="976.1,92.7 1002.5,92.7 1009.6,42.2 1007.3,87.4 1018.8,87.4 1031.7,42.2 1021.2,92.7 1048.6,92.7 
		1060.3,7.3 1030.5,7.3 1020.8,45.1 1025.2,7.3 995.3,7.3 	"/>
	<polygon class="st0" points="173,6.9 156.5,93.1 183.3,93.1 190.6,53.7 187.7,93.1 215.6,93.1 215.6,45.4 229.4,6.9 202.2,6.9 
		193,40.5 198,6.9 	"/>
	<polygon class="st0" points="1177.2,6.9 1160.8,93.1 1187.5,93.1 1194.8,53.7 1191.9,93.1 1219.8,93.1 1219.8,45.4 1233.6,6.9 
		1206.4,6.9 1197.2,40.5 1202.2,6.9 	"/>
	<polygon class="st0" points="254.8,7.8 260.3,62.1 254.8,92.6 280.8,92.6 287.1,64.1 312,7.8 287.1,7.8 278.2,45.2 281.3,7.8 	"/>
	<polygon class="st0" points="1090.2,7.8 1095.8,62.1 1090.2,92.6 1116.3,92.6 1122.5,64.1 1147.5,7.8 1122.5,7.8 1113.6,45.2 
		1116.7,7.8 	"/>
	<polygon class="st0" points="387.2,7.2 380.2,93.2 408.7,93.2 419.2,41.5 412.9,93.2 441.1,93.2 464.2,7.2 438.2,7.2 427.3,66.8 
		433.5,7.2 417.8,7.2 403.8,66.8 412.7,7.2 	"/>
	<polygon class="st0" points="1537.1,7.2 1530.1,93.2 1558.6,93.2 1569.1,41.5 1562.8,93.2 1591,93.2 1614.1,7.2 1588.2,7.2 
		1577.2,66.8 1583.4,7.2 1567.7,7.2 1553.7,66.8 1562.6,7.2 	"/>
	<path class="st0" d="M523.1,4.7h-8.3c-13.2,0-24.5,9.3-27,22.2l-9.1,46.2c-2.3,11.5,6.5,22.2,18.3,22.2h10.4c13,0,24.2-9.2,26.8-22
		l8.8-44.6C545.4,16.3,535.9,4.7,523.1,4.7z M516.9,30l-7.2,40.2c-0.2,1.1-1.1,1.9-2.2,1.9c-1.4,0-2.5-1.3-2.2-2.7l7.2-40.2
		c0.2-1.1,1.1-1.9,2.2-1.9h0C516.1,27.3,517.1,28.6,516.9,30z"/>
	<path class="st0" d="M608,4.7h-8.3c-13.2,0-24.5,9.3-27,22.2l-9.1,46.2c-2.3,11.5,6.5,22.2,18.3,22.2h10.4c13,0,24.2-9.2,26.8-22
		l8.8-44.6C630.3,16.3,620.7,4.7,608,4.7z M601.8,30l-7.2,40.2c-0.2,1.1-1.1,1.9-2.2,1.9c-1.4,0-2.5-1.3-2.2-2.7l7.2-40.2
		c0.2-1.1,1.1-1.9,2.2-1.9h0C600.9,27.3,602,28.6,601.8,30z"/>
	<path class="st0" d="M1486.3,4.7h-8.3c-13.2,0-24.5,9.3-27,22.2l-9.1,46.2c-2.3,11.5,6.5,22.2,18.3,22.2h10.4
		c13,0,24.2-9.2,26.8-22l8.8-44.6C1508.5,16.3,1499,4.7,1486.3,4.7z M1480,30l-7.2,40.2c-0.2,1.1-1.1,1.9-2.2,1.9
		c-1.4,0-2.5-1.3-2.2-2.7l7.2-40.2c0.2-1.1,1.1-1.9,2.2-1.9h0C1479.2,27.3,1480.3,28.6,1480,30z"/>
	<path class="st0" d="M695.1,7.3H660l-15.6,86H679c12.4,0,23.1-8.8,25.4-21l8.4-43.5C715,17.7,706.4,7.3,695.1,7.3z M685.3,31.4
		l-6.8,38.4c-0.3,1.6-1.7,2.8-3.3,2.8h-1.1l7.9-45.1C684,27.5,685.6,29.4,685.3,31.4z"/>
	<polygon class="st0" points="741.6,7.2 786.8,7.2 783.2,29 756,72.5 777.9,72.5 772.2,93.2 725.1,93.2 729.6,71.7 757.1,28.4 
		737.5,28.4 	"/>
	<polygon class="st0" points="859.7,33.3 880.3,33.3 880.3,55.1 883.7,55.1 891.2,33.3 910.8,33.3 897.1,61.1 904.5,93.2 
		878.4,93.2 880.3,68.4 878.5,68.4 871.9,93.2 846.2,93.2 863.1,61.1 	"/>
	<polygon class="st0" points="1259.2,8 1246.2,91.8 1286.6,91.8 1289.9,74.4 1271.9,74.4 1275.3,57.8 1292.4,57.8 1295.7,41.3 
		1279.2,41.3 1281.4,27.9 1298.8,27.9 1302.8,8 	"/>
	<polygon class="st0" points="1639.5,8 1626.6,91.8 1666.9,91.8 1670.2,74.4 1652.2,74.4 1655.7,57.8 1672.7,57.8 1676,41.3 
		1659.5,41.3 1661.7,27.9 1679.1,27.9 1683.1,8 	"/>
	<polygon class="st0" points="1376.8,7.4 1425.8,7.4 1420.6,28.8 1410,28.8 1397.7,93.6 1373.6,93.6 1384.6,28.6 1372.8,28.6 	"/>
	<path class="st0" d="M1746.6,7.2h-34.2l-15.8,86h25.8l5.1-31.6h2.7l-3.8,31.6h29.2l-6-33.4c5,0,12.1-7.4,13-15.4l2.5-15.5
		C1766.9,17.5,1758.1,7.2,1746.6,7.2z M1738.6,29.7l-3.7,18.2c-0.2,1-1.1,1.7-2.1,1.7c-1.3,0-2.3-1.2-2.1-2.5l3.5-18.2
		c0.2-1,1.1-1.7,2.1-1.7h0.2C1737.8,27.2,1738.8,28.4,1738.6,29.7z"/>
	<path class="st0" d="M1821.1,39.2h27l0.9-13c0.7-11.1-8.1-20.5-19.2-20.5h-10c-15.2,0-27.8,11.6-29.1,26.7l-0.2,2.8
		c0,0-0.7,14.3,13.1,20.2c2.3,1,4.7,3,6.6,4.5c3,2.4,6.2,6,5.8,10.8v0.7c0,1.4-1.1,2.5-2.5,2.5l0,0c-1.4,0-2.5-1.1-2.5-2.5l0.9-8.8
		h-25.5l-1.3,13.4c-1,10.3,7.1,19.1,17.4,19.1h14c13.7,0,25-10.9,25.4-24.6v0c0.2-6.9-2.1-13.6-6.7-18.8c-3.5-3.9-9.4-8.4-17.3-13.4
		l0.8-8.6c0-0.8,0.7-1.5,1.5-1.5l0,0c0.9,0,1.6,0.7,1.5,1.6L1821.1,39.2z"/>
</g>
</svg>
