<?xml version="1.0" encoding="utf-8"?>
<!-- Generator: Adobe Illustrator 19.1.0, SVG Export Plug-In . SVG Version: 6.00 Build 0)  -->
<svg version="1.1" id="Layer_1" xmlns="http://www.w3.org/2000/svg" xmlns:xlink="http://www.w3.org/1999/xlink" x="0px" y="0px"
	 viewBox="0 0 32 32" style="enable-background:new 0 0 32 32;" xml:space="preserve">
<style type="text/css">
	.st0{fill:#FFFFFF;}
</style>
<g>
	<g>
		<path class="st0" d="M17.5,5.6c2.1,0,5.6,0,9.1,0.5c2.2,0.3,3.4,1.5,3.7,3.7c0.5,4.2,0.6,8.3,0,12.5c-0.3,2.1-1.4,3.3-3.6,3.5
			c-4.5,0.6-9.1,0.6-13.6,0.5c-2.5-0.1-5.1-0.1-7.6-0.4c-2.5-0.4-3.5-1.5-3.8-4c-0.5-3.8-0.4-7.7,0-11.5c0.3-3,1.6-4.2,4.6-4.5
			C9.5,5.7,12.7,5.6,17.5,5.6z M13.1,20.3c2.6-1.5,4.9-2.9,7.5-4.4c-2.6-1.5-5-2.9-7.5-4.3C13.1,14.6,13.1,17.4,13.1,20.3z"/>
	</g>
</g>
</svg>
